<svg width="812" height="777" viewBox="0 0 812 777" fill="none" xmlns="http://www.w3.org/2000/svg">
<ellipse cx="406.467" cy="572.342" rx="405.533" ry="203.751" fill="#2B3244" fill-opacity="0.46"/>
<path d="M414.625 378.418C213.04 378.418 144.927 467.005 136.068 511.299C130.711 551.102 189.489 633.412 403.798 639.258C543.123 643.058 620.673 561.17 641.999 522.126C650.202 474.223 616.211 378.418 414.625 378.418Z" fill="#00081E"/>
<path d="M648.923 519.503C648.923 520.227 648.988 520.95 649.003 521.674C649.003 518.526 649.003 515.277 649.046 511.797L648.967 512.086C648.952 514.59 648.931 516.971 648.923 519.503Z" fill="#AC928F"/>
<path d="M130.557 512.607L131.142 514.511L131.467 515.466L131.785 516.283L132.421 517.919L133.73 521.16L133.664 521.008L134.235 522.34L134.662 523.215L135.58 525.089L137.415 528.852L137.69 529.38L137.972 529.923L138.514 530.857L139.591 532.709L141.759 536.392L141.802 536.457L142.033 536.797L142.171 536.993L146.507 543.382L146.384 543.201L146.89 543.925L147.208 544.344L147.931 545.184L149.275 546.848L151.978 550.241L157.926 556.812L157.861 556.739L158.374 557.268L158.786 557.666L159.602 558.461L161.243 560.082L162.905 561.689L163.736 562.477C164.018 562.76 164.249 562.984 164.603 563.295L171.693 569.395L171.773 569.467L171.946 569.598L172.062 569.677L175.805 572.571L177.728 574.019L178.689 574.742L179.173 575.126L179.419 575.307H179.477L179.657 575.444L179.722 575.488L179.823 575.538L187.932 581.016L187.773 580.893L187.918 580.987L188.062 581.124L196.959 586.399L196.821 586.284L196.908 586.341L197.053 586.443C197.335 586.609 197.609 586.747 197.891 586.891C200.782 588.418 203.673 589.938 206.563 591.414C203.673 589.33 200.741 587.263 197.768 585.213L197.913 585.321L197.84 585.271L197.71 585.162L189.602 579.033L189.464 578.917L181.869 572.687L181.565 572.499H181.616L181.724 572.586L181.674 572.528L181.457 572.333L181.001 571.913L180.105 571.103L178.327 569.482L174.714 566.276L174.504 566.117L174.288 565.929L174.548 566.132L168.123 559.728C167.921 559.525 167.617 559.185 167.4 558.903L166.634 558.049L165.095 556.341L163.541 554.648L162.768 553.802L162.377 553.36L162.103 553.049L162.038 552.969L156.769 546.508L154.283 543.035L153.033 541.291L152.411 540.415L152.173 540.082V540.039L152.021 539.8L151.905 539.619L147.916 533.295L147.67 532.94L147.381 532.513L147.663 532.897L147.345 532.333L145.719 529.301L144.743 527.499L144.259 526.616L144.071 526.218L143.891 525.813L142.171 522L141.311 520.082L140.942 519.272L140.899 519.178L140.812 518.939L140.624 518.44L140.566 518.317L139.475 515.278L138.926 513.758L138.637 513.034L138.601 512.926C138.601 512.882 138.731 513.346 138.666 513.15V513.092L138.601 512.882L138.463 512.412L137.488 509.192L137.003 507.579L136.584 506.081L136.685 506.587L136.555 505.929L136.461 505.509L135.139 499.069L135.059 498.693L135.009 498.251L134.908 497.383L134.683 495.647L134.59 494.923L134.25 492.137V492.651L134.178 491.667C134.178 492.05 134.178 491.725 134.178 491.84V491.761V491.623V491.348L134.134 490.205L134.04 487.955L133.939 485.704V485.429V484.865L133.982 483.787C133.988 480.841 134.164 477.899 134.51 474.974C134.676 473.577 134.806 472.18 135.001 470.777L135.847 466.544C136.281 463.7 137.292 460.958 138.015 458.164C138.919 455.422 139.916 452.694 140.906 449.988L142.662 446.001C143.219 444.657 143.847 443.343 144.541 442.065C145.929 439.51 147.186 436.884 148.805 434.431L151.125 430.704C151.884 429.46 152.78 428.295 153.604 427.086L156.148 423.468L158.908 420.017C159.834 418.881 160.73 417.716 161.684 416.587L164.524 413.244C165.5 412.151 166.468 411.023 167.48 409.944L170.616 406.79L173.753 403.635L177.063 400.646L180.358 397.636C181.471 396.652 182.642 395.719 183.777 394.742C186.089 392.831 188.351 390.899 190.772 389.119C193.194 387.339 195.484 385.407 197.963 383.707L198.195 383.548L205.32 378.483L197.291 382.665C194.617 384.112 192.088 385.726 189.464 387.238C186.841 388.75 184.405 390.523 181.869 392.216C180.611 393.07 179.339 393.895 178.118 394.807L174.504 397.564L170.891 400.357L167.415 403.352L163.946 406.355C162.833 407.397 161.778 408.468 160.643 409.532L157.384 412.766C156.328 413.881 155.331 415.046 154.305 416.182L151.233 419.619L148.343 423.237C147.41 424.452 146.406 425.625 145.524 426.855L142.937 430.711C141.137 433.237 139.706 435.979 138.138 438.671C137.329 440.01 136.693 441.406 135.97 442.81L133.946 447.014C132.768 449.908 131.569 452.803 130.6 455.762C129.776 458.772 128.699 461.739 128.165 464.836L127.203 469.431C126.965 470.994 126.792 472.6 126.582 474.192C126.209 477.244 125.996 480.314 125.946 483.389L125.895 484.525V485.697V485.979L126.018 488.23L126.148 490.466L126.199 491.602L126.257 492.427V492.55V493.056L126.727 496.522L126.972 498.259L127.081 499.141L127.153 499.568C127.169 499.732 127.195 499.893 127.232 500.053L127.435 501.066L127.623 501.963L128.027 503.743L128.815 507.318L128.728 506.898L128.859 507.39L128.945 507.919L129.451 509.655L129.617 510.155L129.95 511.262L130.557 512.607Z" fill="#4FC2E2"/>
<path d="M590.016 391.312L598.327 398.2C600.936 400.689 603.675 402.99 606.277 405.501L610.035 409.315C611.307 410.574 612.543 411.854 613.692 413.222C616.062 415.892 618.491 418.49 620.615 421.333C621.699 422.737 622.827 424.098 623.882 425.538L626.881 429.879L628.377 432.05L629.743 434.315L632.475 438.844C633.306 440.386 634.079 441.963 634.881 443.519L636.074 445.856C636.457 446.652 636.753 447.477 637.107 448.287L639.117 453.128L640.786 458.106C641.061 458.931 641.364 459.734 641.61 460.567L642.253 463.114C642.651 464.8 643.164 466.471 643.474 468.179C644.137 471.588 644.595 475.033 644.848 478.497C645.267 481.949 645.036 485.408 645.129 488.881C645.079 491.27 644.888 493.655 644.558 496.023C644.436 497.079 644.298 498.114 644.19 499.148C643.604 502.597 642.83 506.01 641.87 509.373L641.147 511.963L640.967 512.607L640.916 512.781L640.808 513.07L640.338 514.337L639.615 516.276L638.517 519.351L638.416 519.662C638.388 519.748 638.351 519.83 638.307 519.908L637.989 520.632L637.931 520.762L637.353 522.065L636.125 524.821L635.496 526.269C635.366 526.587 635.033 527.151 634.816 527.571L633.422 530.212L631.976 532.962C631.564 533.685 630.914 534.691 630.408 535.538C629.454 537.043 628.24 539.156 627.206 540.603L623.672 545.668C622.624 547.209 621.063 548.939 619.907 550.437L617.949 552.882C617.392 553.606 616.59 554.402 615.918 555.162L611.82 559.742L607.52 564.084L605.352 566.254L603.032 568.345L598.45 572.535L593.716 576.479C592.097 577.796 590.529 579.113 588.845 580.357L583.902 584.156C582.262 585.451 580.534 586.558 578.843 587.774L573.784 591.392L579.342 588.497C580.238 588.027 581.163 587.55 582.081 587.05C582.999 586.551 583.953 586.045 584.842 585.48L590.233 582.253C592.047 581.211 593.781 579.988 595.501 578.852L600.748 575.234L605.749 571.406L608.214 569.489L610.628 567.419L615.455 563.208L617.703 561.037L620.016 558.772C620.738 557.991 621.461 557.383 622.256 556.486L624.352 554.163C625.833 552.448 627.163 551.167 628.58 549.329L632.504 544.351C633.949 542.448 634.874 540.987 636.204 539.004C636.797 538.092 637.324 537.369 637.967 536.298L639.536 533.591L641.169 530.755C641.429 530.248 641.66 529.937 641.964 529.308L642.687 527.911L644.089 525.017L644.768 523.57L645.108 522.846C645.327 522.417 645.502 521.966 645.628 521.5L645.476 521.963L647.522 516.79L648.006 515.509L648.129 515.198L648.237 514.843L648.295 514.698L648.476 514.047L648.584 513.714L648.7 513.324L649.104 511.934L649.184 511.645L649.256 511.406C650.317 507.81 651.188 504.161 651.865 500.473C652.473 496.701 652.868 492.899 653.05 489.083C653.05 485.299 653.195 481.507 652.711 477.73C652.395 473.963 651.854 470.217 651.092 466.515C650.73 464.662 650.159 462.897 649.704 461.037L648.981 458.287C648.707 457.39 648.367 456.507 648.064 455.624C647.442 453.837 646.813 452.064 646.141 450.306L643.814 445.183C643.417 444.329 643.091 443.461 642.636 442.622L641.277 440.176C640.374 438.54 639.492 436.883 638.553 435.27L635.51 430.567L633.985 428.237L632.287 426.015L628.905 421.601C627.72 420.154 626.469 418.794 625.255 417.397C622.885 414.539 620.196 411.977 617.623 409.373C616.337 408.041 614.949 406.818 613.555 405.617L609.413 401.999C606.58 399.647 603.632 397.412 600.741 395.197L591.678 389.018L582.283 383.396L572.498 378.511L580.122 383.88L581.409 384.77L590.016 391.312ZM638.437 519.597C638.437 519.539 638.437 519.518 638.437 519.597Z" fill="#4FC2E2"/>
<path d="M653.173 613.165H653.115C652.797 612.977 652.45 612.839 652.111 612.68C651.771 612.521 651.475 612.362 651.149 612.239C650.824 612.116 650.383 612.022 650.015 611.913C649.646 611.805 649.357 611.696 649.01 611.624C648.663 611.551 648.179 611.515 647.753 611.464C647.326 611.414 647.081 611.356 646.734 611.341C646.387 611.327 645.801 611.341 645.346 611.341C644.999 611.341 644.623 611.341 644.305 611.341C643.821 611.392 643.322 611.493 642.86 611.573C642.499 611.638 642.137 611.653 641.79 611.747C641.277 611.841 640.735 612.036 640.2 612.188C639.846 612.289 639.478 612.354 639.145 612.485C638.56 612.673 637.967 612.948 637.375 613.208C637.042 613.338 636.724 613.462 636.392 613.606C635.46 614.04 634.506 614.525 633.559 615.053C618.31 623.874 605.988 645.242 606.038 662.81C606.038 663.903 606.096 664.981 606.183 665.965C606.226 666.392 606.32 666.797 606.371 667.21C606.443 667.76 606.515 668.331 606.609 668.867C606.703 669.294 606.819 669.677 606.927 670.082C607.036 670.488 607.158 671.059 607.303 671.53C607.448 672 607.592 672.253 607.729 672.651C607.867 673.049 608.055 673.52 608.228 673.903C608.401 674.287 608.589 674.554 608.77 674.894C608.951 675.234 609.175 675.661 609.392 676.023C609.608 676.385 609.818 676.559 610.02 676.841C610.223 677.123 610.505 677.564 610.743 677.825C610.971 678.079 611.212 678.321 611.466 678.549C611.521 678.621 611.584 678.686 611.654 678.744C611.654 678.918 611.733 679.091 611.762 679.265C602.839 674.065 593.909 668.867 584.971 663.671C580.043 660.777 575.111 657.912 570.178 655.075C568.997 654.37 567.927 653.492 567.005 652.47C564.598 649.836 563.009 646.096 562.409 641.392C562.467 641.074 562.524 640.712 562.582 640.3C562.705 639.446 562.864 638.411 562.987 637.246C563.24 636.11 563.522 634.8 563.84 633.404C564.137 631.897 564.531 630.41 565.018 628.954C565.249 628.172 565.48 627.391 565.74 626.566L566.702 624.149C567.005 623.324 567.323 622.492 567.641 621.645C567.959 620.799 568.429 620.003 568.805 619.156C569.527 617.448 570.46 615.835 571.349 614.171C572.237 612.506 573.293 610.965 574.203 609.337C575.251 607.81 576.234 606.255 577.275 604.815C578.315 603.375 579.313 601.92 580.353 600.668C581.394 599.417 582.355 598.15 583.244 597.05C585.109 594.829 586.699 592.962 587.848 591.681L589.669 589.655C591.745 588.425 593.963 587.453 596.275 586.761C601.283 585.314 605.778 585.661 609.283 587.716L629.779 599.641L639.377 605.213L653.173 613.165Z" fill="#00081E" stroke="#4FC2E2" stroke-linejoin="round"/>
<path d="M651.148 612.231C650.787 612.087 650.382 612.014 650.014 611.906C649.645 611.797 649.356 611.689 649.009 611.616C648.662 611.544 648.178 611.508 647.752 611.464C647.325 611.421 647.08 611.356 646.733 611.341C646.386 611.327 645.808 611.341 645.345 611.341C644.998 611.341 644.622 611.341 644.304 611.341C643.82 611.392 643.321 611.493 642.859 611.573C642.498 611.638 642.136 611.652 641.789 611.746C641.276 611.848 640.734 612.036 640.207 612.188C639.845 612.289 639.484 612.362 639.144 612.485C638.559 612.673 637.966 612.948 637.374 613.208C637.041 613.346 636.723 613.461 636.391 613.606C635.459 614.04 634.505 614.525 633.558 615.053C618.309 623.874 605.987 645.242 606.037 662.81C606.037 663.903 606.095 664.981 606.189 665.965C606.225 666.392 606.319 666.797 606.37 667.21C606.442 667.76 606.514 668.331 606.615 668.867C606.702 669.294 606.818 669.677 606.926 670.082C607.035 670.488 607.157 671.059 607.309 671.53C607.461 672 607.591 672.253 607.728 672.658C607.866 673.064 608.054 673.527 608.227 673.903C608.4 674.279 608.588 674.554 608.769 674.894C608.95 675.234 609.174 675.661 609.391 676.023C609.607 676.385 609.817 676.559 610.019 676.841C610.222 677.123 610.504 677.564 610.742 677.825C610.968 678.081 611.209 678.323 611.465 678.548C611.53 678.628 611.588 678.679 611.653 678.751C611.32 676.817 611.149 674.859 611.14 672.897C611.14 665.531 613.568 658.237 618.164 651.645C618.273 651.493 618.41 651.334 618.518 651.175C620.043 641.87 626.468 631.833 634.266 627.34C640.409 623.787 645.764 624.67 648.51 628.91C652.442 627.248 656.467 625.818 660.565 624.626C659.423 619.214 656.778 615.314 653.114 613.201C652.789 613.013 652.442 612.883 652.102 612.716C651.763 612.55 651.474 612.347 651.148 612.231Z" fill="#4FC2E2"/>
<path d="M660.935 635.459C657.289 636.617 653.717 637.997 650.239 639.59C649.032 649.149 642.405 659.757 634.383 664.417C629.844 667.022 625.768 667.239 622.82 665.48C622.042 667.858 621.645 670.344 621.642 672.847C621.652 676.079 622.305 679.277 623.564 682.253C627.143 681.732 630.583 680.502 633.682 678.635C647.652 670.553 659.128 652.029 660.935 635.459Z" fill="#4FC2E2"/>
<path d="M648.821 543.172C648.821 538.107 648.821 533.997 648.857 530.48C648.908 529.648 648.944 528.816 648.973 527.998C648.973 527.926 648.973 527.853 648.973 527.796C649.06 525.741 649.052 523.686 648.973 521.645C648.973 520.921 648.922 520.198 648.893 519.474C648.893 516.942 648.893 514.561 648.937 512.028L648.532 513.418L648.416 513.808L648.308 514.141L648.127 514.793L648.069 514.937L647.961 515.292L647.838 515.603L647.354 516.884L645.309 522.057L645.461 521.594C645.334 522.06 645.16 522.511 644.94 522.94L644.601 523.664L643.921 525.111L642.519 528.005L641.796 529.402C641.493 530.053 641.262 530.364 641.002 530.849L639.368 533.685L637.8 536.392C637.157 537.463 636.629 538.186 636.037 539.098C634.707 541.081 633.796 542.542 632.336 544.445L628.412 549.424C626.967 551.261 625.666 552.542 624.184 554.257L622.088 556.58C621.301 557.477 620.592 558.085 619.848 558.866L617.535 561.131L615.288 563.302L610.46 567.513L608.046 569.583L605.582 571.5L600.581 575.328L595.334 578.946C593.614 580.082 591.879 581.305 590.065 582.347L584.674 585.574C583.785 586.139 582.86 586.652 581.913 587.144C579.232 588.888 576.457 590.574 573.609 592.21C472.554 650.994 308.204 650.994 206.476 592.21C203.513 590.466 200.601 588.7 197.804 586.927C197.522 586.783 197.247 586.645 196.966 586.479L196.821 586.377L196.734 586.319L196.872 586.435L188.004 581.117L187.859 580.979L187.715 580.885L187.874 581.008L179.765 575.531L179.664 575.48L179.599 575.437L179.418 575.299H179.36L179.115 575.118L178.631 574.735L177.669 574.011L175.747 572.564L172.003 569.67L171.888 569.59L171.714 569.46L171.635 569.388L164.545 563.288C164.191 562.976 163.96 562.752 163.678 562.47L162.847 561.681L161.184 560.075L159.544 558.454L158.727 557.658L158.315 557.26L157.802 556.732L157.867 556.804L151.919 550.234L149.217 546.84L147.872 545.176L147.15 544.337L146.832 543.917L146.326 543.193L146.449 543.374L142.112 536.985L141.975 536.79L141.744 536.45L141.7 536.385L139.532 532.701L138.455 530.849L137.913 529.916L137.632 529.373L137.357 528.845L135.521 525.082L134.603 523.208L134.177 522.332L133.606 521.001L133.671 521.153L132.363 517.911L131.727 516.276L131.409 515.458L131.084 514.503L130.499 512.6L130.087 511.29L129.754 510.183L129.61 544.293C129.985 558.114 133.628 571.92 140.522 585.278C140.898 585.878 141.245 586.479 141.693 587.108C144.666 591.614 147.895 595.946 151.363 600.082C155.829 605.442 160.625 610.517 165.723 615.278C168.448 617.962 171.505 620.488 174.648 623.186C177.908 625.719 181.153 628.49 184.723 630.994C192.135 636.388 199.857 641.341 207.849 645.828C209.938 646.971 212.056 648.107 214.173 649.279C216.291 650.451 218.509 651.45 220.728 652.55C225.108 654.764 229.69 656.696 234.264 658.729C236.548 659.786 238.89 660.697 241.253 661.624C243.616 662.55 245.958 663.462 248.328 664.395C253.105 666.103 257.954 667.687 262.782 669.294C267.682 670.741 272.546 672.275 277.453 673.635C282.389 674.865 287.289 676.182 292.182 677.333C297.103 678.353 301.989 679.395 306.802 680.473L321.205 683.042C325.925 683.91 330.637 684.366 335.204 685.09C337.498 685.427 339.762 685.755 341.998 686.074C344.245 686.334 346.457 686.566 348.661 686.797C353.048 687.289 357.333 687.738 361.445 688.179C365.558 688.621 369.59 688.831 373.428 689.156C381.125 689.88 388.193 690.104 394.466 690.473C397.602 690.64 400.536 690.799 403.254 690.929L410.734 691.153C415.251 691.262 418.792 691.45 421.22 691.522L424.79 691.667C476.464 687.63 526.352 674.569 566.968 652.463C564.568 649.836 562.971 646.088 562.379 641.392C562.205 642.412 562.09 642.998 562.09 642.998C562.09 642.998 561.837 642.029 561.497 640.321C561.338 639.46 561.121 638.404 560.948 637.173C560.774 635.943 560.818 634.576 560.803 633.042C560.803 632.318 560.753 631.486 560.803 630.676C560.854 629.865 561.02 629.004 561.121 628.136C561.222 627.268 561.352 626.363 561.475 625.451C561.598 624.54 561.938 623.65 562.198 622.723C562.458 621.797 562.689 620.842 562.978 619.901C563.268 618.961 563.701 618.049 564.07 617.116C564.82 615.226 565.697 613.389 566.693 611.616C567.633 609.793 568.861 608.165 569.924 606.472C571.138 604.887 572.316 603.309 573.588 601.913C573.651 601.835 573.719 601.76 573.79 601.689C574.931 600.402 576.137 599.175 577.404 598.013C580.353 595.244 583.618 592.832 587.131 590.828C587.922 590.364 588.746 589.96 589.596 589.619C591.673 588.387 593.894 587.415 596.208 586.725C601.209 585.278 605.705 585.625 609.217 587.68L629.713 599.605C642.425 581.529 648.778 562.361 648.821 543.172Z" fill="#00081E" stroke="#4FC2E2" stroke-width="2" stroke-linejoin="round"/>
<path d="M133.852 485.639L133.953 487.89L134.047 490.14L134.09 491.283V491.558V491.696V491.775C134.09 491.66 134.09 491.985 134.09 491.602L134.162 492.586V492.072L134.502 494.858L134.596 495.581L134.82 497.318L134.921 498.186L134.972 498.628L135.051 499.004L136.374 505.444L136.468 505.864L136.598 506.522L136.497 506.016L136.916 507.513L137.4 509.127L138.376 512.347L138.513 512.817L138.578 513.027V513.085C138.643 513.28 138.499 512.817 138.513 512.861L138.549 512.969L138.838 513.693L139.388 515.212C150.871 491.211 172.834 468.57 205.298 449.655C306.339 390.87 470.754 390.87 572.431 449.655C605.603 468.808 627.935 491.869 639.541 516.225L640.264 514.286L640.734 513.02L640.842 512.73L640.893 512.557L641.074 511.913L641.796 509.322C642.756 505.959 643.531 502.546 644.116 499.098C644.225 498.063 644.362 497.029 644.485 495.972C644.814 493.605 645.005 491.22 645.056 488.83C644.962 485.357 645.193 481.898 644.774 478.447C644.522 474.983 644.063 471.537 643.401 468.128C643.09 466.428 642.577 464.756 642.179 463.063L641.536 460.516C641.29 459.684 640.987 458.881 640.712 458.056L639.043 453.092L637.034 448.251C636.68 447.441 636.383 446.616 636 445.82L634.808 443.483C634.005 441.927 633.232 440.35 632.401 438.808L629.669 434.279L628.303 432.014L626.807 429.843L623.808 425.502C622.753 424.054 621.64 422.701 620.542 421.298C618.417 418.454 615.989 415.856 613.618 413.186C612.469 411.818 611.233 410.538 609.961 409.279L606.203 405.465C603.638 402.954 600.898 400.653 598.253 398.164L589.942 391.276L581.335 384.713L580.048 383.823C577.562 382.267 575.033 380.726 572.41 379.192C470.704 320.414 306.289 320.414 205.276 379.192C202.841 380.639 200.492 382.086 198.172 383.533L197.941 383.692C195.462 385.393 193.142 387.31 190.75 389.105C188.358 390.899 186.067 392.817 183.754 394.727C182.62 395.69 181.449 396.623 180.336 397.622L177.04 400.632L173.73 403.62L170.594 406.775L167.457 409.93C166.446 411.008 165.477 412.101 164.501 413.229L161.524 416.522C160.57 417.651 159.674 418.816 158.749 419.952L155.988 423.403L153.444 427.021C152.62 428.215 151.724 429.38 150.965 430.639L148.645 434.366C147.027 436.819 145.755 439.431 144.381 441.999C143.687 443.278 143.06 444.592 142.502 445.936L140.746 449.923C139.742 452.629 138.744 455.357 137.855 458.099C137.133 460.892 136.15 463.635 135.687 466.479L134.842 470.712C134.647 472.115 134.517 473.512 134.35 474.908C134.004 477.833 133.828 480.776 133.823 483.722L133.779 484.8V485.364L133.852 485.639ZM426.105 398.085C422.983 398.027 419.218 397.86 414.882 397.839C410.546 397.817 405.667 397.687 400.356 397.614H383.191L373.796 397.817C372.206 397.817 370.595 397.875 368.969 397.882C367.343 397.889 365.709 398.005 364.054 398.063L353.994 398.483L343.71 399.206C341.983 399.329 340.248 399.438 338.507 399.546C336.765 399.655 335.067 399.923 333.339 400.104C329.878 400.53 326.452 400.827 322.954 401.326L312.417 402.897L311.102 403.106L309.909 403.352L307.365 403.902L302.307 404.995C298.932 405.719 295.549 406.399 292.189 407.05C290.519 407.347 288.893 407.774 287.274 408.237L282.461 409.525C279.274 410.379 276.152 411.24 273.066 412.007C269.98 412.774 267.068 413.866 264.162 414.727C261.257 415.588 258.46 416.558 255.75 417.412C253.04 418.266 250.481 419.315 247.981 420.205L240.841 422.839C238.615 423.779 236.504 424.641 234.488 425.458C230.47 427.057 227.066 428.649 224.233 429.93C221.4 431.211 219.239 432.325 217.729 433.041C216.218 433.758 215.445 434.228 215.445 434.228C215.445 434.228 216.168 433.635 217.483 432.665C218.798 431.696 220.807 430.176 223.489 428.577C226.17 426.978 229.328 424.785 233.187 422.788C235.095 421.717 237.148 420.617 239.28 419.402C241.412 418.186 243.818 417.231 246.246 416.08C248.675 414.93 251.204 413.693 253.871 412.535L262.225 409.228C265.116 408.15 268.007 406.833 271.122 405.878C274.237 404.923 277.366 403.895 280.589 402.875L285.46 401.377C287.101 400.849 288.741 400.35 290.44 399.93C293.808 399.112 297.219 398.302 300.688 397.535L305.884 396.355L308.493 395.755C308.977 395.653 309.266 395.567 309.938 395.444L311.246 395.241C314.744 394.662 318.257 394.105 321.769 393.526C325.281 392.947 328.996 392.802 332.552 392.397L337.929 391.876L343.248 391.594C346.782 391.406 350.279 391.211 353.741 391.138H363.989C367.343 391.138 370.653 391.138 373.869 391.326C377.085 391.515 380.257 391.609 383.336 391.746C389.465 392.064 395.261 392.643 400.587 393.092C405.913 393.541 410.791 394.3 415.113 394.836C419.435 395.371 423.171 396.037 426.25 396.536C432.415 397.549 435.913 398.222 435.913 398.222C435.913 398.222 432.342 398.244 426.142 398.106L426.105 398.085Z" fill="#4FC2E2"/>
<path d="M782.254 651.739C777.614 645.09 770.821 639.113 762.018 634.033C744.522 623.968 722.219 619.127 699.96 619.105C686.626 619.053 673.353 620.895 660.536 624.576C656.438 625.767 652.413 627.197 648.482 628.859C644.906 630.378 641.426 632.113 638.06 634.055C629.626 638.946 623.079 644.713 618.489 651.124C618.381 651.283 618.244 651.443 618.135 651.595C613.539 658.187 611.111 665.48 611.111 672.846C611.12 674.809 611.292 676.767 611.624 678.7C611.624 678.874 611.703 679.04 611.732 679.214C612.814 684.635 615.031 689.764 618.236 694.265C622.898 700.922 629.691 706.899 638.472 711.971C655.933 722.029 678.221 726.884 700.458 726.899C722.696 726.913 744.991 722.058 762.387 711.957C771.059 706.891 777.737 700.994 782.326 694.402C786.915 687.81 789.358 680.517 789.351 673.158C789.344 665.799 786.915 658.367 782.254 651.739ZM773.762 688.396C770.235 693.462 764.757 698.454 757.14 702.868C741.913 711.761 721.222 716.414 700.48 716.385C679.738 716.356 659.062 711.754 643.741 702.868C636.022 698.404 630.436 693.346 626.851 688.237C625.528 686.362 624.418 684.346 623.541 682.224C622.282 679.248 621.629 676.05 621.619 672.818C621.622 670.315 622.019 667.829 622.797 665.451C623.721 662.643 625.053 659.985 626.75 657.564C630.277 652.499 635.762 647.514 643.372 643.092C645.602 641.796 647.896 640.612 650.245 639.547C653.723 637.953 657.295 636.573 660.941 635.415C673.572 631.467 686.735 629.495 699.967 629.568C720.701 629.568 741.428 634.2 756.771 643.107C764.483 647.543 770.062 652.586 773.646 657.723C777.231 662.861 778.872 668.035 778.879 673.114C778.886 678.194 777.289 683.302 773.762 688.396Z" fill="#4FC2E2"/>
<path d="M510.193 436.203C504.744 439.329 499.265 442.376 493.766 445.386L477.259 454.488C472.701 456.963 468.139 459.426 463.571 461.876L397.473 517.144L406.868 522.578L507.981 438.048L510.207 436.189L510.193 436.203Z" fill="#4FC2E2"/>
<path d="M476.053 452.137L493.116 444.119C498.758 441.432 504.436 438.803 510.15 436.232L506.616 437.679L479.356 448.7L474.094 453.085L476.053 452.137Z" fill="#4FC2E2"/>
<path d="M301.513 556.045L288.374 564.301C278.343 570.458 268.399 576.754 258.288 582.781L406.912 522.564L397.517 517.13L301.513 556.045Z" fill="#1C6A70"/>
<path d="M288.106 561.471L279.752 564.865L258.338 582.759C267.82 575.791 277.468 569.069 287.037 562.231L288.106 561.471Z" fill="#1C6A70"/>
<path d="M410.647 489.814L378.617 506.24L397.472 517.151L463.571 461.884C457.067 465.364 450.562 468.859 444.058 472.303C432.936 478.222 421.806 483.975 410.647 489.814Z" fill="#4FC2E2"/>
<path d="M374.491 502.506L374.621 502.441L374.751 502.361L408.371 485.314C419.623 479.735 430.847 474.098 442.128 468.577C452.728 463.357 463.376 458.193 474.072 453.085L479.333 448.7L361.598 496.406L373.414 503.237L374.491 502.506Z" fill="#4FC2E2"/>
<path d="M361.75 498.164L370.683 503.331L362.401 508.866C356.475 512.824 350.353 516.913 344.333 520.994L340.127 523.845C331.932 529.395 323.447 535.14 315.158 540.871L300.624 550.921L288.497 559.409L361.75 498.157M361.599 496.399L279.724 564.858L288.078 561.464L301.477 552.101L316.003 542.057C325.68 535.364 335.43 528.787 345.164 522.188C354.559 515.806 363.998 509.554 373.415 503.229L361.599 496.399Z" fill="#4FC2E2"/>
<path d="M378.573 507.889L394.191 516.927L315.633 548.765L318.972 546.638C327.478 541.24 336.057 535.654 344.36 530.256L348.646 527.463C355.259 523.193 361.937 518.779 368.39 514.525C371.585 512.412 374.781 510.304 377.981 508.201L378.573 507.897M378.617 506.247L377.251 506.97C367.451 513.41 357.738 519.908 347.865 526.269C337.993 532.629 328.143 539.127 318.235 545.437L303.354 554.923L301.547 556.073L397.508 517.18L378.653 506.269L378.617 506.247Z" fill="#4FC2E2"/>
<path d="M301.512 556.044L303.318 554.894L318.199 545.408C328.143 539.098 337.994 532.658 347.83 526.24C357.666 519.822 367.415 513.382 377.215 506.942L378.581 506.218L410.611 489.793C421.741 483.953 432.899 478.215 443.993 472.282C450.497 468.837 457.001 465.342 463.505 461.862C468.063 459.402 472.626 456.939 477.194 454.474L493.7 445.364C499.2 442.354 504.678 439.308 510.127 436.182L510.048 436.225C504.343 438.801 498.665 441.43 493.014 444.112L475.951 452.13L473.97 453.078C463.303 458.21 452.655 463.374 442.027 468.57C430.745 474.091 419.522 479.727 408.269 485.306L374.649 502.354L374.519 502.434L374.389 502.499L373.312 503.222C363.917 509.547 354.442 515.798 345.062 522.18C335.327 528.78 325.549 535.357 315.901 542.05L301.367 552.094L288.106 561.471L287.036 562.231C277.467 569.069 267.819 575.791 258.337 582.76C258.337 582.76 258.337 582.759 258.294 582.803C268.412 576.775 278.349 570.502 288.38 564.322L301.512 556.044Z" fill="white"/>
<path d="M410.777 691.103L403.297 690.878C400.58 690.748 397.645 690.589 394.509 690.423C388.236 690.054 381.168 689.808 373.471 689.106C369.634 688.78 365.63 688.476 361.489 688.129C357.348 687.781 353.091 687.239 348.704 686.747C346.536 686.508 344.288 686.276 342.041 686.023C339.793 685.77 337.538 685.379 335.247 685.039C330.68 684.315 325.968 683.86 321.249 682.991L306.845 680.423C302.032 679.344 297.146 678.302 292.225 677.282C287.332 676.132 282.432 674.815 277.496 673.585C272.589 672.224 267.725 670.69 262.825 669.243C257.998 667.637 253.148 666.052 248.371 664.344C246.001 663.411 243.652 662.506 241.296 661.573C238.94 660.64 236.591 659.771 234.307 658.679C229.733 656.645 225.151 654.713 220.771 652.499C218.603 651.399 216.334 650.408 214.216 649.229C212.099 648.049 209.981 646.92 207.893 645.777C199.9 641.291 192.178 636.338 184.766 630.943C181.153 628.44 177.951 625.668 174.692 623.136C171.584 620.437 168.491 617.911 165.766 615.227C160.668 610.466 155.872 605.391 151.406 600.032C147.938 595.896 144.709 591.564 141.736 587.058C141.317 586.428 140.941 585.827 140.566 585.227C138.715 582.333 137.299 579.88 136.374 578.085C135.261 575.914 134.769 574.749 134.769 574.749C134.769 574.749 135.124 575.994 135.991 578.266C137.265 581.548 138.737 584.75 140.399 587.854C142.952 592.71 145.838 597.383 149.036 601.841C150.828 604.489 152.945 607.115 155.135 609.959C157.441 612.68 159.854 615.567 162.579 618.389C165.217 621.32 168.209 624.091 171.252 627.072C174.424 629.865 177.669 632.861 181.232 635.589C188.581 641.516 196.344 646.911 204.46 651.732C206.592 652.984 208.731 654.221 210.892 655.466C213.053 656.71 215.307 657.81 217.541 659.004C219.774 660.198 222 661.407 224.327 662.463L231.33 665.64C233.671 666.747 236.071 667.695 238.485 668.65C240.898 669.605 243.298 670.574 245.712 671.544C250.597 673.339 255.548 675.025 260.491 676.718C265.55 678.165 270.515 679.684 275.523 681.059C280.582 682.26 285.59 683.563 290.599 684.677C295.607 685.792 300.623 686.689 305.559 687.615C310.526 688.353 315.424 689.077 320.251 689.786C322.665 690.177 325.064 690.423 327.478 690.69L334.554 691.414C336.89 691.645 339.198 691.887 341.477 692.138C343.761 692.268 346.008 692.405 348.234 692.557C352.693 692.832 357.022 693.158 361.243 693.339C365.463 693.52 369.489 693.483 373.377 693.57C381.139 693.838 388.265 693.52 394.588 693.397C397.739 693.288 400.681 693.288 403.405 693.122L410.893 692.622C415.41 692.34 418.958 692.036 421.372 691.855L425.072 691.573H424.935L421.365 691.428C418.835 691.407 415.301 691.219 410.777 691.103Z" fill="#4FC2E2"/>
<path d="M581.149 594.822C579.864 595.803 578.633 596.854 577.463 597.969C576.196 599.131 574.99 600.358 573.849 601.645C573.778 601.716 573.711 601.791 573.647 601.869C572.375 603.266 571.197 604.843 569.983 606.428C568.899 608.121 567.692 609.749 566.753 611.573C565.756 613.345 564.88 615.182 564.129 617.072C563.746 618.005 563.406 618.932 563.038 619.858C562.669 620.784 562.496 621.739 562.257 622.68C562.019 623.621 561.751 624.511 561.535 625.408C561.318 626.305 561.296 627.21 561.18 628.092C561.065 628.975 560.956 629.8 560.863 630.632C560.769 631.464 560.863 632.246 560.863 632.998C560.863 634.532 560.862 635.893 561.007 637.13C561.152 638.367 561.397 639.417 561.556 640.278C561.896 641.985 562.149 642.955 562.149 642.955C562.149 642.955 562.265 642.369 562.438 641.349C562.489 641.023 562.546 640.668 562.604 640.249C562.727 639.395 562.886 638.36 563.009 637.195L563.862 633.353C564.16 631.846 564.554 630.36 565.04 628.903C565.271 628.129 565.502 627.34 565.762 626.515L566.724 624.098C567.027 623.273 567.345 622.441 567.663 621.594C567.981 620.748 568.451 619.952 568.827 619.105C569.549 617.398 570.482 615.784 571.371 614.12C572.259 612.456 573.322 610.914 574.225 609.286C575.273 607.767 576.256 606.204 577.304 604.764C578.352 603.324 579.335 601.869 580.376 600.618C581.416 599.366 582.377 598.107 583.266 597C585.131 594.778 586.721 592.911 587.87 591.638L589.691 589.605C588.841 589.946 588.017 590.35 587.227 590.813C585.094 591.98 583.061 593.32 581.149 594.822Z" fill="#4FC2E2"/>
<path d="M224.27 429.952C227.103 428.671 230.507 427.057 234.525 425.48C236.52 424.662 238.652 423.801 240.878 422.86L248.018 420.226C250.519 419.336 253.077 418.331 255.787 417.433C258.497 416.536 261.309 415.675 264.2 414.749C267.09 413.823 269.981 412.788 273.103 412.028C276.225 411.268 279.311 410.4 282.498 409.546L287.312 408.258C288.93 407.802 290.556 407.368 292.226 407.072C295.55 406.42 298.933 405.747 302.344 405.017L307.403 403.924L309.947 403.374L311.139 403.128L312.454 402.918L322.991 401.348C326.489 400.82 329.915 400.552 333.377 400.125C335.104 399.944 336.824 399.763 338.544 399.568C340.264 399.373 342.02 399.351 343.747 399.228L354.031 398.504L364.092 398.085C365.747 398.027 367.387 397.954 369.006 397.904C370.625 397.853 372.244 397.904 373.834 397.839L383.229 397.636H400.393C405.705 397.708 410.59 397.802 414.919 397.86C419.248 397.918 423.021 398.048 426.143 398.106C432.38 398.244 435.95 398.244 435.95 398.244C435.95 398.244 432.452 397.571 426.287 396.558C423.209 396.058 419.465 395.328 415.151 394.857C410.836 394.387 405.965 393.656 400.624 393.113C395.283 392.571 389.502 392.086 383.373 391.768C380.294 391.63 377.144 391.478 373.906 391.348C370.668 391.218 367.402 391.131 364.027 391.16H353.779C350.317 391.232 346.819 391.427 343.285 391.616L337.966 391.898L332.589 392.419C328.975 392.802 325.362 393.027 321.806 393.548C318.25 394.069 314.781 394.684 311.284 395.263L309.976 395.465C309.332 395.588 309.043 395.675 308.53 395.776L305.921 396.377L300.725 397.556C297.256 398.323 293.845 399.134 290.477 399.951C288.779 400.335 287.138 400.834 285.498 401.399L280.627 402.896C277.403 403.917 274.231 404.872 271.159 405.899C268.088 406.927 265.153 408.171 262.263 409.25L253.901 412.52C251.234 413.678 248.719 414.937 246.276 416.066C243.834 417.195 241.499 418.273 239.31 419.387C237.12 420.501 235.125 421.703 233.217 422.773C229.358 424.785 226.171 426.898 223.519 428.562C220.866 430.226 218.893 431.724 217.513 432.65C216.133 433.577 215.475 434.213 215.475 434.213C215.475 434.213 216.263 433.794 217.759 433.027C219.255 432.26 221.415 431.196 224.27 429.952Z" fill="#121A2D"/>
<g filter="url(#filter0_dddd_228_6)">
<path d="M461.436 239.186L475.792 208.867C482.954 210.501 489.654 211.404 495.892 211.576C502.251 211.805 507.78 210.836 512.48 208.669C517.18 206.502 520.833 202.667 523.438 197.166C525.929 191.903 526.432 186.651 524.946 181.409C523.517 176.047 519.501 171.802 512.898 168.676C508.216 166.459 503.921 165.597 500.014 166.09C496.107 166.582 492.608 168.074 489.519 170.564C486.606 172.991 484.095 176.122 481.986 179.955L454.974 167.165C458.952 159.385 464.21 153.09 470.75 148.28C477.409 143.527 485.187 140.914 494.082 140.44C502.977 139.967 512.887 142.316 523.812 147.489C537.858 154.14 547.416 163.131 552.485 174.462C557.731 185.731 557.352 197.704 551.35 210.382C546.027 221.624 538.333 229.182 528.269 233.055C518.325 236.985 507.013 238.218 494.333 236.753L487.367 251.464L461.436 239.186ZM453.506 289.457C448.343 287.013 445.03 283.614 443.564 279.26C442.219 274.962 442.678 270.421 444.944 265.637C447.265 260.734 450.486 257.5 454.607 255.937C458.904 254.312 463.633 254.721 468.795 257.165C474.078 259.666 477.392 263.065 478.737 267.363C480.139 271.541 479.679 276.081 477.358 280.985C475.092 285.769 471.871 289.002 467.694 290.685C463.518 292.368 458.788 291.958 453.506 289.457Z" fill="#4FC2E2"/>
</g>
<g filter="url(#filter1_dddd_228_6)">
<path d="M358.282 152.043L359.413 112.036C368.021 110.384 375.773 108.155 382.67 105.349C389.725 102.547 395.3 98.8351 399.394 94.2125C403.488 89.5899 405.638 83.6487 405.843 76.389C406.04 69.4449 404.068 63.4662 399.929 58.4528C395.795 53.2816 389.371 50.5729 380.659 50.3265C374.48 50.1518 369.375 51.271 365.344 53.6842C361.312 56.0973 358.206 59.4053 356.026 63.6083C354.009 67.6578 352.769 72.2822 352.304 77.4813L316.661 76.4734C317.272 66.0663 319.995 56.6665 324.83 48.2741C329.824 39.8862 337.065 33.2993 346.555 28.5133C356.044 23.7274 367.996 21.5382 382.412 21.9458C400.947 22.4699 415.702 27.7044 426.677 37.6494C437.815 47.4412 443.148 60.7015 442.675 77.4304C442.255 92.2655 437.478 104.213 428.344 113.274C419.368 122.339 407.603 129.114 393.048 133.599L392.5 153.01L358.282 152.043ZM373.744 210.762C366.932 210.57 361.681 208.447 357.991 204.394C354.459 200.345 352.782 195.165 352.96 188.852C353.143 182.381 355.11 177.304 358.861 173.619C362.774 169.781 368.137 167.958 374.949 168.151C381.919 168.348 387.17 170.471 390.702 174.519C394.239 178.41 395.916 183.591 395.733 190.061C395.554 196.374 393.587 201.452 389.832 205.294C386.077 209.137 380.714 210.959 373.744 210.762Z" fill="#4FC2E2"/>
</g>
<g filter="url(#filter2_dddd_228_6)">
<path d="M271.037 251.436L256.503 226.764C261.091 222.488 264.94 218.188 268.052 213.864C271.261 209.483 273.227 205.113 273.949 200.754C274.671 196.395 273.714 191.978 271.076 187.5C268.554 183.218 265.085 180.345 260.67 178.882C256.197 177.321 251.274 178.124 245.901 181.289C242.091 183.533 239.423 186.154 237.898 189.15C236.373 192.146 235.75 195.332 236.028 198.708C236.346 201.929 237.354 205.203 239.05 208.53L217.069 221.479C213.48 214.94 211.554 208.208 211.291 201.284C211.126 194.301 213.008 187.555 216.938 181.045C220.867 174.535 227.277 168.662 236.167 163.425C247.597 156.691 258.529 154.25 268.963 156.101C279.437 157.797 287.713 163.803 293.791 174.12C299.18 183.269 300.831 192.326 298.743 201.291C296.752 210.199 292.2 218.78 285.087 227.034L292.14 239.005L271.037 251.436ZM302.745 281.135C298.544 283.609 294.555 284.321 290.777 283.269C287.096 282.159 284.109 279.658 281.816 275.765C279.465 271.774 278.725 267.949 279.596 264.29C280.508 260.475 283.064 257.331 287.265 254.856C291.563 252.324 295.553 251.613 299.233 252.722C302.856 253.734 305.843 256.236 308.194 260.226C310.487 264.119 311.227 267.944 310.413 271.701C309.6 275.458 307.044 278.602 302.745 281.135Z" fill="#4FC2E2"/>
</g>
<circle cx="12.7959" cy="12.7959" r="12.2959" transform="matrix(-1 0 0 1 231.86 300.147)" stroke="#4FC2E2"/>
<circle cx="26.5762" cy="26.5762" r="26.0762" transform="matrix(-1 0 0 1 271.572 63.441)" stroke="#4FC2E2"/>
<circle cx="26.5762" cy="26.5762" r="26.0762" transform="matrix(-1 0 0 1 601.642 276.192)" stroke="#4FC2E2"/>
<circle cx="26.5762" cy="26.5762" r="26.0762" transform="matrix(-1 0 0 1 407.406 246.521)" stroke="#4FC2E2"/>
<circle cx="26.5762" cy="26.5762" r="26.0762" transform="matrix(-1 0 0 1 598.361 71.3154)" stroke="#4FC2E2"/>
<defs>
<filter id="filter0_dddd_228_6" x="421.342" y="118.91" width="156.284" height="194.26" filterUnits="userSpaceOnUse" color-interpolation-filters="sRGB">
<feFlood flood-opacity="0" result="BackgroundImageFix"/>
<feColorMatrix in="SourceAlpha" type="matrix" values="0 0 0 0 0 0 0 0 0 0 0 0 0 0 0 0 0 0 127 0" result="hardAlpha"/>
<feOffset/>
<feGaussianBlur stdDeviation="0.2556"/>
<feColorMatrix type="matrix" values="0 0 0 0 0.904675 0 0 0 0 1 0 0 0 0 1 0 0 0 1 0"/>
<feBlend mode="normal" in2="BackgroundImageFix" result="effect1_dropShadow_228_6"/>
<feColorMatrix in="SourceAlpha" type="matrix" values="0 0 0 0 0 0 0 0 0 0 0 0 0 0 0 0 0 0 127 0" result="hardAlpha"/>
<feOffset/>
<feGaussianBlur stdDeviation="0.5112"/>
<feColorMatrix type="matrix" values="0 0 0 0 0.904675 0 0 0 0 1 0 0 0 0 1 0 0 0 1 0"/>
<feBlend mode="normal" in2="effect1_dropShadow_228_6" result="effect2_dropShadow_228_6"/>
<feColorMatrix in="SourceAlpha" type="matrix" values="0 0 0 0 0 0 0 0 0 0 0 0 0 0 0 0 0 0 127 0" result="hardAlpha"/>
<feOffset/>
<feGaussianBlur stdDeviation="1.7892"/>
<feColorMatrix type="matrix" values="0 0 0 0 0.904675 0 0 0 0 1 0 0 0 0 1 0 0 0 1 0"/>
<feBlend mode="normal" in2="effect2_dropShadow_228_6" result="effect3_dropShadow_228_6"/>
<feColorMatrix in="SourceAlpha" type="matrix" values="0 0 0 0 0 0 0 0 0 0 0 0 0 0 0 0 0 0 127 0" result="hardAlpha"/>
<feOffset/>
<feGaussianBlur stdDeviation="10.7352"/>
<feColorMatrix type="matrix" values="0 0 0 0 0.0235294 0 0 0 0 0.839216 0 0 0 0 0.898039 0 0 0 1 0"/>
<feBlend mode="normal" in2="effect3_dropShadow_228_6" result="effect4_dropShadow_228_6"/>
<feBlend mode="normal" in="SourceGraphic" in2="effect4_dropShadow_228_6" result="shape"/>
</filter>
<filter id="filter1_dddd_228_6" x="295.191" y="0.427427" width="168.984" height="231.82" filterUnits="userSpaceOnUse" color-interpolation-filters="sRGB">
<feFlood flood-opacity="0" result="BackgroundImageFix"/>
<feColorMatrix in="SourceAlpha" type="matrix" values="0 0 0 0 0 0 0 0 0 0 0 0 0 0 0 0 0 0 127 0" result="hardAlpha"/>
<feOffset/>
<feGaussianBlur stdDeviation="0.2556"/>
<feColorMatrix type="matrix" values="0 0 0 0 0.904675 0 0 0 0 1 0 0 0 0 1 0 0 0 1 0"/>
<feBlend mode="normal" in2="BackgroundImageFix" result="effect1_dropShadow_228_6"/>
<feColorMatrix in="SourceAlpha" type="matrix" values="0 0 0 0 0 0 0 0 0 0 0 0 0 0 0 0 0 0 127 0" result="hardAlpha"/>
<feOffset/>
<feGaussianBlur stdDeviation="0.5112"/>
<feColorMatrix type="matrix" values="0 0 0 0 0.904675 0 0 0 0 1 0 0 0 0 1 0 0 0 1 0"/>
<feBlend mode="normal" in2="effect1_dropShadow_228_6" result="effect2_dropShadow_228_6"/>
<feColorMatrix in="SourceAlpha" type="matrix" values="0 0 0 0 0 0 0 0 0 0 0 0 0 0 0 0 0 0 127 0" result="hardAlpha"/>
<feOffset/>
<feGaussianBlur stdDeviation="1.7892"/>
<feColorMatrix type="matrix" values="0 0 0 0 0.904675 0 0 0 0 1 0 0 0 0 1 0 0 0 1 0"/>
<feBlend mode="normal" in2="effect2_dropShadow_228_6" result="effect3_dropShadow_228_6"/>
<feColorMatrix in="SourceAlpha" type="matrix" values="0 0 0 0 0 0 0 0 0 0 0 0 0 0 0 0 0 0 127 0" result="hardAlpha"/>
<feOffset/>
<feGaussianBlur stdDeviation="10.7352"/>
<feColorMatrix type="matrix" values="0 0 0 0 0.0235294 0 0 0 0 0.839216 0 0 0 0 0.898039 0 0 0 1 0"/>
<feBlend mode="normal" in2="effect3_dropShadow_228_6" result="effect4_dropShadow_228_6"/>
<feBlend mode="normal" in="SourceGraphic" in2="effect4_dropShadow_228_6" result="shape"/>
</filter>
<filter id="filter2_dddd_228_6" x="189.811" y="134.032" width="142.392" height="171.178" filterUnits="userSpaceOnUse" color-interpolation-filters="sRGB">
<feFlood flood-opacity="0" result="BackgroundImageFix"/>
<feColorMatrix in="SourceAlpha" type="matrix" values="0 0 0 0 0 0 0 0 0 0 0 0 0 0 0 0 0 0 127 0" result="hardAlpha"/>
<feOffset/>
<feGaussianBlur stdDeviation="0.2556"/>
<feColorMatrix type="matrix" values="0 0 0 0 0.904675 0 0 0 0 1 0 0 0 0 1 0 0 0 1 0"/>
<feBlend mode="normal" in2="BackgroundImageFix" result="effect1_dropShadow_228_6"/>
<feColorMatrix in="SourceAlpha" type="matrix" values="0 0 0 0 0 0 0 0 0 0 0 0 0 0 0 0 0 0 127 0" result="hardAlpha"/>
<feOffset/>
<feGaussianBlur stdDeviation="0.5112"/>
<feColorMatrix type="matrix" values="0 0 0 0 0.904675 0 0 0 0 1 0 0 0 0 1 0 0 0 1 0"/>
<feBlend mode="normal" in2="effect1_dropShadow_228_6" result="effect2_dropShadow_228_6"/>
<feColorMatrix in="SourceAlpha" type="matrix" values="0 0 0 0 0 0 0 0 0 0 0 0 0 0 0 0 0 0 127 0" result="hardAlpha"/>
<feOffset/>
<feGaussianBlur stdDeviation="1.7892"/>
<feColorMatrix type="matrix" values="0 0 0 0 0.904675 0 0 0 0 1 0 0 0 0 1 0 0 0 1 0"/>
<feBlend mode="normal" in2="effect2_dropShadow_228_6" result="effect3_dropShadow_228_6"/>
<feColorMatrix in="SourceAlpha" type="matrix" values="0 0 0 0 0 0 0 0 0 0 0 0 0 0 0 0 0 0 127 0" result="hardAlpha"/>
<feOffset/>
<feGaussianBlur stdDeviation="10.7352"/>
<feColorMatrix type="matrix" values="0 0 0 0 0.0235294 0 0 0 0 0.839216 0 0 0 0 0.898039 0 0 0 1 0"/>
<feBlend mode="normal" in2="effect3_dropShadow_228_6" result="effect4_dropShadow_228_6"/>
<feBlend mode="normal" in="SourceGraphic" in2="effect4_dropShadow_228_6" result="shape"/>
</filter>
</defs>
</svg>
