<svg width="510" height="323" viewBox="0 0 510 323" fill="none" xmlns="http://www.w3.org/2000/svg">
<path d="M275.215 40.5439H239.693C237.696 40.5413 235.781 39.7446 234.368 38.3283C232.956 36.9119 232.16 34.9916 232.156 32.9879V31.365C232.156 31.0789 232.043 30.8045 231.841 30.6022C231.64 30.3999 231.366 30.2862 231.081 30.2862V29.2075C231.652 29.2075 232.199 29.4347 232.604 29.8391C233.008 30.2436 233.235 30.7923 233.237 31.365V32.9879C233.239 34.705 233.92 36.351 235.13 37.5652C236.341 38.7793 237.981 39.4626 239.693 39.4652H275.215C276.927 39.4639 278.569 38.7812 279.78 37.5669C280.991 36.3526 281.673 34.7058 281.676 32.9879V31.365C281.676 30.7928 281.902 30.244 282.306 29.8394C282.709 29.4348 283.256 29.2075 283.826 29.2075V30.3057C283.541 30.307 283.269 30.421 283.067 30.623C282.866 30.8251 282.752 31.0987 282.751 31.3844V33.0074C282.742 35.0076 281.944 36.923 280.532 38.3351C279.12 39.7473 277.208 40.5413 275.215 40.5439Z" fill="url(#paint0_linear_137_292)"/>
<path d="M304.817 24.8877H210.09C205.381 24.8928 200.866 26.7718 197.536 30.1123C194.207 33.4528 192.334 37.982 192.329 42.7062V277.587C192.334 282.311 194.207 286.841 197.536 290.181C200.866 293.522 205.381 295.4 210.09 295.406H304.817C309.526 295.4 314.041 293.522 317.371 290.181C320.7 286.841 322.573 282.311 322.578 277.587V42.7062C322.573 37.982 320.7 33.4528 317.371 30.1123C314.041 26.7718 309.526 24.8928 304.817 24.8877ZM321.503 277.587C321.497 282.025 319.737 286.279 316.609 289.417C313.481 292.555 309.241 294.32 304.817 294.327H210.09C205.667 294.32 201.427 292.555 198.3 289.417C195.173 286.279 193.414 282.024 193.409 277.587V42.7062C193.413 38.2685 195.171 34.0137 198.298 30.8754C201.426 27.737 205.666 25.9716 210.09 25.9664H304.817C309.241 25.9716 313.482 27.7369 316.61 30.8751C319.738 34.0132 321.498 38.2681 321.503 42.7062V277.587Z" fill="url(#paint1_linear_137_292)"/>
<path d="M304.818 29.2075H283.831C283.261 29.2075 282.714 29.4348 282.31 29.8394C281.907 30.244 281.68 30.7928 281.68 31.365V32.9879C281.678 34.7058 280.996 36.3526 279.785 37.5669C278.574 38.7812 276.932 39.4639 275.219 39.4652H239.693C237.981 39.4626 236.341 38.7793 235.13 37.5652C233.92 36.351 233.239 34.705 233.236 32.9879V31.365C233.235 30.7923 233.008 30.2436 232.603 29.8391C232.199 29.4347 231.652 29.2075 231.081 29.2075H210.09C206.525 29.2165 203.11 30.642 200.591 33.172C198.072 35.702 196.654 39.1302 196.649 42.7062V277.587C196.654 281.166 198.074 284.596 200.596 287.127C203.118 289.657 206.537 291.081 210.104 291.086H304.818C308.385 291.082 311.805 289.659 314.327 287.128C316.85 284.597 318.269 281.166 318.273 277.587V42.7062C318.269 39.1273 316.85 35.6961 314.327 33.1655C311.805 30.6348 308.385 29.2114 304.818 29.2075ZM317.197 277.587C317.193 280.88 315.888 284.037 313.567 286.365C311.246 288.694 308.1 290.003 304.818 290.007H210.09C206.808 290.002 203.663 288.692 201.343 286.364C199.023 284.035 197.719 280.879 197.715 277.587V42.7062C197.722 39.4172 199.029 36.2654 201.349 33.9411C203.668 31.6168 206.811 30.3095 210.09 30.3057H231.081C231.366 30.3057 231.64 30.4193 231.841 30.6216C232.043 30.8239 232.156 31.0983 232.156 31.3844V33.0074C232.16 35.011 232.956 36.9314 234.368 38.3477C235.781 39.764 237.696 40.5608 239.693 40.5633H275.214C277.212 40.5608 279.126 39.764 280.539 38.3477C281.952 36.9314 282.747 35.011 282.751 33.0074V31.3844C282.752 31.0979 282.866 30.8235 283.069 30.6213C283.271 30.4192 283.545 30.3057 283.831 30.3057H304.822C308.105 30.3095 311.251 31.6193 313.572 33.9477C315.893 36.276 317.198 39.4328 317.202 42.7256L317.197 277.587Z" fill="url(#paint2_linear_137_292)"/>
<path d="M327.349 104.816H326.419C326.4 104.816 326.382 104.808 326.368 104.795C326.354 104.781 326.347 104.762 326.347 104.743V43.1146C326.397 37.2611 324.133 31.6261 320.05 27.4439C318.054 25.4326 315.679 23.8386 313.065 22.7543C310.45 21.67 307.647 21.1169 304.818 21.127H210.501C204.665 21.0769 199.047 23.3482 194.877 27.4439C192.872 29.4473 191.284 31.8294 190.203 34.4524C189.122 37.0755 188.571 39.8876 188.58 42.7259V78.2657C188.58 78.2863 188.572 78.306 188.557 78.3206C188.543 78.3352 188.523 78.3434 188.503 78.3434H187.577C187.558 78.3434 187.539 78.3509 187.524 78.3644C187.51 78.378 187.501 78.3965 187.5 78.4163V88.5282C187.501 88.5479 187.51 88.5665 187.524 88.58C187.539 88.5936 187.558 88.6011 187.577 88.601H188.503C188.522 88.601 188.541 88.6085 188.556 88.6221C188.57 88.6356 188.579 88.6542 188.58 88.6739V98.7858C188.58 98.7958 188.578 98.8057 188.574 98.8149C188.57 98.824 188.564 98.8323 188.557 98.8391C188.55 98.846 188.541 98.8512 188.532 98.8546C188.523 98.858 188.513 98.8593 188.503 98.8587H187.577C187.567 98.8587 187.557 98.8607 187.548 98.8646C187.538 98.8685 187.53 98.8742 187.523 98.8815C187.516 98.8887 187.51 98.8972 187.506 98.9067C187.502 98.9161 187.5 98.9262 187.5 98.9364V118.767C187.501 118.786 187.51 118.805 187.524 118.818C187.539 118.832 187.558 118.84 187.577 118.839H188.503C188.522 118.839 188.541 118.847 188.556 118.86C188.57 118.874 188.579 118.893 188.58 118.912V277.174C188.53 283.03 190.794 288.666 194.877 292.85C196.873 294.861 199.247 296.455 201.862 297.54C204.477 298.624 207.28 299.177 210.109 299.167H304.411C310.245 299.216 315.862 296.945 320.031 292.85C322.036 290.847 323.624 288.465 324.705 285.842C325.786 283.219 326.337 280.407 326.327 277.568V136.721C326.327 136.702 326.335 136.683 326.349 136.67C326.362 136.656 326.381 136.648 326.4 136.648H327.33C327.349 136.648 327.368 136.641 327.381 136.627C327.395 136.613 327.403 136.595 327.403 136.575V104.894C327.403 104.877 327.399 104.86 327.389 104.846C327.379 104.832 327.365 104.821 327.349 104.816ZM325.3 278.404C325.3 283.622 323.234 288.626 319.557 292.316C315.879 296.006 310.891 298.079 305.689 298.079H209.242C204.041 298.079 199.053 296.006 195.375 292.316C191.697 288.626 189.631 283.622 189.631 278.404V41.8901C189.631 36.6721 191.697 31.6678 195.375 27.9781C199.053 24.2883 204.041 22.2155 209.242 22.2155H305.689C310.891 22.2155 315.879 24.2883 319.557 27.9781C323.234 31.6678 325.3 36.6721 325.3 41.8901V278.404Z" fill="url(#paint3_linear_137_292)"/>
<g filter="url(#filter0_dddd_137_292)">
<path d="M305.689 22.2153H209.242C204.041 22.2153 199.053 24.2882 195.375 27.9779C191.697 31.6676 189.631 36.6719 189.631 41.89V278.404C189.631 283.622 191.697 288.626 195.375 292.316C199.053 296.005 204.041 298.078 209.242 298.078H305.689C310.891 298.078 315.879 296.005 319.557 292.316C323.234 288.626 325.3 283.622 325.3 278.404V41.89C325.3 36.6719 323.234 31.6676 319.557 27.9779C315.879 24.2882 310.891 22.2153 305.689 22.2153ZM324.191 277.51C324.191 282.684 322.143 287.647 318.496 291.307C314.849 294.966 309.903 297.023 304.745 297.024H210.167C205.008 297.024 200.061 294.968 196.413 291.308C192.765 287.649 190.716 282.685 190.716 277.51V42.7792C190.716 37.6037 192.765 32.6402 196.413 28.9805C200.061 25.3209 205.008 23.2649 210.167 23.2649H304.745C309.903 23.2662 314.849 25.3227 318.496 28.9822C322.143 32.6417 324.191 37.6045 324.191 42.7792V277.51Z" fill="url(#paint4_linear_137_292)"/>
</g>
<path d="M239.359 30.9375C238.855 30.9365 238.363 31.0855 237.944 31.3654C237.525 31.6454 237.198 32.0437 237.005 32.5101C236.812 32.9764 236.762 33.4897 236.86 33.985C236.957 34.4803 237.2 34.9353 237.556 35.2924C237.912 35.6495 238.365 35.8925 238.859 35.9908C239.353 36.0891 239.864 36.0382 240.329 35.8445C240.794 35.6508 241.191 35.3231 241.47 34.9028C241.749 34.4825 241.897 33.9887 241.897 33.4837C241.895 32.8088 241.627 32.1619 241.152 31.6847C240.676 31.2075 240.031 30.9388 239.359 30.9375Z" fill="url(#paint5_linear_137_292)"/>
<path d="M262.82 30.9375H252.092C251.749 30.9225 251.406 30.9772 251.085 31.0986C250.764 31.2199 250.471 31.4052 250.223 31.6433C249.975 31.8814 249.777 32.1675 249.642 32.4842C249.508 32.8009 249.438 33.1417 249.438 33.4861C249.438 33.8305 249.508 34.1713 249.642 34.488C249.777 34.8047 249.975 35.0908 250.223 35.3289C250.471 35.567 250.764 35.7524 251.085 35.8737C251.406 35.995 251.749 36.0497 252.092 36.0347H262.82C263.475 36.006 264.093 35.725 264.546 35.2502C264.999 34.7754 265.252 34.1434 265.252 33.4861C265.252 32.8288 264.999 32.1969 264.546 31.722C264.093 31.2472 263.475 30.9662 262.82 30.9375Z" fill="url(#paint6_linear_137_292)"/>
<path d="M122.5 77.1262H247C253.627 77.1262 259 82.4988 259 89.1262V122.626" stroke="#467EC0" stroke-width="4" stroke-linecap="round" stroke-linejoin="round" stroke-dasharray="1 10"/>
<g filter="url(#filter1_dddd_137_292)">
<path d="M72.0973 26.1917C85.0581 26.2294 97.4859 31.3549 106.705 40.4648C115.924 49.5746 121.198 61.9402 121.39 74.8997C121.583 87.8591 116.679 100.376 107.734 109.756C98.7897 119.135 86.5197 124.627 73.5657 125.05C73.078 125.05 72.5903 125.05 72.0973 125.05C71.6043 125.05 71.2015 125.05 70.7509 125.05C70.4063 125.05 70.0565 125.05 69.6907 125.008H69.1924C69.1377 125.013 69.0827 125.013 69.0281 125.008C56.1927 124.232 44.1647 118.485 35.4962 108.988C26.8276 99.4901 22.2008 86.9886 22.5974 74.1359C22.9939 61.2832 28.3827 49.0908 37.6203 40.1457C46.8579 31.2005 59.2174 26.2066 72.0761 26.2235M72.0761 25.1633C58.9453 25.1429 46.3228 30.2379 36.8857 39.3681C27.4485 48.4982 21.9388 60.9452 21.5251 74.0696C21.1114 87.1939 25.8262 99.9633 34.6696 109.67C43.513 119.376 55.7895 125.256 68.8955 126.063C68.9767 126.069 69.0583 126.069 69.1394 126.063H69.6271C69.9717 126.063 70.3215 126.094 70.6873 126.105H72.0815C72.6487 126.105 73.1416 126.105 73.5869 126.105C86.822 125.677 99.3596 120.069 108.5 110.487C117.639 100.905 122.65 88.1164 122.453 74.8759C122.255 61.6353 116.866 49.002 107.444 39.6969C98.0226 30.3917 85.3234 25.1592 72.0815 25.1262L72.0761 25.1633Z" fill="#467EC0"/>
</g>
<path d="M71.5 64.1262H42.8978C40.8564 64.1262 40.1267 61.4273 41.8901 60.3987L70.4923 43.7141C71.115 43.3508 71.885 43.3508 72.5077 43.7141L101.11 60.3987C102.873 61.4273 102.144 64.1262 100.102 64.1262H71.5Z" fill="url(#paint7_linear_137_292)" stroke="#4FC2E2" stroke-width="2"/>
<rect x="47.5" y="64.1262" width="5" height="30" stroke="#4FC2E2" stroke-width="2"/>
<rect x="61.5" y="64.1262" width="5" height="30" stroke="#4FC2E2" stroke-width="2"/>
<rect x="76.5" y="64.1262" width="5" height="30" stroke="#4FC2E2" stroke-width="2"/>
<rect x="39.5" y="94.1262" width="63" height="7" rx="3.5" fill="url(#paint8_linear_137_292)" stroke="#4FC2E2" stroke-width="2"/>
<rect x="90.5" y="64.1262" width="5" height="30" stroke="#4FC2E2" stroke-width="2"/>
<path d="M385 249.626H270.5C263.873 249.626 258.5 244.254 258.5 237.626V194.626" stroke="#467EC0" stroke-width="4" stroke-linecap="round" stroke-linejoin="round" stroke-dasharray="1 10"/>
<g filter="url(#filter2_dddd_137_292)">
<circle cx="257.5" cy="158.126" r="41" fill="url(#paint9_linear_137_292)"/>
</g>
<path d="M254.931 158.977L235.5 158.92C235.5 158.92 236.052 162.451 237.732 164.873L238.069 164.986C238.544 165.15 239.06 165.156 239.539 165.005L241.771 164.309C242.973 163.934 244.263 163.934 245.466 164.309L247.729 165.018C248.189 165.162 248.684 165.162 249.144 165.018L251.411 164.309C252.612 163.934 253.901 163.934 255.103 164.309L257.369 165.018C257.83 165.162 258.324 165.162 258.785 165.018L261.048 164.309C262.251 163.934 263.541 163.934 264.743 164.309L267.01 165.018C267.469 165.162 267.963 165.162 268.422 165.018L270.695 164.309C271.897 163.934 273.187 163.934 274.39 164.309L275.094 164.532C275.193 162.721 275.585 159.962 276.953 157.603C278.566 154.949 280.423 152.447 282.5 150.13C282.5 150.13 275.732 149.947 269.592 152.274C263.452 154.602 258.565 158.832 254.931 158.977ZM273.201 153.622C273.435 153.623 273.664 153.692 273.859 153.822C274.054 153.951 274.205 154.134 274.294 154.349C274.384 154.563 274.406 154.799 274.36 155.026C274.314 155.253 274.2 155.461 274.034 155.625C273.868 155.788 273.656 155.899 273.426 155.944C273.196 155.988 272.957 155.965 272.741 155.875C272.524 155.786 272.34 155.635 272.21 155.442C272.08 155.249 272.011 155.023 272.012 154.791C272.016 154.482 272.143 154.188 272.366 153.972C272.588 153.755 272.888 153.634 273.201 153.635V153.622ZM268.556 157.849C268.322 157.849 268.093 157.779 267.898 157.65C267.704 157.521 267.552 157.338 267.463 157.124C267.373 156.91 267.35 156.675 267.396 156.448C267.442 156.221 267.555 156.013 267.721 155.849C267.886 155.685 268.097 155.574 268.327 155.529C268.557 155.483 268.795 155.506 269.011 155.594C269.228 155.683 269.413 155.832 269.544 156.025C269.674 156.217 269.744 156.443 269.745 156.674C269.747 156.83 269.717 156.984 269.658 157.128C269.599 157.272 269.512 157.403 269.401 157.513C269.291 157.624 269.159 157.711 269.014 157.771C268.869 157.831 268.713 157.862 268.556 157.862V157.849Z" fill="white"/>
<path d="M276.709 167.552L274.355 166.829C273.495 166.567 272.571 166.567 271.71 166.829L269.36 167.552C268.499 167.811 267.576 167.811 266.715 167.552L264.364 166.839C263.504 166.577 262.58 166.577 261.719 166.839L259.372 167.552C258.511 167.81 257.588 167.81 256.727 167.552L254.38 166.839C253.519 166.577 252.595 166.577 251.735 166.839L249.388 167.552C248.527 167.81 247.604 167.81 246.743 167.552L244.395 166.839C243.535 166.577 242.611 166.577 241.75 166.839L239.436 167.533C238.542 167.805 237.58 167.795 236.692 167.504L232.5 166.126C234.666 170.869 238.225 174.907 242.742 177.747C247.26 180.588 252.542 182.109 257.946 182.126C263.35 182.143 268.642 180.654 273.179 177.842C277.716 175.029 281.302 171.014 283.5 166.285L279.357 167.552C278.496 167.811 277.571 167.811 276.709 167.552Z" fill="white"/>
<path d="M234.819 154.007C235.17 154.007 235.506 153.866 235.754 153.615C236.002 153.364 236.141 153.023 236.141 152.668C236.141 152.605 236.136 152.543 236.125 152.481L243.673 144.837V149.195H241.2V151.394H242.697V158.126H253.512L255.194 151.394H256.743V149.195H252.352V147.377H252.925C252.997 147.376 253.065 147.347 253.116 147.295C253.166 147.243 253.194 147.174 253.194 147.101V146.117C253.194 146.044 253.166 145.975 253.116 145.924C253.065 145.873 252.997 145.844 252.925 145.844H248.424C248.389 145.844 248.354 145.851 248.321 145.865C248.288 145.879 248.259 145.899 248.234 145.924C248.209 145.949 248.189 145.979 248.175 146.012C248.162 146.045 248.155 146.081 248.155 146.117V147.101C248.155 147.174 248.183 147.243 248.234 147.295C248.284 147.347 248.352 147.376 248.424 147.377H248.998V149.195H244.979V143.514L250.812 137.606C250.961 137.455 251.137 137.335 251.331 137.251C251.496 137.468 251.722 137.629 251.979 137.714C252.15 138.341 252.366 138.955 252.627 139.549V139.565C253.245 140.924 254.086 142.167 255.113 143.241C255.613 143.769 256.155 144.255 256.733 144.692C257.336 145.14 257.974 145.537 258.642 145.877C259.349 146.237 260.088 146.53 260.849 146.75C261.228 146.864 261.612 146.957 262 147.029C262.48 147.125 262.966 147.192 263.455 147.229C263.795 147.256 264.139 147.269 264.479 147.269C264.754 147.269 265.02 147.269 265.286 147.242C265.752 147.215 266.216 147.162 266.676 147.085C267.117 147.006 267.538 146.911 267.927 146.803C268.698 146.592 269.446 146.308 270.163 145.953C270.838 145.623 271.483 145.234 272.092 144.791C272.684 144.362 273.239 143.882 273.751 143.356C274.263 142.83 274.731 142.263 275.151 141.659C276.018 140.423 276.663 139.042 277.056 137.58C277.102 137.55 277.141 137.517 277.183 137.484L277.235 137.442C277.27 137.409 277.306 137.376 277.338 137.34C277.371 137.304 277.338 137.34 277.355 137.324C277.413 137.255 277.465 137.182 277.51 137.104H278.852C279.024 137.104 279.189 137.035 279.31 136.911C279.432 136.788 279.5 136.621 279.5 136.447C279.5 136.273 279.432 136.106 279.31 135.983C279.189 135.86 279.024 135.791 278.852 135.791H277.556C277.556 135.771 277.533 135.755 277.523 135.738L277.481 135.679C277.441 135.619 277.395 135.563 277.345 135.512L277.319 135.486C277.271 135.441 277.222 135.4 277.17 135.361L277.121 135.328C277.058 135.285 276.991 135.249 276.92 135.22C276.852 135.193 276.781 135.171 276.71 135.154H276.655C276.576 135.137 276.495 135.128 276.415 135.128C276.336 135.129 276.258 135.136 276.181 135.151L276.117 135.167C276.052 135.18 275.989 135.2 275.929 135.226L275.88 135.246C275.822 135.272 275.765 135.303 275.711 135.338L275.64 135.387C275.602 135.415 275.567 135.446 275.533 135.479C275.498 135.508 275.465 135.541 275.436 135.577C275.406 135.61 275.378 135.644 275.352 135.679L275.287 135.778C275.287 135.778 275.287 135.794 275.271 135.807H271.541C271.426 135.601 271.259 135.429 271.057 135.31C270.855 135.191 270.625 135.128 270.392 135.128C270.158 135.128 269.928 135.191 269.726 135.31C269.525 135.429 269.358 135.601 269.243 135.807H265.545C265.43 135.601 265.263 135.429 265.061 135.31C264.86 135.191 264.63 135.128 264.396 135.128C264.162 135.128 263.933 135.191 263.731 135.31C263.529 135.429 263.362 135.601 263.247 135.807H259.546C259.431 135.601 259.264 135.43 259.062 135.31C258.86 135.191 258.63 135.128 258.396 135.128C258.162 135.128 257.932 135.191 257.73 135.31C257.528 135.43 257.361 135.601 257.245 135.807H253.544C253.424 135.591 253.247 135.413 253.033 135.293C252.819 135.173 252.576 135.116 252.331 135.128C252.087 135.14 251.85 135.22 251.648 135.361C251.447 135.501 251.287 135.695 251.188 135.922C250.698 136.061 250.252 136.325 249.892 136.69L243.864 142.795L235.321 151.447C235.163 151.382 234.993 151.349 234.822 151.348C234.472 151.348 234.135 151.49 233.887 151.741C233.639 151.992 233.5 152.332 233.5 152.688C233.5 153.043 233.639 153.383 233.887 153.635C234.135 153.886 234.472 154.027 234.822 154.027L234.819 154.007ZM250.913 152.29H253.421L252.559 155.753H250.051L250.913 152.29ZM246.677 152.29H249.182L248.32 155.753H245.812L246.677 152.29ZM250.242 147.367H251.081V149.185H250.242V147.367ZM253.318 139.49L253.924 138.876C254.007 138.992 254.099 139.102 254.199 139.204L254.922 139.936L254.047 140.822C253.782 140.392 253.543 139.946 253.33 139.487L253.318 139.49ZM254.423 141.374L255.395 140.389L256.432 141.439L255.362 142.523C255.03 142.158 254.721 141.774 254.436 141.371L254.423 141.374ZM271.417 141.449L270.377 142.503L269.34 141.449L270.377 140.399L271.417 141.449ZM270.841 139.93L271.897 138.86C271.984 138.976 272.08 139.086 272.182 139.188L272.915 139.933L271.878 140.983L270.841 139.93ZM269.917 142.969L268.88 144.019L267.84 142.969L268.88 141.919L269.917 142.969ZM268.88 140.983L267.843 139.933L268.575 139.188C268.678 139.086 268.772 138.977 268.857 138.86L269.917 139.93L268.88 140.983ZM268.416 141.449L267.379 142.5L266.342 141.449L267.379 140.399L268.416 141.449ZM266.916 142.969L265.879 144.019L264.842 142.969L265.879 141.919L266.916 142.969ZM264.382 142.5L263.345 141.449L264.382 140.399L265.419 141.449L264.382 142.5ZM263.944 142.966L262.907 144.016L261.87 142.966L262.907 141.915L263.944 142.966ZM262.907 140.98L261.87 139.93L262.606 139.185C262.706 139.081 262.801 138.972 262.888 138.856L263.944 139.926L262.907 140.98ZM262.447 141.446L261.41 142.496L260.373 141.446L261.41 140.396L262.447 141.446ZM260.946 142.966L259.909 144.016L258.872 142.966L259.909 141.915L260.946 142.966ZM259.909 140.98L258.872 139.926L259.929 138.856C260.016 138.973 260.111 139.082 260.214 139.185L260.946 139.93L259.909 140.98ZM259.449 141.446L258.409 142.496L257.372 141.446L258.409 140.396L259.449 141.446ZM256.912 140.98L255.871 139.93L256.607 139.185C256.708 139.081 256.802 138.972 256.889 138.856L257.949 139.926L256.912 140.98ZM255.832 143.005L256.912 141.915L257.949 142.966L256.941 143.986C256.548 143.682 256.173 143.355 255.819 143.005H255.832ZM257.472 144.384L258.409 143.432L259.449 144.485L258.765 145.175C258.317 144.936 257.882 144.672 257.463 144.384H257.472ZM260.891 146.058C260.377 145.9 259.874 145.708 259.384 145.483L259.909 144.951L260.946 146.002L260.891 146.058ZM260.373 144.485L261.41 143.432L262.447 144.482L261.407 145.532L260.373 144.485ZM263.4 146.553C263.017 146.521 262.636 146.469 262.259 146.396L261.87 146.002L262.907 144.951L263.944 146.002L263.4 146.553ZM264.408 145.532L263.371 144.482L264.408 143.432L265.445 144.482L264.408 145.532ZM266.504 146.445C266.145 146.504 265.785 146.547 265.432 146.57L264.868 146.002L265.905 144.951L266.945 146.002L266.504 146.445ZM266.368 144.476L267.405 143.425L268.442 144.479L267.405 145.529L266.368 144.476ZM267.972 146.117L267.869 146.008L268.906 144.958L269.486 145.555C268.99 145.775 268.48 145.96 267.959 146.11L267.972 146.117ZM270.124 145.26L269.366 144.492L270.403 143.438L271.43 144.479C271.004 144.764 270.56 145.023 270.102 145.253L270.124 145.26ZM271.972 144.091L270.866 142.972L271.904 141.922L273.093 143.127C272.733 143.468 272.354 143.787 271.959 144.085L271.972 144.091ZM273.553 142.657L272.37 141.446L273.407 140.396L274.499 141.502C274.202 141.903 273.882 142.287 273.54 142.651L273.553 142.657ZM274.866 140.96L273.851 139.936L274.574 139.204C274.675 139.102 274.768 138.992 274.853 138.876L275.611 139.647C275.388 140.099 275.139 140.538 274.866 140.96ZM275.903 138.991L275.199 138.279C275.275 138.114 275.336 137.942 275.381 137.767L275.478 137.402C275.711 137.63 276.02 137.761 276.343 137.77C276.217 138.184 276.07 138.592 275.903 138.991ZM274.882 137.094L274.749 137.599C274.635 138.024 274.411 138.41 274.101 138.719L273.378 139.45L272.642 138.709C272.33 138.396 272.106 138.003 271.994 137.573L271.871 137.094H274.882ZM269.398 137.75L269.486 137.422C269.732 137.656 270.056 137.786 270.393 137.786C270.73 137.786 271.055 137.656 271.301 137.422L271.385 137.75C271.431 137.928 271.492 138.101 271.567 138.269L270.39 139.46L269.214 138.269C269.292 138.102 269.353 137.929 269.398 137.75ZM268.89 137.094L268.766 137.576C268.653 138.005 268.429 138.396 268.118 138.709L267.383 139.45L266.177 138.229L265.889 137.094H268.89ZM265.892 138.866L266.932 139.92L265.892 140.97L264.855 139.917L265.892 138.866ZM263.4 137.74L263.487 137.412C263.733 137.646 264.057 137.776 264.395 137.776C264.732 137.776 265.056 137.646 265.302 137.412L265.529 138.305L264.395 139.457L263.218 138.266C263.293 138.099 263.354 137.927 263.4 137.75V137.74ZM262.894 137.084L262.768 137.566C262.655 137.996 262.432 138.387 262.12 138.699L261.387 139.441L260.651 138.699C260.34 138.386 260.117 137.995 260.003 137.566L259.88 137.084H262.894ZM257.404 137.74L257.488 137.412C257.734 137.646 258.059 137.776 258.396 137.776C258.733 137.776 259.058 137.646 259.303 137.412L259.391 137.74C259.436 137.918 259.497 138.092 259.572 138.259L258.396 139.45L257.219 138.259C257.296 138.096 257.358 137.925 257.404 137.75V137.74ZM256.895 137.084L256.772 137.563C256.661 137.994 256.437 138.386 256.124 138.699L255.392 139.441L254.669 138.709C254.359 138.401 254.136 138.016 254.021 137.593L253.885 137.084H256.895ZM253.311 137.389L253.408 137.763C253.454 137.937 253.515 138.106 253.59 138.269L253.045 138.82C252.899 138.463 252.773 138.101 252.66 137.734C252.903 137.689 253.128 137.577 253.311 137.409V137.389Z" fill="white"/>
<g filter="url(#filter3_dddd_137_292)">
<path d="M487.089 249.621C487.085 258.164 484.898 266.564 480.737 274.025C476.576 281.486 470.578 287.76 463.311 292.252C460.512 293.99 457.544 295.442 454.454 296.587C443.19 300.758 430.805 300.758 419.541 296.587C416.665 295.519 413.895 294.185 411.267 292.602C403.75 288.103 397.545 281.712 393.27 274.066C388.995 266.42 386.8 257.786 386.904 249.027C387.007 240.268 389.406 231.689 393.861 224.146C398.315 216.603 404.67 210.36 412.291 206.04C419.911 201.72 428.531 199.474 437.291 199.526C446.051 199.578 454.644 201.926 462.213 206.336C469.782 210.746 476.062 217.064 480.427 224.659C484.792 232.254 487.089 240.861 487.089 249.621Z" stroke="#4FC2E2" stroke-width="2" stroke-miterlimit="10"/>
</g>
<path d="M450.281 267.558C448.541 271.036 443.379 273.576 437.289 273.576C430.982 273.576 425.675 270.864 424.136 267.208L426.948 266.246V259.595C428.32 261.034 429.966 262.184 431.788 262.98C433.611 263.776 435.573 264.2 437.561 264.229C441.314 264.184 444.909 262.714 447.619 260.117V266.485L450.281 267.558Z" stroke="#4FC2E2" stroke-width="1.47" stroke-miterlimit="10"/>
<path d="M455.449 237.874H419.668C418.424 238.796 417.779 241.291 418.196 244.036C418.563 246.459 419.635 248.393 420.869 249.126C420.996 249.203 421.13 249.268 421.269 249.32C422.207 253.192 424.168 256.741 426.948 259.595C428.258 261.008 429.839 262.145 431.595 262.938C433.352 263.731 435.249 264.165 437.176 264.214C439.103 264.262 441.02 263.925 442.814 263.221C444.609 262.518 446.244 261.463 447.625 260.117C450.719 257.187 452.89 253.417 453.87 249.27C455.271 248.759 456.532 246.67 456.932 244.014C457.349 241.258 456.688 238.779 455.449 237.874Z" stroke="#4FC2E2" stroke-width="1.47" stroke-miterlimit="10"/>
<path d="M470.319 273.565C468.473 272.386 466.547 271.337 464.556 270.425L462.478 269.797L462.3 269.742L454.854 267.491L454.676 267.436L450.753 266.263C450.646 266.715 450.488 267.153 450.281 267.569C449.938 268.247 449.494 268.869 448.964 269.414C448.483 269.911 447.952 270.358 447.38 270.748C444.885 272.487 441.268 273.576 437.289 273.576C436.889 273.576 436.506 273.576 436.111 273.576C435.716 273.576 435.422 273.531 435.089 273.498H434.972L434.727 273.47L434.377 273.426H434.272C434.237 273.429 434.201 273.429 434.166 273.426C433.979 273.409 433.794 273.382 433.61 273.343C433.327 273.304 433.055 273.237 432.766 273.181C432.444 273.109 432.116 273.026 431.821 272.942H431.749H431.66C431.399 272.865 431.143 272.787 430.899 272.703L430.749 272.648C430.549 272.581 430.365 272.515 430.193 272.437C430.021 272.359 429.954 272.342 429.832 272.287C429.758 272.262 429.685 272.232 429.615 272.198L429.204 272.02L429.076 271.953L429.004 271.92C428.955 271.904 428.908 271.882 428.865 271.853C428.693 271.764 428.515 271.687 428.348 271.587L428.104 271.442L427.698 271.209C427.446 271.058 427.203 270.893 426.97 270.714L426.637 270.464C426.637 270.464 426.637 270.464 426.603 270.436L426.27 270.164C426.164 270.075 426.059 269.975 425.959 269.881C425.859 269.786 425.659 269.597 425.514 269.431C425.465 269.381 425.419 269.329 425.375 269.275C425.33 269.227 425.289 269.175 425.253 269.119C425.182 269.043 425.117 268.961 425.059 268.875C424.97 268.782 424.891 268.68 424.825 268.569C424.731 268.442 424.646 268.308 424.57 268.169C424.527 268.106 424.488 268.041 424.453 267.975C424.336 267.774 424.232 267.566 424.142 267.352C424.005 267.045 423.897 266.725 423.819 266.397L420.296 267.458L420.124 267.502L412.667 269.725L412.484 269.781L409.939 270.547H409.905C408.029 271.373 406.209 272.317 404.454 273.376L404.232 273.526C401.776 275.132 399.497 277.232 399.531 279.538C399.531 280.411 399.531 281.578 399.531 282.9C402.914 286.712 406.86 289.984 411.233 292.602C413.861 294.185 416.631 295.519 419.507 296.587H454.465C457.555 295.442 460.523 293.99 463.323 292.252C467.678 289.562 471.595 286.218 474.936 282.339C474.936 281.228 474.936 280.288 474.936 279.561C474.97 277.271 472.752 275.154 470.319 273.565Z" stroke="#4FC2E2" stroke-width="1.47" stroke-miterlimit="10"/>
<path d="M461.978 282.9V283.4H462.478H462.811V291.973C460.109 293.629 457.252 295.017 454.28 296.118C443.128 300.247 430.866 300.247 419.714 296.118C416.956 295.093 414.296 293.822 411.767 292.319V283.4H412.661H413.161V282.9V269.338L419.791 267.281V282.9V283.4H420.291H454.854H455.354V282.9V267.281L461.978 269.338V282.9ZM414.633 289.045C415.126 289.373 415.705 289.547 416.297 289.546C417.087 289.544 417.845 289.229 418.404 288.67C418.963 288.111 419.278 287.354 419.279 286.563C419.281 285.971 419.106 285.392 418.778 284.9C418.45 284.407 417.984 284.023 417.437 283.796C416.89 283.569 416.289 283.509 415.708 283.624C415.128 283.739 414.595 284.024 414.176 284.443C413.758 284.861 413.473 285.394 413.358 285.975C413.242 286.555 413.302 287.157 413.529 287.704C413.756 288.25 414.141 288.717 414.633 289.045ZM456.831 289.045C457.324 289.373 457.903 289.547 458.495 289.546C459.285 289.544 460.043 289.229 460.602 288.67C461.161 288.111 461.476 287.354 461.478 286.563C461.479 285.971 461.304 285.392 460.977 284.9C460.649 284.407 460.182 284.023 459.635 283.796C459.089 283.569 458.487 283.509 457.907 283.624C457.326 283.739 456.793 284.024 456.374 284.443C455.956 284.861 455.671 285.394 455.556 285.975C455.441 286.555 455.5 287.157 455.727 287.704C455.955 288.25 456.339 288.717 456.831 289.045Z" fill="url(#paint10_linear_137_292)" stroke="#4FC2E2"/>
<path d="M458.866 237.874H416.257L419.924 230.161C420.124 229.761 420.436 229.428 420.821 229.202C421.207 228.976 421.65 228.867 422.097 228.888H453.031C453.478 228.867 453.921 228.976 454.307 229.202C454.692 229.428 455.004 229.761 455.204 230.161L458.866 237.874Z" fill="url(#paint11_linear_137_292)" stroke="#4FC2E2" stroke-width="1.47" stroke-miterlimit="10"/>
<path d="M452.376 220.02V225.949H422.791V220.02C422.793 219.358 423.056 218.725 423.524 218.257C423.991 217.789 424.625 217.526 425.286 217.525H449.875C450.537 217.525 451.173 217.787 451.641 218.255C452.11 218.723 452.374 219.357 452.376 220.02Z" fill="url(#paint12_linear_137_292)" stroke="#4FC2E2" stroke-width="1.47" stroke-miterlimit="10"/>
<path d="M453.443 225.954L454.154 228.922H421.002L421.719 225.954H453.443Z" stroke="#4FC2E2" stroke-width="1.47" stroke-miterlimit="10"/>
<defs>
<filter id="filter0_dddd_137_292" x="168.161" y="0.744932" width="178.61" height="318.804" filterUnits="userSpaceOnUse" color-interpolation-filters="sRGB">
<feFlood flood-opacity="0" result="BackgroundImageFix"/>
<feColorMatrix in="SourceAlpha" type="matrix" values="0 0 0 0 0 0 0 0 0 0 0 0 0 0 0 0 0 0 127 0" result="hardAlpha"/>
<feOffset/>
<feGaussianBlur stdDeviation="0.2556"/>
<feColorMatrix type="matrix" values="0 0 0 0 0.904675 0 0 0 0 1 0 0 0 0 1 0 0 0 1 0"/>
<feBlend mode="normal" in2="BackgroundImageFix" result="effect1_dropShadow_137_292"/>
<feColorMatrix in="SourceAlpha" type="matrix" values="0 0 0 0 0 0 0 0 0 0 0 0 0 0 0 0 0 0 127 0" result="hardAlpha"/>
<feOffset/>
<feGaussianBlur stdDeviation="0.5112"/>
<feColorMatrix type="matrix" values="0 0 0 0 0.904675 0 0 0 0 1 0 0 0 0 1 0 0 0 1 0"/>
<feBlend mode="normal" in2="effect1_dropShadow_137_292" result="effect2_dropShadow_137_292"/>
<feColorMatrix in="SourceAlpha" type="matrix" values="0 0 0 0 0 0 0 0 0 0 0 0 0 0 0 0 0 0 127 0" result="hardAlpha"/>
<feOffset/>
<feGaussianBlur stdDeviation="1.7892"/>
<feColorMatrix type="matrix" values="0 0 0 0 0.904675 0 0 0 0 1 0 0 0 0 1 0 0 0 1 0"/>
<feBlend mode="normal" in2="effect2_dropShadow_137_292" result="effect3_dropShadow_137_292"/>
<feColorMatrix in="SourceAlpha" type="matrix" values="0 0 0 0 0 0 0 0 0 0 0 0 0 0 0 0 0 0 127 0" result="hardAlpha"/>
<feOffset/>
<feGaussianBlur stdDeviation="10.7352"/>
<feColorMatrix type="matrix" values="0 0 0 0 0.0235294 0 0 0 0 0.839216 0 0 0 0 0.898039 0 0 0 1 0"/>
<feBlend mode="normal" in2="effect3_dropShadow_137_292" result="effect4_dropShadow_137_292"/>
<feBlend mode="normal" in="SourceGraphic" in2="effect4_dropShadow_137_292" result="shape"/>
</filter>
<filter id="filter1_dddd_137_292" x="0.0296001" y="3.65582" width="143.899" height="143.92" filterUnits="userSpaceOnUse" color-interpolation-filters="sRGB">
<feFlood flood-opacity="0" result="BackgroundImageFix"/>
<feColorMatrix in="SourceAlpha" type="matrix" values="0 0 0 0 0 0 0 0 0 0 0 0 0 0 0 0 0 0 127 0" result="hardAlpha"/>
<feOffset/>
<feGaussianBlur stdDeviation="0.2556"/>
<feColorMatrix type="matrix" values="0 0 0 0 0.904675 0 0 0 0 1 0 0 0 0 1 0 0 0 1 0"/>
<feBlend mode="normal" in2="BackgroundImageFix" result="effect1_dropShadow_137_292"/>
<feColorMatrix in="SourceAlpha" type="matrix" values="0 0 0 0 0 0 0 0 0 0 0 0 0 0 0 0 0 0 127 0" result="hardAlpha"/>
<feOffset/>
<feGaussianBlur stdDeviation="0.5112"/>
<feColorMatrix type="matrix" values="0 0 0 0 0.904675 0 0 0 0 1 0 0 0 0 1 0 0 0 1 0"/>
<feBlend mode="normal" in2="effect1_dropShadow_137_292" result="effect2_dropShadow_137_292"/>
<feColorMatrix in="SourceAlpha" type="matrix" values="0 0 0 0 0 0 0 0 0 0 0 0 0 0 0 0 0 0 127 0" result="hardAlpha"/>
<feOffset/>
<feGaussianBlur stdDeviation="1.7892"/>
<feColorMatrix type="matrix" values="0 0 0 0 0.904675 0 0 0 0 1 0 0 0 0 1 0 0 0 1 0"/>
<feBlend mode="normal" in2="effect2_dropShadow_137_292" result="effect3_dropShadow_137_292"/>
<feColorMatrix in="SourceAlpha" type="matrix" values="0 0 0 0 0 0 0 0 0 0 0 0 0 0 0 0 0 0 127 0" result="hardAlpha"/>
<feOffset/>
<feGaussianBlur stdDeviation="10.7352"/>
<feColorMatrix type="matrix" values="0 0 0 0 0.0235294 0 0 0 0 0.839216 0 0 0 0 0.898039 0 0 0 1 0"/>
<feBlend mode="normal" in2="effect3_dropShadow_137_292" result="effect4_dropShadow_137_292"/>
<feBlend mode="normal" in="SourceGraphic" in2="effect4_dropShadow_137_292" result="shape"/>
</filter>
<filter id="filter2_dddd_137_292" x="195.03" y="95.6558" width="124.941" height="124.941" filterUnits="userSpaceOnUse" color-interpolation-filters="sRGB">
<feFlood flood-opacity="0" result="BackgroundImageFix"/>
<feColorMatrix in="SourceAlpha" type="matrix" values="0 0 0 0 0 0 0 0 0 0 0 0 0 0 0 0 0 0 127 0" result="hardAlpha"/>
<feOffset/>
<feGaussianBlur stdDeviation="0.2556"/>
<feColorMatrix type="matrix" values="0 0 0 0 0.904675 0 0 0 0 1 0 0 0 0 1 0 0 0 1 0"/>
<feBlend mode="normal" in2="BackgroundImageFix" result="effect1_dropShadow_137_292"/>
<feColorMatrix in="SourceAlpha" type="matrix" values="0 0 0 0 0 0 0 0 0 0 0 0 0 0 0 0 0 0 127 0" result="hardAlpha"/>
<feOffset/>
<feGaussianBlur stdDeviation="0.5112"/>
<feColorMatrix type="matrix" values="0 0 0 0 0.904675 0 0 0 0 1 0 0 0 0 1 0 0 0 1 0"/>
<feBlend mode="normal" in2="effect1_dropShadow_137_292" result="effect2_dropShadow_137_292"/>
<feColorMatrix in="SourceAlpha" type="matrix" values="0 0 0 0 0 0 0 0 0 0 0 0 0 0 0 0 0 0 127 0" result="hardAlpha"/>
<feOffset/>
<feGaussianBlur stdDeviation="1.7892"/>
<feColorMatrix type="matrix" values="0 0 0 0 0.904675 0 0 0 0 1 0 0 0 0 1 0 0 0 1 0"/>
<feBlend mode="normal" in2="effect2_dropShadow_137_292" result="effect3_dropShadow_137_292"/>
<feColorMatrix in="SourceAlpha" type="matrix" values="0 0 0 0 0 0 0 0 0 0 0 0 0 0 0 0 0 0 127 0" result="hardAlpha"/>
<feOffset/>
<feGaussianBlur stdDeviation="10.7352"/>
<feColorMatrix type="matrix" values="0 0 0 0 0.0235294 0 0 0 0 0.839216 0 0 0 0 0.898039 0 0 0 1 0"/>
<feBlend mode="normal" in2="effect3_dropShadow_137_292" result="effect4_dropShadow_137_292"/>
<feBlend mode="normal" in="SourceGraphic" in2="effect4_dropShadow_137_292" result="shape"/>
</filter>
<filter id="filter3_dddd_137_292" x="364.43" y="177.055" width="145.13" height="145.131" filterUnits="userSpaceOnUse" color-interpolation-filters="sRGB">
<feFlood flood-opacity="0" result="BackgroundImageFix"/>
<feColorMatrix in="SourceAlpha" type="matrix" values="0 0 0 0 0 0 0 0 0 0 0 0 0 0 0 0 0 0 127 0" result="hardAlpha"/>
<feOffset/>
<feGaussianBlur stdDeviation="0.2556"/>
<feColorMatrix type="matrix" values="0 0 0 0 0.904675 0 0 0 0 1 0 0 0 0 1 0 0 0 1 0"/>
<feBlend mode="normal" in2="BackgroundImageFix" result="effect1_dropShadow_137_292"/>
<feColorMatrix in="SourceAlpha" type="matrix" values="0 0 0 0 0 0 0 0 0 0 0 0 0 0 0 0 0 0 127 0" result="hardAlpha"/>
<feOffset/>
<feGaussianBlur stdDeviation="0.5112"/>
<feColorMatrix type="matrix" values="0 0 0 0 0.904675 0 0 0 0 1 0 0 0 0 1 0 0 0 1 0"/>
<feBlend mode="normal" in2="effect1_dropShadow_137_292" result="effect2_dropShadow_137_292"/>
<feColorMatrix in="SourceAlpha" type="matrix" values="0 0 0 0 0 0 0 0 0 0 0 0 0 0 0 0 0 0 127 0" result="hardAlpha"/>
<feOffset/>
<feGaussianBlur stdDeviation="1.7892"/>
<feColorMatrix type="matrix" values="0 0 0 0 0.904675 0 0 0 0 1 0 0 0 0 1 0 0 0 1 0"/>
<feBlend mode="normal" in2="effect2_dropShadow_137_292" result="effect3_dropShadow_137_292"/>
<feColorMatrix in="SourceAlpha" type="matrix" values="0 0 0 0 0 0 0 0 0 0 0 0 0 0 0 0 0 0 127 0" result="hardAlpha"/>
<feOffset/>
<feGaussianBlur stdDeviation="10.7352"/>
<feColorMatrix type="matrix" values="0 0 0 0 0.0235294 0 0 0 0 0.839216 0 0 0 0 0.898039 0 0 0 1 0"/>
<feBlend mode="normal" in2="effect3_dropShadow_137_292" result="effect4_dropShadow_137_292"/>
<feBlend mode="normal" in="SourceGraphic" in2="effect4_dropShadow_137_292" result="shape"/>
</filter>
<linearGradient id="paint0_linear_137_292" x1="257.352" y1="20.4999" x2="260.482" y2="302.169" gradientUnits="userSpaceOnUse">
<stop stop-color="#50C1E1"/>
<stop offset="1" stop-color="#467EC0"/>
</linearGradient>
<linearGradient id="paint1_linear_137_292" x1="255.913" y1="20.5145" x2="259.043" y2="302.184" gradientUnits="userSpaceOnUse">
<stop stop-color="#50C1E1"/>
<stop offset="1" stop-color="#467EC0"/>
</linearGradient>
<linearGradient id="paint2_linear_137_292" x1="255.913" y1="20.5145" x2="259.043" y2="302.184" gradientUnits="userSpaceOnUse">
<stop stop-color="#50C1E1"/>
<stop offset="1" stop-color="#467EC0"/>
</linearGradient>
<linearGradient id="paint3_linear_137_292" x1="256.112" y1="20.5974" x2="259.242" y2="302.267" gradientUnits="userSpaceOnUse">
<stop stop-color="#50C1E1"/>
<stop offset="1" stop-color="#467EC0"/>
</linearGradient>
<linearGradient id="paint4_linear_137_292" x1="255.913" y1="20.5146" x2="259.043" y2="302.184" gradientUnits="userSpaceOnUse">
<stop stop-color="#50C1E1"/>
<stop offset="1" stop-color="#467EC0"/>
</linearGradient>
<linearGradient id="paint5_linear_137_292" x1="239.213" y1="20.6993" x2="242.343" y2="302.369" gradientUnits="userSpaceOnUse">
<stop stop-color="#50C1E1"/>
<stop offset="1" stop-color="#467EC0"/>
</linearGradient>
<linearGradient id="paint6_linear_137_292" x1="257.313" y1="20.5001" x2="260.443" y2="302.169" gradientUnits="userSpaceOnUse">
<stop stop-color="#50C1E1"/>
<stop offset="1" stop-color="#467EC0"/>
</linearGradient>
<linearGradient id="paint7_linear_137_292" x1="35.5" y1="53.6262" x2="107.5" y2="53.6262" gradientUnits="userSpaceOnUse">
<stop stop-color="#267EB2"/>
<stop offset="1" stop-color="#4FC2E2"/>
</linearGradient>
<linearGradient id="paint8_linear_137_292" x1="39.5" y1="97.6262" x2="102.5" y2="97.6262" gradientUnits="userSpaceOnUse">
<stop stop-color="#267EB2"/>
<stop offset="1" stop-color="#4FC2E2"/>
</linearGradient>
<linearGradient id="paint9_linear_137_292" x1="216.5" y1="158.126" x2="298.5" y2="158.126" gradientUnits="userSpaceOnUse">
<stop stop-color="#267EB2"/>
<stop offset="1" stop-color="#4FC2E2"/>
</linearGradient>
<linearGradient id="paint10_linear_137_292" x1="411.267" y1="283.159" x2="463.311" y2="283.159" gradientUnits="userSpaceOnUse">
<stop stop-color="#267EB2"/>
<stop offset="1" stop-color="#4FC2E2"/>
</linearGradient>
<linearGradient id="paint11_linear_137_292" x1="416.257" y1="233.38" x2="458.866" y2="233.38" gradientUnits="userSpaceOnUse">
<stop stop-color="#267EB2"/>
<stop offset="1" stop-color="#4FC2E2"/>
</linearGradient>
<linearGradient id="paint12_linear_137_292" x1="422.791" y1="221.737" x2="452.376" y2="221.737" gradientUnits="userSpaceOnUse">
<stop stop-color="#267EB2"/>
<stop offset="1" stop-color="#4FC2E2"/>
</linearGradient>
</defs>
</svg>
