<svg width="431" height="341" viewBox="0 0 431 341" fill="none" xmlns="http://www.w3.org/2000/svg">
<path d="M311.576 8.44849C315.072 6.44713 317.947 8.06823 317.961 12.0843L318.628 238.351C318.628 242.354 315.779 247.317 312.29 249.332L204.444 311.581C200.948 313.582 198.073 311.955 198.066 307.945L197.399 81.6782C197.399 77.6755 200.247 72.7121 203.736 70.6974L311.576 8.44849Z" stroke="#4FC2E2" stroke-linejoin="round"/>
<path d="M307.413 1.6173C306.079 0.856778 304.291 0.950175 302.303 2.10429L194.483 64.3866C190.527 66.6682 187.305 72.2586 187.319 76.8017L187.986 303.069C187.986 305.324 188.8 306.918 190.087 307.672L197.632 312.055C196.338 311.301 195.537 309.707 195.531 307.452L194.864 81.1847C194.864 76.6416 198.072 71.0578 202.029 68.7696L309.848 6.48727C311.85 5.33982 313.644 5.23976 314.952 6.00027L307.413 1.6173Z" stroke="#4FC2E2" stroke-linejoin="round"/>
<path d="M314.211 13.2851C313.597 12.1243 312.257 11.8375 310.715 12.7314L298.754 19.6361L203.683 74.5267L205.417 76.488L301.856 20.8169L312.477 14.6861C313.684 14.0189 314.738 14.2124 315.219 15.1264L314.211 13.2851Z" fill="#4FC2E2"/>
<path d="M205.417 76.4882L203.683 74.5269C202.568 75.2535 201.641 76.2326 200.976 77.3847C200.31 78.5369 199.926 79.8296 199.854 81.158L200.521 306.998C200.521 308.753 201.435 309.753 202.736 309.713L204.817 309.653C203.796 309.687 203.083 308.899 203.083 307.518L202.415 81.685C202.471 80.6437 202.772 79.6302 203.294 78.7271C203.816 77.8241 204.543 77.057 205.417 76.4882Z" fill="#4FC2E2"/>
<path d="M300.469 21.591L312.477 14.6863C314.131 13.7324 315.499 14.5062 315.499 16.4142L316.166 242.248C316.108 243.289 315.805 244.303 315.284 245.206C314.763 246.11 314.037 246.879 313.164 247.451L206.078 309.22C204.424 310.174 203.056 309.4 203.056 307.492L202.389 81.6585C202.445 80.6171 202.746 79.6037 203.268 78.7006C203.789 77.7976 204.517 77.0304 205.391 76.4617L217.346 69.5503L300.469 21.591Z" stroke="#4FC2E2" stroke-linejoin="round"/>
<path d="M304.378 99.7838L214.897 151.446C214.325 151.777 213.676 151.953 213.015 151.954C212.354 151.955 211.704 151.781 211.131 151.451C210.558 151.121 210.082 150.646 209.751 150.073C209.421 149.501 209.247 148.851 209.247 148.19V96.3015C209.243 94.1854 209.795 92.1056 210.849 90.2707C211.903 88.4357 213.421 86.9104 215.251 85.8477L304.765 34.1859C305.337 33.8542 305.986 33.679 306.647 33.678C307.309 33.677 307.958 33.8503 308.531 34.1804C309.104 34.5105 309.58 34.9857 309.911 35.5582C310.242 36.1307 310.416 36.7803 310.415 37.4415V89.3301C310.415 91.4491 309.857 93.5306 308.797 95.3656C307.737 97.2005 306.213 98.7243 304.378 99.7838Z" stroke="#4FC2E2" stroke-linejoin="round"/>
<path d="M272.236 109.477L263.397 95.6745L246.605 105.374L246.492 105.148L238.22 87.8025L230.414 92.3056L222.029 130.472L213.336 135.488V134.534L221.408 129.878L229.794 91.7119L238.767 86.5283L238.873 86.7552L247.152 104.107L263.897 94.4337L271.929 106.989L280.088 62.6721L289.081 57.4819L297.467 75.7944L305.572 71.1112V72.0652L296.913 77.0686L288.527 58.7561L280.749 63.2458L272.236 109.477Z" fill="#4FC2E2"/>
<path d="M223.083 129.384C223.06 129.853 222.927 130.309 222.695 130.717C222.464 131.125 222.139 131.473 221.749 131.733C220.995 132.166 220.414 131.819 220.414 130.952C220.437 130.484 220.57 130.029 220.802 129.622C221.034 129.215 221.358 128.869 221.749 128.61C222.476 128.17 223.083 128.524 223.083 129.384Z" fill="#4FC2E2"/>
<path d="M221.749 132.233C220.755 132.8 219.954 132.346 219.954 131.205C219.988 130.584 220.168 129.98 220.48 129.442C220.792 128.904 221.226 128.448 221.749 128.11C222.736 127.536 223.543 127.996 223.543 129.131C223.506 129.751 223.324 130.355 223.012 130.894C222.701 131.432 222.268 131.891 221.749 132.233ZM221.749 129.104C221.479 129.279 221.255 129.516 221.094 129.794C220.933 130.072 220.839 130.384 220.821 130.705C220.821 131.292 221.235 131.525 221.749 131.232C222.017 131.057 222.24 130.821 222.401 130.545C222.562 130.268 222.656 129.957 222.676 129.638C222.649 129.05 222.229 128.81 221.749 129.097V129.104Z" fill="#4FC2E2"/>
<path d="M214.697 134.227C214.674 134.695 214.541 135.151 214.31 135.557C214.078 135.964 213.754 136.311 213.363 136.569C212.609 137.002 212.029 136.656 212.029 135.795C212.052 135.326 212.184 134.87 212.416 134.462C212.648 134.054 212.972 133.706 213.363 133.447C214.09 133.013 214.697 133.36 214.697 134.227Z" fill="#4FC2E2"/>
<path d="M213.336 137.103C212.342 137.677 211.542 137.216 211.542 136.082C211.575 135.46 211.756 134.855 212.067 134.316C212.379 133.777 212.814 133.319 213.336 132.98C214.324 132.413 215.131 132.867 215.131 134.007C215.095 134.628 214.914 135.231 214.603 135.769C214.291 136.307 213.857 136.764 213.336 137.103ZM213.336 133.981C213.067 134.155 212.843 134.39 212.681 134.667C212.52 134.944 212.427 135.255 212.409 135.575C212.409 136.162 212.822 136.402 213.336 136.109C213.604 135.932 213.828 135.696 213.989 135.418C214.15 135.14 214.244 134.828 214.263 134.508C214.263 133.894 213.843 133.654 213.336 133.947V133.981Z" fill="#4FC2E2"/>
<path d="M231.468 91.3586C231.445 91.8262 231.313 92.2819 231.081 92.6887C230.849 93.0955 230.525 93.442 230.134 93.7002C229.38 94.1338 228.8 93.7869 228.8 92.9263C228.823 92.4577 228.956 92.0011 229.187 91.5933C229.419 91.1854 229.743 90.8376 230.134 90.578C230.861 90.1444 231.468 90.4913 231.468 91.3586Z" fill="#4FC2E2"/>
<path d="M230.107 94.2003C229.113 94.774 228.313 94.3137 228.313 93.1796C228.347 92.5578 228.527 91.9527 228.839 91.4137C229.151 90.8746 229.585 90.4168 230.107 90.0775C231.095 89.5104 231.902 89.9707 231.902 91.1048C231.867 91.7254 231.686 92.3289 231.374 92.8666C231.062 93.4044 230.628 93.8612 230.107 94.2003ZM230.107 91.0782C229.838 91.2531 229.613 91.4894 229.452 91.7676C229.291 92.0458 229.198 92.3582 229.18 92.6792C229.18 93.2596 229.594 93.4998 230.107 93.2063C230.376 93.0297 230.599 92.7931 230.76 92.5152C230.921 92.2373 231.015 91.9257 231.035 91.6052C231.035 91.0248 230.614 90.7846 230.107 91.0715V91.0782Z" fill="#4FC2E2"/>
<path d="M239.854 86.4015C239.831 86.8699 239.698 87.3263 239.466 87.7341C239.234 88.1419 238.91 88.4898 238.52 88.7497C237.766 89.1834 237.186 88.8365 237.186 87.9759C237.209 87.5073 237.341 87.0507 237.573 86.6428C237.805 86.2349 238.129 85.8872 238.52 85.6276C239.24 85.1673 239.854 85.5142 239.854 86.4015Z" fill="#4FC2E2"/>
<path d="M238.493 89.2234C237.499 89.7972 236.699 89.3369 236.699 88.2028C236.732 87.5809 236.913 86.9759 237.224 86.4368C237.536 85.8978 237.971 85.44 238.493 85.1006C239.481 84.5269 240.288 84.9872 240.288 86.128C240.249 86.7478 240.067 87.3502 239.756 87.8874C239.444 88.4246 239.012 88.8821 238.493 89.2234ZM238.493 86.1013C238.222 86.2732 237.996 86.5078 237.835 86.7853C237.674 87.0628 237.581 87.3751 237.566 87.6957C237.566 88.2828 237.979 88.5163 238.493 88.2228C238.762 88.048 238.985 87.8128 239.146 87.5359C239.308 87.2589 239.401 86.9481 239.42 86.6283C239.42 86.0413 239 85.8078 238.493 86.1013Z" fill="#4FC2E2"/>
<path d="M265.011 94.2669C264.987 94.7351 264.853 95.1911 264.622 95.5987C264.39 96.0064 264.067 96.3544 263.677 96.6151C262.923 97.0487 262.343 96.7018 262.343 95.8413C262.365 95.3726 262.498 94.9158 262.729 94.5078C262.961 94.0999 263.286 93.7522 263.677 93.493C264.397 93.0727 265.011 93.4063 265.011 94.2669Z" fill="#4FC2E2"/>
<path d="M263.65 97.1155C262.656 97.6892 261.849 97.2289 261.849 96.0881C261.885 95.467 262.067 94.8631 262.38 94.3253C262.693 93.7875 263.128 93.331 263.65 92.9927C264.638 92.4189 265.445 92.8792 265.445 94.0134C265.407 94.6343 265.226 95.238 264.914 95.7765C264.603 96.3149 264.17 96.7734 263.65 97.1155ZM263.65 93.9933C263.379 94.1653 263.153 94.3999 262.992 94.6774C262.831 94.9549 262.738 95.2671 262.723 95.5878C262.723 96.1748 263.137 96.4083 263.65 96.1148C263.918 95.9397 264.141 95.7042 264.3 95.4272C264.46 95.1503 264.553 94.8397 264.571 94.5204C264.571 93.9333 264.157 93.6998 263.65 93.9933Z" fill="#4FC2E2"/>
<path d="M256.626 99.11C256.601 99.5782 256.468 100.034 256.236 100.442C256.004 100.85 255.681 101.198 255.291 101.458C254.538 101.892 253.957 101.545 253.957 100.678C253.981 100.209 254.114 99.7532 254.346 99.3455C254.578 98.9378 254.901 98.5899 255.291 98.3295C256.012 97.8959 256.626 98.2428 256.626 99.11Z" fill="#4FC2E2"/>
<path d="M255.265 101.952C254.271 102.526 253.464 102.065 253.464 100.931C253.499 100.31 253.68 99.7057 253.993 99.1677C254.306 98.6298 254.742 98.1735 255.265 97.8359C256.252 97.2622 257.059 97.7225 257.059 98.8566C257.024 99.4772 256.843 100.081 256.531 100.618C256.22 101.156 255.786 101.613 255.265 101.952ZM255.265 98.8299C254.995 99.0053 254.771 99.2416 254.61 99.5198C254.449 99.7979 254.356 100.11 254.337 100.431C254.337 101.011 254.751 101.252 255.265 100.958C255.533 100.782 255.756 100.545 255.916 100.267C256.076 99.9891 256.168 99.6773 256.185 99.357C256.185 98.7766 255.772 98.5364 255.265 98.8299Z" fill="#4FC2E2"/>
<path d="M248.24 103.947C248.216 104.415 248.083 104.872 247.852 105.28C247.62 105.687 247.296 106.035 246.906 106.295C246.152 106.729 245.571 106.382 245.571 105.521C245.594 105.053 245.727 104.596 245.959 104.188C246.191 103.781 246.515 103.433 246.906 103.173C247.626 102.74 248.24 103.08 248.24 103.947Z" fill="#4FC2E2"/>
<path d="M246.879 106.795C245.885 107.369 245.085 106.909 245.085 105.775C245.118 105.153 245.299 104.548 245.61 104.009C245.922 103.47 246.357 103.012 246.879 102.672C247.866 102.105 248.674 102.559 248.674 103.7C248.635 104.32 248.453 104.922 248.142 105.459C247.83 105.996 247.398 106.454 246.879 106.795ZM246.879 103.673C246.61 103.847 246.386 104.082 246.224 104.359C246.063 104.636 245.97 104.948 245.952 105.268C245.952 105.855 246.365 106.095 246.879 105.795C247.147 105.619 247.37 105.384 247.529 105.107C247.689 104.83 247.782 104.519 247.8 104.2C247.8 103.613 247.386 103.38 246.879 103.673Z" fill="#4FC2E2"/>
<path d="M273.444 107.443C273.421 107.911 273.288 108.368 273.056 108.776C272.825 109.184 272.5 109.531 272.11 109.791C271.362 110.225 270.775 109.878 270.775 109.017C270.799 108.549 270.932 108.092 271.163 107.684C271.395 107.277 271.719 106.929 272.11 106.669C272.837 106.235 273.444 106.582 273.444 107.443Z" fill="#4FC2E2"/>
<path d="M272.083 110.291C271.095 110.865 270.288 110.404 270.288 109.264C270.327 108.644 270.509 108.042 270.82 107.504C271.132 106.967 271.564 106.51 272.083 106.168C273.077 105.595 273.877 106.055 273.877 107.196C273.842 107.816 273.662 108.42 273.35 108.958C273.038 109.496 272.604 109.952 272.083 110.291ZM272.083 107.169C271.814 107.344 271.59 107.579 271.429 107.856C271.268 108.133 271.175 108.444 271.155 108.763C271.155 109.35 271.576 109.584 272.083 109.29C272.354 109.118 272.58 108.884 272.741 108.606C272.902 108.329 272.995 108.017 273.01 107.696C273.01 107.082 272.596 106.875 272.083 107.169Z" fill="#4FC2E2"/>
<path d="M290.168 57.3284C290.144 57.7966 290.01 58.2526 289.779 58.6603C289.547 59.0679 289.224 59.4159 288.834 59.6767C288.08 60.1103 287.5 59.7634 287.5 58.9028C287.522 58.4341 287.655 57.9773 287.887 57.5693C288.118 57.1614 288.443 56.8137 288.834 56.5545C289.555 56.1209 290.168 56.4678 290.168 57.3284Z" fill="#4FC2E2"/>
<path d="M288.807 60.177C287.813 60.7507 287.006 60.2904 287.006 59.1496C287.042 58.5285 287.224 57.9246 287.537 57.3868C287.85 56.849 288.285 56.3925 288.807 56.0542C289.795 55.4805 290.602 55.9408 290.602 57.0749C290.565 57.6958 290.383 58.2995 290.071 58.838C289.76 59.3765 289.327 59.8349 288.807 60.177ZM288.807 57.0549C288.536 57.2268 288.311 57.4614 288.149 57.7389C287.988 58.0164 287.896 58.3286 287.88 58.6493C287.88 59.2363 288.294 59.4698 288.807 59.1763C289.075 59.0012 289.298 58.7657 289.458 58.4888C289.618 58.2118 289.71 57.9012 289.728 57.5819C289.728 56.9948 289.314 56.7613 288.807 57.0482V57.0549Z" fill="#4FC2E2"/>
<path d="M281.789 62.1719C281.765 62.6401 281.632 63.0961 281.4 63.5038C281.168 63.9114 280.845 64.2594 280.455 64.5201C279.701 64.9538 279.121 64.6069 279.121 63.7396C279.144 63.272 279.277 62.8163 279.508 62.4095C279.74 62.0027 280.065 61.6562 280.455 61.398C281.169 60.9644 281.789 61.3113 281.789 62.1719Z" fill="#4FC2E2"/>
<path d="M280.455 65.0537C279.461 65.6207 278.654 65.1604 278.654 64.0263C278.689 63.4049 278.87 62.8006 279.183 62.2627C279.496 61.7248 279.932 61.2684 280.455 60.9309C281.442 60.3572 282.249 60.8175 282.249 61.9516C282.212 62.5725 282.03 63.1762 281.719 63.7147C281.407 64.2532 280.975 64.7116 280.455 65.0537ZM280.455 61.9249C280.186 62.1003 279.961 62.3366 279.8 62.6148C279.639 62.8929 279.546 63.2051 279.528 63.526C279.528 64.1064 279.941 64.3465 280.455 64.053C280.723 63.8769 280.946 63.6402 281.106 63.3621C281.266 63.084 281.358 62.7723 281.376 62.4519C281.342 61.8382 280.929 61.598 280.455 61.8915V61.9249Z" fill="#4FC2E2"/>
<path d="M298.547 75.6409C298.523 76.1092 298.39 76.5654 298.158 76.9731C297.927 77.3808 297.603 77.7288 297.213 77.9891C296.459 78.4228 295.879 78.0759 295.879 77.2153C295.901 76.7466 296.034 76.2898 296.266 75.8818C296.497 75.4739 296.822 75.1262 297.213 74.867C297.94 74.4334 298.547 74.7803 298.547 75.6409Z" fill="#4FC2E2"/>
<path d="M297.193 78.4897C296.199 79.0568 295.392 78.6031 295.392 77.4624C295.428 76.8412 295.61 76.2373 295.923 75.6995C296.236 75.1618 296.671 74.7053 297.193 74.3669C298.18 73.7932 298.988 74.2535 298.988 75.3876C298.95 76.0086 298.768 76.6122 298.457 77.1507C298.145 77.6892 297.713 78.1477 297.193 78.4897ZM297.193 75.3676C296.922 75.5395 296.696 75.7741 296.535 76.0516C296.373 76.3291 296.281 76.6414 296.266 76.962C296.266 77.5491 296.679 77.7826 297.193 77.489C297.46 77.3136 297.683 77.078 297.843 76.8011C298.002 76.5242 298.095 76.2138 298.114 75.8946C298.114 75.3076 297.7 75.0607 297.193 75.3676Z" fill="#4FC2E2"/>
<path d="M306.933 70.8111C306.911 71.2797 306.778 71.7365 306.546 72.1445C306.314 72.5524 305.99 72.9001 305.599 73.1593C304.852 73.5929 304.265 73.246 304.265 72.3855C304.288 71.917 304.421 71.4606 304.653 71.0528C304.884 70.645 305.208 70.2972 305.599 70.0372C306.326 69.6036 306.933 69.9505 306.933 70.8111Z" fill="#4FC2E2"/>
<path d="M305.579 73.6596C304.585 74.2334 303.778 73.7731 303.778 72.6323C303.814 72.0111 303.996 71.4072 304.309 70.8695C304.622 70.3317 305.057 69.8752 305.579 69.5368C306.566 68.9631 307.373 69.4234 307.373 70.5575C307.336 71.1785 307.154 71.7822 306.843 72.3207C306.531 72.8591 306.099 73.3176 305.579 73.6596ZM305.579 70.5375C305.308 70.7094 305.082 70.944 304.921 71.2215C304.759 71.499 304.667 71.8113 304.652 72.1319C304.652 72.719 305.065 72.9525 305.579 72.659C305.842 72.4803 306.061 72.2425 306.216 71.9645C306.371 71.6864 306.459 71.376 306.473 71.0579C306.473 70.4775 306.086 70.244 305.579 70.5375Z" fill="#4FC2E2"/>
<path d="M304.378 173.494L214.897 225.162C214.325 225.494 213.676 225.669 213.015 225.67C212.354 225.671 211.704 225.498 211.131 225.168C210.558 224.838 210.082 224.363 209.751 223.79C209.421 223.218 209.247 222.568 209.247 221.907V170.012C209.244 167.896 209.797 165.817 210.851 163.982C211.905 162.147 213.422 160.622 215.251 159.558L304.732 107.896C305.304 107.567 305.953 107.393 306.613 107.393C307.273 107.393 307.922 107.567 308.495 107.896C309.067 108.226 309.542 108.7 309.874 109.272C310.205 109.843 310.38 110.491 310.382 111.152V163.04C310.386 165.156 309.834 167.236 308.78 169.071C307.726 170.906 306.208 172.431 304.378 173.494Z" stroke="#4FC2E2" stroke-linejoin="round"/>
<path d="M235.758 171.706C240.061 169.558 243.503 171.519 243.797 176.283L255.585 169.478C255.271 157.256 246.572 152.293 235.758 158.177V171.706Z" fill="#4FC2E2"/>
<path d="M226.972 189.872C226.656 188.935 226.503 187.951 226.518 186.963C226.518 181.706 230.074 175.355 234.577 172.4V158.871C223.57 165.595 214.737 181.039 214.737 193.768C214.687 196.359 215.14 198.935 216.071 201.353L226.972 189.872Z" fill="#4FC2E2"/>
<path d="M237.186 190.472C236.564 191.008 235.894 191.486 235.184 191.9C231.795 193.855 228.86 193.314 227.439 190.879L216.545 202.36C219.747 208.658 226.885 210.212 235.178 205.423C237.136 204.279 238.971 202.938 240.655 201.42L237.186 190.472Z" fill="#4FC2E2"/>
<path d="M243.817 177.663C243.583 181.713 241.375 186.269 238.333 189.391L241.802 200.332C249.661 192.707 255.358 180.986 255.605 170.859L243.817 177.663Z" fill="#4FC2E2"/>
<path d="M302.984 129.291L263.83 151.893V147.963L302.984 125.361V129.291Z" fill="#4FC2E2"/>
<path d="M302.984 137.556L263.83 160.158V156.229L302.984 133.627V137.556Z" fill="#4FC2E2"/>
<path d="M302.984 145.822L263.83 168.431V164.495L302.984 141.893V145.822Z" fill="#4FC2E2"/>
<path d="M302.984 154.088L263.83 176.696V172.76L302.984 150.158V154.088Z" fill="#4FC2E2"/>
<path d="M284.184 173.207L263.83 184.962V181.032L284.184 169.278V173.207Z" fill="#4FC2E2"/>
<path d="M231.442 278.586L223.716 283.049V245.65L231.442 241.187V278.586Z" fill="#30768A"/>
<path d="M240.815 273.182L233.089 277.638V240.239L240.815 235.783V273.182Z" fill="#30768A"/>
<path d="M259.554 262.361L251.822 266.824V229.426L259.554 224.963V262.361Z" fill="#30768A"/>
<path d="M250.181 267.771L242.456 272.228V234.829L250.181 230.373V267.771Z" fill="#30768A"/>
<path d="M222.075 283.996L214.35 288.459V251.06L222.075 246.597V283.996Z" fill="#37889E"/>
<path d="M222.075 283.996L214.35 288.459V251.06L222.075 246.597V283.996Z" fill="#30768A"/>
<path d="M222.075 283.996L214.35 288.459V279.112L222.075 274.649V283.996Z" fill="#4FC2E2"/>
<path d="M250.181 267.771L242.456 272.228V260.213L250.181 255.75V267.771Z" fill="#4FC2E2"/>
<path d="M231.442 278.585L223.716 283.048V254.169L231.442 249.706V278.585Z" fill="#4FC2E2"/>
<path d="M240.815 273.182L233.089 277.638V257.017L240.815 252.561V273.182Z" fill="#4FC2E2"/>
<path d="M259.554 262.361L251.822 266.824V240.106L259.554 235.65V262.361Z" fill="#4FC2E2"/>
<path d="M278.294 251.541L270.562 256.004V218.605L278.294 214.142V251.541Z" fill="#30768A"/>
<path d="M287.66 246.13L279.935 250.593V213.194L287.66 208.731V246.13Z" fill="#30768A"/>
<path d="M297.026 240.72L289.301 245.183V207.784L297.026 203.321V240.72Z" fill="#30768A"/>
<path d="M268.921 256.951L261.195 261.414V224.015L268.921 219.552V256.951Z" fill="#37889E"/>
<path d="M268.921 256.951L261.195 261.414V224.015L268.921 219.552V256.951Z" fill="#30768A"/>
<path d="M268.921 256.951L261.195 261.414V252.061L268.921 247.598V256.951Z" fill="#4FC2E2"/>
<path d="M297.026 240.72L289.301 245.183V215.716L297.026 211.26V240.72Z" fill="#4FC2E2"/>
<path d="M278.294 251.54L270.562 256.003V239.606L278.294 235.143V251.54Z" fill="#4FC2E2"/>
<path d="M287.66 246.13L279.935 250.593V225.87L287.66 221.406V246.13Z" fill="#4FC2E2"/>
<path d="M306.399 235.316L298.674 239.772V202.374L306.399 197.917V235.316Z" fill="#4FC2E2"/>
<path d="M304.378 247.444L214.897 299.113C214.324 299.443 213.675 299.616 213.014 299.616C212.353 299.615 211.704 299.441 211.131 299.111C210.559 298.78 210.083 298.305 209.753 297.733C209.422 297.161 209.247 296.511 209.247 295.85V243.962C209.244 241.846 209.797 239.767 210.851 237.932C211.905 236.097 213.422 234.572 215.251 233.508L304.732 181.846C305.304 181.516 305.954 181.343 306.615 181.343C307.276 181.344 307.925 181.518 308.497 181.848C309.07 182.179 309.545 182.654 309.876 183.226C310.207 183.798 310.381 184.448 310.382 185.109V236.99C310.386 239.106 309.834 241.186 308.78 243.021C307.726 244.856 306.208 246.382 304.378 247.444Z" stroke="#4FC2E2" stroke-linejoin="round"/>
<path d="M428.843 175.449C431.671 168.11 428.296 160.985 421.137 158.63C421.49 158.754 421.836 158.899 422.172 159.064C421.824 158.896 421.468 158.747 421.104 158.617H421.137L420.957 158.544C420.824 158.497 420.684 158.477 420.544 158.437C420.29 158.364 420.037 158.284 419.776 158.23C419.89 158.23 419.983 158.297 420.09 158.324C419.943 158.284 419.797 158.237 419.65 158.21L369.616 149.371C370.312 149.493 370.987 149.718 371.617 150.038C375.753 152.133 377.394 157.843 375.28 162.793C373.378 167.256 369.082 169.578 365.226 168.464L414.053 182.547C414.233 182.6 414.413 182.633 414.593 182.673C414.453 182.64 414.313 182.62 414.179 182.58C414.346 182.627 414.52 182.66 414.686 182.693L415.013 182.767C419.61 183.627 425.687 182.22 428.856 175.429C428.756 175.649 428.756 175.649 428.843 175.449Z" fill="#00081E" stroke="#4FC2E2" stroke-linejoin="round"/>
<path d="M370.603 147.703C369.979 147.391 369.321 147.152 368.642 146.989L353.352 143.447C354.031 143.606 354.69 143.846 355.313 144.161C360.336 146.703 348.028 150.325 345.466 156.336C343.231 161.579 352.564 167.71 347.995 166.649L363.285 170.192C367.848 171.253 372.818 168.444 375.053 163.194C377.615 157.183 375.627 150.245 370.603 147.703Z" fill="#00081E" stroke="#4FC2E2" stroke-linejoin="round"/>
<path d="M343.004 105.948L327.22 96.7754C334.212 100.838 338.561 109.451 338.561 121.772C338.628 146.503 321.216 176.623 299.715 189.051C288.881 195.309 279.067 195.889 271.983 191.767L287.793 200.94C294.885 205.062 304.698 204.482 315.526 198.224C337.054 185.803 354.445 155.675 354.372 130.945C354.339 118.664 350.002 110.018 343.004 105.948Z" fill="#00081E" stroke="#4FC2E2" stroke-linejoin="round"/>
<path d="M310.553 195.062L310.552 195.063C299.882 201.224 290.324 201.772 283.457 197.86C276.591 193.95 272.239 185.481 272.203 173.219C272.166 160.96 276.461 147.327 283.458 135.204C290.456 123.082 300.129 112.518 310.799 106.368C321.472 100.216 331.032 99.6716 337.899 103.583C344.765 107.494 349.116 115.959 349.149 128.218C349.182 140.474 344.887 154.102 337.891 166.222C330.894 178.341 321.223 188.906 310.553 195.062Z" fill="#00081E" fill-opacity="0.8" stroke="#37889E"/>
<path d="M315.259 102.105C339.942 87.8557 360.003 99.2901 360.083 127.649C360.163 156.009 340.223 190.539 315.546 204.788C290.869 219.038 270.795 207.597 270.715 179.244C270.635 150.892 290.575 116.355 315.259 102.105ZM315.526 198.224C337.054 185.802 354.446 155.675 354.372 130.945C354.299 106.215 336.8 96.2547 315.272 108.663C293.744 121.072 276.359 151.212 276.453 175.949C276.546 200.686 294.004 210.652 315.526 198.224Z" fill="#00081E" stroke="#4FC2E2" stroke-linejoin="round"/>
<path d="M331.263 89.8172C323.137 85.094 311.917 85.7611 299.468 92.926C274.785 107.176 254.851 141.712 254.931 170.072C254.971 184.155 259.941 194.088 267.967 198.758L283.751 207.931C275.745 203.261 270.755 193.361 270.715 179.245C270.635 150.892 290.575 116.355 315.259 102.106C327.674 94.934 338.928 94.2669 347.054 98.9901L331.263 89.8172Z" fill="#00081E" stroke="#4FC2E2" stroke-linejoin="round"/>
<path d="M330.5 240.824V235.467L390.561 235.707V241.218L330.5 240.824Z" fill="#00081E" stroke="#4FC2E2" stroke-linejoin="round"/>
<path d="M381.701 228.83C369.933 222.038 350.92 221.998 339.232 228.749C327.544 235.501 327.598 246.482 339.359 253.273C351.12 260.064 370.14 260.097 381.834 253.346C393.529 246.595 393.469 235.621 381.701 228.83Z" fill="#4FC2E2" stroke="#4FC2E2" stroke-linejoin="round"/>
<path d="M376.358 226.328C367.565 221.251 353.349 221.224 344.609 226.268C335.87 231.311 335.937 239.523 344.709 244.6C353.482 249.677 367.718 249.704 376.458 244.66C385.197 239.617 385.15 231.438 376.358 226.328Z" fill="#4FC2E2" stroke="#4FC2E2" stroke-linejoin="round"/>
<path d="M381.708 223.239C369.933 216.448 350.92 216.421 339.239 223.166C327.558 229.91 327.604 240.898 339.359 247.689C351.114 254.48 370.153 254.52 381.828 247.762C393.502 241.004 393.462 230.044 381.708 223.239ZM382.915 236.415C382.582 239.43 380.427 242.365 376.464 244.66L375.897 244.98C374.775 245.573 373.611 246.084 372.415 246.508C363.775 249.597 352.248 248.956 344.709 244.6C340.706 242.272 338.485 239.263 338.138 236.268C337.704 232.672 339.866 229.003 344.602 226.261C353.348 221.218 367.565 221.244 376.357 226.321C381.187 229.096 383.342 232.812 382.915 236.415Z" fill="#00081E" stroke="#4FC2E2" stroke-linejoin="round"/>
<path d="M382.915 236.415C382.582 239.43 380.427 242.365 376.464 244.66C367.718 249.704 353.502 249.67 344.709 244.6C340.707 242.272 338.485 239.263 338.138 236.268C338.472 233.252 340.647 230.304 344.603 228.009C353.349 222.965 367.565 222.979 376.358 228.069C380.394 230.397 382.582 233.393 382.915 236.415Z" fill="#00081E" stroke="#4FC2E2" stroke-linejoin="round"/>
<path d="M372.842 243.846C376.784 240.991 375.917 238.256 373.255 236.434C368.866 233.666 364.496 234.767 359.913 236.374L357.131 234.767L353.795 232.839C355.129 232.171 356.601 231.826 358.092 231.831L358.659 229.163V227.435C358.659 227.435 352.528 229.33 349.913 230.611L344.576 228.716V230.457L347.344 232.065C343.342 234.573 344.276 237.709 347.164 239.557C350.727 241.685 354.856 241.865 359.76 240.104L360.694 239.77L366.197 242.932L366.271 242.999C364.576 243.96 361.641 245.261 359.866 245.227V246.988C362.775 247.309 366.244 247.555 370.353 245.354L372.422 246.528C373.618 246.104 374.782 245.593 375.904 245V243.866L372.842 243.846ZM355.73 238.109C353.989 238.596 352.508 238.583 351.1 237.709C350.855 237.606 350.634 237.452 350.452 237.257C350.27 237.062 350.131 236.832 350.045 236.58C349.958 236.327 349.926 236.06 349.951 235.795C349.975 235.529 350.056 235.272 350.186 235.04C350.423 234.689 350.735 234.395 351.1 234.18L357.018 237.595L355.73 238.109ZM368.819 241.518L363.575 238.489C365.197 237.822 367.752 237.282 369.079 238.109C369.567 238.368 369.947 238.791 370.153 239.303C370.393 240.01 369.893 240.777 368.819 241.525V241.518Z" fill="#4FC2E2" stroke="#4FC2E2" stroke-linejoin="round"/>
<path d="M375.53 238.122V239.897L373.089 239.663V238.262L375.53 238.122Z" fill="#00081E" stroke="#4FC2E2" stroke-linejoin="round"/>
<path d="M344.65 234.073V235.848L347.138 235.614V234.213L344.65 234.073Z" fill="#00081E" stroke="#4FC2E2" stroke-linejoin="round"/>
<path d="M375.897 243.846L372.848 242.112C376.791 239.263 375.917 236.515 373.249 234.7C368.872 231.932 364.489 233.039 359.906 234.647L357.111 233.032L353.775 231.111C355.111 230.441 356.584 230.094 358.078 230.097L358.639 227.429C354.976 227.135 352.568 227.555 349.899 228.863L347.098 227.249L344.562 228.71L347.324 230.304C343.322 232.812 344.249 235.941 347.144 237.802C350.713 239.924 354.836 240.104 359.746 238.349L360.68 238.016L366.171 241.185L366.264 241.238C364.561 242.092 362.661 242.474 360.76 242.345L359.853 245.227C362.748 245.554 366.217 245.794 370.34 243.593L373.349 245.327L375.897 243.846ZM369.086 236.361C369.571 236.617 369.948 237.038 370.147 237.549C370.393 238.256 369.886 239.043 368.812 239.764L363.569 236.735C365.176 236.108 367.752 235.541 369.086 236.361ZM355.743 236.361C353.996 236.848 352.501 236.842 351.074 235.974C350.83 235.869 350.611 235.714 350.431 235.519C350.251 235.324 350.113 235.094 350.026 234.843C349.94 234.592 349.906 234.326 349.928 234.061C349.95 233.796 350.026 233.539 350.153 233.306C350.394 232.958 350.708 232.667 351.074 232.452L356.984 235.868L355.743 236.361Z" fill="#00081E" stroke="#4FC2E2" stroke-linejoin="round"/>
<path d="M61.0048 218.987L62.0426 217.949L61.0048 218.987Z" stroke="#4FC2E2" stroke-linejoin="round"/>
<path d="M63.3878 224.269C63.3118 224.236 63.2382 224.198 63.1676 224.155L63.3878 224.269Z" stroke="#4FC2E2" stroke-linejoin="round"/>
<path d="M156.94 36.5144H156.878L156.933 36.5558L156.94 36.5144Z" stroke="#4FC2E2" stroke-linejoin="round"/>
<path d="M150.367 37.8352L153.436 36.2741C153.912 36.0251 154.442 35.8951 154.98 35.8951C155.518 35.8951 156.048 36.0251 156.524 36.2741L148.592 31.6977L148.399 31.5643C147.905 31.2489 147.336 31.0693 146.751 31.0435C146.165 31.0177 145.583 31.1467 145.063 31.4175L54.4016 77.5088C53.8247 77.7889 53.3394 78.2275 53.0027 78.7733C52.666 79.3192 52.4917 79.9496 52.5003 80.5909L53.1674 216.356C53.1619 216.946 53.3104 217.527 53.5982 218.042C53.886 218.557 54.3032 218.988 54.8086 219.292L55.0287 219.412L63.2076 224.135C62.7023 223.831 62.2851 223.4 61.9972 222.885C61.7094 222.371 61.561 221.79 61.5665 221.2V219.198V217.724L60.8994 85.4476C60.8865 84.8071 61.0584 84.1766 61.3943 83.6312C61.7303 83.0858 62.2162 82.6487 62.794 82.3721L150.073 37.9953" stroke="#4FC2E2" stroke-linejoin="round"/>
<path d="M158.426 39.3497C158.434 38.7908 158.301 38.2389 158.04 37.7446C157.779 37.2504 157.398 36.8297 156.931 36.5212L156.878 36.4811L156.791 36.4211C156.703 36.367 156.612 36.318 156.518 36.2743C156.041 36.0253 155.511 35.8953 154.973 35.8953C154.436 35.8953 153.906 36.0253 153.429 36.2743L62.7674 82.399C62.1896 82.6756 61.7037 83.1127 61.3677 83.6581C61.0318 84.2034 60.8599 84.834 60.8727 85.4744L61.5399 217.751V221.24C61.5343 221.83 61.6828 222.411 61.9707 222.926C62.2585 223.44 62.6757 223.871 63.181 224.175C63.2516 224.218 63.3251 224.256 63.4012 224.289C63.8838 224.546 64.4221 224.68 64.9689 224.68C65.5156 224.68 66.054 224.546 66.5366 224.289L157.198 178.197C157.773 177.917 158.256 177.479 158.591 176.934C158.927 176.39 159.101 175.761 159.093 175.122L158.426 39.3497Z" stroke="#4FC2E2" stroke-linejoin="round"/>
<path fill-rule="evenodd" clip-rule="evenodd" d="M147.205 49.4698L70.5459 88.076C70.105 88.29 69.7341 88.6251 69.4766 89.0421C69.219 89.4591 69.0855 89.9408 69.0916 90.4309V115.355C69.098 115.804 69.2177 116.244 69.4396 116.635C69.6614 117.025 69.9783 117.354 70.3609 117.589C70.7434 117.825 71.1793 117.96 71.6279 117.982C72.0766 118.004 72.5236 117.913 72.9276 117.716L149.58 79.1099C150.022 78.8961 150.394 78.5601 150.652 78.1416C150.91 77.7232 151.042 77.2397 151.034 76.7483V51.8247C151.026 51.377 150.905 50.9385 150.683 50.5496C150.462 50.1607 150.145 49.8339 149.764 49.5993C149.382 49.3647 148.948 49.2299 148.501 49.2073C148.054 49.1846 147.608 49.2749 147.205 49.4698Z" fill="#4FC2E2"/>
<path fill-rule="evenodd" clip-rule="evenodd" d="M84.7888 118.817L71.5799 125.535C71.1512 125.744 70.7906 126.071 70.5403 126.478C70.29 126.884 70.16 127.353 70.1656 127.83V141.512C70.1651 141.95 70.2771 142.38 70.4908 142.761C70.7046 143.143 71.013 143.463 71.3862 143.691C71.7595 143.918 72.185 144.046 72.622 144.062C73.059 144.078 73.4927 143.981 73.8814 143.781L87.097 137.063C87.5235 136.851 87.8818 136.523 88.1307 136.118C88.3796 135.712 88.5093 135.244 88.5047 134.768V121.092C88.5052 120.655 88.3932 120.225 88.1794 119.843C87.9656 119.462 87.6573 119.142 87.2841 118.914C86.9108 118.686 86.4852 118.558 86.0482 118.542C85.6112 118.526 85.1775 118.623 84.7888 118.824V118.817Z" fill="#4FC2E2"/>
<path fill-rule="evenodd" clip-rule="evenodd" d="M105.803 108.483L92.5876 115.201C92.1617 115.413 91.8039 115.741 91.555 116.147C91.3062 116.552 91.1762 117.02 91.18 117.496V131.179C91.1802 131.616 91.2926 132.045 91.5064 132.427C91.7201 132.808 92.0282 133.128 92.401 133.356C92.7738 133.585 93.1989 133.713 93.6357 133.73C94.0725 133.747 94.5064 133.652 94.8958 133.453L108.105 126.729C108.533 126.52 108.893 126.195 109.144 125.79C109.394 125.385 109.524 124.917 109.519 124.441V110.751C109.526 110.313 109.416 109.881 109.202 109.499C108.987 109.117 108.676 108.799 108.298 108.577C107.927 108.344 107.501 108.214 107.063 108.197C106.626 108.181 106.191 108.279 105.803 108.483Z" fill="#4FC2E2"/>
<path fill-rule="evenodd" clip-rule="evenodd" d="M127.065 97.6691L113.856 104.414C113.428 104.625 113.068 104.952 112.818 105.358C112.568 105.764 112.437 106.232 112.441 106.709V120.391C112.441 120.828 112.554 121.258 112.768 121.639C112.981 122.021 113.289 122.341 113.662 122.569C114.035 122.797 114.46 122.926 114.897 122.943C115.334 122.96 115.768 122.865 116.157 122.666L129.373 115.942C129.8 115.733 130.159 115.407 130.409 115.002C130.658 114.597 130.787 114.129 130.78 113.653V99.9373C130.781 99.5001 130.669 99.07 130.455 98.6885C130.241 98.3071 129.933 97.987 129.56 97.7592C129.186 97.5314 128.761 97.4034 128.324 97.3876C127.887 97.3719 127.453 97.4688 127.065 97.6691Z" fill="#4FC2E2"/>
<path fill-rule="evenodd" clip-rule="evenodd" d="M148.092 86.9753L134.883 93.6932C134.455 93.904 134.096 94.2311 133.846 94.6371C133.596 95.043 133.465 95.5113 133.469 95.9881V109.677C133.468 110.115 133.58 110.545 133.794 110.926C134.008 111.308 134.316 111.628 134.689 111.856C135.063 112.083 135.488 112.211 135.925 112.227C136.362 112.243 136.796 112.146 137.185 111.946L150.4 105.228C150.827 105.017 151.186 104.689 151.435 104.283C151.684 103.877 151.813 103.409 151.808 102.933V89.2435C151.808 88.8062 151.696 88.3762 151.483 87.9947C151.269 87.6132 150.961 87.2932 150.587 87.0654C150.214 86.8375 149.788 86.7096 149.351 86.6938C148.914 86.678 148.481 86.775 148.092 86.9753Z" fill="#4FC2E2"/>
<path fill-rule="evenodd" clip-rule="evenodd" d="M84.7888 141.773L71.5799 148.511C71.1512 148.72 70.7906 149.047 70.5403 149.453C70.29 149.859 70.16 150.328 70.1656 150.805V164.488C70.1651 164.925 70.2771 165.355 70.4908 165.737C70.7046 166.118 71.013 166.438 71.3862 166.666C71.7595 166.894 72.185 167.022 72.622 167.038C73.059 167.054 73.4927 166.957 73.8814 166.756L87.097 160.038C87.5235 159.827 87.8818 159.499 88.1307 159.093C88.3796 158.687 88.5093 158.22 88.5047 157.744V144.061C88.5052 143.624 88.3932 143.194 88.1794 142.812C87.9656 142.431 87.6573 142.111 87.2841 141.883C86.9108 141.655 86.4852 141.527 86.0482 141.511C85.6112 141.495 85.1775 141.592 84.7888 141.793V141.773Z" fill="#4FC2E2"/>
<path fill-rule="evenodd" clip-rule="evenodd" d="M105.803 131.459L92.5876 138.177C92.1617 138.389 91.8039 138.717 91.555 139.123C91.3062 139.528 91.1762 139.996 91.18 140.472V154.154C91.1802 154.591 91.2926 155.021 91.5064 155.403C91.7201 155.784 92.0282 156.104 92.401 156.332C92.7738 156.56 93.1989 156.689 93.6357 156.706C94.0725 156.723 94.5064 156.628 94.8958 156.429L108.105 149.705C108.533 149.496 108.893 149.171 109.144 148.766C109.394 148.36 109.524 147.893 109.519 147.416V133.727C109.526 133.289 109.416 132.857 109.202 132.475C108.987 132.093 108.676 131.775 108.298 131.552C107.927 131.32 107.501 131.19 107.063 131.173C106.626 131.157 106.191 131.255 105.803 131.459Z" fill="#4FC2E2"/>
<path fill-rule="evenodd" clip-rule="evenodd" d="M127.065 120.645L113.856 127.363C113.428 127.574 113.068 127.901 112.818 128.307C112.568 128.713 112.437 129.181 112.441 129.658V143.347C112.441 143.784 112.553 144.214 112.767 144.596C112.98 144.977 113.289 145.297 113.662 145.525C114.035 145.753 114.461 145.881 114.898 145.897C115.335 145.913 115.768 145.816 116.157 145.615L129.373 138.897C129.8 138.686 130.158 138.359 130.407 137.953C130.656 137.547 130.786 137.079 130.78 136.602V122.913C130.781 122.476 130.669 122.046 130.455 121.664C130.241 121.283 129.933 120.963 129.56 120.735C129.186 120.507 128.761 120.379 128.324 120.363C127.887 120.348 127.453 120.445 127.065 120.645Z" fill="#4FC2E2"/>
<path fill-rule="evenodd" clip-rule="evenodd" d="M148.092 109.951L134.883 116.675C134.455 116.884 134.094 117.209 133.844 117.614C133.594 118.02 133.463 118.487 133.469 118.964V132.653C133.468 133.09 133.58 133.52 133.794 133.902C134.008 134.283 134.316 134.603 134.689 134.831C135.062 135.059 135.488 135.187 135.925 135.203C136.362 135.218 136.796 135.121 137.184 134.921L150.4 128.203C150.828 127.993 151.187 127.665 151.436 127.259C151.685 126.853 151.814 126.385 151.808 125.908V112.226C151.807 111.789 151.695 111.359 151.481 110.977C151.268 110.596 150.96 110.276 150.587 110.048C150.214 109.82 149.789 109.691 149.352 109.674C148.915 109.657 148.481 109.752 148.092 109.951Z" fill="#4FC2E2"/>
<path fill-rule="evenodd" clip-rule="evenodd" d="M84.7888 164.768L71.5799 171.486C71.1512 171.696 70.7906 172.022 70.5403 172.429C70.29 172.835 70.16 173.304 70.1656 173.781V187.464C70.1651 187.901 70.2771 188.331 70.4908 188.712C70.7046 189.094 71.013 189.414 71.3862 189.642C71.7595 189.87 72.185 189.997 72.622 190.013C73.059 190.029 73.4927 189.932 73.8814 189.732L87.097 183.014C87.5235 182.802 87.8818 182.475 88.1307 182.069C88.3796 181.663 88.5093 181.195 88.5047 180.719V167.036C88.5052 166.599 88.3932 166.169 88.1794 165.788C87.9656 165.406 87.6573 165.086 87.2841 164.858C86.9108 164.63 86.4852 164.502 86.0482 164.487C85.6112 164.471 85.1775 164.568 84.7888 164.768Z" fill="#4FC2E2"/>
<path fill-rule="evenodd" clip-rule="evenodd" d="M105.803 154.448L92.5876 161.166C92.1617 161.378 91.8039 161.706 91.555 162.112C91.3062 162.517 91.1762 162.985 91.18 163.461V177.13C91.1795 177.567 91.2915 177.997 91.5053 178.379C91.719 178.76 92.0274 179.08 92.4006 179.308C92.7739 179.536 93.1995 179.664 93.6365 179.68C94.0735 179.695 94.5071 179.598 94.8958 179.398L108.105 172.68C108.533 172.469 108.892 172.142 109.142 171.736C109.392 171.33 109.523 170.862 109.519 170.385V156.703C109.52 156.265 109.408 155.835 109.194 155.454C108.98 155.072 108.672 154.752 108.298 154.525C107.925 154.297 107.5 154.169 107.063 154.153C106.626 154.137 106.192 154.234 105.803 154.435V154.448Z" fill="#4FC2E2"/>
<path fill-rule="evenodd" clip-rule="evenodd" d="M127.064 143.621L113.855 150.345C113.427 150.554 113.067 150.879 112.816 151.284C112.566 151.689 112.436 152.157 112.441 152.633V166.323C112.44 166.76 112.552 167.19 112.766 167.571C112.98 167.953 113.288 168.273 113.662 168.501C114.035 168.729 114.46 168.857 114.897 168.872C115.334 168.888 115.768 168.791 116.157 168.591L129.372 161.873C129.799 161.662 130.158 161.334 130.407 160.928C130.656 160.522 130.785 160.054 130.78 159.578V145.895C130.78 145.458 130.667 145.029 130.454 144.647C130.24 144.266 129.932 143.946 129.559 143.718C129.186 143.489 128.761 143.361 128.324 143.344C127.887 143.327 127.454 143.422 127.064 143.621Z" fill="#4FC2E2"/>
<path fill-rule="evenodd" clip-rule="evenodd" d="M84.7888 187.744L71.5799 194.475C71.1512 194.685 70.7906 195.012 70.5403 195.418C70.29 195.824 70.16 196.293 70.1656 196.77V210.453C70.1651 210.89 70.2771 211.32 70.4908 211.702C70.7046 212.083 71.013 212.403 71.3862 212.631C71.7595 212.859 72.185 212.987 72.622 213.002C73.059 213.018 73.4927 212.921 73.8814 212.721L87.097 206.003C87.5245 205.793 87.8836 205.465 88.1327 205.059C88.3819 204.653 88.5108 204.185 88.5047 203.708V190.012C88.5052 189.575 88.3932 189.145 88.1794 188.763C87.9656 188.382 87.6573 188.062 87.2841 187.834C86.9108 187.606 86.4852 187.478 86.0482 187.462C85.6112 187.447 85.1775 187.544 84.7888 187.744Z" fill="#4FC2E2"/>
<path fill-rule="evenodd" clip-rule="evenodd" d="M105.803 177.41L92.5877 184.134C92.1612 184.344 91.8028 184.671 91.5538 185.076C91.3047 185.48 91.1752 185.947 91.1801 186.423V200.112C91.1796 200.549 91.2915 200.979 91.5053 201.361C91.7191 201.742 92.0275 202.062 92.4007 202.29C92.7739 202.518 93.1995 202.646 93.6365 202.662C94.0735 202.677 94.5072 202.581 94.8959 202.38L108.105 195.662C108.533 195.451 108.892 195.124 109.142 194.718C109.393 194.312 109.523 193.844 109.519 193.367V179.685C109.519 179.248 109.407 178.818 109.193 178.437C108.979 178.055 108.671 177.735 108.298 177.507C107.925 177.279 107.5 177.15 107.063 177.133C106.627 177.116 106.193 177.211 105.803 177.41Z" fill="#4FC2E2"/>
<path fill-rule="evenodd" clip-rule="evenodd" d="M127.064 166.596L113.855 173.321C113.427 173.53 113.066 173.857 112.816 174.263C112.565 174.669 112.435 175.138 112.441 175.616V189.298C112.44 189.735 112.552 190.165 112.766 190.547C112.98 190.928 113.288 191.248 113.662 191.476C114.035 191.704 114.46 191.832 114.897 191.848C115.334 191.864 115.768 191.767 116.157 191.566L129.372 184.848C129.8 184.638 130.159 184.311 130.408 183.905C130.657 183.498 130.786 183.03 130.78 182.554V168.871C130.78 168.434 130.667 168.004 130.454 167.623C130.24 167.241 129.932 166.921 129.559 166.693C129.186 166.465 128.761 166.336 128.324 166.319C127.888 166.302 127.454 166.397 127.064 166.596Z" fill="#4FC2E2"/>
<path fill-rule="evenodd" clip-rule="evenodd" d="M148.092 132.933L134.883 139.651C134.454 139.861 134.094 140.187 133.843 140.594C133.593 141 133.463 141.469 133.469 141.946V155.629C133.468 156.066 133.58 156.496 133.794 156.877C134.008 157.259 134.316 157.579 134.689 157.807C135.062 158.035 135.488 158.163 135.925 158.178C136.362 158.194 136.796 158.097 137.184 157.897L150.4 151.179C150.828 150.968 151.187 150.641 151.436 150.235C151.685 149.829 151.814 149.36 151.808 148.884V135.201C151.808 134.764 151.696 134.334 151.482 133.953C151.269 133.571 150.96 133.251 150.587 133.023C150.214 132.795 149.788 132.667 149.351 132.652C148.914 132.636 148.481 132.733 148.092 132.933Z" fill="#4FC2E2"/>
<path fill-rule="evenodd" clip-rule="evenodd" d="M148.092 155.909L134.883 162.627C134.454 162.836 134.094 163.163 133.843 163.569C133.593 163.975 133.463 164.444 133.469 164.921V178.604C133.468 179.041 133.58 179.471 133.794 179.853C134.008 180.234 134.316 180.554 134.689 180.782C135.062 181.01 135.488 181.138 135.925 181.154C136.362 181.17 136.796 181.073 137.184 180.872L150.4 174.154C150.828 173.944 151.187 173.617 151.436 173.21C151.685 172.804 151.814 172.336 151.808 171.859V158.177C151.808 157.74 151.696 157.31 151.482 156.928C151.269 156.547 150.96 156.227 150.587 155.999C150.214 155.771 149.788 155.643 149.351 155.627C148.914 155.611 148.481 155.708 148.092 155.909Z" fill="#4FC2E2"/>
<path fill-rule="evenodd" clip-rule="evenodd" d="M99.0987 82.1587L98.605 83.1327L96.5302 84.18L96.0366 83.7464L96.5302 82.7724L98.605 81.725L99.0987 82.1587ZM99.7124 88.4096V82.8458L99.2454 82.3321L98.7984 83.3128V88.8766L99.2654 89.3969L99.7124 88.4096ZM95.7097 83.8732L95.216 84.8472L93.1412 85.8945L92.6476 85.4542L93.1412 84.4802L95.216 83.4329L95.7097 83.8732ZM99.0987 89.7038L98.605 90.6778L96.5302 91.7385L96.0366 91.2982L96.5302 90.3309L98.605 89.2768L99.0987 89.7171V89.7038ZM99.7124 95.9347V90.4043L99.2454 89.8839L98.7984 90.8712V96.4083L99.2654 96.9487L99.7124 95.9414V95.9347ZM99.0987 97.2689L98.605 98.2429L96.5302 99.2903L96.0366 98.85L96.5302 97.876L98.605 96.8286L99.0987 97.2689ZM95.7097 98.9834L95.216 99.9508L93.1412 101.005L92.6476 100.564L93.1412 99.5905L95.216 98.5431L95.7097 98.9834ZM105.67 93.3996C105.651 93.8977 105.577 94.3921 105.45 94.874C105.276 95.5811 105.083 95.9881 104.863 96.0948C104.642 96.2015 104.449 96.0014 104.269 95.481C104.128 95.0753 104.054 94.6496 104.049 94.2202C104.045 93.8727 104.125 93.5295 104.282 93.2195C104.404 92.9524 104.607 92.7306 104.863 92.5858C104.95 92.5277 105.056 92.5019 105.16 92.5128C105.265 92.5238 105.362 92.5708 105.436 92.6458C105.523 92.7497 105.589 92.8698 105.629 92.9992C105.669 93.1287 105.683 93.2648 105.67 93.3996ZM113.675 74.8003L113.182 75.7743L111.107 76.8217L110.613 76.3814L111.107 75.4141L113.182 74.36L113.675 74.8003ZM114.289 81.0512V75.5208L113.815 75.0071L113.375 75.9878V81.5182L113.849 82.0319L114.289 81.0512ZM114.289 88.5764L113.849 89.577L113.375 89.0433V83.5329L113.815 82.5523L114.289 83.0659V88.5764ZM117.064 88.1761L116.571 87.7358L114.496 88.7832L114.002 89.7572L114.496 90.1975L116.571 89.1501L117.064 88.1761ZM113.675 89.8906L113.182 89.4503L111.107 90.4977L110.613 91.4717L111.107 91.912L113.182 90.8579L113.675 89.8906ZM126.651 74.8003L126.204 75.7877L125.73 75.2673V69.7235L126.177 68.7429L126.651 69.2632V74.8203V74.8003ZM126.037 76.0945L125.543 75.6542L123.469 76.7083L122.975 77.6823L123.469 78.1159L125.543 77.0685L126.037 76.0945ZM126.651 82.3321L126.204 83.3328L125.73 82.7924V77.282L126.177 76.3014L126.651 76.8217V82.3321ZM119.886 78.2227L119.439 79.21L118.965 78.683V73.1259L119.419 72.1385L119.886 72.6655V78.2227ZM122.648 77.809L122.154 77.3687L120.06 78.3961L119.566 79.3701L120.06 79.8104L122.134 78.763L122.628 77.789L122.648 77.809ZM131.601 65.7208L131.107 66.6948L129.019 67.7222L128.525 67.2886L129.019 66.3146L131.094 65.2672L131.587 65.7008L131.601 65.7208ZM132.214 71.9717V66.4547L131.741 65.9343L131.294 66.915V72.4454L131.774 72.9591L132.214 71.9784V71.9717ZM132.214 79.4969L131.774 80.4975L131.294 79.9638V74.4601L131.741 73.4794L132.214 73.9931V79.5035V79.4969ZM134.983 79.0966L134.489 78.6563L132.415 79.7303L131.928 80.7043L132.415 81.1446L134.489 80.0973L134.983 79.1233V79.0966ZM131.601 80.8111L131.107 80.3708L129.019 81.4248L128.525 82.3988L129.019 82.8391L131.094 81.7917L131.587 80.8178L131.601 80.8111ZM143.949 59.4632L143.455 60.4306L141.381 61.4846L140.887 61.0443L141.381 60.0703L143.455 59.0229L143.949 59.4632ZM140.56 61.1711L140.066 62.1451L137.992 63.1924L137.498 62.7588L137.992 61.7848L140.066 60.7308L140.56 61.1711ZM143.949 67.0017L143.455 67.9757L141.381 69.0564L140.887 68.6228L141.381 67.6488L143.455 66.5948L143.949 67.0351V67.0017ZM144.563 73.2393V67.7222L144.089 67.2085L143.642 68.1892V73.7263L144.116 74.2666L144.563 73.266V73.2393ZM137.798 69.1298V63.5994L137.331 63.079L136.884 64.0664V69.5968L137.351 70.1171L137.798 69.1298ZM140.56 68.7162L140.066 69.6902L137.992 70.7376L137.498 70.2973L137.992 69.3233L140.066 68.2759L140.56 68.7162ZM143.949 74.5468L143.455 75.5208L141.381 76.5682L140.887 76.1279L141.381 75.1539L143.455 74.1065L143.949 74.5468ZM137.798 76.6549V71.1445L137.331 70.6242L136.884 71.6115V77.1219L137.351 77.6556L137.798 76.6549ZM140.56 76.2613L140.066 77.2353L137.992 78.2827L137.498 77.8424L137.992 76.8684L140.066 75.821L140.56 76.2613Z" fill="#00081E"/>
<path fill-rule="evenodd" clip-rule="evenodd" d="M79.0718 126.128L78.7249 126.795L77.2639 127.529L76.917 127.262L77.2639 126.595L78.7249 125.855L79.0718 126.128ZM79.5054 130.131V126.555L79.1652 126.235L78.8583 126.902V130.478L79.1919 130.805L79.5054 130.138V130.131ZM79.5054 135.001L79.1919 135.668L78.8583 135.335V131.766L79.1652 131.098L79.5054 131.419V134.981V135.001ZM81.4534 134.668L81.1065 134.394L79.6522 135.155L79.3053 135.822L79.6522 136.095L81.1132 135.355L81.4601 134.688L81.4534 134.668ZM79.0718 135.868L78.7249 135.595L77.2639 136.335L76.917 137.002L77.2639 137.276L78.7249 136.535L79.0718 135.868Z" fill="#00081E"/>
<path fill-rule="evenodd" clip-rule="evenodd" d="M103.081 115.161L102.728 115.828L101.273 116.562L100.927 116.288L101.273 115.621L102.728 114.887L103.081 115.161ZM103.515 119.164V115.568L103.181 115.241L102.868 115.908V119.511L103.195 119.831L103.515 119.164ZM100.693 116.335L100.346 117.002L98.8919 117.736L98.545 117.463L98.8919 116.795L100.346 116.062L100.693 116.328V116.335ZM103.081 120.018L102.728 120.685L101.273 121.425L100.927 121.152L101.273 120.485L102.728 119.744L103.081 120.018ZM100.693 121.218L100.346 121.886L98.8919 122.619L98.545 122.353L98.8919 121.685L100.346 120.945L100.693 121.218ZM103.081 124.901L102.728 125.568L101.273 126.302L100.927 126.028L101.273 125.361L102.728 124.627L103.081 124.901ZM98.7585 126.429V122.866L98.4249 122.539L98.1113 123.206V126.776L98.4382 127.109L98.7585 126.442V126.429ZM100.693 126.095L100.346 126.762L98.8919 127.496L98.545 127.223L98.8919 126.555L100.346 125.822L100.693 126.095Z" fill="#00081E"/>
<path fill-rule="evenodd" clip-rule="evenodd" d="M123.762 104.167L123.415 104.834L121.961 105.575L121.614 105.301L121.961 104.634L123.415 103.894L123.762 104.167ZM124.202 108.17V104.567L123.869 104.247L123.555 104.914V108.51L123.882 108.837L124.202 108.17ZM121.381 105.341L121.034 106.008L119.579 106.742L119.232 106.475L119.579 105.808L121.014 105.081L121.361 105.355L121.381 105.341ZM123.762 109.024L123.415 109.691L121.961 110.425L121.614 110.151L121.961 109.484L123.415 108.75L123.762 109.024ZM124.202 113.026V109.464L123.869 109.144L123.555 109.811V113.373L123.882 113.707L124.202 113.04V113.026ZM123.762 113.894L123.415 114.561L121.961 115.301L121.614 115.028L121.961 114.361L123.415 113.62L123.762 113.894ZM121.381 115.094L121.034 115.762L119.579 116.502L119.232 116.229L119.579 115.561L121.034 114.821L121.381 115.094Z" fill="#00081E"/>
<path fill-rule="evenodd" clip-rule="evenodd" d="M81.5735 152.953L81.2599 153.621L80.9263 153.294V149.698L81.2466 149.031L81.5735 149.358V152.953ZM81.1398 153.807L80.7929 153.54L79.3386 154.274L78.9917 154.941L79.3386 155.215L80.7929 154.481L81.1398 153.814V153.807ZM81.5735 157.81L81.2599 158.477L80.9263 158.144V154.581L81.2466 153.914L81.5735 154.241V157.803V157.81ZM76.8169 155.335L76.5034 156.002L76.1698 155.675V152.08L76.49 151.412L76.8169 151.733V155.328V155.335ZM78.7582 154.995L78.4113 154.728L76.9503 155.462L76.6034 156.129L76.9503 156.402L78.4113 155.662L78.7582 154.995Z" fill="#00081E"/>
<path fill-rule="evenodd" clip-rule="evenodd" d="M102.154 137.683L101.807 138.35L100.346 139.084L99.9993 138.811L100.346 138.143L101.807 137.41L102.154 137.677V137.683ZM99.7725 138.884L99.4256 139.551L97.9646 140.285L97.6177 140.011L97.9646 139.344L99.4256 138.61L99.7725 138.877V138.884ZM102.154 142.567L101.807 143.234L100.346 143.967L99.9993 143.701L100.346 143.033L101.807 142.293L102.154 142.567ZM102.588 146.569V143L102.261 142.68L101.941 143.347V146.916L102.274 147.25L102.588 146.583V146.569ZM97.8312 144.094V140.518L97.5043 140.198L97.1841 140.865V144.441L97.5176 144.761L97.8312 144.094ZM99.7725 143.754L99.4256 144.421L97.9646 145.155L97.6177 144.888L97.9646 144.221L99.4256 143.487L99.7725 143.761V143.754ZM102.154 147.43L101.807 148.097L100.346 148.831L99.9993 148.557L100.346 147.89L101.807 147.156L102.154 147.423V147.43ZM99.7725 148.631L99.4256 149.298L97.9646 150.032L97.6177 149.758L97.9646 149.091L99.4256 148.357L99.7725 148.631Z" fill="#00081E"/>
<path fill-rule="evenodd" clip-rule="evenodd" d="M124.349 127.323L124.002 127.99L122.541 128.724L122.195 128.457L122.541 127.79L124.002 127.056L124.349 127.329V127.323ZM121.968 128.524L121.621 129.191L120.16 129.925L119.813 129.658L120.16 128.991L121.621 128.257L121.968 128.53V128.524ZM124.349 132.199L124.002 132.867L122.541 133.6L122.195 133.327L122.541 132.66L124.002 131.926L124.349 132.193V132.199ZM124.783 136.202V132.64L124.449 132.313L124.136 132.98V136.542L124.469 136.876L124.783 136.209V136.202ZM120.02 133.767V130.165L119.686 129.844L119.373 130.512V134.087L119.706 134.414L120.02 133.747V133.767ZM121.961 133.427L121.614 134.094L120.153 134.835L119.806 134.561L120.153 133.894L121.614 133.16L121.961 133.427ZM124.349 137.103L124.002 137.77L122.541 138.504L122.195 138.237L122.541 137.57L124.002 136.836L124.349 137.109V137.103ZM120.026 138.63V135.068L119.693 134.741L119.379 135.408V138.971L119.713 139.304L120.026 138.637V138.63ZM121.968 138.304L121.621 138.971L120.16 139.704L119.813 139.438L120.16 138.771L121.621 138.037L121.968 138.304Z" fill="#00081E"/>
<path fill-rule="evenodd" clip-rule="evenodd" d="M81.6002 171.753L81.2533 172.42L79.7989 173.127L79.4521 172.854L79.7989 172.187L81.2533 171.446L81.6002 171.72V171.753ZM81.2733 173.754V172.56L81.0998 172.647L79.7656 175.982V176.95L80.0591 176.803L81.2666 173.754H81.2733ZM79.2185 172.96L78.8717 173.628L77.4173 174.361L77.0704 174.095L77.4173 173.427L78.8717 172.694L79.2185 172.967V172.96ZM78.8983 179.598L77.5641 182.934L77.3906 183.021V181.853L78.6048 178.778L78.8917 178.631L78.8983 179.598Z" fill="#00081E"/>
<path fill-rule="evenodd" clip-rule="evenodd" d="M102.154 161.572L101.807 162.24L100.346 162.973L99.9993 162.7L100.346 162.033L101.807 161.299L102.154 161.566V161.572ZM102.588 165.575V161.979L102.261 161.653L101.941 162.32V165.922L102.274 166.242L102.588 165.575ZM99.7725 162.747L99.4256 163.414L97.9646 164.148L97.6177 163.874L97.9646 163.207L99.4256 162.473L99.7725 162.74V162.747ZM102.154 166.429L101.807 167.096L100.346 167.83L99.9993 167.563L100.346 166.896L101.807 166.156L102.154 166.429ZM102.588 170.432V166.863L102.261 166.543L101.941 167.21V170.779L102.274 171.112L102.588 170.445V170.432ZM97.8312 167.957V164.454L97.5043 164.134L97.1841 164.801V168.377L97.5176 168.697L97.8312 168.03V167.957ZM99.7725 167.617L99.4256 168.284L97.9646 169.018L97.6177 168.751L97.9646 168.084L99.4256 167.35L99.7725 167.623V167.617ZM102.154 171.292L101.807 171.96L100.346 172.693L99.9993 172.42L100.346 171.753L101.807 171.019L102.154 171.286V171.292ZM97.8312 172.827V169.264L97.5043 168.937L97.1841 169.605V173.174L97.5176 173.507L97.8312 172.84V172.827ZM99.7725 172.493L99.4256 173.16L97.9646 173.894L97.6177 173.621L97.9646 172.954L99.4256 172.22L99.7725 172.493Z" fill="#00081E"/>
<path fill-rule="evenodd" clip-rule="evenodd" d="M123.996 150.025L123.649 150.692L122.188 151.426L121.841 151.152L122.188 150.485L123.682 149.778L124.029 150.045L123.996 150.025ZM124.429 154.028V150.445L124.096 150.125L123.782 150.792V154.394L124.116 154.715L124.429 154.048V154.028ZM121.614 151.199L121.267 151.866L119.806 152.6L119.459 152.326L119.806 151.659L121.267 150.925L121.614 151.192V151.199ZM123.996 154.881L123.649 155.549L122.188 156.282L121.841 156.016L122.188 155.348L123.649 154.615L123.996 154.888V154.881ZM124.429 158.884V155.315L124.096 154.995L123.782 155.662V159.231L124.116 159.565L124.429 158.897V158.884ZM119.679 156.449V152.873L119.346 152.546L119.032 153.214V156.789L119.366 157.11L119.679 156.442V156.449ZM121.621 156.109L121.274 156.776L119.813 157.51L119.466 157.243L119.813 156.576L121.274 155.842L121.621 156.116V156.109ZM124.002 159.785L123.655 160.452L122.194 161.186L121.848 160.912L122.194 160.245L123.655 159.511L124.002 159.778V159.785ZM121.621 160.986L121.274 161.653L119.813 162.387L119.466 162.113L119.813 161.446L121.274 160.712L121.621 160.986Z" fill="#00081E"/>
<path fill-rule="evenodd" clip-rule="evenodd" d="M81.6001 194.195L81.2532 194.862L79.7989 195.596L79.452 195.329L79.7989 194.662L81.2532 193.928L81.6001 194.201V194.195ZM82.0404 198.197V194.602L81.7069 194.275L81.3933 194.942V198.538L81.7202 198.865L82.0404 198.197ZM81.2732 196.196V195.002L81.0998 195.089L79.7655 198.424V199.385L80.059 199.238L81.2665 196.189L81.2732 196.196ZM79.2185 195.402L78.8716 196.069L77.4173 196.803L77.0704 196.536L77.4173 195.869L78.8716 195.135L79.2185 195.409V195.402ZM82.0404 203.094L81.7202 203.761L81.3933 203.428V199.865L81.7069 199.198L82.0404 199.525V203.087V203.094ZM77.2838 200.619V197.043L76.9503 196.723L76.6367 197.39V200.966L76.9636 201.293L77.2838 200.626V200.619ZM81.6001 203.955L81.2532 203.681L79.7989 204.415L79.452 205.082L79.7989 205.349L81.2532 204.615L81.6001 203.948V203.955ZM78.9316 202.027L77.5974 205.362L77.4239 205.449V204.268L78.6314 201.213L78.9249 201.066V202.02L78.9316 202.027ZM77.3172 205.482L76.997 206.149L76.6701 205.816V202.254L76.9836 201.586L77.3172 201.913V205.476V205.482ZM79.2519 205.155L78.9049 204.882L77.4506 205.616L77.1037 206.283L77.4506 206.55L78.9049 205.816L79.2519 205.155Z" fill="#00081E"/>
<path fill-rule="evenodd" clip-rule="evenodd" d="M101.334 188.511C101.319 188.834 101.268 189.154 101.18 189.465C101.053 189.932 100.92 190.199 100.767 190.279C100.613 190.359 100.473 190.225 100.346 189.899C100.25 189.638 100.198 189.363 100.193 189.085C100.189 188.852 100.247 188.621 100.36 188.418C100.448 188.237 100.59 188.087 100.767 187.991C100.824 187.946 100.894 187.922 100.967 187.922C101.039 187.922 101.11 187.946 101.167 187.991C101.234 188.058 101.285 188.14 101.314 188.23C101.343 188.321 101.349 188.417 101.334 188.511Z" fill="#00081E"/>
<path fill-rule="evenodd" clip-rule="evenodd" d="M143.422 97.9629L143.109 98.63L142.775 98.3098V94.734L143.089 94.0669L143.422 94.3871V97.9629ZM145.37 97.616L145.023 97.3491L143.562 98.0829L143.215 98.7501L143.562 99.0236L145.023 98.2898L145.37 97.6226V97.616ZM142.989 98.8168L142.642 98.5499L141.181 99.2838L140.834 99.9509L141.181 100.224L142.642 99.4906L142.989 98.8235V98.8168ZM143.422 102.82L143.109 103.487L142.775 103.153V99.5906L143.089 98.9235L143.422 99.2437V102.82Z" fill="#00081E"/>
<path fill-rule="evenodd" clip-rule="evenodd" d="M144.796 121.332L144.45 121.999L142.989 122.733L142.642 122.466L142.989 121.799L144.45 121.065L144.796 121.339V121.332ZM142.415 122.533L142.061 123.2L140.607 123.934L140.26 123.667L140.607 123L142.061 122.266L142.415 122.533Z" fill="#00081E"/>
<path fill-rule="evenodd" clip-rule="evenodd" d="M144.977 141.659L143.769 144.708L143.475 144.854V143.887L144.81 140.552L144.983 140.465V141.659H144.977ZM142.602 147.51L141.267 150.845L141.094 150.932V149.778L142.301 146.722L142.595 146.576L142.602 147.51Z" fill="#00081E"/>
<path fill-rule="evenodd" clip-rule="evenodd" d="M144.576 164.348L143.369 167.397L143.075 167.543V166.583L144.41 163.247L144.583 163.16V164.348H144.576ZM142.201 167.99L141.908 168.137L140.707 166.303V165.122L140.867 165.048L142.201 167.05V167.997V167.99ZM144.576 171.673L144.41 171.753L143.075 169.752V168.791L143.369 168.644L144.576 170.492V171.673ZM142.201 170.205L140.867 173.541L140.694 173.628V172.46L141.895 169.405L142.188 169.258L142.201 170.205Z" fill="#00081E"/>
<path fill-rule="evenodd" clip-rule="evenodd" d="M124.349 176.323L124.002 176.99L122.541 177.724L122.194 177.457L122.541 176.79L124.002 176.049L124.349 176.323ZM121.968 177.523L121.621 178.191L120.16 178.924L119.813 178.658L120.16 177.99L121.621 177.257L121.968 177.523Z" fill="#00081E"/>
<path fill-rule="evenodd" clip-rule="evenodd" d="M124.349 179.798L124.002 180.465L122.541 181.199L122.194 180.926L122.541 180.259L124.002 179.525L124.349 179.792V179.798ZM121.968 180.999L121.621 181.666L120.16 182.407L119.813 182.133L120.16 181.466L121.621 180.732L121.968 180.999Z" fill="#00081E"/>
<path d="M277.5 322.654V317.297L337.567 317.537V323.048L277.5 322.654Z" fill="#00081E" stroke="#4FC2E2" stroke-linejoin="round"/>
<path d="M328.708 310.659C316.94 303.868 297.927 303.828 286.233 310.579C274.538 317.331 274.598 328.311 286.366 335.103C298.134 341.894 317.147 341.927 328.842 335.176C340.536 328.425 340.503 317.451 328.708 310.659Z" fill="#4FC2E2" stroke="#4FC2E2" stroke-linejoin="round"/>
<path d="M323.365 308.158C314.565 303.081 300.349 303.054 291.61 308.098C282.87 313.141 282.937 321.353 291.71 326.43C300.482 331.507 314.719 331.534 323.458 326.49C332.197 321.447 332.157 313.254 323.365 308.158Z" fill="#4FC2E2" stroke="#4FC2E2" stroke-linejoin="round"/>
<path d="M328.715 305.069C316.94 298.278 297.921 298.251 286.239 304.996C274.558 311.74 274.605 322.728 286.366 329.519C298.128 336.31 317.154 336.35 328.835 329.592C340.516 322.834 340.503 311.874 328.715 305.069ZM329.922 318.245C329.582 321.26 327.427 324.195 323.471 326.49L322.904 326.81C321.78 327.404 320.614 327.914 319.415 328.338C310.776 331.427 299.248 330.786 291.717 326.43C287.714 324.102 285.492 321.093 285.139 318.098C284.712 314.502 286.867 310.833 291.61 308.091C300.349 303.048 314.572 303.074 323.358 308.151C328.161 310.926 330.349 314.642 329.922 318.245Z" fill="#00081E" stroke="#4FC2E2" stroke-linejoin="round"/>
<path d="M329.922 318.244C329.582 321.26 327.427 324.195 323.471 326.49C314.725 331.533 300.502 331.5 291.716 326.43C287.714 324.102 285.492 321.093 285.139 318.098C285.479 315.082 287.647 312.134 291.61 309.839C300.349 304.795 314.572 304.809 323.358 309.899C327.401 312.227 329.582 315.256 329.922 318.244Z" fill="#00081E" stroke="#4FC2E2" stroke-linejoin="round"/>
<path d="M319.822 325.676C323.771 322.821 322.898 320.086 320.236 318.265C315.853 315.496 311.476 316.597 306.893 318.205L304.125 316.59L300.789 314.662C302.122 313.994 303.594 313.649 305.085 313.655L305.652 310.986V309.252C305.652 309.252 299.522 311.147 296.907 312.427L291.57 310.533V312.274L294.338 313.882C290.335 316.39 291.263 319.526 294.151 321.374C297.714 323.502 301.843 323.682 306.753 321.921L307.681 321.587L313.184 324.749L313.264 324.816C311.57 325.777 308.634 327.077 306.86 327.044V328.805C309.762 329.125 313.231 329.372 317.347 327.171L319.408 328.345C320.607 327.921 321.773 327.41 322.898 326.817V325.683L319.822 325.676ZM302.737 319.926C300.996 320.413 299.508 320.4 298.107 319.526C297.02 318.899 296.666 317.891 297.187 316.857C297.425 316.504 297.739 316.21 298.107 315.997L304.018 319.412L302.737 319.926ZM315.826 323.335L310.582 320.306C312.204 319.639 314.752 319.099 316.086 319.926C316.572 320.185 316.95 320.608 317.154 321.12C317.4 321.84 316.893 322.634 315.819 323.355L315.826 323.335Z" fill="#4FC2E2" stroke="#4FC2E2" stroke-linejoin="round"/>
<path d="M322.531 319.952V321.727L320.089 321.493V320.092L322.531 319.952Z" fill="#00081E" stroke="#4FC2E2" stroke-linejoin="round"/>
<path d="M291.65 315.903V317.678L294.145 317.444V316.043L291.65 315.903Z" fill="#00081E" stroke="#4FC2E2" stroke-linejoin="round"/>
<path d="M322.897 325.676L319.822 323.928C323.765 321.08 322.891 318.331 320.229 316.517C315.846 313.748 311.463 314.856 306.887 316.463L304.091 314.849L300.756 312.928C302.091 312.257 303.565 311.91 305.059 311.914L305.612 309.245C301.95 308.952 299.542 309.372 296.873 310.679L294.071 309.065L291.536 310.526L294.305 312.12C290.302 314.629 291.229 317.758 294.118 319.619C297.687 321.74 301.81 321.92 306.726 320.166L307.66 319.832L313.144 323.001L313.238 323.054C311.535 323.908 309.634 324.29 307.734 324.162L306.827 327.044C309.729 327.371 313.198 327.611 317.32 325.409L320.322 327.144L322.897 325.676ZM316.086 318.191C316.571 318.446 316.948 318.868 317.147 319.379C317.394 320.086 316.893 320.873 315.813 321.593L310.576 318.565C312.19 317.924 314.759 317.371 316.086 318.191ZM302.744 318.191C301.003 318.678 299.508 318.671 298.107 317.804C297.863 317.699 297.644 317.544 297.463 317.35C297.282 317.155 297.143 316.925 297.056 316.674C296.969 316.423 296.935 316.157 296.956 315.892C296.977 315.627 297.054 315.37 297.18 315.136C297.425 314.788 297.741 314.497 298.107 314.282L304.018 317.697L302.744 318.191Z" fill="#00081E" stroke="#4FC2E2" stroke-linejoin="round"/>
<path d="M277.5 315.242V309.885L337.567 310.119V315.629L277.5 315.242Z" fill="#00081E" stroke="#4FC2E2" stroke-linejoin="round"/>
<path d="M328.708 303.248C316.94 296.457 297.927 296.423 286.233 303.174C274.538 309.926 274.598 320.9 286.366 327.691C298.134 334.482 317.147 334.522 328.842 327.771C340.536 321.02 340.503 310.032 328.708 303.248Z" fill="#4FC2E2" stroke="#4FC2E2" stroke-linejoin="round"/>
<path d="M323.365 300.746C314.565 295.663 300.349 295.643 291.61 300.686C282.87 305.73 282.937 313.942 291.71 319.019C300.482 324.095 314.719 324.122 323.458 319.072C332.197 314.022 332.157 305.823 323.365 300.746Z" fill="#4FC2E2" stroke="#4FC2E2" stroke-linejoin="round"/>
<path d="M328.715 297.65C316.94 290.866 297.921 290.833 286.239 297.577C274.558 304.322 274.605 315.309 286.366 322.1C298.128 328.892 317.154 328.932 328.835 322.174C340.516 315.416 340.503 304.455 328.715 297.65ZM329.922 310.833C329.582 313.842 327.427 316.777 323.471 319.072L322.904 319.392C321.779 319.985 320.613 320.497 319.415 320.926C310.776 324.008 299.248 323.368 291.717 319.012C287.714 316.69 285.492 313.675 285.139 310.679C284.712 307.084 286.867 303.414 291.61 300.673C300.349 295.629 314.572 295.662 323.358 300.733C328.161 303.508 330.349 307.25 329.922 310.833Z" fill="#00081E" stroke="#4FC2E2" stroke-linejoin="round"/>
<path d="M329.922 310.833C329.582 313.842 327.427 316.777 323.471 319.072C314.725 324.115 300.502 324.089 291.716 319.012C287.714 316.69 285.492 313.675 285.139 310.679C285.479 307.671 287.647 304.715 291.61 302.427C300.349 297.377 314.572 297.397 323.358 302.487C327.401 304.809 329.582 307.804 329.922 310.833Z" fill="#00081E" stroke="#4FC2E2" stroke-linejoin="round"/>
<path d="M319.822 318.264C323.771 315.402 322.898 312.667 320.236 310.846C315.853 308.084 311.476 309.178 306.893 310.786L304.105 309.178L300.769 307.257C302.103 306.59 303.574 306.243 305.065 306.243L305.632 303.574V301.813C305.632 301.813 299.502 303.708 296.887 304.995L291.55 303.101V304.842L294.318 306.45C290.315 308.951 291.243 312.087 294.131 313.941C297.694 316.063 301.823 316.25 306.733 314.488L307.661 314.155L313.164 317.317L313.244 317.377C311.55 318.338 308.614 319.639 306.84 319.612V321.366C309.742 321.687 313.211 321.934 317.327 319.732L319.388 320.913C320.586 320.484 321.752 319.971 322.878 319.378V318.251L319.822 318.264ZM302.717 312.527C300.976 313.021 299.488 313.001 298.087 312.134C297.842 312.029 297.622 311.875 297.441 311.681C297.259 311.486 297.121 311.255 297.034 311.004C296.947 310.752 296.914 310.485 296.937 310.22C296.96 309.955 297.038 309.698 297.167 309.465C297.404 309.113 297.719 308.821 298.087 308.611L303.998 312.02L302.717 312.527ZM315.819 315.923L310.576 312.901C312.197 312.234 314.745 311.693 316.08 312.514C316.565 312.773 316.944 313.196 317.147 313.708C317.4 314.428 316.893 315.256 315.819 315.923Z" fill="#4FC2E2" stroke="#4FC2E2" stroke-linejoin="round"/>
<path d="M322.531 312.541V314.309L320.089 314.075V312.674L322.531 312.541Z" fill="#00081E" stroke="#4FC2E2" stroke-linejoin="round"/>
<path d="M322.898 318.258L319.849 316.497C323.792 313.648 322.918 310.906 320.256 309.085C315.873 306.317 311.49 307.431 306.913 309.032L304.118 307.417L300.783 305.496C302.12 304.832 303.592 304.485 305.085 304.482L305.639 301.814C301.977 301.52 299.568 301.934 296.9 303.248L294.098 301.627L291.563 303.094L294.332 304.689C290.329 307.197 291.256 310.326 294.145 312.187C297.714 314.302 301.837 314.482 306.753 312.734L307.687 312.401L313.171 315.569L313.264 315.623C311.559 316.47 309.661 316.852 307.761 316.73L306.853 319.606C309.755 319.932 313.224 320.179 317.347 317.978L320.349 319.712L322.898 318.258ZM316.086 310.78C316.571 311.033 316.947 311.452 317.147 311.96C317.394 312.674 316.894 313.455 315.813 314.175L310.576 311.153C312.19 310.493 314.759 309.952 316.086 310.78ZM302.744 310.78C301.003 311.267 299.508 311.253 298.107 310.393C297.863 310.288 297.644 310.133 297.463 309.938C297.282 309.744 297.143 309.514 297.056 309.263C296.969 309.012 296.935 308.745 296.956 308.48C296.978 308.216 297.054 307.958 297.18 307.724C297.426 307.376 297.742 307.083 298.107 306.864L304.018 310.279L302.744 310.78Z" fill="#00081E" stroke="#4FC2E2" stroke-linejoin="round"/>
<path d="M328.708 295.829C316.94 289.038 297.927 288.998 286.233 295.749C274.538 302.5 274.598 313.481 286.366 320.273C298.134 327.064 317.147 327.097 328.842 320.346C340.536 313.595 340.503 302.621 328.708 295.829Z" fill="#4FC2E2" stroke="#4FC2E2" stroke-linejoin="round"/>
<path d="M323.365 293.328C314.565 288.251 300.349 288.224 291.61 293.268C282.87 298.311 282.937 306.523 291.71 311.6C300.482 316.677 314.719 316.703 323.458 311.66C332.197 306.617 332.157 298.404 323.365 293.328Z" fill="#4FC2E2" stroke="#4FC2E2" stroke-linejoin="round"/>
<path d="M328.715 290.239C316.94 283.448 297.921 283.421 286.239 290.166C274.558 296.91 274.605 307.898 286.366 314.689C298.128 321.48 317.154 321.52 328.835 314.762C340.516 308.004 340.503 297.044 328.715 290.239ZM329.922 303.415C329.582 306.43 327.427 309.365 323.471 311.66L322.904 311.98C321.78 312.573 320.614 313.084 319.415 313.508C310.776 316.597 299.248 315.956 291.717 311.6C287.714 309.272 285.492 306.263 285.139 303.268C284.712 299.672 286.867 296.003 291.61 293.261C300.349 288.218 314.572 288.244 323.358 293.321C328.161 296.096 330.349 299.812 329.922 303.415Z" fill="#00081E" stroke="#4FC2E2" stroke-linejoin="round"/>
<path d="M329.922 303.414C329.582 306.43 327.427 309.365 323.471 311.66C314.725 316.703 300.502 316.67 291.716 311.6C287.714 309.272 285.492 306.263 285.139 303.268C285.479 300.252 287.647 297.304 291.61 295.009C300.349 289.965 314.572 289.979 323.358 295.069C327.401 297.397 329.582 300.392 329.922 303.414Z" fill="#00081E" stroke="#4FC2E2" stroke-linejoin="round"/>
<path d="M319.822 310.846C323.771 307.991 322.898 305.256 320.236 303.435C315.853 300.666 311.476 301.767 306.893 303.375L304.105 301.767L300.769 299.839C302.102 299.17 303.574 298.825 305.065 298.831L305.632 296.163V294.408C305.632 294.408 299.502 296.303 296.887 297.584L291.55 295.689V297.43L294.318 299.038C290.315 301.547 291.243 304.682 294.131 306.53C297.694 308.658 301.823 308.838 306.733 307.077L307.661 306.743L313.164 309.906L313.244 309.972C311.55 310.933 308.614 312.234 306.84 312.201V313.962C309.742 314.282 313.211 314.529 317.327 312.327L319.388 313.501C320.587 313.077 321.753 312.567 322.878 311.974V310.84L319.822 310.846ZM302.717 305.116C300.976 305.603 299.488 305.589 298.087 304.715C297 304.088 296.646 303.081 297.167 302.047C297.405 301.694 297.719 301.4 298.087 301.186L303.998 304.602L302.717 305.116ZM315.806 308.525L310.562 305.496C312.184 304.829 314.732 304.288 316.066 305.116C316.552 305.375 316.93 305.798 317.134 306.31C317.4 307.01 316.893 307.804 315.819 308.525H315.806Z" fill="#4FC2E2" stroke="#4FC2E2" stroke-linejoin="round"/>
<path d="M322.898 310.846L319.849 309.085C323.792 306.237 322.918 303.488 320.256 301.673C315.873 298.905 311.49 300.012 306.913 301.62L304.118 300.006L300.783 298.084C302.118 297.414 303.592 297.066 305.085 297.07L305.639 294.402C301.977 294.108 299.568 294.529 296.9 295.836L294.098 294.222L291.563 295.683L294.332 297.277C290.329 299.785 291.256 302.914 294.145 304.776C297.714 306.897 301.837 307.077 306.753 305.323L307.687 304.989L313.171 308.158L313.264 308.211C311.561 309.065 309.661 309.447 307.761 309.319L306.853 312.201C309.755 312.527 313.224 312.768 317.347 310.566L320.349 312.301L322.898 310.846ZM316.086 303.361C316.58 303.623 316.96 304.058 317.154 304.582C317.401 305.289 316.9 306.076 315.819 306.797L310.583 303.768C312.19 303.081 314.759 302.541 316.086 303.361ZM302.744 303.361C301.003 303.848 299.508 303.842 298.107 302.974C297.863 302.869 297.644 302.714 297.463 302.52C297.282 302.325 297.143 302.095 297.056 301.844C296.969 301.593 296.935 301.327 296.956 301.062C296.978 300.797 297.054 300.54 297.18 300.306C297.425 299.958 297.741 299.667 298.107 299.452L304.018 302.868L302.744 303.361Z" fill="#00081E" stroke="#4FC2E2" stroke-linejoin="round"/>
<path d="M105 208.126V232.126C105 238.754 110.373 244.126 117 244.126H182.5" stroke="#4FC2E2" stroke-width="4" stroke-linecap="round" stroke-linejoin="round" stroke-dasharray="1 10"/>
<path d="M93 54.6262V26.1262C93 19.4988 98.3726 14.1262 105 14.1262H230C236.627 14.1262 242 19.4988 242 26.1262V33.1262M48 203.126H14.5C7.87258 203.126 2.5 197.744 2.5 191.117C2.5 162.247 2.5 142.005 2.5 113.135C2.5 106.508 7.87258 101.126 14.5 101.126H48" stroke="#4FC2E2" stroke-width="4" stroke-linecap="round" stroke-linejoin="round" stroke-dasharray="1 10"/>
<path d="M113.5 271.655V266.298L173.567 266.538V272.049L113.5 271.655Z" fill="#00081E" stroke="#4FC2E2" stroke-linejoin="round"/>
<path d="M164.701 259.66C152.94 252.862 133.921 252.829 122.233 259.58C110.545 266.332 110.598 277.312 122.366 284.104C134.134 290.895 153.147 290.928 164.835 284.177C176.523 277.426 176.469 266.452 164.701 259.66Z" fill="#4FC2E2" stroke="#4FC2E2" stroke-linejoin="round"/>
<path d="M159.358 257.172C150.565 252.095 136.349 252.069 127.61 257.112C118.871 262.155 118.937 270.368 127.71 275.445C136.483 280.521 150.719 280.548 159.458 275.505C168.197 270.461 168.157 262.236 159.358 257.172Z" fill="#4FC2E2" stroke="#4FC2E2" stroke-linejoin="round"/>
<path d="M164.708 254.07C152.94 247.278 133.92 247.252 122.239 253.996C110.558 260.741 110.605 271.728 122.386 278.52C134.167 285.311 153.18 285.358 164.861 278.6C176.543 271.842 176.469 260.874 164.708 254.07ZM165.915 267.245C165.582 270.261 163.427 273.196 159.464 275.491L158.904 275.811C157.779 276.403 156.613 276.914 155.415 277.339C146.742 280.428 135.248 279.787 127.71 275.431C123.707 273.103 121.492 270.094 121.138 267.092C120.711 263.503 122.866 259.834 127.603 257.085C136.349 252.035 150.572 252.068 159.358 257.145C164.161 259.927 166.349 263.643 165.915 267.245Z" fill="#00081E" stroke="#4FC2E2" stroke-linejoin="round"/>
<path d="M165.916 267.246C165.582 270.261 163.427 273.196 159.464 275.491C150.719 280.535 136.502 280.501 127.71 275.431C123.707 273.103 121.492 270.094 121.138 267.092C121.472 264.083 123.647 261.135 127.603 258.84C136.349 253.797 150.572 253.81 159.358 258.9C163.394 261.222 165.582 264.224 165.916 267.246Z" fill="#00081E" stroke="#4FC2E2" stroke-linejoin="round"/>
<path d="M155.842 274.677C159.785 271.822 158.917 269.08 156.256 267.265C151.866 264.497 147.496 265.598 142.913 267.199L140.131 265.598L136.796 263.67C138.129 263.001 139.601 262.656 141.092 262.662L141.652 259.994V258.239C141.652 258.239 135.522 260.134 132.913 261.415L127.576 259.52V261.261L130.345 262.869C126.342 265.377 127.269 268.513 130.158 270.361C133.72 272.489 137.85 272.669 142.753 270.908L143.687 270.574L149.191 273.736L149.271 273.803C147.57 274.764 144.634 276.065 142.86 276.031V277.793C145.769 278.113 149.238 278.36 153.354 276.158L155.415 277.332C156.613 276.907 157.779 276.396 158.904 275.805V274.67L155.842 274.677ZM138.737 268.947C136.996 269.434 135.508 269.42 134.067 268.546C133.822 268.442 133.602 268.288 133.421 268.093C133.239 267.899 133.101 267.668 133.015 267.416C132.928 267.164 132.896 266.897 132.92 266.632C132.944 266.367 133.023 266.11 133.153 265.878C133.39 265.526 133.702 265.232 134.067 265.017L139.985 268.426L138.737 268.947ZM151.819 272.356L146.576 269.327C148.197 268.66 150.752 268.119 152.079 268.947C152.569 269.204 152.949 269.627 153.154 270.141C153.4 270.841 152.893 271.635 151.819 272.356Z" fill="#4FC2E2" stroke="#4FC2E2" stroke-linejoin="round"/>
<path d="M158.531 268.953V270.728L156.089 270.494V269.087L158.531 268.953Z" fill="#00081E" stroke="#4FC2E2" stroke-linejoin="round"/>
<path d="M127.649 264.904V266.678L130.138 266.445V265.044L127.649 264.904Z" fill="#00081E" stroke="#4FC2E2" stroke-linejoin="round"/>
<path d="M158.897 274.677L155.849 272.916C159.791 270.067 158.917 267.319 156.256 265.504C151.873 262.736 147.49 263.843 142.913 265.451L140.125 263.843L136.789 261.922C138.126 261.251 139.603 260.904 141.099 260.908L141.652 258.239C137.99 257.946 135.582 258.366 132.913 259.674L130.111 258.059L127.576 259.52L130.345 261.115C126.342 263.623 127.263 266.752 130.158 268.613C133.727 270.735 137.85 270.915 142.76 269.16L143.694 268.827L149.184 271.995L149.278 272.049C147.575 272.902 145.674 273.285 143.774 273.156L142.867 276.032C145.769 276.365 149.238 276.605 153.354 274.404L156.362 276.138L158.897 274.677ZM152.086 267.179C152.569 267.433 152.945 267.852 153.147 268.36C153.394 269.073 152.887 269.861 151.813 270.581L146.569 267.552C148.19 266.912 150.752 266.372 152.086 267.179ZM138.744 267.179C137.003 267.666 135.502 267.659 134.107 266.792C133.863 266.687 133.644 266.532 133.463 266.338C133.282 266.143 133.143 265.913 133.056 265.662C132.969 265.411 132.935 265.144 132.956 264.88C132.977 264.615 133.054 264.357 133.18 264.123C133.423 263.774 133.739 263.483 134.107 263.27L140.018 266.679L138.744 267.179Z" fill="#00081E" stroke="#4FC2E2" stroke-linejoin="round"/>
<path d="M113.5 264.244V258.887L173.567 259.12V264.631L113.5 264.244Z" fill="#00081E" stroke="#4FC2E2" stroke-linejoin="round"/>
<path d="M164.701 252.242C152.94 245.451 133.921 245.418 122.233 252.169C110.545 258.92 110.598 269.894 122.366 276.686C134.134 283.477 153.147 283.517 164.835 276.766C176.523 270.014 176.469 259.034 164.701 252.242Z" fill="#4FC2E2" stroke="#4FC2E2" stroke-linejoin="round"/>
<path d="M159.358 249.741C150.565 244.664 136.349 244.637 127.61 249.687C118.871 254.737 118.937 262.943 127.71 268.02C136.483 273.096 150.719 273.123 159.458 268.073C168.197 263.023 168.157 254.824 159.358 249.741Z" fill="#4FC2E2" stroke="#4FC2E2" stroke-linejoin="round"/>
<path d="M164.708 246.652C152.94 239.867 133.921 239.834 122.24 246.578C110.558 253.323 110.605 264.31 122.36 271.102C134.114 277.893 153.154 277.933 164.835 271.175C176.516 264.417 176.47 253.456 164.708 246.652ZM165.916 259.841C165.582 262.849 163.428 265.785 159.465 268.08L158.904 268.4C157.779 268.992 156.613 269.502 155.415 269.928C146.743 273.016 135.248 272.376 127.71 268.02C123.707 265.698 121.492 262.683 121.139 259.687C120.712 256.091 122.867 252.422 127.603 249.68C136.349 244.637 150.572 244.67 159.358 249.74C164.161 252.502 166.349 256.225 165.916 259.841Z" fill="#00081E" stroke="#4FC2E2" stroke-linejoin="round"/>
<path d="M165.916 259.841C165.582 262.849 163.427 265.785 159.464 268.08C150.719 273.123 136.502 273.096 127.71 268.02C123.707 265.698 121.492 262.683 121.138 259.687C121.472 256.678 123.647 253.723 127.603 251.428C136.349 246.385 150.572 246.398 159.358 251.495C163.394 253.837 165.582 256.805 165.916 259.841Z" fill="#00081E" stroke="#4FC2E2" stroke-linejoin="round"/>
<path d="M155.842 267.266C159.785 264.404 158.917 261.669 156.256 259.847C151.866 257.079 147.496 258.179 142.913 259.787L140.131 258.179L136.796 256.258C138.13 255.591 139.601 255.244 141.092 255.244L141.652 252.576V250.814C141.652 250.814 135.522 252.709 132.913 253.997L127.576 252.102V253.837L130.345 255.444C126.342 257.946 127.269 261.081 130.158 262.929C133.72 265.057 137.85 265.238 142.753 263.483L143.687 263.15L149.191 266.312L149.271 266.372C147.57 267.332 144.634 268.633 142.86 268.607V270.361C145.769 270.681 149.238 270.928 153.354 268.727L155.415 269.901C156.613 269.475 157.779 268.965 158.904 268.373V267.246L155.842 267.266ZM138.737 261.528C136.996 262.022 135.508 262.002 134.067 261.135C133.823 261.03 133.603 260.875 133.423 260.68C133.242 260.486 133.104 260.255 133.018 260.003C132.932 259.752 132.899 259.485 132.923 259.221C132.946 258.956 133.025 258.699 133.153 258.466C133.389 258.116 133.702 257.824 134.067 257.612L139.985 261.021L138.737 261.528ZM151.819 264.937L146.576 261.915C148.197 261.248 150.752 260.701 152.079 261.528C152.569 261.786 152.949 262.209 153.154 262.723C153.4 263.423 152.893 264.224 151.819 264.937Z" fill="#4FC2E2" stroke="#4FC2E2" stroke-linejoin="round"/>
<path d="M158.531 261.542V263.31L156.089 263.076V261.675L158.531 261.542Z" fill="#00081E" stroke="#4FC2E2" stroke-linejoin="round"/>
<path d="M127.649 257.492V259.26L130.138 259.033V257.633L127.649 257.492Z" fill="#00081E" stroke="#4FC2E2" stroke-linejoin="round"/>
<path d="M158.897 267.259L155.849 265.498C159.791 262.649 158.917 259.907 156.256 258.086C151.873 255.317 147.49 256.431 142.913 258.032L140.125 256.418L136.789 254.497C138.129 253.832 139.603 253.485 141.099 253.483L141.652 250.814C137.99 250.521 135.582 250.934 132.913 252.242L130.111 250.627L127.576 252.095L130.345 253.69C126.342 256.198 127.263 259.327 130.158 261.188C133.727 263.303 137.85 263.483 142.76 261.728L143.694 261.401L149.184 264.57L149.278 264.617C147.575 265.471 145.674 265.853 143.774 265.724L142.867 268.606C145.769 268.933 149.238 269.18 153.354 266.979L156.362 268.713L158.897 267.259ZM152.086 259.78C152.57 260.033 152.947 260.453 153.147 260.961C153.394 261.675 152.887 262.455 151.813 263.176L146.569 260.154C148.19 259.493 150.752 258.953 152.086 259.78ZM138.744 259.78C137.003 260.267 135.502 260.254 134.107 259.387C133.863 259.282 133.642 259.128 133.461 258.934C133.279 258.739 133.14 258.509 133.053 258.258C132.966 258.006 132.932 257.74 132.954 257.475C132.976 257.209 133.053 256.952 133.18 256.718C133.423 256.368 133.74 256.074 134.107 255.858L140.018 259.273L138.744 259.78Z" fill="#00081E" stroke="#4FC2E2" stroke-linejoin="round"/>
<path d="M113.5 256.825V251.468L173.567 251.708V257.219L113.5 256.825Z" fill="#00081E" stroke="#4FC2E2" stroke-linejoin="round"/>
<path d="M164.701 244.831C152.94 238.033 133.921 237.999 122.233 244.75C110.545 251.502 110.598 262.483 122.366 269.274C134.134 276.065 153.147 276.098 164.835 269.347C176.523 262.596 176.469 251.622 164.701 244.831Z" fill="#4FC2E2" stroke="#4FC2E2" stroke-linejoin="round"/>
<path d="M159.358 242.329C150.565 237.252 136.349 237.225 127.61 242.269C118.871 247.312 118.937 255.524 127.71 260.601C136.483 265.678 150.719 265.705 159.458 260.661C168.197 255.618 168.157 247.406 159.358 242.329Z" fill="#4FC2E2" stroke="#4FC2E2" stroke-linejoin="round"/>
<path d="M164.708 239.24C152.94 232.448 133.921 232.422 122.24 239.16C110.558 245.898 110.605 256.898 122.36 263.683C134.114 270.468 153.154 270.521 164.835 263.763C176.516 257.005 176.47 246.044 164.708 239.24ZM165.916 252.415C165.582 255.431 163.428 258.366 159.465 260.661L158.904 260.981C157.778 261.57 156.612 262.081 155.415 262.509C146.743 265.598 135.248 264.957 127.71 260.594C123.707 258.273 121.492 255.257 121.139 252.262C120.712 248.673 122.867 245.004 127.603 242.255C136.349 237.205 150.572 237.238 159.358 242.315C164.161 245.097 166.349 248.813 165.916 252.415Z" fill="#00081E" stroke="#4FC2E2" stroke-linejoin="round"/>
<path d="M165.916 252.415C165.582 255.431 163.427 258.366 159.464 260.661C150.719 265.704 136.502 265.671 127.71 260.594C123.707 258.273 121.492 255.257 121.138 252.262C121.472 249.253 123.647 246.305 127.603 244.01C136.349 238.966 150.572 238.98 159.358 244.07C163.394 246.391 165.582 249.393 165.916 252.415Z" fill="#00081E" stroke="#4FC2E2" stroke-linejoin="round"/>
<path d="M155.842 259.841C159.785 256.985 158.918 254.243 156.256 252.429C151.866 249.66 147.496 250.761 142.913 252.362L140.131 250.761L136.796 248.833C138.121 248.171 139.584 247.828 141.065 247.832L141.626 245.164V243.409C141.626 243.409 135.495 245.304 132.887 246.585L127.55 244.69V246.431L130.318 248.039C126.315 250.548 127.243 253.683 130.131 255.531C133.694 257.652 137.823 257.839 142.727 256.078L143.661 255.744L149.164 258.907L149.244 258.973C147.543 259.934 144.608 261.235 142.833 261.201V262.963C145.742 263.283 149.211 263.523 153.327 261.322L155.388 262.502C156.585 262.074 157.751 261.564 158.878 260.975V259.841H155.842ZM138.737 254.11C136.996 254.597 135.508 254.584 134.067 253.71C133.822 253.606 133.602 253.451 133.421 253.257C133.239 253.062 133.101 252.831 133.015 252.579C132.929 252.328 132.896 252.061 132.92 251.796C132.944 251.531 133.024 251.274 133.153 251.041C133.39 250.69 133.702 250.396 134.067 250.181L139.985 253.59L138.737 254.11ZM151.819 257.519L146.576 254.504C148.197 253.837 150.752 253.296 152.08 254.123C152.569 254.38 152.95 254.804 153.154 255.317C153.4 256.011 152.893 256.805 151.819 257.526V257.519Z" fill="#4FC2E2" stroke="#4FC2E2" stroke-linejoin="round"/>
<path d="M158.531 254.123V255.898L156.089 255.664V254.257L158.531 254.123Z" fill="#00081E" stroke="#4FC2E2" stroke-linejoin="round"/>
<path d="M127.649 250.074V251.849L130.138 251.615V250.214L127.649 250.074Z" fill="#00081E" stroke="#4FC2E2" stroke-linejoin="round"/>
<path d="M158.897 259.84L155.849 258.079C159.791 255.231 158.917 252.482 156.256 250.668C151.873 247.899 147.49 249.006 142.913 250.614L140.125 249L136.789 247.078C138.126 246.408 139.603 246.061 141.099 246.064L141.652 243.396C137.99 243.102 135.582 243.516 132.913 244.83L130.111 243.216L127.576 244.677L130.345 246.271C126.342 248.78 127.263 251.908 130.158 253.77C133.727 255.891 137.85 256.071 142.76 254.317L143.694 253.983L149.184 257.152L149.278 257.205C147.575 258.059 145.674 258.441 143.774 258.313L142.867 261.175C145.769 261.508 149.238 261.748 153.354 259.547L156.362 261.281L158.897 259.84ZM152.086 252.355C152.569 252.61 152.945 253.029 153.147 253.536C153.394 254.25 152.887 255.037 151.813 255.758L146.569 252.729C148.19 252.082 150.752 251.541 152.086 252.362V252.355ZM138.744 252.355C137.003 252.842 135.502 252.836 134.107 251.968C133.863 251.863 133.644 251.709 133.463 251.514C133.282 251.319 133.143 251.089 133.056 250.838C132.969 250.587 132.935 250.321 132.956 250.056C132.977 249.791 133.054 249.534 133.18 249.3C133.423 248.951 133.739 248.659 134.107 248.446L140.018 251.855L138.744 252.355Z" fill="#00081E" stroke="#4FC2E2" stroke-linejoin="round"/>
</svg>
