<svg width="373" height="316" viewBox="0 0 373 316" fill="none" xmlns="http://www.w3.org/2000/svg">
<path d="M69 175.626V163.126C69 154.29 61.8366 147.126 53 147.126H18.5C9.66344 147.126 2.5 139.963 2.5 131.126V58.1262" stroke="#4FC2E2" stroke-width="4" stroke-linecap="round" stroke-linejoin="round" stroke-dasharray="1 10"/>
<path d="M323.3 24.1262H298.1C296.615 24.1262 295.19 24.7162 294.14 25.7664C293.09 26.8166 292.5 28.241 292.5 29.7262V74.5262C292.5 76.0114 293.09 77.4358 294.14 78.486C295.19 79.5362 296.615 80.1262 298.1 80.1262H331.7C333.185 80.1262 334.61 79.5362 335.66 78.486C336.71 77.4358 337.3 76.0114 337.3 74.5262V38.1262L323.3 24.1262Z" stroke="#4FC2E2" stroke-linecap="round" stroke-linejoin="round"/>
<path d="M320.5 24.1262V35.3262C320.5 36.8114 321.09 38.2358 322.14 39.286C323.19 40.3362 324.615 40.9262 326.1 40.9262H337.3" stroke="#4FC2E2" stroke-linecap="round" stroke-linejoin="round"/>
<path d="M299.642 50.0973H330.483" stroke="#4FC2E2" stroke-width="2" stroke-linecap="round" stroke-linejoin="round"/>
<path d="M299.642 55.2914H330.483" stroke="#4FC2E2" stroke-width="2" stroke-linecap="round" stroke-linejoin="round"/>
<path d="M299.642 60.4856H330.483" stroke="#4FC2E2" stroke-width="2" stroke-linecap="round" stroke-linejoin="round"/>
<path d="M299.642 65.6798H321.068" stroke="#4FC2E2" stroke-width="2" stroke-linecap="round" stroke-linejoin="round"/>
<rect x="195" y="70.6262" width="106" height="85" rx="7.5" fill="#00081E" fill-opacity="0.8" stroke="#37889E"/>
<rect x="204.5" y="78.1262" width="10" height="69" rx="4" fill="#2B3244"/>
<rect x="230.5" y="78.1262" width="10" height="69" rx="4" fill="#2B3244"/>
<rect x="256.5" y="78.1262" width="10" height="69" rx="4" fill="#2B3244"/>
<rect x="282.5" y="78.1262" width="10" height="69" rx="4" fill="#2B3244"/>
<rect x="204.5" y="86.1262" width="10" height="61" rx="4" fill="#4FC2E2"/>
<rect x="230.5" y="78.1262" width="10" height="69" rx="4" fill="#4FC2E2"/>
<rect x="256.5" y="111.126" width="10" height="36" rx="4" fill="#4FC2E2"/>
<rect x="282.5" y="91.1262" width="10" height="56" rx="4" fill="#4FC2E2"/>
<circle cx="132.5" cy="153.126" r="57.5" fill="#00081E" fill-opacity="0.8" stroke="#37889E"/>
<circle cx="132.5" cy="153.126" r="47" fill="#2B3244"/>
<path d="M179.5 153.126C179.5 162.422 176.743 171.509 171.579 179.238C166.415 186.967 159.074 192.991 150.486 196.549C141.898 200.106 132.448 201.037 123.331 199.223C114.214 197.41 105.839 192.933 99.266 186.36C92.6929 179.787 88.2166 171.413 86.4031 162.295C84.5896 153.178 85.5203 143.728 89.0777 135.14C92.635 126.552 98.6591 119.212 106.388 114.047C114.117 108.883 123.204 106.126 132.5 106.126L132.5 153.126H179.5Z" fill="#4FC2E2"/>
<circle cx="132.5" cy="153.126" r="33.8837" fill="#020A20"/>
<path d="M324.633 175.974C320.459 197.937 311.216 218.621 297.64 236.373C284.065 254.126 266.533 268.456 246.443 278.221C238.604 282.04 230.424 285.111 222.009 287.394C217.538 288.641 212.944 289.644 208.302 290.451C203.278 291.295 198.213 291.867 193.128 292.163C190.196 292.359 187.264 292.457 184.283 292.457C180.52 292.457 176.782 292.311 173.068 292.017C167.728 291.612 162.417 290.893 157.161 289.864C152.918 289.067 148.718 288.055 144.577 286.831C136.237 284.448 128.138 281.287 120.388 277.389C98.7333 266.477 80.1775 250.273 66.4371 230.278C61.8229 223.549 57.793 216.437 54.3912 209.021C49.6539 198.682 46.1836 187.808 44.0557 176.634C44.0557 176.414 44.0557 176.194 44.0557 175.974H324.633Z" fill="#00081E" fill-opacity="0.7"/>
<g filter="url(#filter0_dddd_137_518)">
<path d="M324.633 175.974C320.459 197.937 311.216 218.621 297.64 236.373C284.065 254.126 266.533 268.456 246.443 278.221C238.604 282.04 230.424 285.111 222.009 287.394C217.538 288.641 212.944 289.644 208.302 290.451C203.278 291.295 198.213 291.867 193.128 292.163C190.196 292.359 187.264 292.457 184.283 292.457C180.52 292.457 176.782 292.311 173.068 292.017C167.728 291.612 162.417 290.893 157.161 289.864C152.918 289.067 148.718 288.055 144.577 286.831C136.237 284.448 128.138 281.287 120.388 277.389C98.7333 266.477 80.1775 250.273 66.4371 230.278C61.8229 223.549 57.793 216.437 54.3912 209.021C49.6539 198.682 46.1836 187.808 44.0557 176.634C44.0557 176.414 44.0557 176.194 44.0557 175.974H324.633Z" stroke="#4FC2E2" stroke-width="3" stroke-miterlimit="10" stroke-linecap="round"/>
</g>
<path d="M104.505 175.974L100.987 189.574C99.6022 194.928 96.8191 199.816 92.9237 203.737L82.0996 214.573L66.4858 230.18" stroke="#4FC2E2" stroke-width="3" stroke-miterlimit="10" stroke-linecap="round"/>
<path d="M81.5864 248.819L98.8858 231.525L115.721 214.671L132.532 197.818" stroke="#4FC2E2" stroke-width="3" stroke-miterlimit="10" stroke-linecap="round"/>
<path d="M65.4109 198.013L54.3911 209.021" stroke="#4FC2E2" stroke-width="3" stroke-miterlimit="10" stroke-linecap="round"/>
<path d="M99.4963 264.572L115.672 248.354L132.507 231.501L149.342 214.671L160.191 203.835C164.107 199.893 166.906 194.98 168.303 189.599L171.846 175.998" stroke="#4FC2E2" stroke-width="3" stroke-miterlimit="10" stroke-linecap="round"/>
<path d="M120.388 277.389L132.531 265.208L149.367 248.354L166.202 231.525L183.037 214.671L199.847 197.818" stroke="#4FC2E2" stroke-width="3" stroke-miterlimit="10" stroke-linecap="round"/>
<path d="M144.553 286.904L149.44 282.135L166.275 265.281L183.085 248.427L199.921 231.598L216.756 214.745L227.58 203.908C231.512 199.974 234.321 195.059 235.716 189.672L239.259 176.047" stroke="#4FC2E2" stroke-width="3" stroke-miterlimit="10" stroke-linecap="round"/>
<path d="M267.163 197.818L250.352 214.671L233.517 231.5L216.682 248.354L199.847 265.208L183.036 282.061L173.067 292.017" stroke="#4FC2E2" stroke-width="3" stroke-miterlimit="10" stroke-linecap="round"/>
<path d="M306.477 175.974L302.788 189.868C301.383 195.21 298.584 200.082 294.676 203.982L283.974 214.671L267.163 231.525L250.328 248.354L233.493 265.207L216.658 282.061L208.277 290.451" stroke="#4FC2E2" stroke-width="3" stroke-miterlimit="10" stroke-linecap="round"/>
<path d="M301.078 231.769L283.974 214.647L273.15 203.811C269.213 199.871 266.403 194.946 265.013 189.55L261.519 175.949" stroke="#4FC2E2" stroke-width="3" stroke-miterlimit="10" stroke-linecap="round"/>
<path d="M285.758 250.115L267.188 231.525L250.353 214.671L233.518 197.818" stroke="#4FC2E2" stroke-width="3" stroke-miterlimit="10" stroke-linecap="round"/>
<path d="M313.393 210.758L300.662 198.013" stroke="#4FC2E2" stroke-width="3" stroke-miterlimit="10" stroke-linecap="round"/>
<path d="M267.579 265.624L250.353 248.354L233.518 231.5L216.683 214.671L199.847 197.818L194.203 175.974" stroke="#4FC2E2" stroke-width="3" stroke-miterlimit="10" stroke-linecap="round"/>
<path d="M246.492 278.221L233.518 265.208L216.682 248.354L199.847 231.525L183.037 214.671L166.202 197.818" stroke="#4FC2E2" stroke-width="3" stroke-miterlimit="10" stroke-linecap="round"/>
<path d="M221.985 287.394L216.658 282.061L199.823 265.207L182.988 248.354L166.177 231.525L149.342 214.671L138.517 203.835C134.586 199.901 131.777 194.985 130.381 189.599L126.862 175.998" stroke="#4FC2E2" stroke-width="3" stroke-miterlimit="10" stroke-linecap="round"/>
<path d="M98.8857 197.818L115.721 214.671L132.531 231.5L149.367 248.354L166.202 265.208L183.037 282.061L193.128 292.164" stroke="#4FC2E2" stroke-width="3" stroke-miterlimit="10" stroke-linecap="round"/>
<path d="M59.5225 175.974L63.2365 189.917C64.6484 195.217 67.4289 200.051 71.2993 203.933L82.0262 214.671L98.861 231.525L115.672 248.354L132.507 265.207L149.342 282.061L157.137 289.864" stroke="#4FC2E2" stroke-width="3" stroke-miterlimit="10" stroke-linecap="round"/>
<path d="M183.037 190.871C191.241 190.871 197.893 184.212 197.893 175.998C197.893 167.785 191.241 161.126 183.037 161.126C174.832 161.126 168.181 167.785 168.181 175.998C168.181 184.212 174.832 190.871 183.037 190.871Z" fill="#4FC2E2"/>
<path d="M250.353 190.871C258.557 190.871 265.208 184.212 265.208 175.998C265.208 167.785 258.557 161.126 250.353 161.126C242.148 161.126 235.497 167.785 235.497 175.998C235.497 184.212 242.148 190.871 250.353 190.871Z" fill="#4FC2E2"/>
<path d="M317.668 190.871C325.873 190.871 332.524 184.212 332.524 175.998C332.524 167.785 325.873 161.126 317.668 161.126C309.464 161.126 302.812 167.785 302.812 175.998C302.812 184.212 309.464 190.871 317.668 190.871Z" fill="#4FC2E2"/>
<path d="M115.696 190.871C123.901 190.871 130.552 184.212 130.552 175.998C130.552 167.785 123.901 161.126 115.696 161.126C107.492 161.126 100.84 167.785 100.84 175.998C100.84 184.212 107.492 190.871 115.696 190.871Z" fill="#4FC2E2"/>
<path d="M48.3559 190.871C56.5606 190.871 63.2119 184.212 63.2119 175.998C63.2119 167.785 56.5606 161.126 48.3559 161.126C40.1512 161.126 33.5 167.785 33.5 175.998C33.5 184.212 40.1512 190.871 48.3559 190.871Z" fill="#4FC2E2"/>
<circle cx="154" cy="49.6262" r="36" fill="#00081E" fill-opacity="0.8" stroke="#37889E"/>
<path d="M171.109 34.4178H136.891C136.386 34.4178 135.903 34.6181 135.546 34.9746C135.19 35.3312 134.99 35.8147 134.99 36.3189V62.9335C134.99 63.4377 135.19 63.9212 135.546 64.2777C135.903 64.6342 136.386 64.8345 136.891 64.8345H171.109C171.614 64.8345 172.097 64.6342 172.454 64.2777C172.81 63.9212 173.01 63.4377 173.01 62.9335V36.3189C173.01 35.8147 172.81 35.3312 172.454 34.9746C172.097 34.6181 171.614 34.4178 171.109 34.4178ZM169.208 55.3293C167.696 55.3293 166.245 55.9302 165.176 56.9997C164.106 58.0693 163.505 59.5199 163.505 61.0324H144.495C144.495 59.5199 143.894 58.0693 142.824 56.9997C141.755 55.9302 140.304 55.3293 138.792 55.3293V43.9231C140.304 43.9231 141.755 43.3222 142.824 42.2526C143.894 41.1831 144.495 39.7325 144.495 38.2199H163.505C163.505 39.7325 164.106 41.1831 165.176 42.2526C166.245 43.3222 167.696 43.9231 169.208 43.9231V55.3293Z" fill="#4FC2E2"/>
<path d="M154 42.0221C149.806 42.0221 146.396 45.4326 146.396 49.6263C146.396 53.82 149.806 57.2304 154 57.2304C158.194 57.2304 161.604 53.82 161.604 49.6263C161.604 45.4326 158.194 42.0221 154 42.0221ZM154 53.4283C151.903 53.4283 150.198 51.7231 150.198 49.6263C150.198 47.5294 151.903 45.8242 154 45.8242C156.097 45.8242 157.802 47.5294 157.802 49.6263C157.802 51.7231 156.097 53.4283 154 53.4283Z" fill="#4FC2E2"/>
<path d="M85.9375 43.1262H47.125C44.8375 43.1262 42.6437 44.0349 41.0262 45.6524C39.4087 47.2699 38.5 49.4637 38.5 51.7512V120.751C38.5 123.039 39.4087 125.233 41.0262 126.85C42.6437 128.468 44.8375 129.376 47.125 129.376H98.875C101.162 129.376 103.356 128.468 104.974 126.85C106.591 125.233 107.5 123.039 107.5 120.751V64.6887L85.9375 43.1262Z" stroke="#4FC2E2" stroke-width="2" stroke-linecap="round" stroke-linejoin="round"/>
<path d="M81.625 43.1262V60.3762C81.625 62.6637 82.5337 64.8575 84.1512 66.475C85.7687 68.0925 87.9625 69.0012 90.25 69.0012H107.5M90.25 90.5637L75.1562 105.657L66.5312 97.0325L55.75 107.814" stroke="#4FC2E2" stroke-width="2" stroke-linecap="round" stroke-linejoin="round"/>
<path d="M216.5 35.1263L231.5 20.1263L246.5 35.1263L268.5 13.1263" stroke="#4FC2E2" stroke-width="2" stroke-linecap="round" stroke-linejoin="round"/>
<path d="M248.5 13.1263H268.5V33.1263" stroke="#4FC2E2" stroke-width="2" stroke-linecap="round" stroke-linejoin="round"/>
<path d="M271.5 49.1262H209.5V1.12622" stroke="#4FC2E2" stroke-width="2" stroke-linecap="round" stroke-linejoin="round"/>
<path d="M316.5 178.126V147.626C316.5 138.79 323.663 131.626 332.5 131.626H371" stroke="#4FC2E2" stroke-width="4" stroke-linecap="round" stroke-linejoin="round" stroke-dasharray="1 10"/>
<path d="M352 131.626V44.6262" stroke="#4FC2E2" stroke-width="4" stroke-linecap="round" stroke-linejoin="round" stroke-dasharray="1 10"/>
<defs>
<filter id="filter0_dddd_137_518" x="21.0853" y="153.003" width="326.829" height="162.424" filterUnits="userSpaceOnUse" color-interpolation-filters="sRGB">
<feFlood flood-opacity="0" result="BackgroundImageFix"/>
<feColorMatrix in="SourceAlpha" type="matrix" values="0 0 0 0 0 0 0 0 0 0 0 0 0 0 0 0 0 0 127 0" result="hardAlpha"/>
<feOffset/>
<feGaussianBlur stdDeviation="0.2556"/>
<feColorMatrix type="matrix" values="0 0 0 0 0.904675 0 0 0 0 1 0 0 0 0 1 0 0 0 1 0"/>
<feBlend mode="normal" in2="BackgroundImageFix" result="effect1_dropShadow_137_518"/>
<feColorMatrix in="SourceAlpha" type="matrix" values="0 0 0 0 0 0 0 0 0 0 0 0 0 0 0 0 0 0 127 0" result="hardAlpha"/>
<feOffset/>
<feGaussianBlur stdDeviation="0.5112"/>
<feColorMatrix type="matrix" values="0 0 0 0 0.904675 0 0 0 0 1 0 0 0 0 1 0 0 0 1 0"/>
<feBlend mode="normal" in2="effect1_dropShadow_137_518" result="effect2_dropShadow_137_518"/>
<feColorMatrix in="SourceAlpha" type="matrix" values="0 0 0 0 0 0 0 0 0 0 0 0 0 0 0 0 0 0 127 0" result="hardAlpha"/>
<feOffset/>
<feGaussianBlur stdDeviation="1.7892"/>
<feColorMatrix type="matrix" values="0 0 0 0 0.904675 0 0 0 0 1 0 0 0 0 1 0 0 0 1 0"/>
<feBlend mode="normal" in2="effect2_dropShadow_137_518" result="effect3_dropShadow_137_518"/>
<feColorMatrix in="SourceAlpha" type="matrix" values="0 0 0 0 0 0 0 0 0 0 0 0 0 0 0 0 0 0 127 0" result="hardAlpha"/>
<feOffset/>
<feGaussianBlur stdDeviation="10.7352"/>
<feColorMatrix type="matrix" values="0 0 0 0 0.0235294 0 0 0 0 0.839216 0 0 0 0 0.898039 0 0 0 1 0"/>
<feBlend mode="normal" in2="effect3_dropShadow_137_518" result="effect4_dropShadow_137_518"/>
<feBlend mode="normal" in="SourceGraphic" in2="effect4_dropShadow_137_518" result="shape"/>
</filter>
</defs>
</svg>
