<svg width="477" height="299" viewBox="0 0 477 299" fill="none" xmlns="http://www.w3.org/2000/svg">
<path d="M403.74 49.5153L383.91 60.5653L361 73.3453L336.32 59.5753L316.5 48.5153L359.23 24.6853L403.74 49.5153Z" stroke="#4FC2E2" stroke-linejoin="round"/>
<path d="M361 73.3451V95.4451L316.5 70.6251V48.5151L336.32 59.5751L361 73.3451Z" stroke="#4FC2E2" stroke-linejoin="round"/>
<path d="M349.924 5.46036L349.924 5.46037L349.927 5.46207L352.797 7.06206L352.797 7.06216C354.973 8.27391 356.754 10.0855 357.929 12.2813L357.93 12.2836L359.669 15.4917C360.213 16.5144 361.043 17.3559 362.058 17.9129C362.059 17.9132 362.059 17.9135 362.06 17.9138L380.11 27.979V56.7833L345.31 37.3419V4.71553C345.31 4.52596 345.36 4.33975 345.454 4.17523C345.548 4.01067 345.684 3.87348 345.847 3.77725C346.01 3.68103 346.196 3.6291 346.385 3.62656C346.574 3.62404 346.761 3.67061 346.926 3.7617L349.924 5.46036Z" fill="#00081E" fill-opacity="0.8" stroke="#37889E"/>
<path d="M381.11 56.7845V27.6851V27.3918L380.854 27.2487L362.584 17.0387L362.584 17.0386L362.58 17.0367C361.735 16.5732 361.044 15.8724 360.592 15.0207L360.592 15.0207L360.589 15.0157L358.85 11.8274C357.584 9.46352 355.666 7.51311 353.323 6.20841C353.323 6.20838 353.323 6.20834 353.323 6.20831L350.71 4.75142V1.70704C350.712 1.51857 350.762 1.33373 350.856 1.17054C350.951 1.0069 351.087 0.870696 351.25 0.775286C351.413 0.679868 351.598 0.628523 351.787 0.626296C351.976 0.624072 352.162 0.670929 352.327 0.762254C352.327 0.76236 352.328 0.762467 352.328 0.762573L358.247 4.06186L358.247 4.06208C360.425 5.27377 362.21 7.08537 363.389 9.28164L363.39 9.28177L365.12 12.5018L365.12 12.5034C365.668 13.5146 366.492 14.3496 367.496 14.9114L367.497 14.912L385.53 24.9491V52.855C385.53 52.855 385.53 52.8551 385.53 52.8551C385.53 53.3003 385.411 53.7374 385.185 54.1212C384.96 54.505 384.636 54.8216 384.247 55.0383C384.247 55.0383 384.247 55.0383 384.247 55.0383L381.11 56.7845Z" fill="#00081E" fill-opacity="0.8" stroke="#37889E"/>
<path d="M337.313 12.3402L337.313 12.3403L337.317 12.342L340.186 13.9417C340.186 13.9417 340.186 13.9418 340.186 13.9418C342.36 15.1569 344.141 16.968 345.32 19.1618L345.32 19.1635L347.059 22.3713C347.6 23.3936 348.432 24.2329 349.449 24.7834C349.45 24.784 349.451 24.7846 349.452 24.7851L367.5 34.8588V63.6632L332.7 44.2218V11.5954C332.7 11.4059 332.75 11.2197 332.844 11.0551C332.938 10.8905 333.073 10.7534 333.237 10.6571C333.4 10.5609 333.586 10.509 333.775 10.5064C333.964 10.5039 334.15 10.5505 334.316 10.6416L337.313 12.3402Z" fill="#00081E" fill-opacity="0.8" stroke="#37889E"/>
<path d="M337.6 11.9052V8.5652M337.6 11.9052L340.47 13.5052L337.6 8.5652M337.6 11.9052H338.1V11.6115M337.6 11.9052L337.844 11.4685L338.1 11.6115M337.6 8.5652C337.599 8.28833 337.671 8.01605 337.808 7.77562C337.945 7.5352 338.144 7.33508 338.383 7.19531C338.622 7.05555 338.893 6.98105 339.17 6.97928C339.447 6.97751 339.719 7.04851 339.96 7.1852L337.6 8.5652ZM338.1 11.6115V8.5652H338.1L338.1 8.56332C338.099 8.37406 338.148 8.18795 338.242 8.0236C338.336 7.85929 338.472 7.72249 338.635 7.62694C338.798 7.5314 338.984 7.48048 339.173 7.47927C339.362 7.47806 339.549 7.52659 339.713 7.62002L339.713 7.62003L339.717 7.62193L345.637 10.9219L345.638 10.9225C347.818 12.1313 349.603 13.9433 350.779 16.1411L350.78 16.1424L352.509 19.3513C352.509 19.3515 352.51 19.3517 352.51 19.352C353.054 20.3689 353.879 21.2086 354.886 21.7716L354.887 21.7719L372.92 31.8289V59.7351C372.92 59.7351 372.92 59.7352 372.92 59.7352C372.92 60.1804 372.801 60.6175 372.575 61.0013C372.35 61.3851 372.026 61.7017 371.637 61.9183C371.637 61.9184 371.637 61.9184 371.637 61.9184L368.5 63.6646V34.5652V34.272L368.244 34.1288L349.974 23.9088L349.974 23.9088L349.968 23.9053C349.122 23.4484 348.431 22.7511 347.982 21.9015L347.982 21.9015L347.98 21.8969L346.241 18.6886L345.8 18.9252L346.24 18.6869L346.24 18.6876C344.971 16.3261 343.054 14.3766 340.714 13.0688L340.714 13.0685L338.1 11.6115Z" fill="#00081E" fill-opacity="0.8" stroke="#37889E"/>
<path d="M403.74 49.5151V71.6351L361 95.4451V73.3451L383.91 60.5651L403.74 49.5151Z" stroke="#4FC2E2" stroke-linejoin="round"/>
<path d="M396.36 63.6151V68.1851C396.363 68.3694 396.315 68.551 396.222 68.7098C396.128 68.8687 395.993 68.9985 395.83 69.0851L374.03 81.2351C373.875 81.3319 373.698 81.3846 373.515 81.3876C373.333 81.3906 373.154 81.3437 372.996 81.2521C372.839 81.1605 372.709 81.0276 372.622 80.8677C372.534 80.7079 372.492 80.5272 372.5 80.3451V75.7751C372.497 75.5909 372.545 75.4093 372.638 75.2504C372.732 75.0916 372.867 74.9617 373.03 74.8751L394.83 62.7151C394.985 62.6178 395.164 62.565 395.347 62.5624C395.53 62.5597 395.71 62.6075 395.868 62.7003C396.026 62.7932 396.155 62.9276 396.242 63.0889C396.329 63.2502 396.37 63.4323 396.36 63.6151Z" fill="#4FC2E2"/>
<path d="M425.74 227.036L405.92 238.086L383.01 250.856L358.33 237.096L338.5 226.036L381.24 202.206L425.74 227.036Z" stroke="#4FC2E2" stroke-linejoin="round"/>
<path d="M383.01 250.856V272.966L338.5 248.146V226.036L358.33 237.096L383.01 250.856Z" stroke="#4FC2E2" stroke-linejoin="round"/>
<path d="M425.74 227.036V249.146L383.01 272.966V250.856L405.92 238.086L425.74 227.036Z" stroke="#4FC2E2" stroke-linejoin="round"/>
<path d="M418.36 241.136V245.706C418.364 245.889 418.318 246.07 418.226 246.229C418.134 246.388 418.001 246.518 417.84 246.606L396.03 258.756C395.876 258.85 395.699 258.901 395.518 258.902C395.338 258.904 395.16 258.857 395.004 258.765C394.848 258.674 394.72 258.542 394.633 258.384C394.546 258.226 394.503 258.047 394.51 257.866V253.286C394.508 253.105 394.555 252.926 394.646 252.769C394.738 252.612 394.871 252.483 395.03 252.396L416.83 240.236C416.985 240.139 417.164 240.086 417.347 240.083C417.53 240.081 417.71 240.128 417.868 240.221C418.026 240.314 418.155 240.449 418.242 240.61C418.329 240.771 418.37 240.953 418.36 241.136Z" fill="#4FC2E2"/>
<path d="M418.36 265.996V270.566C418.364 270.749 418.318 270.93 418.226 271.089C418.134 271.248 418.001 271.378 417.84 271.466L396.03 283.616C395.875 283.711 395.697 283.761 395.516 283.763C395.334 283.764 395.155 283.716 394.999 283.623C394.843 283.531 394.715 283.397 394.629 283.238C394.542 283.078 394.501 282.898 394.51 282.716V278.146C394.508 277.965 394.555 277.786 394.646 277.629C394.738 277.472 394.871 277.343 395.03 277.256L416.83 265.096C416.985 264.999 417.164 264.946 417.347 264.943C417.53 264.941 417.71 264.989 417.868 265.081C418.026 265.174 418.155 265.309 418.242 265.47C418.329 265.631 418.37 265.813 418.36 265.996Z" fill="#4FC2E2"/>
<path d="M383.01 275.686V297.796L338.5 272.966V250.856L358.33 261.916L383.01 275.686Z" stroke="#4FC2E2" stroke-linejoin="round"/>
<path d="M425.74 251.866V273.976L383.01 297.796V275.686L405.92 262.916L425.74 251.866Z" stroke="#4FC2E2" stroke-linejoin="round"/>
<path d="M475.58 224.956L455.75 236.006L432.85 248.776L425.74 244.806V227.036L404.28 215.066L431.07 200.126L475.58 224.956Z" stroke="#4FC2E2" stroke-linejoin="round"/>
<path d="M475.58 224.956V247.076L432.84 270.896V248.786L455.75 236.006L475.58 224.956Z" stroke="#4FC2E2" stroke-linejoin="round"/>
<path d="M468.2 239.056V243.626C468.203 243.811 468.155 243.992 468.062 244.151C467.968 244.31 467.833 244.44 467.67 244.526L445.87 256.686C445.715 256.784 445.536 256.836 445.353 256.839C445.17 256.842 444.989 256.794 444.832 256.701C444.674 256.608 444.544 256.474 444.458 256.312C444.371 256.151 444.33 255.969 444.34 255.786V251.216C444.337 251.032 444.385 250.85 444.478 250.692C444.572 250.533 444.707 250.403 444.87 250.316L466.67 238.166C466.824 238.07 467.002 238.017 467.185 238.014C467.367 238.011 467.546 238.058 467.704 238.149C467.861 238.241 467.991 238.374 468.078 238.534C468.166 238.693 468.208 238.874 468.2 239.056Z" fill="#4FC2E2"/>
<path d="M87.74 45.0363L67.91 56.0863L45.01 68.8563L20.33 55.0863L0.5 44.0263L43.23 20.2063L87.74 45.0363Z" stroke="#4FC2E2" stroke-linejoin="round"/>
<path d="M45.01 68.8561V90.9661L0.5 66.1361V44.0261L20.33 55.0861L45.01 68.8561Z" stroke="#4FC2E2" stroke-linejoin="round"/>
<path d="M87.74 45.0361V67.1461L45.01 90.9661V68.8561L67.91 56.0861L87.74 45.0361Z" stroke="#4FC2E2" stroke-linejoin="round"/>
<path d="M80.3599 59.1361V63.7061C80.3631 63.8904 80.3153 64.072 80.2218 64.2308C80.1283 64.3896 79.9927 64.5195 79.83 64.6061L58.03 76.7561C57.8748 76.8534 57.6959 76.9063 57.5128 76.9089C57.3297 76.9115 57.1494 76.8638 56.9915 76.7709C56.8337 76.6781 56.7044 76.5437 56.6177 76.3823C56.531 76.221 56.4903 76.039 56.4999 75.8561V71.2861C56.5031 71.1031 56.5535 70.924 56.6464 70.7663C56.7393 70.6086 56.8714 70.4776 57.03 70.3861L78.83 58.2361C78.9851 58.1388 79.164 58.086 79.3471 58.0834C79.5302 58.0807 79.7105 58.1285 79.8683 58.2213C80.0262 58.3142 80.1556 58.4486 80.2422 58.6099C80.3289 58.7712 80.3696 58.9533 80.3599 59.1361Z" fill="#4FC2E2"/>
<path d="M45.01 93.6862V115.796L0.5 90.9662V68.8562L20.33 79.9162L45.01 93.6862Z" stroke="#4FC2E2" stroke-linejoin="round"/>
<path d="M87.74 69.8562V91.9762L45.01 115.796V93.6862L67.91 80.9062L87.74 69.8562Z" stroke="#4FC2E2" stroke-linejoin="round"/>
<path d="M80.3599 83.9561V88.5262C80.3631 88.7104 80.3153 88.892 80.2218 89.0508C80.1283 89.2097 79.9927 89.3395 79.83 89.4261L58.03 101.586C57.8748 101.683 57.6959 101.736 57.5128 101.739C57.3297 101.742 57.1494 101.694 56.9915 101.601C56.8337 101.508 56.7044 101.374 56.6177 101.212C56.531 101.051 56.4903 100.869 56.4999 100.686V96.1161C56.4968 95.9319 56.5446 95.7503 56.6381 95.5915C56.7316 95.4326 56.8673 95.3027 57.03 95.2161L78.83 83.0661C78.9844 82.9694 79.1622 82.9167 79.3444 82.9137C79.5266 82.9107 79.7061 82.9576 79.8636 83.0492C80.0211 83.1408 80.1506 83.2737 80.2381 83.4335C80.3256 83.5934 80.3677 83.7741 80.3599 83.9561Z" fill="#4FC2E2"/>
<path d="M45.01 118.506V140.616L0.5 115.796V93.6863L20.33 104.736L45.01 118.506Z" stroke="#4FC2E2" stroke-linejoin="round"/>
<path d="M87.74 94.6863V116.796L45.01 140.616V118.506L67.91 105.736L87.74 94.6863Z" stroke="#4FC2E2" stroke-linejoin="round"/>
<path d="M80.3599 108.786V113.356C80.3631 113.541 80.3153 113.722 80.2218 113.881C80.1283 114.04 79.9927 114.17 79.8299 114.256L58.03 126.406C57.8756 126.503 57.6976 126.556 57.5154 126.559C57.3332 126.562 57.1537 126.515 56.9962 126.423C56.8387 126.332 56.7092 126.199 56.6218 126.039C56.5343 125.879 56.4922 125.698 56.4999 125.516V120.936C56.4986 120.754 56.5473 120.574 56.6407 120.417C56.7342 120.26 56.8688 120.132 57.03 120.046L78.8299 107.886C78.9851 107.789 79.164 107.736 79.3471 107.734C79.5302 107.731 79.7105 107.779 79.8683 107.871C80.0262 107.964 80.1556 108.099 80.2422 108.26C80.3289 108.421 80.3696 108.603 80.3599 108.786Z" fill="#4FC2E2"/>
<path d="M45.01 143.336V165.446L0.5 140.616V118.506L20.33 129.566L45.01 143.336Z" stroke="#4FC2E2" stroke-linejoin="round"/>
<path d="M87.74 119.516V141.626L45.01 165.446V143.336L67.91 130.566L87.74 119.516Z" stroke="#4FC2E2" stroke-linejoin="round"/>
<path d="M80.3599 133.616V138.186C80.3631 138.37 80.3153 138.552 80.2218 138.711C80.1283 138.87 79.9927 139 79.83 139.086L58.03 151.236C57.8748 151.333 57.6959 151.386 57.5128 151.389C57.3297 151.391 57.1494 151.344 56.9915 151.251C56.8337 151.158 56.7044 151.024 56.6177 150.862C56.531 150.701 56.4903 150.519 56.4999 150.336V145.766C56.4968 145.582 56.5446 145.4 56.6381 145.241C56.7316 145.083 56.8673 144.953 57.03 144.866L78.83 132.716C78.9851 132.619 79.164 132.566 79.3471 132.563C79.5302 132.561 79.7105 132.608 79.8683 132.701C80.0262 132.794 80.1556 132.929 80.2422 133.09C80.3289 133.251 80.3696 133.433 80.3599 133.616Z" fill="#4FC2E2"/>
<path d="M137.57 42.9562L117.74 54.0062L94.84 66.7762L87.73 62.8062V45.0362L66.28 33.0662L93.07 18.1262L137.57 42.9562Z" stroke="#4FC2E2" stroke-linejoin="round"/>
<path d="M137.57 42.9563V65.0663L94.8401 88.8863V66.7763L117.75 54.0063L137.57 42.9563Z" stroke="#4FC2E2" stroke-linejoin="round"/>
<path d="M130.19 57.0663V61.6363C130.194 61.8195 130.148 62.0004 130.056 62.1591C129.964 62.3179 129.831 62.4483 129.67 62.5363L107.87 74.6863C107.715 74.7836 107.536 74.8364 107.353 74.839C107.17 74.8417 106.989 74.7939 106.832 74.7011C106.674 74.6082 106.544 74.4738 106.458 74.3125C106.371 74.1512 106.33 73.9691 106.34 73.7863V69.2163C106.339 69.0337 106.387 68.8542 106.481 68.6973C106.574 68.5404 106.709 68.4121 106.87 68.3263L128.67 56.1663C128.825 56.0717 129.003 56.021 129.184 56.0198C129.366 56.0186 129.544 56.0668 129.701 56.1593C129.857 56.2518 129.985 56.3851 130.071 56.5449C130.157 56.7047 130.198 56.8849 130.19 57.0663Z" fill="#4FC2E2"/>
<path d="M137.57 67.7861V89.8961L94.8401 113.716V91.6061L117.75 78.8361L137.57 67.7861Z" stroke="#4FC2E2" stroke-linejoin="round"/>
<path d="M130.19 81.8863V86.4563C130.192 86.6379 130.145 86.8166 130.054 86.9734C129.962 87.1302 129.829 87.2591 129.67 87.3463L107.87 99.5063C107.715 99.6036 107.536 99.6564 107.353 99.659C107.17 99.6617 106.989 99.6139 106.832 99.5211C106.674 99.4282 106.544 99.2938 106.458 99.1325C106.371 98.9712 106.33 98.7891 106.34 98.6063V94.0663C106.337 93.882 106.385 93.7004 106.478 93.5416C106.572 93.3828 106.707 93.2529 106.87 93.1663L128.67 81.0163C128.823 80.9232 128.998 80.8729 129.177 80.8705C129.355 80.868 129.532 80.9136 129.687 81.0025C129.842 81.0913 129.971 81.2202 130.059 81.3756C130.148 81.5311 130.193 81.7074 130.19 81.8863Z" fill="#4FC2E2"/>
<path d="M137.57 92.6062V114.726L94.8401 138.546V116.436L117.75 103.656L137.57 92.6062Z" stroke="#4FC2E2" stroke-linejoin="round"/>
<path d="M130.19 106.706V111.276C130.194 111.459 130.148 111.64 130.056 111.799C129.964 111.958 129.831 112.088 129.67 112.176L107.87 124.326C107.716 124.423 107.538 124.476 107.356 124.479C107.173 124.482 106.994 124.435 106.836 124.343C106.679 124.252 106.549 124.119 106.462 123.959C106.374 123.799 106.332 123.618 106.34 123.436V118.866C106.337 118.682 106.385 118.5 106.478 118.341C106.572 118.183 106.707 118.053 106.87 117.966L128.67 105.816C128.824 105.722 129.001 105.672 129.182 105.67C129.362 105.668 129.54 105.716 129.696 105.807C129.852 105.898 129.98 106.03 130.067 106.188C130.154 106.347 130.197 106.526 130.19 106.706Z" fill="#4FC2E2"/>
<path d="M97 146.626L123.573 158.667C126.992 160.216 130.939 160.077 134.239 158.29L201.867 121.676C205.387 119.77 209.626 119.745 213.169 121.61L226.5 128.626" stroke="#4FC2E2" stroke-width="4" stroke-linecap="round" stroke-linejoin="round" stroke-dasharray="1 10"/>
<path d="M203.74 227.425L183.91 238.475L161.01 251.255L136.33 237.485L116.5 226.425L159.23 202.605L203.74 227.425Z" stroke="#4FC2E2" stroke-linejoin="round"/>
<path d="M161.01 251.255V273.365L116.5 248.535V226.425L136.33 237.485L161.01 251.255Z" stroke="#4FC2E2" stroke-linejoin="round"/>
<path d="M203.74 227.425V249.545L161.01 273.365V251.255L183.91 238.475L203.74 227.425Z" stroke="#4FC2E2" stroke-linejoin="round"/>
<path d="M196.36 241.525V246.095C196.363 246.28 196.315 246.461 196.222 246.62C196.128 246.779 195.993 246.909 195.83 246.995L174.03 259.155C173.875 259.25 173.697 259.3 173.516 259.302C173.334 259.303 173.156 259.255 172.999 259.162C172.843 259.07 172.715 258.936 172.629 258.777C172.543 258.617 172.501 258.437 172.51 258.255V253.665C172.506 253.482 172.552 253.301 172.644 253.142C172.735 252.984 172.869 252.853 173.03 252.765L194.83 240.665C194.982 240.57 195.157 240.518 195.337 240.513C195.516 240.509 195.693 240.553 195.85 240.641C196.006 240.729 196.136 240.858 196.226 241.013C196.316 241.169 196.362 241.346 196.36 241.525Z" fill="#4FC2E2"/>
<path d="M196.36 266.355V270.925C196.363 271.109 196.315 271.291 196.222 271.45C196.128 271.609 195.993 271.739 195.83 271.825L174.03 283.975C173.876 284.069 173.699 284.12 173.518 284.121C173.338 284.123 173.16 284.076 173.004 283.984C172.848 283.893 172.72 283.761 172.633 283.603C172.546 283.445 172.503 283.266 172.51 283.085V278.515C172.506 278.332 172.552 278.151 172.644 277.992C172.735 277.834 172.869 277.703 173.03 277.615L194.83 265.455C194.985 265.358 195.164 265.305 195.347 265.302C195.53 265.3 195.71 265.347 195.868 265.44C196.026 265.533 196.155 265.668 196.242 265.829C196.329 265.99 196.37 266.172 196.36 266.355Z" fill="#4FC2E2"/>
<path d="M161.01 276.075V298.185L116.5 273.365V251.255L136.33 262.305L161.01 276.075Z" stroke="#4FC2E2" stroke-linejoin="round"/>
<path d="M203.74 252.255V274.365L161.01 298.185V276.075L183.91 263.305L203.74 252.255Z" stroke="#4FC2E2" stroke-linejoin="round"/>
<path d="M143.735 185.481L143.735 185.481L146.605 187.091L146.605 187.091L146.607 187.092C148.782 188.3 150.564 190.109 151.739 192.301L151.74 192.303L153.48 195.522C153.48 195.522 153.48 195.522 153.48 195.523C154.027 196.54 154.856 197.377 155.868 197.933C155.869 197.933 155.869 197.933 155.869 197.933L173.92 207.959V236.813L139.12 217.372V184.745C139.12 184.556 139.17 184.37 139.264 184.205C139.358 184.04 139.494 183.903 139.657 183.807C139.82 183.711 140.006 183.659 140.196 183.656C140.385 183.654 140.571 183.701 140.736 183.792L143.735 185.481Z" fill="#00081E" fill-opacity="0.8" stroke="#37889E"/>
<path d="M174.92 236.813V207.665V207.371L174.663 207.228L156.393 197.058L156.391 197.057C155.547 196.594 154.856 195.896 154.4 195.048L154.4 195.047L152.661 191.829C152.66 191.829 152.66 191.828 152.66 191.828C151.394 189.467 149.476 187.52 147.134 186.219C147.133 186.218 147.133 186.218 147.133 186.218L144.52 184.752V181.715C144.52 181.526 144.57 181.34 144.664 181.175C144.758 181.01 144.893 180.873 145.057 180.777C145.22 180.681 145.406 180.629 145.595 180.626C145.785 180.624 145.971 180.671 146.137 180.762C146.137 180.762 146.138 180.762 146.138 180.763L152.056 184.072L152.057 184.072C154.235 185.28 156.02 187.089 157.2 189.282C157.2 189.282 157.2 189.282 157.2 189.282L158.93 192.502L158.93 192.503C159.478 193.515 160.302 194.35 161.306 194.911L161.307 194.912L179.34 204.959V232.875C179.34 232.875 179.34 232.875 179.34 232.875C179.34 233.32 179.221 233.757 178.995 234.141C178.77 234.525 178.446 234.842 178.057 235.058L178.056 235.059L174.92 236.813Z" fill="#00081E" fill-opacity="0.8" stroke="#37889E"/>
<g filter="url(#filter0_dddd_137_585)">
<path d="M347.241 161.591L271.811 203.591C271.016 204.034 270.121 204.267 269.211 204.267C268.301 204.267 267.406 204.034 266.611 203.591L224.141 179.901L191.741 161.831C191.364 161.619 191.051 161.31 190.833 160.937C190.615 160.563 190.5 160.139 190.5 159.706C190.5 159.274 190.615 158.849 190.833 158.476C191.051 158.102 191.364 157.794 191.741 157.581L265.971 116.241L347.241 161.591Z" stroke="#4FC2E2" stroke-miterlimit="10"/>
</g>
<g filter="url(#filter1_dddd_137_585)">
<path d="M360.371 154.301L347.241 161.601L302.181 136.461L265.971 116.241L279.531 108.711C280.215 108.328 280.986 108.126 281.771 108.126C282.555 108.126 283.327 108.328 284.011 108.711L360.381 151.311C360.653 151.456 360.88 151.672 361.038 151.936C361.196 152.2 361.279 152.502 361.278 152.809C361.277 153.117 361.192 153.419 361.032 153.682C360.872 153.945 360.644 154.159 360.371 154.301Z" stroke="#4FC2E2" stroke-miterlimit="10"/>
</g>
<path d="M281.952 115.287C281.998 114.676 281.139 114.112 280.032 114.029C278.925 113.945 277.99 114.373 277.944 114.984C277.898 115.595 278.757 116.159 279.864 116.242C280.971 116.326 281.906 115.898 281.952 115.287Z" fill="#4FC2E2"/>
<path d="M275.231 143.241C270.891 145.841 263.231 145.791 258.111 143.121C252.991 140.451 252.381 136.171 256.721 133.571C261.061 130.971 268.721 131.021 273.831 133.691L265.971 138.401L275.231 143.241Z" fill="#4FC2E2"/>
<path d="M246.757 155.754C247.036 152.059 241.829 148.652 235.127 148.146C228.425 147.64 222.765 150.225 222.486 153.92C222.207 157.616 227.414 161.022 234.116 161.528C240.818 162.034 246.478 159.449 246.757 155.754Z" fill="#4FC2E2"/>
<path d="M286.218 117.517C286.264 116.905 285.404 116.342 284.297 116.259C283.19 116.175 282.255 116.603 282.209 117.214C282.163 117.825 283.023 118.389 284.13 118.472C285.237 118.556 286.171 118.128 286.218 117.517Z" fill="#4FC2E2"/>
<path d="M290.483 119.747C290.529 119.136 289.669 118.572 288.562 118.489C287.455 118.405 286.52 118.833 286.474 119.444C286.428 120.055 287.288 120.619 288.395 120.702C289.502 120.786 290.437 120.358 290.483 119.747Z" fill="#4FC2E2"/>
<path d="M241.741 155.375C241.905 153.211 238.849 151.215 234.917 150.918C230.985 150.621 227.665 152.135 227.502 154.299C227.338 156.464 230.393 158.459 234.325 158.756C238.257 159.053 241.578 157.539 241.741 155.375Z" fill="#00081E"/>
<path d="M313.911 164.681L311.331 166.121C311.207 166.191 311.068 166.227 310.926 166.227C310.784 166.227 310.645 166.191 310.521 166.121L281.521 149.971C281.392 149.898 281.285 149.792 281.21 149.664C281.136 149.535 281.097 149.39 281.097 149.241C281.097 149.093 281.136 148.947 281.21 148.819C281.285 148.691 281.392 148.585 281.521 148.511L284.091 147.081C284.215 147.012 284.354 146.976 284.496 146.976C284.638 146.976 284.777 147.012 284.901 147.081L313.901 163.241C314.028 163.313 314.134 163.417 314.208 163.543C314.283 163.669 314.322 163.812 314.323 163.958C314.324 164.105 314.287 164.248 314.214 164.375C314.142 164.502 314.037 164.608 313.911 164.681Z" fill="#4FC2E2"/>
<path d="M285.051 182.991L282.481 184.421C282.357 184.49 282.218 184.527 282.076 184.527C281.934 184.527 281.795 184.49 281.671 184.421L252.671 168.261C252.542 168.189 252.434 168.084 252.359 167.957C252.285 167.829 252.245 167.684 252.245 167.536C252.245 167.388 252.285 167.243 252.359 167.116C252.434 166.988 252.542 166.883 252.671 166.811L255.241 165.371C255.365 165.302 255.504 165.266 255.646 165.266C255.788 165.266 255.927 165.302 256.051 165.371L285.051 181.541C285.18 181.613 285.288 181.718 285.363 181.846C285.437 181.973 285.477 182.118 285.477 182.266C285.477 182.414 285.437 182.559 285.363 182.687C285.288 182.814 285.18 182.919 285.051 182.991Z" fill="#4FC2E2"/>
<path d="M350.5 143.126L353.72 141.209C361.64 136.495 361.51 124.983 353.485 120.45L321.336 102.289C314.25 98.2866 313.8 88.2468 320.5 83.6262V83.6262" stroke="#4FC2E2" stroke-width="4" stroke-linecap="round" stroke-linejoin="round" stroke-dasharray="1 10"/>
<path d="M226.5 186.126L221.014 189.326C212.913 194.052 213.121 205.828 221.385 210.264L230.856 215.349C239.174 219.815 239.316 231.694 231.106 236.356L209.5 248.626" stroke="#4FC2E2" stroke-width="4" stroke-linecap="round" stroke-linejoin="round" stroke-dasharray="1 10"/>
<path d="M314.5 183.626L362 211.126" stroke="#4FC2E2" stroke-width="4" stroke-linecap="round" stroke-linejoin="round" stroke-dasharray="1 10"/>
<defs>
<filter id="filter0_dddd_137_585" x="168.53" y="94.1984" width="201.209" height="132.039" filterUnits="userSpaceOnUse" color-interpolation-filters="sRGB">
<feFlood flood-opacity="0" result="BackgroundImageFix"/>
<feColorMatrix in="SourceAlpha" type="matrix" values="0 0 0 0 0 0 0 0 0 0 0 0 0 0 0 0 0 0 127 0" result="hardAlpha"/>
<feOffset/>
<feGaussianBlur stdDeviation="0.2556"/>
<feColorMatrix type="matrix" values="0 0 0 0 0.904675 0 0 0 0 1 0 0 0 0 1 0 0 0 1 0"/>
<feBlend mode="normal" in2="BackgroundImageFix" result="effect1_dropShadow_137_585"/>
<feColorMatrix in="SourceAlpha" type="matrix" values="0 0 0 0 0 0 0 0 0 0 0 0 0 0 0 0 0 0 127 0" result="hardAlpha"/>
<feOffset/>
<feGaussianBlur stdDeviation="0.5112"/>
<feColorMatrix type="matrix" values="0 0 0 0 0.904675 0 0 0 0 1 0 0 0 0 1 0 0 0 1 0"/>
<feBlend mode="normal" in2="effect1_dropShadow_137_585" result="effect2_dropShadow_137_585"/>
<feColorMatrix in="SourceAlpha" type="matrix" values="0 0 0 0 0 0 0 0 0 0 0 0 0 0 0 0 0 0 127 0" result="hardAlpha"/>
<feOffset/>
<feGaussianBlur stdDeviation="1.7892"/>
<feColorMatrix type="matrix" values="0 0 0 0 0.904675 0 0 0 0 1 0 0 0 0 1 0 0 0 1 0"/>
<feBlend mode="normal" in2="effect2_dropShadow_137_585" result="effect3_dropShadow_137_585"/>
<feColorMatrix in="SourceAlpha" type="matrix" values="0 0 0 0 0 0 0 0 0 0 0 0 0 0 0 0 0 0 127 0" result="hardAlpha"/>
<feOffset/>
<feGaussianBlur stdDeviation="10.7352"/>
<feColorMatrix type="matrix" values="0 0 0 0 0.0235294 0 0 0 0 0.839216 0 0 0 0 0.898039 0 0 0 1 0"/>
<feBlend mode="normal" in2="effect3_dropShadow_137_585" result="effect4_dropShadow_137_585"/>
<feBlend mode="normal" in="SourceGraphic" in2="effect4_dropShadow_137_585" result="shape"/>
</filter>
<filter id="filter1_dddd_137_585" x="243.473" y="86.1558" width="139.776" height="97.4883" filterUnits="userSpaceOnUse" color-interpolation-filters="sRGB">
<feFlood flood-opacity="0" result="BackgroundImageFix"/>
<feColorMatrix in="SourceAlpha" type="matrix" values="0 0 0 0 0 0 0 0 0 0 0 0 0 0 0 0 0 0 127 0" result="hardAlpha"/>
<feOffset/>
<feGaussianBlur stdDeviation="0.2556"/>
<feColorMatrix type="matrix" values="0 0 0 0 0.904675 0 0 0 0 1 0 0 0 0 1 0 0 0 1 0"/>
<feBlend mode="normal" in2="BackgroundImageFix" result="effect1_dropShadow_137_585"/>
<feColorMatrix in="SourceAlpha" type="matrix" values="0 0 0 0 0 0 0 0 0 0 0 0 0 0 0 0 0 0 127 0" result="hardAlpha"/>
<feOffset/>
<feGaussianBlur stdDeviation="0.5112"/>
<feColorMatrix type="matrix" values="0 0 0 0 0.904675 0 0 0 0 1 0 0 0 0 1 0 0 0 1 0"/>
<feBlend mode="normal" in2="effect1_dropShadow_137_585" result="effect2_dropShadow_137_585"/>
<feColorMatrix in="SourceAlpha" type="matrix" values="0 0 0 0 0 0 0 0 0 0 0 0 0 0 0 0 0 0 127 0" result="hardAlpha"/>
<feOffset/>
<feGaussianBlur stdDeviation="1.7892"/>
<feColorMatrix type="matrix" values="0 0 0 0 0.904675 0 0 0 0 1 0 0 0 0 1 0 0 0 1 0"/>
<feBlend mode="normal" in2="effect2_dropShadow_137_585" result="effect3_dropShadow_137_585"/>
<feColorMatrix in="SourceAlpha" type="matrix" values="0 0 0 0 0 0 0 0 0 0 0 0 0 0 0 0 0 0 127 0" result="hardAlpha"/>
<feOffset/>
<feGaussianBlur stdDeviation="10.7352"/>
<feColorMatrix type="matrix" values="0 0 0 0 0.0235294 0 0 0 0 0.839216 0 0 0 0 0.898039 0 0 0 1 0"/>
<feBlend mode="normal" in2="effect3_dropShadow_137_585" result="effect4_dropShadow_137_585"/>
<feBlend mode="normal" in="SourceGraphic" in2="effect4_dropShadow_137_585" result="shape"/>
</filter>
</defs>
</svg>
