<svg width="539" height="333" viewBox="0 0 539 333" fill="none" xmlns="http://www.w3.org/2000/svg">
<g filter="url(#filter0_dddd_137_656)">
<rect x="473" y="285.626" width="363" height="263" rx="15.5" transform="rotate(-180 473 285.626)" stroke="#4FC2E2"/>
</g>
<path d="M110.5 59.1262L473.5 59.1263" stroke="#4FC2E2"/>
<circle cx="131.5" cy="41.1262" r="5" fill="#4FC2E2"/>
<circle cx="147.5" cy="41.1262" r="5" fill="#4FC2E2"/>
<circle cx="163.5" cy="41.1262" r="5" fill="#4FC2E2"/>
<path d="M151.5 137.626V240.126" stroke="#4FC2E2" stroke-width="2" stroke-miterlimit="16"/>
<circle cx="151.5" cy="138.126" r="3" fill="#4FC2E2"/>
<circle cx="151.5" cy="240.126" r="3" fill="#4FC2E2"/>
<path d="M185.5 99.6262V202.126" stroke="#4FC2E2" stroke-width="2" stroke-miterlimit="16"/>
<circle cx="185.5" cy="100.126" r="3" fill="#4FC2E2"/>
<circle cx="185.5" cy="202.126" r="3" fill="#4FC2E2"/>
<path d="M220.5 89.6262V192.126" stroke="#4FC2E2" stroke-width="2" stroke-miterlimit="16"/>
<circle cx="220.5" cy="90.1262" r="3" fill="#4FC2E2"/>
<circle cx="220.5" cy="192.126" r="3" fill="#4FC2E2"/>
<path d="M255.5 118.626V221.126" stroke="#4FC2E2" stroke-width="2" stroke-miterlimit="16"/>
<circle cx="255.5" cy="119.126" r="3" fill="#4FC2E2"/>
<circle cx="255.5" cy="221.126" r="3" fill="#4FC2E2"/>
<path d="M290.5 105.626V208.126" stroke="#4FC2E2" stroke-width="2" stroke-miterlimit="16"/>
<circle cx="290.5" cy="106.126" r="3" fill="#4FC2E2"/>
<circle cx="290.5" cy="208.126" r="3" fill="#4FC2E2"/>
<path d="M325.5 94.6262V197.126" stroke="#4FC2E2" stroke-width="2" stroke-miterlimit="16"/>
<circle cx="325.5" cy="95.1262" r="3" fill="#4FC2E2"/>
<circle cx="325.5" cy="197.126" r="3" fill="#4FC2E2"/>
<path d="M360.5 104.626V207.126" stroke="#4FC2E2" stroke-width="2" stroke-miterlimit="16"/>
<circle cx="360.5" cy="105.126" r="3" fill="#4FC2E2"/>
<circle cx="360.5" cy="207.126" r="3" fill="#4FC2E2"/>
<path d="M395.5 107.626V210.126" stroke="#4FC2E2" stroke-width="2" stroke-miterlimit="16"/>
<circle cx="395.5" cy="108.126" r="3" fill="#4FC2E2"/>
<circle cx="395.5" cy="210.126" r="3" fill="#4FC2E2"/>
<path d="M430.5 125.626V228.126" stroke="#4FC2E2" stroke-width="2" stroke-miterlimit="16"/>
<circle cx="430.5" cy="126.126" r="3" fill="#4FC2E2"/>
<circle cx="430.5" cy="228.126" r="3" fill="#4FC2E2"/>
<path d="M136 196.626C150.833 175.293 175.5 132.626 207 132.626C235.5 132.626 239 180.126 264.5 180.126C290 180.126 304.5 137.626 344 137.626C383.5 137.626 418 170.96 442 187.626" stroke="#4FC2E2" stroke-width="4" stroke-linecap="round"/>
<rect x="1" y="53.6262" width="119" height="62" rx="15.5" fill="#00081E" fill-opacity="0.8" stroke="#37889E"/>
<rect x="38.5" y="70.1264" width="71" height="5" rx="2.5" fill="#4FC2E2"/>
<rect x="38.5" y="94.1264" width="71" height="5" rx="2.5" fill="#4FC2E2"/>
<rect x="16.5" y="66.1264" width="12" height="13" rx="6" fill="#4FC2E2"/>
<rect x="16.5" y="90.1264" width="12" height="12" rx="6" fill="#2B3244"/>
<rect x="61" y="164.626" width="143" height="89" rx="15.5" fill="#00081E" fill-opacity="0.8" stroke="#37889E"/>
<circle cx="100.377" cy="217.157" r="26.0308" fill="#2B3244"/>
<path d="M126.408 217.157C126.408 222.306 124.881 227.338 122.021 231.619C119.16 235.9 115.095 239.236 110.339 241.207C105.582 243.177 100.348 243.692 95.2986 242.688C90.2491 241.683 85.6109 239.204 81.9704 235.564C78.33 231.923 75.8508 227.285 74.8464 222.236C73.842 217.186 74.3575 211.952 76.3277 207.196C78.2979 202.439 81.6343 198.374 85.915 195.513C90.1958 192.653 95.2286 191.126 100.377 191.126L100.377 217.157H126.408Z" fill="#4FC2E2"/>
<rect x="74.3462" y="179.08" width="119.631" height="5.53846" rx="2.76923" fill="#4FC2E2"/>
<rect x="139.5" y="209.557" width="52" height="3" rx="1.5" fill="#4FC2E2"/>
<rect x="139.5" y="216.557" width="52" height="3" rx="1.5" fill="#4FC2E2"/>
<rect x="405.046" y="46.6262" width="132.953" height="95" rx="15.5" fill="#00081E" fill-opacity="0.8" stroke="#37889E"/>
<rect x="419.058" y="59.5215" width="103.814" height="6.69767" rx="3.34884" fill="#4FC2E2"/>
<rect x="424.868" y="78.3599" width="7.0073" height="48.3504" rx="3.50365" fill="#2B3244"/>
<rect x="443.087" y="78.3596" width="7.0073" height="48.3504" rx="3.50365" fill="#2B3244"/>
<rect x="461.305" y="78.3596" width="7.0073" height="48.3504" rx="3.50365" fill="#2B3244"/>
<rect x="479.525" y="78.3596" width="7.0073" height="48.3504" rx="3.50365" fill="#2B3244"/>
<rect x="497.744" y="78.3596" width="7.0073" height="48.3504" rx="3.50365" fill="#2B3244"/>
<rect x="515.963" y="78.3596" width="7.0073" height="48.3504" rx="3.50365" fill="#2B3244"/>
<rect x="424.868" y="109.892" width="7.0073" height="16.8175" rx="3.50365" fill="#4FC2E2"/>
<rect x="443.087" y="89.5715" width="7.0073" height="37.1387" rx="3.50365" fill="#4FC2E2"/>
<rect x="461.305" y="83.9655" width="7.0073" height="42.7445" rx="3.50365" fill="#4FC2E2"/>
<rect x="479.525" y="95.8778" width="7.0073" height="30.8321" rx="3.50365" fill="#4FC2E2"/>
<rect x="497.744" y="83.9655" width="7.0073" height="42.7445" rx="3.50365" fill="#4FC2E2"/>
<rect x="515.963" y="78.3596" width="7.0073" height="48.3504" rx="3.50365" fill="#4FC2E2"/>
<rect x="361" y="207.626" width="139" height="124" rx="15.5" fill="#00081E" fill-opacity="0.8" stroke="#37889E"/>
<path d="M384.5 224.126V297.126C422.771 297.126 444.229 297.126 482.5 297.126" stroke="#4FC2E2" stroke-width="2" stroke-linecap="round"/>
<path d="M407.279 253.626L392.5 267.126V289.126H474.5V235.126L460.674 248.626L449.233 243.126L426.826 265.126L407.279 253.626Z" fill="#2B3244"/>
<path d="M477.22 236.32C477.603 235.923 477.592 235.29 477.194 234.906C476.797 234.523 476.164 234.535 475.78 234.932L477.22 236.32ZM461.601 248.653L462.172 247.832L461.601 248.653ZM464.183 248.4L463.463 247.705L464.183 248.4ZM450.32 242.947L449.574 242.28L450.32 242.947ZM452.954 242.637L452.383 243.458L452.954 242.637ZM429.05 264.134L428.485 264.959L428.485 264.959L429.05 264.134ZM431.671 263.816L430.925 263.15L431.671 263.816ZM410.345 253.039L409.725 252.255L410.345 253.039ZM390.62 269.911L410.965 253.824L409.725 252.255L389.38 268.342L390.62 269.911ZM412.15 253.783L428.485 264.959L429.615 263.309L413.28 252.132L412.15 253.783ZM432.416 264.482L451.066 243.613L449.574 242.28L430.925 263.15L432.416 264.482ZM452.383 243.458L461.03 249.474L462.172 247.832L453.525 241.816L452.383 243.458ZM464.903 249.094L477.22 236.32L475.78 234.932L463.463 247.705L464.903 249.094ZM461.03 249.474C462.239 250.315 463.88 250.154 464.903 249.094L463.463 247.705C463.122 248.059 462.575 248.113 462.172 247.832L461.03 249.474ZM451.066 243.613C451.403 243.236 451.968 243.17 452.383 243.458L453.525 241.816C452.28 240.951 450.585 241.15 449.574 242.28L451.066 243.613ZM428.485 264.959C429.729 265.811 431.412 265.607 432.416 264.482L430.925 263.15C430.59 263.525 430.029 263.593 429.615 263.309L428.485 264.959ZM410.965 253.824C411.309 253.552 411.789 253.536 412.15 253.783L413.28 252.132C412.196 251.391 410.755 251.44 409.725 252.255L410.965 253.824Z" fill="#4FC2E2"/>
<rect x="405.5" y="310.126" width="77" height="5" rx="2.5" fill="#4FC2E2"/>
<rect x="381.5" y="306.126" width="13" height="13" rx="6.5" fill="#4FC2E2"/>
<defs>
<filter id="filter0_dddd_137_656" x="88.0296" y="0.655821" width="406.941" height="306.941" filterUnits="userSpaceOnUse" color-interpolation-filters="sRGB">
<feFlood flood-opacity="0" result="BackgroundImageFix"/>
<feColorMatrix in="SourceAlpha" type="matrix" values="0 0 0 0 0 0 0 0 0 0 0 0 0 0 0 0 0 0 127 0" result="hardAlpha"/>
<feOffset/>
<feGaussianBlur stdDeviation="0.2556"/>
<feColorMatrix type="matrix" values="0 0 0 0 0.904675 0 0 0 0 1 0 0 0 0 1 0 0 0 1 0"/>
<feBlend mode="normal" in2="BackgroundImageFix" result="effect1_dropShadow_137_656"/>
<feColorMatrix in="SourceAlpha" type="matrix" values="0 0 0 0 0 0 0 0 0 0 0 0 0 0 0 0 0 0 127 0" result="hardAlpha"/>
<feOffset/>
<feGaussianBlur stdDeviation="0.5112"/>
<feColorMatrix type="matrix" values="0 0 0 0 0.904675 0 0 0 0 1 0 0 0 0 1 0 0 0 1 0"/>
<feBlend mode="normal" in2="effect1_dropShadow_137_656" result="effect2_dropShadow_137_656"/>
<feColorMatrix in="SourceAlpha" type="matrix" values="0 0 0 0 0 0 0 0 0 0 0 0 0 0 0 0 0 0 127 0" result="hardAlpha"/>
<feOffset/>
<feGaussianBlur stdDeviation="1.7892"/>
<feColorMatrix type="matrix" values="0 0 0 0 0.904675 0 0 0 0 1 0 0 0 0 1 0 0 0 1 0"/>
<feBlend mode="normal" in2="effect2_dropShadow_137_656" result="effect3_dropShadow_137_656"/>
<feColorMatrix in="SourceAlpha" type="matrix" values="0 0 0 0 0 0 0 0 0 0 0 0 0 0 0 0 0 0 127 0" result="hardAlpha"/>
<feOffset/>
<feGaussianBlur stdDeviation="10.7352"/>
<feColorMatrix type="matrix" values="0 0 0 0 0.0235294 0 0 0 0 0.839216 0 0 0 0 0.898039 0 0 0 1 0"/>
<feBlend mode="normal" in2="effect3_dropShadow_137_656" result="effect4_dropShadow_137_656"/>
<feBlend mode="normal" in="SourceGraphic" in2="effect4_dropShadow_137_656" result="shape"/>
</filter>
</defs>
</svg>
