<svg width="678" height="259" viewBox="0 0 678 259" fill="none" xmlns="http://www.w3.org/2000/svg">
<rect x="434" y="0.625977" width="243" height="136" rx="15.5" fill="#00081E" fill-opacity="0.8" stroke="#37889E"/>
<rect x="453.5" y="19.126" width="216" height="10" rx="5" fill="#4FC2E2"/>
<rect x="462.5" y="46.126" width="10" height="69" rx="4" fill="#2B3244"/>
<rect x="488.5" y="46.126" width="10" height="69" rx="4" fill="#2B3244"/>
<rect x="514.5" y="46.126" width="10" height="69" rx="4" fill="#2B3244"/>
<rect x="540.5" y="46.126" width="10" height="69" rx="4" fill="#2B3244"/>
<rect x="566.5" y="46.126" width="10" height="69" rx="4" fill="#2B3244"/>
<rect x="592.5" y="46.126" width="10" height="69" rx="4" fill="#2B3244"/>
<rect x="618.5" y="46.126" width="10" height="69" rx="4" fill="#2B3244"/>
<rect x="644.5" y="46.126" width="10" height="69" rx="4" fill="#2B3244"/>
<rect x="462.5" y="91.126" width="10" height="24" rx="4" fill="#4FC2E2"/>
<rect x="488.5" y="62.126" width="10" height="53" rx="4" fill="#4FC2E2"/>
<rect x="514.5" y="54.126" width="10" height="61" rx="4" fill="#4FC2E2"/>
<rect x="540.5" y="71.126" width="10" height="44" rx="4" fill="#4FC2E2"/>
<rect x="566.5" y="54.126" width="10" height="61" rx="4" fill="#4FC2E2"/>
<rect x="592.5" y="46.126" width="10" height="69" rx="4" fill="#4FC2E2"/>
<rect x="618.5" y="79.126" width="10" height="36" rx="4" fill="#4FC2E2"/>
<rect x="644.5" y="59.126" width="10" height="56" rx="4" fill="#4FC2E2"/>
<path d="M243.5 87.126H298.5C302.918 87.126 306.5 83.5443 306.5 79.126V46.626C306.5 42.2077 310.082 38.626 314.5 38.626H434.5M243.5 109.126H284C288.418 109.126 292 112.708 292 117.126V159.626C292 164.044 295.582 167.626 300 167.626H350" stroke="#467EC0" stroke-width="4" stroke-linecap="round" stroke-linejoin="round" stroke-dasharray="1 10"/>
<rect x="352" y="62.626" width="259" height="195" rx="15.5" fill="#00081E" fill-opacity="0.8" stroke="#37889E"/>
<circle cx="423.5" cy="166.126" r="47" fill="#2B3244"/>
<path d="M470.5 166.126C470.5 175.422 467.743 184.509 462.579 192.238C457.415 199.967 450.074 205.991 441.486 209.548C432.898 213.106 423.448 214.036 414.331 212.223C405.214 210.409 396.839 205.933 390.266 199.36C383.693 192.787 379.217 184.412 377.403 175.295C375.59 166.178 376.52 156.728 380.078 148.14C383.635 139.552 389.659 132.211 397.388 127.047C405.117 121.882 414.204 119.126 423.5 119.126L423.5 166.126H470.5Z" fill="#4FC2E2"/>
<circle cx="423.5" cy="166.126" r="33.8837" fill="#020A20"/>
<rect x="376.5" y="89.126" width="216" height="10" rx="5" fill="#4FC2E2"/>
<rect x="376.5" y="225.126" width="216" height="5" rx="2.5" fill="#2B3244"/>
<rect x="376.5" y="237.126" width="216" height="5" rx="2.5" fill="#2B3244"/>
<rect x="517.5" y="145.126" width="75" height="5" rx="2.5" fill="#4FC2E2"/>
<rect x="517.5" y="170.126" width="75" height="5" rx="2.5" fill="#4FC2E2"/>
<rect x="494.5" y="141.126" width="13" height="13" rx="6.5" fill="#4FC2E2"/>
<rect x="494.5" y="166.126" width="13" height="13" rx="6.5" fill="#2B3244"/>
<path d="M79.5 99.126L184.5 99.126" stroke="#467EC0" stroke-width="4" stroke-linecap="round" stroke-linejoin="round" stroke-dasharray="1 10"/>
<g filter="url(#filter0_dddd_168_1155)">
<circle cx="215.5" cy="98.126" r="41" fill="url(#paint0_linear_168_1155)"/>
</g>
<path d="M212.931 98.9764L193.5 98.9197C193.5 98.9197 194.052 102.45 195.732 104.872L196.069 104.986C196.544 105.149 197.06 105.156 197.539 105.005L199.771 104.309C200.973 103.934 202.263 103.934 203.466 104.309L205.729 105.017C206.189 105.162 206.684 105.162 207.144 105.017L209.411 104.309C210.612 103.934 211.901 103.934 213.103 104.309L215.369 105.017C215.83 105.162 216.324 105.162 216.785 105.017L219.048 104.309C220.251 103.934 221.541 103.934 222.743 104.309L225.01 105.017C225.469 105.162 225.963 105.162 226.422 105.017L228.695 104.309C229.897 103.934 231.187 103.934 232.39 104.309L233.094 104.532C233.193 102.721 233.585 99.9622 234.953 97.6032C236.566 94.9489 238.423 92.447 240.5 90.1293C240.5 90.1293 233.732 89.9467 227.592 92.2742C221.452 94.6017 216.565 98.8316 212.931 98.9764ZM231.201 93.6222C231.435 93.6228 231.664 93.6921 231.859 93.8214C232.054 93.9507 232.205 94.134 232.294 94.3484C232.384 94.5627 232.406 94.7983 232.36 95.0255C232.314 95.2526 232.2 95.4611 232.034 95.6245C231.868 95.7879 231.656 95.899 231.426 95.9436C231.196 95.9882 230.957 95.9643 230.741 95.8751C230.524 95.7858 230.34 95.6352 230.21 95.4421C230.08 95.2491 230.011 95.0224 230.012 94.7907C230.016 94.4821 230.143 94.1877 230.366 93.9713C230.588 93.7548 230.888 93.6339 231.201 93.6348V93.6222ZM226.556 97.8489C226.322 97.8483 226.093 97.7791 225.898 97.6501C225.704 97.5211 225.552 97.3381 225.463 97.1242C225.373 96.9102 225.35 96.6749 225.396 96.4479C225.442 96.2209 225.555 96.0125 225.721 95.8488C225.886 95.6851 226.097 95.5736 226.327 95.5283C226.557 95.483 226.795 95.5059 227.011 95.5942C227.228 95.6825 227.413 95.8322 227.544 96.0244C227.674 96.2166 227.744 96.4427 227.745 96.6741C227.747 96.8294 227.717 96.9836 227.658 97.1275C227.599 97.2715 227.512 97.4025 227.401 97.513C227.291 97.6234 227.159 97.7111 227.014 97.7709C226.869 97.8307 226.713 97.8615 226.556 97.8615V97.8489Z" fill="white"/>
<path d="M234.709 107.551L232.355 106.829C231.495 106.567 230.571 106.567 229.71 106.829L227.36 107.551C226.499 107.81 225.576 107.81 224.715 107.551L222.364 106.839C221.504 106.577 220.58 106.577 219.719 106.839L217.372 107.551C216.511 107.81 215.588 107.81 214.727 107.551L212.38 106.839C211.519 106.577 210.595 106.577 209.735 106.839L207.388 107.551C206.527 107.81 205.604 107.81 204.743 107.551L202.395 106.839C201.535 106.577 200.611 106.577 199.75 106.839L197.436 107.532C196.542 107.805 195.58 107.795 194.692 107.504L190.5 106.126C192.666 110.869 196.225 114.906 200.742 117.747C205.26 120.588 210.542 122.109 215.946 122.126C221.35 122.143 226.642 120.654 231.179 117.842C235.716 115.029 239.302 111.014 241.5 106.284L237.357 107.551C236.496 107.811 235.571 107.811 234.709 107.551Z" fill="white"/>
<path d="M192.819 94.0068C193.17 94.0068 193.506 93.8657 193.754 93.6146C194.002 93.3634 194.141 93.0228 194.141 92.6677C194.141 92.605 194.136 92.5424 194.125 92.4806L201.673 84.8363V89.1951H199.2V91.3942H200.697V98.126H211.512L213.194 91.3942H214.743V89.1951H210.352V87.3767H210.925C210.997 87.3759 211.065 87.3465 211.116 87.2948C211.166 87.2432 211.194 87.1736 211.194 87.101V86.1164C211.194 86.0441 211.166 85.9748 211.116 85.9237C211.065 85.8727 210.997 85.844 210.925 85.844H206.424C206.389 85.844 206.354 85.851 206.321 85.8647C206.288 85.8784 206.259 85.8984 206.234 85.9237C206.209 85.949 206.189 85.9791 206.175 86.0121C206.162 86.0452 206.155 86.0806 206.155 86.1164V87.101C206.155 87.1736 206.183 87.2432 206.234 87.2948C206.284 87.3465 206.352 87.3759 206.424 87.3767H206.998V89.1951H202.979V83.5136L208.812 77.6056C208.961 77.455 209.137 77.3346 209.331 77.2511C209.496 77.4679 209.722 77.6291 209.979 77.7139C210.15 78.341 210.366 78.9543 210.627 79.5487V79.5651C211.245 80.9235 212.086 82.1664 213.113 83.2412C213.613 83.7691 214.155 84.2543 214.733 84.6919C215.336 85.1402 215.974 85.5366 216.642 85.8768C217.349 86.237 218.088 86.5293 218.849 86.7498C219.228 86.8633 219.612 86.9564 220 87.0288C220.48 87.1251 220.966 87.192 221.455 87.229C221.795 87.2553 222.139 87.2684 222.479 87.2684C222.754 87.2684 223.02 87.2684 223.286 87.2422C223.752 87.2147 224.216 87.1621 224.676 87.0846C225.117 87.0059 225.538 86.9107 225.927 86.8024C226.698 86.5921 227.446 86.3074 228.163 85.9523C228.838 85.6225 229.483 85.2337 230.092 84.7904C230.684 84.3613 231.239 83.8815 231.751 83.356C232.263 82.8303 232.731 82.2627 233.151 81.6591C234.018 80.423 234.663 79.042 235.056 77.5793C235.102 77.5498 235.141 77.517 235.183 77.4842L235.235 77.4415C235.27 77.4087 235.306 77.3758 235.338 77.3397C235.371 77.3036 235.338 77.3397 235.355 77.3233C235.413 77.255 235.465 77.1813 235.51 77.1034H236.852C237.024 77.1034 237.189 77.0343 237.31 76.9112C237.432 76.788 237.5 76.6211 237.5 76.447C237.5 76.2729 237.432 76.1059 237.31 75.9828C237.189 75.8597 237.024 75.7905 236.852 75.7905H235.556C235.556 75.7708 235.533 75.7544 235.523 75.738L235.481 75.6789C235.441 75.6189 235.395 75.5628 235.345 75.5115L235.319 75.4853C235.271 75.4412 235.222 75.3995 235.17 75.3606L235.121 75.3277C235.058 75.2852 234.991 75.249 234.92 75.2194C234.852 75.1926 234.781 75.1707 234.71 75.1538H234.655C234.576 75.1368 234.495 75.128 234.415 75.1275C234.336 75.1285 234.258 75.1362 234.181 75.1505L234.117 75.1669C234.052 75.1801 233.989 75.1999 233.929 75.226L233.88 75.2457C233.822 75.2718 233.765 75.3025 233.711 75.3376L233.64 75.3868C233.602 75.4148 233.567 75.4455 233.533 75.4787C233.498 75.5082 233.465 75.5412 233.436 75.5772C233.406 75.6096 233.378 75.6436 233.352 75.6789L233.287 75.7774C233.287 75.7774 233.287 75.7938 233.271 75.8069H229.541C229.426 75.6007 229.259 75.4291 229.057 75.3097C228.855 75.1903 228.625 75.1274 228.392 75.1274C228.158 75.1274 227.928 75.1903 227.726 75.3097C227.525 75.4291 227.358 75.6007 227.243 75.8069H223.545C223.43 75.6007 223.263 75.4291 223.061 75.3097C222.86 75.1903 222.63 75.1274 222.396 75.1274C222.162 75.1274 221.933 75.1903 221.731 75.3097C221.529 75.4291 221.362 75.6007 221.247 75.8069H217.546C217.431 75.6008 217.264 75.4293 217.062 75.31C216.86 75.1907 216.63 75.1278 216.396 75.1278C216.162 75.1278 215.932 75.1907 215.73 75.31C215.528 75.4293 215.361 75.6008 215.245 75.8069H211.544C211.424 75.5908 211.247 75.4128 211.033 75.2928C210.819 75.1728 210.576 75.1156 210.331 75.1275C210.087 75.1394 209.85 75.2201 209.648 75.3603C209.447 75.5006 209.287 75.695 209.188 75.9218C208.698 76.0605 208.252 76.3251 207.892 76.6899L201.864 82.7948L193.321 91.4467C193.163 91.3823 192.993 91.3488 192.822 91.3482C192.472 91.3482 192.135 91.4893 191.887 91.7404C191.639 91.9916 191.5 92.3322 191.5 92.6874C191.5 93.0425 191.639 93.3831 191.887 93.6343C192.135 93.8854 192.472 94.0265 192.822 94.0265L192.819 94.0068ZM208.913 92.2902H211.421L210.559 95.7529H208.051L208.913 92.2902ZM204.677 92.2902H207.182L206.32 95.7529H203.812L204.677 92.2902ZM208.242 87.3669H209.081V89.1852H208.242V87.3669ZM211.318 79.4896L211.924 78.8758C212.007 78.992 212.099 79.1017 212.199 79.204L212.922 79.936L212.047 80.8222C211.782 80.3917 211.543 79.9456 211.33 79.4863L211.318 79.4896ZM212.423 81.3736L213.395 80.3889L214.432 81.4392L213.362 82.5224C213.03 82.1581 212.721 81.7733 212.436 81.3703L212.423 81.3736ZM229.417 81.4491L228.377 82.5027L227.34 81.4491L228.377 80.3988L229.417 81.4491ZM228.841 79.9294L229.897 78.8594C229.984 78.9756 230.08 79.0853 230.182 79.1876L230.915 79.9327L229.878 80.983L228.841 79.9294ZM227.917 82.9687L226.88 84.019L225.84 82.9687L226.88 81.9184L227.917 82.9687ZM226.88 80.983L225.843 79.9327L226.575 79.1876C226.678 79.0861 226.772 78.9763 226.857 78.8594L227.917 79.9294L226.88 80.983ZM226.416 81.4491L225.379 82.4994L224.342 81.4491L225.379 80.3988L226.416 81.4491ZM224.916 82.9687L223.879 84.019L222.842 82.9687L223.879 81.9184L224.916 82.9687ZM222.382 82.4994L221.345 81.4491L222.382 80.3988L223.419 81.4491L222.382 82.4994ZM221.944 82.9654L220.907 84.0158L219.87 82.9654L220.907 81.9151L221.944 82.9654ZM220.907 80.9797L219.87 79.9294L220.606 79.1843C220.706 79.0811 220.801 78.9715 220.888 78.8561L221.944 79.9261L220.907 80.9797ZM220.447 81.4458L219.41 82.4961L218.373 81.4458L219.41 80.3955L220.447 81.4458ZM218.946 82.9654L217.909 84.0158L216.872 82.9654L217.909 81.9151L218.946 82.9654ZM217.909 80.9797L216.872 79.9261L217.929 78.8561C218.016 78.9723 218.111 79.082 218.214 79.1843L218.946 79.9294L217.909 80.9797ZM217.449 81.4458L216.409 82.4961L215.372 81.4458L216.409 80.3955L217.449 81.4458ZM214.912 80.9797L213.871 79.9294L214.607 79.1843C214.708 79.0811 214.802 78.9715 214.889 78.8561L215.949 79.9261L214.912 80.9797ZM213.832 83.0048L214.912 81.9151L215.949 82.9654L214.941 83.9862C214.548 83.6822 214.173 83.3545 213.819 83.0048H213.832ZM215.472 84.3834L216.409 83.4315L217.449 84.4851L216.765 85.1744C216.317 84.9361 215.882 84.672 215.463 84.3834H215.472ZM218.891 86.0573C218.377 85.8995 217.874 85.7076 217.384 85.4829L217.909 84.9512L218.946 86.0015L218.891 86.0573ZM218.373 84.4851L219.41 83.4315L220.447 84.4818L219.407 85.5321L218.373 84.4851ZM221.4 86.5529C221.017 86.5211 220.636 86.4685 220.259 86.3954L219.87 86.0015L220.907 84.9512L221.944 86.0015L221.4 86.5529ZM222.408 85.5321L221.371 84.4818L222.408 83.4315L223.445 84.4818L222.408 85.5321ZM224.504 86.4446C224.145 86.5037 223.785 86.5463 223.432 86.5693L222.868 86.0015L223.905 84.9512L224.945 86.0015L224.504 86.4446ZM224.368 84.4753L225.405 83.425L226.442 84.4785L225.405 85.5289L224.368 84.4753ZM225.972 86.1164L225.869 86.0081L226.906 84.9577L227.486 85.5551C226.99 85.7745 226.48 85.9598 225.959 86.1098L225.972 86.1164ZM228.124 85.2597L227.366 84.4917L228.403 83.4381L229.43 84.4785C229.004 84.7641 228.56 85.0228 228.102 85.2531L228.124 85.2597ZM229.972 84.0913L228.866 82.972L229.904 81.9217L231.093 83.1263C230.733 83.4673 230.354 83.7872 229.959 84.0847L229.972 84.0913ZM231.553 82.6569L230.37 81.4458L231.407 80.3955L232.499 81.5016C232.202 81.903 231.882 82.2866 231.54 82.6504L231.553 82.6569ZM232.866 80.96L231.851 79.936L232.574 79.204C232.675 79.1017 232.768 78.992 232.853 78.8758L233.611 79.6471C233.388 80.0991 233.139 80.5375 232.866 80.96ZM233.903 78.9907L233.199 78.2784C233.275 78.1136 233.336 77.9422 233.381 77.7664L233.478 77.4021C233.711 77.6298 234.02 77.7609 234.343 77.7697C234.217 78.1841 234.07 78.5916 233.903 78.9907ZM232.882 77.0936L232.749 77.599C232.635 78.0238 232.411 78.4101 232.101 78.7183L231.378 79.4502L230.642 78.7084C230.33 78.3953 230.106 78.0032 229.994 77.5728L229.871 77.0936H232.882ZM227.398 77.75L227.486 77.4218C227.732 77.6556 228.056 77.7857 228.393 77.7857C228.73 77.7857 229.055 77.6556 229.301 77.4218L229.385 77.75C229.431 77.9278 229.492 78.1013 229.567 78.2686L228.39 79.46L227.214 78.2686C227.292 78.1021 227.353 77.9285 227.398 77.75ZM226.89 77.0936L226.766 77.5761C226.653 78.0048 226.429 78.3955 226.118 78.7084L225.383 79.4502L224.177 78.2292L223.889 77.0936H226.89ZM223.892 78.866L224.932 79.9196L223.892 80.9699L222.855 79.9163L223.892 78.866ZM221.4 77.7402L221.487 77.4119C221.733 77.6457 222.057 77.7758 222.395 77.7758C222.732 77.7758 223.056 77.6457 223.302 77.4119L223.529 78.3047L222.395 79.4568L221.218 78.2653C221.293 78.0992 221.354 77.9268 221.4 77.75V77.7402ZM220.894 77.0837L220.768 77.5662C220.655 77.9956 220.432 78.3866 220.12 78.6986L219.387 79.4404L218.651 78.6986C218.34 78.3857 218.117 77.995 218.003 77.5662L217.88 77.0837H220.894ZM215.404 77.7402L215.488 77.4119C215.734 77.6457 216.059 77.7758 216.396 77.7758C216.733 77.7758 217.058 77.6457 217.303 77.4119L217.391 77.7402C217.436 77.9181 217.497 78.0916 217.572 78.2588L216.396 79.4502L215.219 78.2588C215.296 78.0953 215.358 77.925 215.404 77.75V77.7402ZM214.895 77.0837L214.772 77.5629C214.661 77.9938 214.437 78.3862 214.124 78.6986L213.392 79.4404L212.669 78.7084C212.359 78.401 212.136 78.0159 212.021 77.5925L211.885 77.0837H214.895ZM211.311 77.389L211.408 77.7631C211.454 77.9366 211.515 78.1057 211.59 78.2686L211.045 78.82C210.899 78.4623 210.773 78.1012 210.66 77.7336C210.903 77.6892 211.128 77.5766 211.311 77.4087V77.389Z" fill="white"/>
<g filter="url(#filter1_dddd_168_1155)">
<circle cx="53.5" cy="98.126" r="32" fill="url(#paint1_linear_168_1155)"/>
</g>
<path d="M68.5 84.7926H38.5C38.058 84.7926 37.6341 84.9682 37.3215 85.2808C37.009 85.5934 36.8334 86.0173 36.8334 86.4593V109.793C36.8334 110.235 37.009 110.659 37.3215 110.971C37.6341 111.284 38.058 111.459 38.5 111.459H68.5C68.9421 111.459 69.366 111.284 69.6786 110.971C69.9911 110.659 70.1667 110.235 70.1667 109.793V86.4593C70.1667 86.0173 69.9911 85.5934 69.6786 85.2808C69.366 84.9682 68.9421 84.7926 68.5 84.7926ZM66.8334 103.126C65.5073 103.126 64.2355 103.653 63.2978 104.59C62.3602 105.528 61.8334 106.8 61.8334 108.126H45.1667C45.1667 106.8 44.6399 105.528 43.7022 104.59C42.7646 103.653 41.4928 103.126 40.1667 103.126V93.126C41.4928 93.126 42.7646 92.5992 43.7022 91.6615C44.6399 90.7238 45.1667 89.4521 45.1667 88.126H61.8334C61.8334 89.4521 62.3602 90.7238 63.2978 91.6615C64.2355 92.5992 65.5073 93.126 66.8334 93.126V103.126Z" fill="white"/>
<path d="M53.5 91.4593C49.8234 91.4593 46.8334 94.4493 46.8334 98.126C46.8334 101.803 49.8234 104.793 53.5 104.793C57.1767 104.793 60.1667 101.803 60.1667 98.126C60.1667 94.4493 57.1767 91.4593 53.5 91.4593ZM53.5 101.459C51.6617 101.459 50.1667 99.9643 50.1667 98.126C50.1667 96.2876 51.6617 94.7926 53.5 94.7926C55.3384 94.7926 56.8334 96.2876 56.8334 98.126C56.8334 99.9643 55.3384 101.459 53.5 101.459Z" fill="white"/>
<defs>
<filter id="filter0_dddd_168_1155" x="153.03" y="35.6556" width="124.941" height="124.941" filterUnits="userSpaceOnUse" color-interpolation-filters="sRGB">
<feFlood flood-opacity="0" result="BackgroundImageFix"/>
<feColorMatrix in="SourceAlpha" type="matrix" values="0 0 0 0 0 0 0 0 0 0 0 0 0 0 0 0 0 0 127 0" result="hardAlpha"/>
<feOffset/>
<feGaussianBlur stdDeviation="0.2556"/>
<feColorMatrix type="matrix" values="0 0 0 0 0.904675 0 0 0 0 1 0 0 0 0 1 0 0 0 1 0"/>
<feBlend mode="normal" in2="BackgroundImageFix" result="effect1_dropShadow_168_1155"/>
<feColorMatrix in="SourceAlpha" type="matrix" values="0 0 0 0 0 0 0 0 0 0 0 0 0 0 0 0 0 0 127 0" result="hardAlpha"/>
<feOffset/>
<feGaussianBlur stdDeviation="0.5112"/>
<feColorMatrix type="matrix" values="0 0 0 0 0.904675 0 0 0 0 1 0 0 0 0 1 0 0 0 1 0"/>
<feBlend mode="normal" in2="effect1_dropShadow_168_1155" result="effect2_dropShadow_168_1155"/>
<feColorMatrix in="SourceAlpha" type="matrix" values="0 0 0 0 0 0 0 0 0 0 0 0 0 0 0 0 0 0 127 0" result="hardAlpha"/>
<feOffset/>
<feGaussianBlur stdDeviation="1.7892"/>
<feColorMatrix type="matrix" values="0 0 0 0 0.904675 0 0 0 0 1 0 0 0 0 1 0 0 0 1 0"/>
<feBlend mode="normal" in2="effect2_dropShadow_168_1155" result="effect3_dropShadow_168_1155"/>
<feColorMatrix in="SourceAlpha" type="matrix" values="0 0 0 0 0 0 0 0 0 0 0 0 0 0 0 0 0 0 127 0" result="hardAlpha"/>
<feOffset/>
<feGaussianBlur stdDeviation="10.7352"/>
<feColorMatrix type="matrix" values="0 0 0 0 0.0235294 0 0 0 0 0.839216 0 0 0 0 0.898039 0 0 0 1 0"/>
<feBlend mode="normal" in2="effect3_dropShadow_168_1155" result="effect4_dropShadow_168_1155"/>
<feBlend mode="normal" in="SourceGraphic" in2="effect4_dropShadow_168_1155" result="shape"/>
</filter>
<filter id="filter1_dddd_168_1155" x="0.0296001" y="44.6556" width="106.941" height="106.941" filterUnits="userSpaceOnUse" color-interpolation-filters="sRGB">
<feFlood flood-opacity="0" result="BackgroundImageFix"/>
<feColorMatrix in="SourceAlpha" type="matrix" values="0 0 0 0 0 0 0 0 0 0 0 0 0 0 0 0 0 0 127 0" result="hardAlpha"/>
<feOffset/>
<feGaussianBlur stdDeviation="0.2556"/>
<feColorMatrix type="matrix" values="0 0 0 0 0.904675 0 0 0 0 1 0 0 0 0 1 0 0 0 1 0"/>
<feBlend mode="normal" in2="BackgroundImageFix" result="effect1_dropShadow_168_1155"/>
<feColorMatrix in="SourceAlpha" type="matrix" values="0 0 0 0 0 0 0 0 0 0 0 0 0 0 0 0 0 0 127 0" result="hardAlpha"/>
<feOffset/>
<feGaussianBlur stdDeviation="0.5112"/>
<feColorMatrix type="matrix" values="0 0 0 0 0.904675 0 0 0 0 1 0 0 0 0 1 0 0 0 1 0"/>
<feBlend mode="normal" in2="effect1_dropShadow_168_1155" result="effect2_dropShadow_168_1155"/>
<feColorMatrix in="SourceAlpha" type="matrix" values="0 0 0 0 0 0 0 0 0 0 0 0 0 0 0 0 0 0 127 0" result="hardAlpha"/>
<feOffset/>
<feGaussianBlur stdDeviation="1.7892"/>
<feColorMatrix type="matrix" values="0 0 0 0 0.904675 0 0 0 0 1 0 0 0 0 1 0 0 0 1 0"/>
<feBlend mode="normal" in2="effect2_dropShadow_168_1155" result="effect3_dropShadow_168_1155"/>
<feColorMatrix in="SourceAlpha" type="matrix" values="0 0 0 0 0 0 0 0 0 0 0 0 0 0 0 0 0 0 127 0" result="hardAlpha"/>
<feOffset/>
<feGaussianBlur stdDeviation="10.7352"/>
<feColorMatrix type="matrix" values="0 0 0 0 0.0235294 0 0 0 0 0.839216 0 0 0 0 0.898039 0 0 0 1 0"/>
<feBlend mode="normal" in2="effect3_dropShadow_168_1155" result="effect4_dropShadow_168_1155"/>
<feBlend mode="normal" in="SourceGraphic" in2="effect4_dropShadow_168_1155" result="shape"/>
</filter>
<linearGradient id="paint0_linear_168_1155" x1="174.5" y1="98.126" x2="256.5" y2="98.126" gradientUnits="userSpaceOnUse">
<stop stop-color="#267EB2"/>
<stop offset="1" stop-color="#4FC2E2"/>
</linearGradient>
<linearGradient id="paint1_linear_168_1155" x1="21.5" y1="98.126" x2="85.5" y2="98.126" gradientUnits="userSpaceOnUse">
<stop stop-color="#267EB2"/>
<stop offset="1" stop-color="#4FC2E2"/>
</linearGradient>
</defs>
</svg>
