<svg width="112" height="113" viewBox="0 0 112 113" fill="none" xmlns="http://www.w3.org/2000/svg">
<g clip-path="url(#clip0_137_925)">
<circle cx="56" cy="56.874" r="55.75" fill="url(#paint0_radial_137_925)" stroke="url(#paint1_linear_137_925)" stroke-width="0.5"/>
<path d="M80 46.3334V57H74.6667V49H61.3333V35.6667H37.3333V78.3334H53.3333V83.6667H34.648C33.9462 83.6667 33.273 83.3881 32.7765 82.8921C32.28 82.3961 32.0007 81.7232 32 81.0214V32.9787C32 31.5467 33.1973 30.3334 34.672 30.3334H63.992L80 46.3334ZM60.7627 65.872C60.8667 63.9334 62.3627 62.3547 64.2933 62.1494L66.6133 61.904C66.8897 61.8741 67.1499 61.7585 67.3573 61.5734L69.0933 60.0134C69.792 59.3838 70.6925 59.0244 71.6327 59C72.5729 58.9755 73.4909 59.2876 74.2213 59.88L76.04 61.3467C76.2533 61.52 76.52 61.6214 76.7973 61.6374L79.128 61.7627C81.0667 61.8667 82.6453 63.3627 82.8507 65.2934L83.096 67.6134C83.126 67.8898 83.2416 68.1499 83.4267 68.3574L84.9867 70.0934C86.2853 71.5387 86.3413 73.712 85.12 75.2214L83.6533 77.04C83.4801 77.2562 83.3785 77.5209 83.3627 77.7974L83.2373 80.128C83.1891 81.0675 82.8068 81.9588 82.1595 82.6414C81.5121 83.3239 80.6423 83.7528 79.7067 83.8507L77.3867 84.096C77.1103 84.126 76.8501 84.2416 76.6427 84.4267L74.9067 85.9867C74.208 86.6163 73.3075 86.9757 72.3673 87.0001C71.4271 87.0246 70.5091 86.7125 69.7787 86.12L67.96 84.6534C67.7439 84.4802 67.4792 84.3786 67.2027 84.3627L64.872 84.2374C63.9325 84.1891 63.0412 83.8068 62.3587 83.1595C61.6761 82.5122 61.2472 81.6423 61.1493 80.7067L60.904 78.3867C60.874 78.1103 60.7584 77.8502 60.5733 77.6427L59.0133 75.9067C58.3838 75.208 58.0244 74.3075 57.9999 73.3673C57.9755 72.4272 58.2876 71.5092 58.88 70.7787L60.3467 68.96C60.5199 68.7439 60.6215 68.4792 60.6373 68.2027L60.7627 65.872ZM80.08 70.4134L77.2533 67.5867L70.6667 74.1734L66.7467 70.2534L63.92 73.08L70.6667 79.8267L80.08 70.4134Z" fill="#4FC2E2"/>
</g>
<defs>
<radialGradient id="paint0_radial_137_925" cx="0" cy="0" r="1" gradientUnits="userSpaceOnUse" gradientTransform="translate(56.6588 99.6976) rotate(90) scale(75.7647 108.075)">
<stop offset="0.335" stop-color="#153145"/>
<stop offset="1" stop-color="#091326"/>
</radialGradient>
<linearGradient id="paint1_linear_137_925" x1="0" y1="56.874" x2="112" y2="56.874" gradientUnits="userSpaceOnUse">
<stop stop-color="#267EB2"/>
<stop offset="1" stop-color="#4FC2E2"/>
</linearGradient>
<clipPath id="clip0_137_925">
<rect width="112" height="112" fill="white" transform="translate(0 0.874023)"/>
</clipPath>
</defs>
</svg>
