<svg width="112" height="113" viewBox="0 0 112 113" fill="none" xmlns="http://www.w3.org/2000/svg">
<g clip-path="url(#clip0_137_918)">
<circle cx="56" cy="56.874" r="55.75" fill="url(#paint0_radial_137_918)" stroke="url(#paint1_linear_137_918)" stroke-width="0.5"/>
<path d="M42.7894 33.6588L42.7893 33.6589C39.4809 35.1635 36.55 37.6186 36.55 41V73C36.55 76.3815 39.4809 78.8365 42.7893 80.3412L42.7894 80.3412C46.2655 81.9207 50.9391 82.85 56 82.85L56.0019 82.85L56.8211 82.8436L57.3465 82.8395L57.012 82.4344C56.2044 81.4565 55.5104 80.3998 54.9298 79.2638L54.8629 79.1329L54.7158 79.1278C50.5871 78.9846 46.944 78.1671 44.3211 76.9741C42.8022 76.2825 41.7786 75.5486 41.1381 74.8545C40.497 74.1598 40.25 73.5175 40.25 73V46.9168C41.0521 47.4666 41.9022 47.9435 42.7901 48.3416C46.2662 49.9208 50.9395 50.85 56 50.85C61.0606 50.85 65.734 49.9208 69.21 48.3415C70.0979 47.9434 70.9479 47.4666 71.75 46.9168V53.8704V54.0988L71.9774 54.1194C73.0447 54.2161 74.1007 54.4115 75.132 54.703L75.45 54.7929V54.4624V41C75.45 37.6186 72.519 35.1635 69.2107 33.6589L69.2106 33.6588C65.7345 32.0793 61.0609 31.15 56 31.15C50.9391 31.15 46.2655 32.0793 42.7894 33.6588ZM77.7558 65.6438L77.7562 65.6442C77.882 65.7696 77.9817 65.9186 78.0498 66.0826C78.1178 66.2466 78.1529 66.4225 78.1529 66.6C78.1529 66.7776 78.1178 66.9534 78.0498 67.1174C77.9817 67.2814 77.882 67.4304 77.7562 67.5558L77.756 67.556L68.156 77.156L68.1558 77.1563C68.0304 77.282 67.8814 77.3817 67.7174 77.4498C67.5534 77.5179 67.3776 77.5529 67.2 77.5529C67.0224 77.5529 66.8466 77.5179 66.6826 77.4498C66.5186 77.3817 66.3696 77.282 66.2442 77.1563L66.244 77.156L63.044 73.956C62.7904 73.7025 62.648 73.3586 62.648 73C62.648 72.6414 62.7904 72.2976 63.044 72.044C63.2975 71.7904 63.6414 71.648 64 71.648C64.3585 71.648 64.7023 71.7904 64.9559 72.0439C64.9559 72.0439 64.956 72.044 64.956 72.044L67.0231 74.1143L67.1999 74.2914L67.3768 74.1144L75.844 65.644L75.8442 65.6438C75.9696 65.5181 76.1186 65.4183 76.2826 65.3503C76.4466 65.2822 76.6224 65.2472 76.8 65.2472C76.9776 65.2472 77.1534 65.2822 77.3174 65.3503C77.4814 65.4183 77.6304 65.5181 77.7558 65.6438ZM56 47.15C51.3426 47.15 47.2131 46.2874 44.3212 44.9741C42.8022 44.2825 41.7787 43.5486 41.1381 42.8545C40.497 42.1598 40.25 41.5175 40.25 41C40.25 40.4842 40.497 39.8419 41.1382 39.1467C41.7787 38.4522 42.8023 37.7175 44.3212 37.026C47.2128 35.7096 51.3423 34.85 56 34.85C60.6574 34.85 64.7869 35.7127 67.6788 37.026C69.1978 37.7175 70.2213 38.4515 70.8619 39.1456C71.5029 39.8403 71.75 40.4825 71.75 41C71.75 41.5158 71.503 42.1581 70.8618 42.8533C70.2212 43.5479 69.1977 44.2825 67.6788 44.9741C64.7871 46.2905 60.6576 47.15 56 47.15ZM80.7591 81.7591C83.5065 79.0117 85.05 75.2854 85.05 71.4C85.05 67.5146 83.5065 63.7883 80.7591 61.0409C78.0117 58.2935 74.2854 56.75 70.4 56.75C66.5146 56.75 62.7883 58.2935 60.0409 61.0409C57.2935 63.7883 55.75 67.5146 55.75 71.4C55.75 75.2854 57.2935 79.0117 60.0409 81.7591C62.7883 84.5065 66.5146 86.05 70.4 86.05C74.2854 86.05 78.0117 84.5065 80.7591 81.7591Z" fill="#4FC2E2" stroke="#4FC2E2" stroke-width="0.5"/>
</g>
<defs>
<radialGradient id="paint0_radial_137_918" cx="0" cy="0" r="1" gradientUnits="userSpaceOnUse" gradientTransform="translate(56.6588 99.6976) rotate(90) scale(75.7647 108.075)">
<stop offset="0.335" stop-color="#153145"/>
<stop offset="1" stop-color="#091326"/>
</radialGradient>
<linearGradient id="paint1_linear_137_918" x1="0" y1="56.874" x2="112" y2="56.874" gradientUnits="userSpaceOnUse">
<stop stop-color="#267EB2"/>
<stop offset="1" stop-color="#4FC2E2"/>
</linearGradient>
<clipPath id="clip0_137_918">
<rect width="112" height="112" fill="white" transform="translate(0 0.874023)"/>
</clipPath>
</defs>
</svg>
