<svg width="112" height="112" viewBox="0 0 112 112" fill="none" xmlns="http://www.w3.org/2000/svg">
<circle cx="56" cy="56" r="55.75" fill="url(#paint0_radial_198_84)" stroke="url(#paint1_linear_198_84)" stroke-width="0.5"/>
<path fill-rule="evenodd" clip-rule="evenodd" d="M71.9999 40.1259V72.1259H39.9999V40.1259H71.9999ZM53.4686 48.1259H50.3521L44.4354 64.1259H47.247L48.364 60.998H55.4468L56.5399 64.1259H59.5208L53.4686 48.1259ZM64.5116 48.1259H61.7114V64.1259H64.5116V48.1259ZM51.8866 50.8103L54.676 58.7925H49.1418L51.8866 50.8103ZM74.6668 64.1259H79.9999V69.4593H74.6665L74.6668 64.1259ZM42.6668 74.7925H47.9999V80.1259H42.6665L42.6668 74.7925ZM53.3334 74.7925H58.6666V80.1259H53.3334V74.7925ZM42.6665 32.1259H47.9999V37.4593H42.6665V32.1259ZM63.9999 74.7925H69.3333V80.1259H63.9999V74.7925ZM53.3333 32.1259H58.6665V37.4593H53.3333V32.1259ZM63.9999 32.1259H69.3333V37.4593H63.9999V32.1259ZM74.6665 53.4593H79.9999V58.7925H74.6665V53.4593ZM31.9999 64.1259H37.3333V69.4593H31.9999V64.1259ZM74.6665 42.7925H79.9999V48.1259H74.6665V42.7925ZM31.9999 53.4593H37.3333V58.7925H31.9999V53.4593ZM31.9999 42.7925H37.3333V48.1259H31.9999V42.7925Z" fill="#4FC2E2"/>
<defs>
<radialGradient id="paint0_radial_198_84" cx="0" cy="0" r="1" gradientUnits="userSpaceOnUse" gradientTransform="translate(56.6588 98.8235) rotate(90) scale(75.7647 108.075)">
<stop offset="0.335" stop-color="#153145"/>
<stop offset="1" stop-color="#091326"/>
</radialGradient>
<linearGradient id="paint1_linear_198_84" x1="0" y1="56" x2="112" y2="56" gradientUnits="userSpaceOnUse">
<stop stop-color="#267EB2"/>
<stop offset="1" stop-color="#4FC2E2"/>
</linearGradient>
</defs>
</svg>
