<svg width="589" height="352" viewBox="0 0 589 352" fill="none" xmlns="http://www.w3.org/2000/svg">
<path d="M510.783 42.7728H471.184C468.958 42.77 466.823 41.8818 465.248 40.3029C463.674 38.724 462.787 36.5831 462.783 34.3495V32.5402C462.783 32.2213 462.656 31.9154 462.431 31.6899C462.207 31.4644 461.902 31.3377 461.584 31.3377V30.1351C462.22 30.1351 462.831 30.3884 463.281 30.8392C463.731 31.2901 463.985 31.9019 463.987 32.5402V34.3495C463.989 36.2637 464.749 38.0987 466.098 39.4522C467.447 40.8057 469.276 41.5674 471.184 41.5703H510.783C512.692 41.5688 514.523 40.8078 515.873 39.4541C517.223 38.1004 517.983 36.2646 517.986 34.3495V32.5402C517.986 31.9024 518.239 31.2906 518.688 30.8396C519.138 30.3885 519.748 30.1351 520.384 30.1351V31.3594C520.066 31.3608 519.762 31.4879 519.538 31.7131C519.313 31.9384 519.186 32.2434 519.185 32.5619V34.3712C519.175 36.601 518.286 38.7363 516.711 40.3105C515.137 41.8848 513.006 42.77 510.783 42.7728Z" fill="url(#paint0_linear_168_1156)"/>
<path d="M543.785 25.3195H438.183C432.933 25.3252 427.9 27.4198 424.189 31.1438C420.477 34.8677 418.389 39.9169 418.383 45.1833V307.027C418.389 312.293 420.477 317.342 424.189 321.066C427.9 324.79 432.933 326.885 438.183 326.891H543.785C549.034 326.885 554.067 324.79 557.779 321.066C561.491 317.342 563.578 312.293 563.584 307.027V45.1833C563.578 39.9169 561.491 34.8677 557.779 31.1438C554.067 27.4198 549.034 25.3252 543.785 25.3195ZM562.386 307.027C562.378 311.974 560.416 316.716 556.93 320.214C553.443 323.713 548.716 325.681 543.785 325.688H438.183C433.252 325.681 428.526 323.712 425.04 320.214C421.554 316.716 419.593 311.973 419.587 307.027V45.1833C419.591 40.2363 421.552 35.493 425.038 31.9944C428.524 28.4959 433.252 26.5278 438.183 26.522H543.785C548.716 26.5278 553.444 28.4957 556.931 31.9941C560.418 35.4926 562.38 40.2358 562.386 45.1833V307.027Z" fill="url(#paint1_linear_168_1156)"/>
<path d="M543.785 30.1351H520.389C519.753 30.1351 519.143 30.3885 518.694 30.8396C518.244 31.2906 517.992 31.9024 517.992 32.5402V34.3495C517.989 36.2646 517.229 38.1004 515.879 39.4541C514.528 40.8078 512.698 41.5688 510.789 41.5703H471.184C469.276 41.5674 467.447 40.8057 466.098 39.4522C464.749 38.0987 463.99 36.2637 463.987 34.3495V32.5402C463.985 31.9019 463.731 31.2901 463.281 30.8392C462.831 30.3884 462.22 30.1351 461.584 30.1351H438.183C434.209 30.1452 430.402 31.7343 427.593 34.5547C424.785 37.3751 423.205 41.1969 423.199 45.1834V307.027C423.205 311.016 424.787 314.84 427.599 317.661C430.411 320.482 434.223 322.069 438.199 322.075H543.785C547.761 322.071 551.574 320.484 554.386 317.663C557.198 314.842 558.78 311.017 558.784 307.027V45.1834C558.78 41.1936 557.198 37.3686 554.386 34.5474C551.574 31.7262 547.761 30.1394 543.785 30.1351ZM557.586 307.027C557.581 310.698 556.126 314.217 553.539 316.812C550.951 319.408 547.444 320.868 543.785 320.873H438.183C434.525 320.867 431.018 319.406 428.432 316.811C425.846 314.215 424.392 310.697 424.387 307.027V45.1834C424.396 41.5168 425.853 38.0032 428.438 35.4121C431.024 32.821 434.528 31.3636 438.183 31.3594H461.584C461.902 31.3594 462.207 31.4861 462.432 31.7116C462.656 31.9371 462.783 32.243 462.783 32.5619V34.3712C462.787 36.6048 463.674 38.7456 465.248 40.3245C466.823 41.9034 468.958 42.7916 471.184 42.7945H510.783C513.01 42.7916 515.144 41.9034 516.719 40.3245C518.294 38.7456 519.181 36.6048 519.185 34.3712V32.5619C519.186 32.2425 519.314 31.9366 519.539 31.7112C519.765 31.4859 520.071 31.3594 520.389 31.3594H543.79C547.449 31.3637 550.957 32.8238 553.544 35.4194C556.131 38.015 557.587 41.5342 557.591 45.205L557.586 307.027Z" fill="url(#paint2_linear_168_1156)"/>
<path d="M568.903 114.423H567.866C567.845 114.423 567.824 114.414 567.809 114.399C567.794 114.384 567.785 114.363 567.785 114.341V45.6385C567.841 39.113 565.317 32.8311 560.766 28.1689C558.54 25.9267 555.893 24.1497 552.979 22.9409C550.064 21.7321 546.939 21.1155 543.785 21.1269H438.642C432.136 21.0709 425.873 23.603 421.223 28.1689C418.989 30.4022 417.218 33.0577 416.013 35.9819C414.809 38.9061 414.194 42.041 414.204 45.2051V84.8246C414.204 84.8475 414.195 84.8696 414.179 84.8858C414.163 84.9021 414.141 84.9112 414.118 84.9112H413.086C413.064 84.9112 413.043 84.9196 413.027 84.9347C413.011 84.9498 413.001 84.9704 413 84.9925V96.2651C413.001 96.2871 413.011 96.3078 413.027 96.3229C413.043 96.338 413.064 96.3464 413.086 96.3464H414.118C414.14 96.3463 414.161 96.3547 414.177 96.3698C414.193 96.3849 414.203 96.4056 414.204 96.4276V107.7C414.204 107.711 414.202 107.722 414.197 107.733C414.193 107.743 414.187 107.752 414.178 107.76C414.17 107.767 414.161 107.773 414.15 107.777C414.14 107.781 414.129 107.782 414.118 107.781H413.086C413.075 107.781 413.064 107.784 413.053 107.788C413.043 107.792 413.033 107.799 413.025 107.807C413.017 107.815 413.011 107.824 413.007 107.835C413.002 107.846 413 107.857 413 107.868V129.975C413.001 129.997 413.011 130.017 413.027 130.032C413.043 130.048 413.064 130.056 413.086 130.056H414.118C414.14 130.056 414.161 130.064 414.177 130.079C414.193 130.094 414.203 130.115 414.204 130.137V306.567C414.148 313.094 416.672 319.377 421.223 324.042C423.449 326.284 426.096 328.061 429.011 329.27C431.925 330.478 435.05 331.095 438.204 331.084H543.331C549.835 331.139 556.096 328.607 560.744 324.042C562.979 321.809 564.75 319.153 565.955 316.229C567.16 313.305 567.775 310.17 567.764 307.005V149.99C567.764 149.969 567.772 149.948 567.787 149.933C567.802 149.918 567.823 149.909 567.845 149.909H568.881C568.903 149.909 568.923 149.9 568.938 149.885C568.954 149.87 568.962 149.849 568.962 149.828V114.509C568.963 114.49 568.958 114.472 568.947 114.456C568.936 114.44 568.921 114.429 568.903 114.423ZM566.619 307.937C566.619 313.754 564.316 319.333 560.216 323.446C556.116 327.559 550.555 329.87 544.757 329.87H437.238C431.44 329.87 425.879 327.559 421.779 323.446C417.679 319.333 415.376 313.754 415.376 307.937V44.2734C415.376 38.4564 417.679 32.8776 421.779 28.7643C425.879 24.6511 431.44 22.3403 437.238 22.3403H544.757C550.555 22.3403 556.116 24.6511 560.216 28.7643C564.316 32.8776 566.619 38.4564 566.619 44.2734V307.937Z" fill="url(#paint3_linear_168_1156)"/>
<g filter="url(#filter0_dddd_168_1156)">
<path d="M544.756 22.3401H437.238C431.44 22.3401 425.879 24.651 421.779 28.7642C417.679 32.8775 415.376 38.4563 415.376 44.2733V307.937C415.376 313.754 417.679 319.333 421.779 323.446C425.879 327.559 431.44 329.87 437.238 329.87H544.756C550.555 329.87 556.115 327.559 560.215 323.446C564.315 319.333 566.619 313.754 566.619 307.937V44.2733C566.619 38.4563 564.315 32.8775 560.215 28.7642C556.115 24.651 550.555 22.3401 544.756 22.3401ZM565.382 306.94C565.382 312.709 563.098 318.241 559.033 322.321C554.968 326.4 549.454 328.693 543.704 328.695H438.269C432.518 328.695 427.003 326.403 422.936 322.323C418.87 318.243 416.585 312.71 416.585 306.94V45.2646C416.585 39.495 418.87 33.9617 422.936 29.8819C427.003 25.8022 432.518 23.5102 438.269 23.5102H543.704C549.454 23.5116 554.968 25.8042 559.033 29.8838C563.098 33.9634 565.382 39.4959 565.382 45.2646V306.94Z" fill="url(#paint4_linear_168_1156)"/>
</g>
<path d="M470.812 32.0635C470.25 32.0625 469.702 32.2285 469.235 32.5406C468.768 32.8526 468.403 33.2967 468.188 33.8166C467.973 34.3365 467.916 34.9087 468.026 35.4609C468.135 36.0131 468.405 36.5203 468.802 36.9184C469.198 37.3164 469.704 37.5874 470.254 37.6969C470.805 37.8065 471.375 37.7497 471.893 37.5338C472.412 37.3179 472.854 36.9525 473.165 36.484C473.476 36.0155 473.642 35.4649 473.641 34.902C473.639 34.1496 473.341 33.4285 472.811 32.8965C472.28 32.3645 471.561 32.065 470.812 32.0635Z" fill="url(#paint5_linear_168_1156)"/>
<path d="M496.966 32.0635H485.007C484.624 32.0467 484.243 32.1078 483.884 32.2431C483.526 32.3783 483.199 32.5849 482.923 32.8503C482.646 33.1158 482.426 33.4347 482.276 33.7878C482.126 34.1408 482.048 34.5208 482.048 34.9047C482.048 35.2886 482.126 35.6685 482.276 36.0216C482.426 36.3747 482.646 36.6935 482.923 36.959C483.199 37.2245 483.526 37.4311 483.884 37.5663C484.243 37.7015 484.624 37.7626 485.007 37.7459H496.966C497.696 37.7139 498.385 37.4006 498.89 36.8712C499.395 36.3419 499.677 35.6374 499.677 34.9047C499.677 34.1719 499.395 33.4674 498.89 32.9381C498.385 32.4088 497.696 32.0955 496.966 32.0635Z" fill="url(#paint6_linear_168_1156)"/>
<g filter="url(#filter1_dddd_168_1156)">
<circle cx="494.5" cy="225.626" r="24.5" stroke="#467EC0" stroke-width="2"/>
</g>
<g filter="url(#filter2_dddd_168_1156)">
<path d="M484.692 226.28L491.885 233.472L504.308 221.049" stroke="#467EC0" stroke-width="4" stroke-linecap="round" stroke-linejoin="round"/>
</g>
<g filter="url(#filter3_dddd_168_1156)">
<rect x="144" y="40.126" width="185" height="33" rx="7" stroke="#467EC0" stroke-width="2"/>
</g>
<path d="M187.16 62.326C185.649 62.326 184.476 61.8504 183.64 60.8993C182.813 59.9482 182.4 58.6238 182.4 56.926C182.4 55.246 182.809 53.926 183.627 52.966C184.444 52.006 185.618 51.526 187.147 51.526C188.062 51.526 188.844 51.6993 189.493 52.046C190.142 52.3838 190.649 52.8549 191.013 53.4593C191.378 54.0638 191.591 54.7571 191.653 55.5393H189.427C189.356 54.8104 189.12 54.2415 188.72 53.8326C188.32 53.4149 187.8 53.206 187.16 53.206C186.351 53.206 185.742 53.5304 185.333 54.1793C184.924 54.8282 184.72 55.7482 184.72 56.9393C184.72 58.1749 184.929 59.1038 185.347 59.726C185.773 60.3393 186.373 60.646 187.147 60.646C187.813 60.646 188.342 60.4326 188.733 60.006C189.133 59.5793 189.364 59.0149 189.427 58.3126H191.653C191.591 59.0949 191.378 59.7882 191.013 60.3926C190.649 60.9971 190.142 61.4726 189.493 61.8193C188.853 62.1571 188.076 62.326 187.16 62.326ZM196.4 62.326C195.076 62.326 194.084 61.9482 193.427 61.1926C192.778 60.4282 192.453 59.406 192.453 58.126C192.453 56.846 192.778 55.8282 193.427 55.0726C194.084 54.3082 195.076 53.926 196.4 53.926C197.724 53.926 198.711 54.3082 199.36 55.0726C200.018 55.8282 200.347 56.846 200.347 58.126C200.347 59.406 200.018 60.4282 199.36 61.1926C198.711 61.9482 197.724 62.326 196.4 62.326ZM196.4 60.886C196.987 60.886 197.418 60.6549 197.693 60.1926C197.969 59.7304 198.107 59.0371 198.107 58.1126C198.107 57.1971 197.969 56.5126 197.693 56.0593C197.418 55.5971 196.987 55.366 196.4 55.366C195.813 55.366 195.382 55.5971 195.107 56.0593C194.831 56.5126 194.693 57.1971 194.693 58.1126C194.693 59.0371 194.831 59.7304 195.107 60.1926C195.382 60.6549 195.813 60.886 196.4 60.886ZM201.757 62.126V54.126H203.73V55.5926H204.05C204.104 55.326 204.201 55.0771 204.344 54.846C204.495 54.606 204.721 54.4149 205.024 54.2726C205.326 54.1215 205.73 54.046 206.237 54.046H206.664V55.9926H206.077C205.321 55.9926 204.77 56.1838 204.424 56.566C204.086 56.9482 203.917 57.5215 203.917 58.286V62.126H201.757ZM208.023 62.126V54.126H209.996V55.5926H210.316C210.369 55.326 210.467 55.0771 210.609 54.846C210.76 54.606 210.987 54.4149 211.289 54.2726C211.591 54.1215 211.996 54.046 212.503 54.046H212.929V55.9926H212.343C211.587 55.9926 211.036 56.1838 210.689 56.566C210.351 56.9482 210.183 57.5215 210.183 58.286V62.126H208.023ZM217.255 62.326C215.993 62.326 215.029 61.9482 214.362 61.1926C213.704 60.4371 213.375 59.4104 213.375 58.1126C213.375 57.2415 213.522 56.4949 213.815 55.8726C214.117 55.2504 214.553 54.7704 215.122 54.4326C215.7 54.0949 216.402 53.926 217.229 53.926C218.42 53.926 219.331 54.286 219.962 55.006C220.602 55.726 220.922 56.7838 220.922 58.1793V58.6326H215.482C215.526 59.3082 215.7 59.8415 216.002 60.2326C216.313 60.6149 216.731 60.806 217.255 60.806C217.673 60.806 218.006 60.6815 218.255 60.4326C218.513 60.1838 218.682 59.8949 218.762 59.566H220.815C220.735 60.0549 220.557 60.5082 220.282 60.926C220.006 61.3438 219.62 61.6815 219.122 61.9393C218.624 62.1971 218.002 62.326 217.255 62.326ZM215.482 57.2726H218.815C218.78 56.6682 218.629 56.2015 218.362 55.8726C218.095 55.5349 217.713 55.366 217.215 55.366C216.726 55.366 216.331 55.526 216.029 55.846C215.735 56.1571 215.553 56.6326 215.482 57.2726ZM225.581 62.326C224.346 62.326 223.404 61.9482 222.755 61.1926C222.106 60.4371 221.781 59.4149 221.781 58.126C221.781 56.766 222.124 55.726 222.808 55.006C223.501 54.286 224.435 53.926 225.608 53.926C226.666 53.926 227.497 54.206 228.101 54.766C228.706 55.326 229.066 56.0904 229.181 57.0593H227.048C226.986 56.5349 226.83 56.1349 226.581 55.8593C226.333 55.5838 226.013 55.446 225.621 55.446C225.106 55.446 224.71 55.6771 224.435 56.1393C224.159 56.6015 224.021 57.2638 224.021 58.126C224.021 58.9882 224.155 59.6504 224.421 60.1126C224.697 60.5749 225.093 60.806 225.608 60.806C226.008 60.806 226.333 60.6682 226.581 60.3926C226.83 60.1082 226.986 59.7082 227.048 59.1926H229.181C229.057 60.1438 228.688 60.9038 228.075 61.4726C227.47 62.0415 226.639 62.326 225.581 62.326ZM231.754 62.126C231.549 61.886 231.385 61.5971 231.26 61.2593C231.145 60.9215 231.087 60.4149 231.087 59.7393V55.646H229.994V54.126H231.114V52.126H233.234V54.126H234.527V55.646H233.234V59.5126C233.234 60.2149 233.314 60.7526 233.474 61.126C233.634 61.4993 233.825 61.806 234.047 62.046V62.126H231.754ZM240.592 62.126L238.285 54.206V54.126H240.472L242.192 60.366H242.512L244.245 54.126H246.232V54.206L243.925 62.126H240.592ZM250.724 62.326C249.462 62.326 248.497 61.9482 247.831 61.1926C247.173 60.4371 246.844 59.4104 246.844 58.1126C246.844 57.2415 246.991 56.4949 247.284 55.8726C247.586 55.2504 248.022 54.7704 248.591 54.4326C249.168 54.0949 249.871 53.926 250.697 53.926C251.888 53.926 252.8 54.286 253.431 55.006C254.071 55.726 254.391 56.7838 254.391 58.1793V58.6326H248.951C248.995 59.3082 249.168 59.8415 249.471 60.2326C249.782 60.6149 250.2 60.806 250.724 60.806C251.142 60.806 251.475 60.6815 251.724 60.4326C251.982 60.1838 252.151 59.8949 252.231 59.566H254.284C254.204 60.0549 254.026 60.5082 253.751 60.926C253.475 61.3438 253.088 61.6815 252.591 61.9393C252.093 62.1971 251.471 62.326 250.724 62.326ZM248.951 57.2726H252.284C252.248 56.6682 252.097 56.2015 251.831 55.8726C251.564 55.5349 251.182 55.366 250.684 55.366C250.195 55.366 249.8 55.526 249.497 55.846C249.204 56.1571 249.022 56.6326 248.951 57.2726ZM255.757 62.126V54.126H257.73V55.5926H258.05C258.104 55.326 258.201 55.0771 258.344 54.846C258.495 54.606 258.721 54.4149 259.024 54.2726C259.326 54.1215 259.73 54.046 260.237 54.046H260.664V55.9926H260.077C259.321 55.9926 258.77 56.1838 258.424 56.566C258.086 56.9482 257.917 57.5215 257.917 58.286V62.126H255.757ZM262.049 62.126V54.126H264.209V62.126H262.049ZM263.129 53.206C262.747 53.206 262.458 53.1082 262.263 52.9126C262.067 52.7082 261.969 52.446 261.969 52.126C261.969 51.806 262.067 51.5482 262.263 51.3526C262.458 51.1482 262.747 51.046 263.129 51.046C263.511 51.046 263.8 51.1482 263.996 51.3526C264.191 51.5482 264.289 51.806 264.289 52.126C264.289 52.446 264.191 52.7082 263.996 52.9126C263.8 53.1082 263.511 53.206 263.129 53.206ZM266.723 62.126V55.646H265.603V54.126H266.723V53.646C266.723 53.1838 266.803 52.7882 266.963 52.4593C267.132 52.1304 267.408 51.8771 267.79 51.6993C268.181 51.5215 268.71 51.4326 269.376 51.4326C269.634 51.4326 269.888 51.446 270.136 51.4726V52.9393C270.003 52.9126 269.848 52.8993 269.67 52.8993C269.368 52.8993 269.15 52.966 269.016 53.0993C268.892 53.2238 268.83 53.4326 268.83 53.726V54.126H270.136V55.646H268.83V62.126H266.723ZM271.523 62.126V54.126H273.683V62.126H271.523ZM272.603 53.206C272.221 53.206 271.932 53.1082 271.736 52.9126C271.541 52.7082 271.443 52.446 271.443 52.126C271.443 51.806 271.541 51.5482 271.736 51.3526C271.932 51.1482 272.221 51.046 272.603 51.046C272.985 51.046 273.274 51.1482 273.47 51.3526C273.665 51.5482 273.763 51.806 273.763 52.126C273.763 52.446 273.665 52.7082 273.47 52.9126C273.274 53.1082 272.985 53.206 272.603 53.206ZM278.925 62.326C277.69 62.326 276.747 61.9482 276.099 61.1926C275.45 60.4371 275.125 59.4149 275.125 58.126C275.125 56.766 275.467 55.726 276.152 55.006C276.845 54.286 277.779 53.926 278.952 53.926C280.01 53.926 280.841 54.206 281.445 54.766C282.05 55.326 282.41 56.0904 282.525 57.0593H280.392C280.33 56.5349 280.174 56.1349 279.925 55.8593C279.676 55.5838 279.356 55.446 278.965 55.446C278.45 55.446 278.054 55.6771 277.779 56.1393C277.503 56.6015 277.365 57.2638 277.365 58.126C277.365 58.9882 277.499 59.6504 277.765 60.1126C278.041 60.5749 278.436 60.806 278.952 60.806C279.352 60.806 279.676 60.6682 279.925 60.3926C280.174 60.1082 280.33 59.7082 280.392 59.1926H282.525C282.401 60.1438 282.032 60.9038 281.419 61.4726C280.814 62.0415 279.983 62.326 278.925 62.326ZM286.644 62.286C285.898 62.286 285.284 62.1082 284.804 61.7526C284.324 61.3882 283.969 60.8904 283.738 60.2593C283.506 59.6282 283.391 58.9126 283.391 58.1126C283.391 57.286 283.506 56.5615 283.738 55.9393C283.978 55.3171 284.338 54.8326 284.817 54.486C285.298 54.1393 285.902 53.966 286.631 53.966C287.191 53.966 287.649 54.0771 288.004 54.2993C288.369 54.5126 288.644 54.8015 288.831 55.166H289.151V54.126H291.151V62.126H289.151V61.086H288.831C288.644 61.4238 288.373 61.7082 288.017 61.9393C287.662 62.1704 287.204 62.286 286.644 62.286ZM287.204 60.766C287.746 60.766 288.177 60.5304 288.497 60.0593C288.826 59.5793 288.991 58.9349 288.991 58.126C288.991 57.3082 288.826 56.6638 288.497 56.1926C288.177 55.7215 287.746 55.486 287.204 55.486C286.715 55.486 286.329 55.7082 286.044 56.1526C285.769 56.5882 285.631 57.246 285.631 58.126C285.631 59.006 285.769 59.6682 286.044 60.1126C286.329 60.5482 286.715 60.766 287.204 60.766ZM294.301 62.126C294.096 61.886 293.932 61.5971 293.807 61.2593C293.692 60.9215 293.634 60.4149 293.634 59.7393V55.646H292.541V54.126H293.661V52.126H295.781V54.126H297.074V55.646H295.781V59.5126C295.781 60.2149 295.861 60.7526 296.021 61.126C296.181 61.4993 296.372 61.806 296.594 62.046V62.126H294.301ZM298.455 62.126V54.126H300.615V62.126H298.455ZM299.535 53.206C299.153 53.206 298.864 53.1082 298.669 52.9126C298.473 52.7082 298.375 52.446 298.375 52.126C298.375 51.806 298.473 51.5482 298.669 51.3526C298.864 51.1482 299.153 51.046 299.535 51.046C299.918 51.046 300.207 51.1482 300.402 51.3526C300.598 51.5482 300.695 51.806 300.695 52.126C300.695 52.446 300.598 52.7082 300.402 52.9126C300.207 53.1082 299.918 53.206 299.535 53.206ZM306.009 62.326C304.685 62.326 303.694 61.9482 303.036 61.1926C302.387 60.4282 302.063 59.406 302.063 58.126C302.063 56.846 302.387 55.8282 303.036 55.0726C303.694 54.3082 304.685 53.926 306.009 53.926C307.334 53.926 308.32 54.3082 308.969 55.0726C309.627 55.8282 309.956 56.846 309.956 58.126C309.956 59.406 309.627 60.4282 308.969 61.1926C308.32 61.9482 307.334 62.326 306.009 62.326ZM306.009 60.886C306.596 60.886 307.027 60.6549 307.303 60.1926C307.578 59.7304 307.716 59.0371 307.716 58.1126C307.716 57.1971 307.578 56.5126 307.303 56.0593C307.027 55.5971 306.596 55.366 306.009 55.366C305.423 55.366 304.992 55.5971 304.716 56.0593C304.44 56.5126 304.303 57.1971 304.303 58.1126C304.303 59.0371 304.44 59.7304 304.716 60.1926C304.992 60.6549 305.423 60.886 306.009 60.886ZM311.393 62.126V54.126H313.393V55.326H313.713C313.873 54.926 314.117 54.5926 314.446 54.326C314.784 54.0593 315.277 53.926 315.926 53.926C316.815 53.926 317.482 54.206 317.926 54.766C318.371 55.326 318.593 56.086 318.593 57.046V62.126H316.433V57.406C316.433 56.8549 316.335 56.4326 316.14 56.1393C315.944 55.8371 315.624 55.686 315.18 55.686C314.664 55.686 314.264 55.8904 313.98 56.2993C313.695 56.6993 313.553 57.2015 313.553 57.806V62.126H311.393Z" fill="#4FC2E2"/>
<path d="M172.349 51.2358L165.875 47.2158C165.521 46.9947 165.112 46.8774 164.694 46.8774C164.277 46.8774 163.868 46.9947 163.513 47.2158L157.04 51.2588C156.672 51.4909 156.38 51.8256 156.2 52.2217C156.02 52.6178 155.96 53.0579 156.026 53.4878L157.696 63.5148C157.785 64.0398 158.058 64.5158 158.466 64.8569C158.875 65.198 159.392 65.3817 159.924 65.3748H169.506C170.039 65.382 170.556 65.1984 170.965 64.8572C171.374 64.5161 171.647 64.0399 171.735 63.5148L173.405 53.4878C173.473 53.05 173.408 52.602 173.219 52.2011C173.031 51.8002 172.727 51.4645 172.347 51.2368" stroke="#4FC2E2" stroke-width="1.5" stroke-linecap="round" stroke-linejoin="round"/>
<path d="M167.328 55.6638H162.107C161.386 55.6638 160.801 56.2038 160.801 56.8718V60.4948C160.801 61.1618 161.386 61.7028 162.107 61.7028H167.329C168.05 61.7028 168.635 61.1618 168.635 60.4948V56.8718C168.635 56.2048 168.05 55.6638 167.329 55.6638" stroke="#4FC2E2" stroke-width="1.5" stroke-linecap="round" stroke-linejoin="round"/>
<path d="M162.302 55.6639V54.4569C162.302 54.1397 162.364 53.8257 162.485 53.5327C162.607 53.2397 162.785 52.9735 163.009 52.7492C163.233 52.525 163.499 52.3471 163.792 52.2257C164.085 52.1043 164.399 52.0419 164.717 52.0419C165.034 52.0419 165.348 52.1043 165.641 52.2257C165.934 52.3471 166.2 52.525 166.424 52.7492C166.648 52.9735 166.826 53.2397 166.948 53.5327C167.069 53.8257 167.132 54.1397 167.132 54.4569V55.6639" stroke="#4FC2E2" stroke-width="1.5" stroke-linecap="round" stroke-linejoin="round"/>
<g filter="url(#filter4_dddd_168_1156)">
<rect x="23" y="96.126" width="185" height="33" rx="7" stroke="#467EC0" stroke-width="2"/>
</g>
<path d="M41.41 120.126H38.5C37 120.126 35.68 119.626 34.61 118.556C33.54 117.506 33 116.216 33 114.706C33 113.406 33.39 112.246 34.17 111.226C34.9308 110.229 36.0234 109.537 37.25 109.276C37.67 107.746 38.5 106.506 39.75 105.556C41 104.626 42.42 104.126 44 104.126C45.95 104.126 47.61 104.806 48.96 106.166C50.32 107.516 51 109.176 51 111.126C52.15 111.256 53.11 111.756 53.86 112.626C54.5 113.356 54.86 114.186 54.96 115.126H52.96C52.86 114.626 52.64 114.216 52.27 113.856C51.79 113.366 51.2 113.126 50.5 113.126H49V111.126C49 109.746 48.5 108.566 47.54 107.586C46.57 106.626 45.39 106.126 44 106.126C42.62 106.126 41.44 106.626 40.46 107.586C39.5 108.566 39 109.746 39 111.126H38.5C37.53 111.126 36.71 111.466 36.03 112.156C35.34 112.836 35 113.656 35 114.626C35 115.596 35.34 116.426 36.03 117.126C36.71 117.796 37.53 118.126 38.5 118.126H41C41 118.846 41.15 119.516 41.41 120.126ZM55 117.126V119.126H53V121.126H51V119.126H48.8C48.4 120.326 47.3 121.126 46 121.126C44.3 121.126 43 119.826 43 118.126C43 116.426 44.3 115.126 46 115.126C47.3 115.126 48.4 115.926 48.8 117.126H55ZM47 118.126C47 117.626 46.6 117.126 46 117.126C45.4 117.126 45 117.626 45 118.126C45 118.626 45.4 119.126 46 119.126C46.6 119.126 47 118.626 47 118.126Z" fill="#4FC2E2"/>
<path d="M67 113.126H190" stroke="#4FC2E2" stroke-width="2" stroke-linecap="round"/>
<path d="M456.5 227.126H379.5C370.663 227.126 363.5 219.963 363.5 211.126V72.626C363.5 63.7894 356.337 56.626 347.5 56.626H330" stroke="#467EC0" stroke-width="4" stroke-linecap="round" stroke-linejoin="round" stroke-dasharray="1 10"/>
<line x1="210" y1="110.126" x2="357" y2="110.126" stroke="#467EC0" stroke-width="4" stroke-linecap="round" stroke-linejoin="round" stroke-dasharray="1 10"/>
<path d="M542.689 131.221C542.685 139.764 540.498 148.165 536.337 155.625C532.176 163.086 526.178 169.361 518.911 173.853C516.111 175.591 513.144 177.043 510.054 178.187C498.79 182.359 486.404 182.359 475.141 178.187C472.265 177.119 469.495 175.786 466.866 174.203C459.35 169.704 453.145 163.313 448.87 155.667C444.595 148.021 442.4 139.387 442.504 130.628C442.607 121.868 445.006 113.289 449.46 105.747C453.915 98.2038 460.27 91.961 467.89 87.641C475.511 83.321 484.131 81.075 492.891 81.1269C501.651 81.1788 510.244 83.5268 517.813 87.9368C525.382 92.3468 531.662 98.6645 536.027 106.26C540.392 113.855 542.689 122.461 542.689 131.221Z" stroke="#4FC2E2" stroke-width="2" stroke-miterlimit="10"/>
<path d="M505.881 149.159C504.141 152.637 498.979 155.177 492.889 155.177C486.582 155.177 481.275 152.465 479.736 148.809L482.548 147.847V141.196C483.92 142.634 485.566 143.785 487.388 144.581C489.21 145.377 491.173 145.801 493.161 145.83C496.914 145.785 500.509 144.315 503.219 141.718V148.086L505.881 149.159Z" stroke="#4FC2E2" stroke-width="1.47" stroke-miterlimit="10"/>
<path d="M511.048 119.474H475.268C474.024 120.397 473.379 122.892 473.796 125.637C474.163 128.06 475.235 129.993 476.469 130.727C476.596 130.804 476.73 130.869 476.869 130.921C477.807 134.793 479.768 138.342 482.548 141.196C483.858 142.609 485.438 143.746 487.195 144.539C488.952 145.332 490.849 145.766 492.776 145.815C494.703 145.863 496.62 145.526 498.414 144.822C500.209 144.119 501.844 143.063 503.224 141.718C506.319 138.788 508.489 135.018 509.47 130.871C510.871 130.36 512.132 128.271 512.532 125.615C512.949 122.859 512.288 120.38 511.048 119.474Z" stroke="#4FC2E2" stroke-width="1.47" stroke-miterlimit="10"/>
<path d="M525.918 155.166C524.073 153.987 522.147 152.938 520.156 152.026L518.078 151.398L517.9 151.343L510.454 149.092L510.276 149.036L506.353 147.864C506.246 148.316 506.088 148.754 505.881 149.17C505.538 149.848 505.094 150.47 504.564 151.015C504.083 151.512 503.552 151.959 502.98 152.348C500.485 154.088 496.868 155.177 492.889 155.177C492.489 155.177 492.105 155.177 491.711 155.177C491.316 155.177 491.022 155.132 490.688 155.099H490.572L490.327 155.071L489.977 155.027H489.872C489.836 155.03 489.801 155.03 489.766 155.027C489.579 155.01 489.394 154.982 489.21 154.943C488.927 154.904 488.655 154.838 488.366 154.782C488.043 154.71 487.716 154.627 487.421 154.543H487.349H487.26C486.999 154.465 486.743 154.388 486.499 154.304L486.349 154.249C486.149 154.182 485.965 154.115 485.793 154.038C485.621 153.96 485.554 153.943 485.432 153.888C485.358 153.863 485.285 153.833 485.215 153.799L484.804 153.621L484.676 153.554L484.604 153.521C484.555 153.505 484.508 153.483 484.465 153.454C484.293 153.365 484.115 153.287 483.948 153.187L483.704 153.043L483.298 152.81C483.046 152.659 482.803 152.494 482.57 152.315L482.237 152.065C482.237 152.065 482.237 152.065 482.203 152.037L481.87 151.765C481.764 151.676 481.659 151.576 481.559 151.481C481.459 151.387 481.259 151.198 481.114 151.031C481.065 150.982 481.019 150.93 480.975 150.876C480.93 150.828 480.889 150.776 480.853 150.72C480.782 150.644 480.717 150.562 480.658 150.476C480.569 150.383 480.491 150.28 480.425 150.17C480.331 150.043 480.245 149.909 480.169 149.77C480.127 149.707 480.088 149.642 480.053 149.575C479.936 149.375 479.832 149.167 479.742 148.953C479.604 148.645 479.497 148.325 479.419 147.997L475.896 149.059L475.724 149.103L468.267 151.326L468.083 151.381L465.538 152.148H465.505C463.629 152.973 461.809 153.918 460.054 154.977L459.832 155.127C457.376 156.733 455.097 158.833 455.131 161.139C455.131 162.012 455.131 163.178 455.131 164.501C458.514 168.313 462.46 171.585 466.833 174.203C469.461 175.786 472.231 177.119 475.107 178.187H510.065C513.155 177.043 516.123 175.591 518.922 173.853C523.278 171.163 527.195 167.819 530.536 163.94C530.536 162.828 530.536 161.889 530.536 161.161C530.569 158.872 528.352 156.755 525.918 155.166Z" stroke="#4FC2E2" stroke-width="1.47" stroke-miterlimit="10"/>
<path d="M517.578 164.501V165.001H518.078H518.411V173.574C515.709 175.23 512.852 176.618 509.88 177.718C498.728 181.848 486.466 181.848 475.314 177.718C472.556 176.694 469.896 175.423 467.366 173.92V165.001H468.261H468.761V164.501V150.939L475.391 148.882V164.501V165.001H475.891H510.454H510.954V164.501V148.882L517.578 150.938V164.501ZM470.233 170.646C470.726 170.974 471.305 171.148 471.896 171.147C472.687 171.145 473.445 170.83 474.004 170.271C474.563 169.712 474.877 168.955 474.879 168.164C474.881 167.572 474.706 166.993 474.378 166.501C474.05 166.008 473.583 165.624 473.037 165.397C472.49 165.17 471.889 165.11 471.308 165.225C470.728 165.34 470.194 165.625 469.776 166.043C469.357 166.462 469.073 166.995 468.957 167.576C468.842 168.156 468.902 168.758 469.129 169.304C469.356 169.851 469.74 170.318 470.233 170.646ZM512.431 170.646C512.924 170.974 513.503 171.148 514.095 171.147C514.885 171.145 515.643 170.83 516.202 170.271C516.761 169.712 517.076 168.955 517.077 168.164C517.079 167.572 516.904 166.993 516.576 166.501C516.248 166.008 515.782 165.624 515.235 165.397C514.689 165.17 514.087 165.11 513.506 165.225C512.926 165.34 512.393 165.625 511.974 166.043C511.556 166.462 511.271 166.995 511.156 167.576C511.041 168.156 511.1 168.758 511.327 169.304C511.554 169.851 511.939 170.318 512.431 170.646Z" fill="url(#paint7_linear_168_1156)" stroke="#4FC2E2"/>
<path d="M514.466 119.474H471.856L475.524 111.762C475.724 111.362 476.036 111.029 476.421 110.803C476.807 110.577 477.25 110.468 477.697 110.489H508.631C509.078 110.468 509.521 110.577 509.907 110.803C510.292 111.029 510.604 111.362 510.804 111.762L514.466 119.474Z" fill="url(#paint8_linear_168_1156)" stroke="#4FC2E2" stroke-width="1.47" stroke-miterlimit="10"/>
<path d="M507.976 101.62V107.55H478.391V101.62C478.393 100.959 478.656 100.325 479.124 99.8579C479.591 99.3903 480.225 99.127 480.886 99.1255H505.475C506.137 99.1255 506.772 99.3882 507.241 99.8559C507.71 100.324 507.974 100.958 507.976 101.62Z" fill="url(#paint9_linear_168_1156)" stroke="#4FC2E2" stroke-width="1.47" stroke-miterlimit="10"/>
<path d="M509.042 107.555L509.754 110.522H476.602L477.319 107.555H509.042Z" stroke="#4FC2E2" stroke-width="1.47" stroke-miterlimit="10"/>
<defs>
<filter id="filter0_dddd_168_1156" x="393.905" y="0.869749" width="194.184" height="350.471" filterUnits="userSpaceOnUse" color-interpolation-filters="sRGB">
<feFlood flood-opacity="0" result="BackgroundImageFix"/>
<feColorMatrix in="SourceAlpha" type="matrix" values="0 0 0 0 0 0 0 0 0 0 0 0 0 0 0 0 0 0 127 0" result="hardAlpha"/>
<feOffset/>
<feGaussianBlur stdDeviation="0.2556"/>
<feColorMatrix type="matrix" values="0 0 0 0 0.904675 0 0 0 0 1 0 0 0 0 1 0 0 0 1 0"/>
<feBlend mode="normal" in2="BackgroundImageFix" result="effect1_dropShadow_168_1156"/>
<feColorMatrix in="SourceAlpha" type="matrix" values="0 0 0 0 0 0 0 0 0 0 0 0 0 0 0 0 0 0 127 0" result="hardAlpha"/>
<feOffset/>
<feGaussianBlur stdDeviation="0.5112"/>
<feColorMatrix type="matrix" values="0 0 0 0 0.904675 0 0 0 0 1 0 0 0 0 1 0 0 0 1 0"/>
<feBlend mode="normal" in2="effect1_dropShadow_168_1156" result="effect2_dropShadow_168_1156"/>
<feColorMatrix in="SourceAlpha" type="matrix" values="0 0 0 0 0 0 0 0 0 0 0 0 0 0 0 0 0 0 127 0" result="hardAlpha"/>
<feOffset/>
<feGaussianBlur stdDeviation="1.7892"/>
<feColorMatrix type="matrix" values="0 0 0 0 0.904675 0 0 0 0 1 0 0 0 0 1 0 0 0 1 0"/>
<feBlend mode="normal" in2="effect2_dropShadow_168_1156" result="effect3_dropShadow_168_1156"/>
<feColorMatrix in="SourceAlpha" type="matrix" values="0 0 0 0 0 0 0 0 0 0 0 0 0 0 0 0 0 0 127 0" result="hardAlpha"/>
<feOffset/>
<feGaussianBlur stdDeviation="10.7352"/>
<feColorMatrix type="matrix" values="0 0 0 0 0.0235294 0 0 0 0 0.839216 0 0 0 0 0.898039 0 0 0 1 0"/>
<feBlend mode="normal" in2="effect3_dropShadow_168_1156" result="effect4_dropShadow_168_1156"/>
<feBlend mode="normal" in="SourceGraphic" in2="effect4_dropShadow_168_1156" result="shape"/>
</filter>
<filter id="filter1_dddd_168_1156" x="447.53" y="178.656" width="93.9408" height="93.9408" filterUnits="userSpaceOnUse" color-interpolation-filters="sRGB">
<feFlood flood-opacity="0" result="BackgroundImageFix"/>
<feColorMatrix in="SourceAlpha" type="matrix" values="0 0 0 0 0 0 0 0 0 0 0 0 0 0 0 0 0 0 127 0" result="hardAlpha"/>
<feOffset/>
<feGaussianBlur stdDeviation="0.2556"/>
<feColorMatrix type="matrix" values="0 0 0 0 0.904675 0 0 0 0 1 0 0 0 0 1 0 0 0 1 0"/>
<feBlend mode="normal" in2="BackgroundImageFix" result="effect1_dropShadow_168_1156"/>
<feColorMatrix in="SourceAlpha" type="matrix" values="0 0 0 0 0 0 0 0 0 0 0 0 0 0 0 0 0 0 127 0" result="hardAlpha"/>
<feOffset/>
<feGaussianBlur stdDeviation="0.5112"/>
<feColorMatrix type="matrix" values="0 0 0 0 0.904675 0 0 0 0 1 0 0 0 0 1 0 0 0 1 0"/>
<feBlend mode="normal" in2="effect1_dropShadow_168_1156" result="effect2_dropShadow_168_1156"/>
<feColorMatrix in="SourceAlpha" type="matrix" values="0 0 0 0 0 0 0 0 0 0 0 0 0 0 0 0 0 0 127 0" result="hardAlpha"/>
<feOffset/>
<feGaussianBlur stdDeviation="1.7892"/>
<feColorMatrix type="matrix" values="0 0 0 0 0.904675 0 0 0 0 1 0 0 0 0 1 0 0 0 1 0"/>
<feBlend mode="normal" in2="effect2_dropShadow_168_1156" result="effect3_dropShadow_168_1156"/>
<feColorMatrix in="SourceAlpha" type="matrix" values="0 0 0 0 0 0 0 0 0 0 0 0 0 0 0 0 0 0 127 0" result="hardAlpha"/>
<feOffset/>
<feGaussianBlur stdDeviation="10.7352"/>
<feColorMatrix type="matrix" values="0 0 0 0 0.0235294 0 0 0 0 0.839216 0 0 0 0 0.898039 0 0 0 1 0"/>
<feBlend mode="normal" in2="effect3_dropShadow_168_1156" result="effect4_dropShadow_168_1156"/>
<feBlend mode="normal" in="SourceGraphic" in2="effect4_dropShadow_168_1156" result="shape"/>
</filter>
<filter id="filter2_dddd_168_1156" x="461.222" y="197.579" width="66.5562" height="59.3639" filterUnits="userSpaceOnUse" color-interpolation-filters="sRGB">
<feFlood flood-opacity="0" result="BackgroundImageFix"/>
<feColorMatrix in="SourceAlpha" type="matrix" values="0 0 0 0 0 0 0 0 0 0 0 0 0 0 0 0 0 0 127 0" result="hardAlpha"/>
<feOffset/>
<feGaussianBlur stdDeviation="0.2556"/>
<feColorMatrix type="matrix" values="0 0 0 0 0.904675 0 0 0 0 1 0 0 0 0 1 0 0 0 1 0"/>
<feBlend mode="normal" in2="BackgroundImageFix" result="effect1_dropShadow_168_1156"/>
<feColorMatrix in="SourceAlpha" type="matrix" values="0 0 0 0 0 0 0 0 0 0 0 0 0 0 0 0 0 0 127 0" result="hardAlpha"/>
<feOffset/>
<feGaussianBlur stdDeviation="0.5112"/>
<feColorMatrix type="matrix" values="0 0 0 0 0.904675 0 0 0 0 1 0 0 0 0 1 0 0 0 1 0"/>
<feBlend mode="normal" in2="effect1_dropShadow_168_1156" result="effect2_dropShadow_168_1156"/>
<feColorMatrix in="SourceAlpha" type="matrix" values="0 0 0 0 0 0 0 0 0 0 0 0 0 0 0 0 0 0 127 0" result="hardAlpha"/>
<feOffset/>
<feGaussianBlur stdDeviation="1.7892"/>
<feColorMatrix type="matrix" values="0 0 0 0 0.904675 0 0 0 0 1 0 0 0 0 1 0 0 0 1 0"/>
<feBlend mode="normal" in2="effect2_dropShadow_168_1156" result="effect3_dropShadow_168_1156"/>
<feColorMatrix in="SourceAlpha" type="matrix" values="0 0 0 0 0 0 0 0 0 0 0 0 0 0 0 0 0 0 127 0" result="hardAlpha"/>
<feOffset/>
<feGaussianBlur stdDeviation="10.7352"/>
<feColorMatrix type="matrix" values="0 0 0 0 0.0235294 0 0 0 0 0.839216 0 0 0 0 0.898039 0 0 0 1 0"/>
<feBlend mode="normal" in2="effect3_dropShadow_168_1156" result="effect4_dropShadow_168_1156"/>
<feBlend mode="normal" in="SourceGraphic" in2="effect4_dropShadow_168_1156" result="shape"/>
</filter>
<filter id="filter3_dddd_168_1156" x="121.53" y="17.6556" width="229.941" height="77.9408" filterUnits="userSpaceOnUse" color-interpolation-filters="sRGB">
<feFlood flood-opacity="0" result="BackgroundImageFix"/>
<feColorMatrix in="SourceAlpha" type="matrix" values="0 0 0 0 0 0 0 0 0 0 0 0 0 0 0 0 0 0 127 0" result="hardAlpha"/>
<feOffset/>
<feGaussianBlur stdDeviation="0.2556"/>
<feColorMatrix type="matrix" values="0 0 0 0 0.904675 0 0 0 0 1 0 0 0 0 1 0 0 0 1 0"/>
<feBlend mode="normal" in2="BackgroundImageFix" result="effect1_dropShadow_168_1156"/>
<feColorMatrix in="SourceAlpha" type="matrix" values="0 0 0 0 0 0 0 0 0 0 0 0 0 0 0 0 0 0 127 0" result="hardAlpha"/>
<feOffset/>
<feGaussianBlur stdDeviation="0.5112"/>
<feColorMatrix type="matrix" values="0 0 0 0 0.904675 0 0 0 0 1 0 0 0 0 1 0 0 0 1 0"/>
<feBlend mode="normal" in2="effect1_dropShadow_168_1156" result="effect2_dropShadow_168_1156"/>
<feColorMatrix in="SourceAlpha" type="matrix" values="0 0 0 0 0 0 0 0 0 0 0 0 0 0 0 0 0 0 127 0" result="hardAlpha"/>
<feOffset/>
<feGaussianBlur stdDeviation="1.7892"/>
<feColorMatrix type="matrix" values="0 0 0 0 0.904675 0 0 0 0 1 0 0 0 0 1 0 0 0 1 0"/>
<feBlend mode="normal" in2="effect2_dropShadow_168_1156" result="effect3_dropShadow_168_1156"/>
<feColorMatrix in="SourceAlpha" type="matrix" values="0 0 0 0 0 0 0 0 0 0 0 0 0 0 0 0 0 0 127 0" result="hardAlpha"/>
<feOffset/>
<feGaussianBlur stdDeviation="10.7352"/>
<feColorMatrix type="matrix" values="0 0 0 0 0.0235294 0 0 0 0 0.839216 0 0 0 0 0.898039 0 0 0 1 0"/>
<feBlend mode="normal" in2="effect3_dropShadow_168_1156" result="effect4_dropShadow_168_1156"/>
<feBlend mode="normal" in="SourceGraphic" in2="effect4_dropShadow_168_1156" result="shape"/>
</filter>
<filter id="filter4_dddd_168_1156" x="0.5296" y="73.6556" width="229.941" height="77.9408" filterUnits="userSpaceOnUse" color-interpolation-filters="sRGB">
<feFlood flood-opacity="0" result="BackgroundImageFix"/>
<feColorMatrix in="SourceAlpha" type="matrix" values="0 0 0 0 0 0 0 0 0 0 0 0 0 0 0 0 0 0 127 0" result="hardAlpha"/>
<feOffset/>
<feGaussianBlur stdDeviation="0.2556"/>
<feColorMatrix type="matrix" values="0 0 0 0 0.904675 0 0 0 0 1 0 0 0 0 1 0 0 0 1 0"/>
<feBlend mode="normal" in2="BackgroundImageFix" result="effect1_dropShadow_168_1156"/>
<feColorMatrix in="SourceAlpha" type="matrix" values="0 0 0 0 0 0 0 0 0 0 0 0 0 0 0 0 0 0 127 0" result="hardAlpha"/>
<feOffset/>
<feGaussianBlur stdDeviation="0.5112"/>
<feColorMatrix type="matrix" values="0 0 0 0 0.904675 0 0 0 0 1 0 0 0 0 1 0 0 0 1 0"/>
<feBlend mode="normal" in2="effect1_dropShadow_168_1156" result="effect2_dropShadow_168_1156"/>
<feColorMatrix in="SourceAlpha" type="matrix" values="0 0 0 0 0 0 0 0 0 0 0 0 0 0 0 0 0 0 127 0" result="hardAlpha"/>
<feOffset/>
<feGaussianBlur stdDeviation="1.7892"/>
<feColorMatrix type="matrix" values="0 0 0 0 0.904675 0 0 0 0 1 0 0 0 0 1 0 0 0 1 0"/>
<feBlend mode="normal" in2="effect2_dropShadow_168_1156" result="effect3_dropShadow_168_1156"/>
<feColorMatrix in="SourceAlpha" type="matrix" values="0 0 0 0 0 0 0 0 0 0 0 0 0 0 0 0 0 0 127 0" result="hardAlpha"/>
<feOffset/>
<feGaussianBlur stdDeviation="10.7352"/>
<feColorMatrix type="matrix" values="0 0 0 0 0.0235294 0 0 0 0 0.839216 0 0 0 0 0.898039 0 0 0 1 0"/>
<feBlend mode="normal" in2="effect3_dropShadow_168_1156" result="effect4_dropShadow_168_1156"/>
<feBlend mode="normal" in="SourceGraphic" in2="effect4_dropShadow_168_1156" result="shape"/>
</filter>
<linearGradient id="paint0_linear_168_1156" x1="490.87" y1="20.428" x2="494.359" y2="334.431" gradientUnits="userSpaceOnUse">
<stop stop-color="#50C1E1"/>
<stop offset="1" stop-color="#467EC0"/>
</linearGradient>
<linearGradient id="paint1_linear_168_1156" x1="489.267" y1="20.4442" x2="492.756" y2="334.447" gradientUnits="userSpaceOnUse">
<stop stop-color="#50C1E1"/>
<stop offset="1" stop-color="#467EC0"/>
</linearGradient>
<linearGradient id="paint2_linear_168_1156" x1="489.267" y1="20.4442" x2="492.756" y2="334.447" gradientUnits="userSpaceOnUse">
<stop stop-color="#50C1E1"/>
<stop offset="1" stop-color="#467EC0"/>
</linearGradient>
<linearGradient id="paint3_linear_168_1156" x1="489.488" y1="20.5364" x2="492.977" y2="334.539" gradientUnits="userSpaceOnUse">
<stop stop-color="#50C1E1"/>
<stop offset="1" stop-color="#467EC0"/>
</linearGradient>
<linearGradient id="paint4_linear_168_1156" x1="489.267" y1="20.4442" x2="492.756" y2="334.447" gradientUnits="userSpaceOnUse">
<stop stop-color="#50C1E1"/>
<stop offset="1" stop-color="#467EC0"/>
</linearGradient>
<linearGradient id="paint5_linear_168_1156" x1="470.65" y1="20.6501" x2="474.138" y2="334.653" gradientUnits="userSpaceOnUse">
<stop stop-color="#50C1E1"/>
<stop offset="1" stop-color="#467EC0"/>
</linearGradient>
<linearGradient id="paint6_linear_168_1156" x1="490.827" y1="20.4279" x2="494.316" y2="334.431" gradientUnits="userSpaceOnUse">
<stop stop-color="#50C1E1"/>
<stop offset="1" stop-color="#467EC0"/>
</linearGradient>
<linearGradient id="paint7_linear_168_1156" x1="466.866" y1="164.759" x2="518.911" y2="164.759" gradientUnits="userSpaceOnUse">
<stop stop-color="#267EB2"/>
<stop offset="1" stop-color="#4FC2E2"/>
</linearGradient>
<linearGradient id="paint8_linear_168_1156" x1="471.856" y1="114.98" x2="514.466" y2="114.98" gradientUnits="userSpaceOnUse">
<stop stop-color="#267EB2"/>
<stop offset="1" stop-color="#4FC2E2"/>
</linearGradient>
<linearGradient id="paint9_linear_168_1156" x1="478.391" y1="103.338" x2="507.976" y2="103.338" gradientUnits="userSpaceOnUse">
<stop stop-color="#267EB2"/>
<stop offset="1" stop-color="#4FC2E2"/>
</linearGradient>
</defs>
</svg>
