<svg width="220" height="193" viewBox="0 0 220 193" fill="none" xmlns="http://www.w3.org/2000/svg">
<rect x="7.25" y="27.25" width="205.5" height="138.5" rx="7.75" fill="#091326"/>
<rect x="7.25" y="27.25" width="205.5" height="138.5" rx="7.75" stroke="url(#paint0_linear_153_1125)" stroke-width="0.5"/>
<g clip-path="url(#clip0_153_1125)">
<path d="M64.0168 120.811L99.0703 100.419C99.2888 100.309 99.5322 100.259 99.7764 100.272C100.021 100.284 100.257 100.361 100.463 100.492C100.707 100.625 100.927 100.796 101.115 101C101.28 101.174 101.424 101.366 101.545 101.573C102.171 102.64 102.075 103.856 101.335 104.287L66.2883 124.677C67.0287 124.247 67.1219 123.032 66.4961 121.966C66.3761 121.758 66.2317 121.566 66.0662 121.392C65.8785 121.189 65.6591 121.018 65.4165 120.885C65.2103 120.751 64.9723 120.674 64.7266 120.661C64.4809 120.648 64.2361 120.7 64.0168 120.811Z" fill="#00081E" stroke="#4FC2E2" stroke-miterlimit="10"/>
<path d="M65.4165 120.885L100.47 100.492C100.714 100.625 100.934 100.796 101.122 101L66.0662 121.392C65.8786 121.189 65.6591 121.018 65.4165 120.885Z" fill="#4FC2E2"/>
<path d="M155.169 124.589L120.008 104.385C119.804 104.25 119.638 104.065 119.528 103.847C119.418 103.629 119.367 103.386 119.38 103.142C119.373 102.865 119.412 102.589 119.497 102.326C119.566 102.096 119.663 101.876 119.783 101.668C120.402 100.6 121.508 100.078 122.251 100.504L157.407 120.711C156.664 120.285 155.561 120.806 154.942 121.878C154.821 122.085 154.725 122.305 154.655 122.535C154.571 122.798 154.531 123.073 154.538 123.349C154.525 123.593 154.576 123.836 154.686 124.054C154.797 124.271 154.964 124.456 155.169 124.589Z" fill="#00081E" stroke="#4FC2E2" stroke-miterlimit="10"/>
<path d="M154.541 123.349L119.38 103.152C119.373 102.875 119.412 102.599 119.497 102.335L154.66 122.544C154.576 122.804 154.536 123.076 154.541 123.349Z" fill="#4FC2E2"/>
<path d="M49.8293 131.6L49.7672 153.812L30.1194 142.551L30.1839 120.34L49.8293 131.6Z" fill="url(#paint1_linear_153_1125)" stroke="#4FC2E2" stroke-linejoin="round"/>
<path d="M69.2692 120.294L69.2071 142.506L49.7672 153.812L49.8293 131.6L69.2692 120.294Z" fill="#2B3244" stroke="#4FC2E2" stroke-linejoin="round"/>
<path d="M30.1839 120.34L49.6214 109.034L69.2691 120.295L49.8292 131.6L30.1839 120.34Z" fill="#00081E" stroke="#4FC2E2" stroke-linejoin="round"/>
<path d="M171.315 131.274L171.253 153.486L151.605 142.225L151.67 120.014L171.315 131.274Z" fill="url(#paint2_linear_153_1125)" stroke="#4FC2E2" stroke-linejoin="round"/>
<path d="M190.755 119.969L190.693 142.18L171.253 153.486L171.315 131.274L190.755 119.969Z" fill="#2B3244" stroke="#4FC2E2" stroke-linejoin="round"/>
<path d="M151.67 120.014L171.11 108.708L190.755 119.968L171.315 131.274L151.67 120.014Z" fill="#00081E" stroke="#4FC2E2" stroke-linejoin="round"/>
<path d="M52.0123 79.8618V120.316C51.9974 120.56 51.9187 120.795 51.7842 120.999C51.6497 121.203 51.464 121.368 51.2456 121.478C51.0091 121.622 50.7499 121.726 50.4789 121.785C50.244 121.839 50.0035 121.867 49.7623 121.866C48.5227 121.866 47.5172 121.171 47.5172 120.316V79.8618C47.5172 80.7165 48.5227 81.4092 49.7623 81.4092C50.0035 81.4099 50.244 81.3827 50.4789 81.3283C50.7495 81.2693 51.0085 81.1664 51.2456 81.0236C51.464 80.9135 51.6497 80.7483 51.7842 80.5445C51.9187 80.3407 51.9974 80.1053 52.0123 79.8618Z" fill="#00081E" stroke="#4FC2E2" stroke-miterlimit="10"/>
<path d="M51.2456 81.0234V121.482C51.0091 121.627 50.7499 121.731 50.4789 121.79V81.3282C50.7495 81.2692 51.0085 81.1662 51.2456 81.0234Z" fill="#4FC2E2"/>
<path d="M173.563 79.3452V119.816C173.548 120.06 173.469 120.295 173.334 120.499C173.2 120.703 173.014 120.868 172.796 120.978C172.559 121.122 172.3 121.226 172.029 121.285C171.794 121.339 171.554 121.367 171.313 121.366C170.073 121.366 169.067 120.671 169.067 119.816V79.3452C169.067 80.1999 170.073 80.8926 171.313 80.8926C171.554 80.8933 171.794 80.8661 172.029 80.8117C172.3 80.7527 172.559 80.6498 172.796 80.507C173.014 80.3969 173.2 80.2317 173.334 80.0279C173.469 79.8241 173.548 79.5887 173.563 79.3452Z" fill="#00081E" stroke="#4FC2E2" stroke-miterlimit="10"/>
<path d="M172.796 80.5139V120.968C172.559 121.113 172.3 121.217 172.029 121.275V80.8186C172.3 80.7597 172.559 80.6567 172.796 80.5139Z" fill="#4FC2E2"/>
<path d="M113.06 44.728V85.1823C113.045 85.4258 112.966 85.6612 112.832 85.865C112.697 86.0688 112.511 86.234 112.293 86.3441C112.057 86.4886 111.797 86.5924 111.526 86.6512C111.291 86.7056 111.051 86.7327 110.81 86.7321C109.57 86.7321 108.565 86.037 108.565 85.1823V44.728C108.565 45.5827 109.57 46.2754 110.81 46.2754C111.051 46.2761 111.291 46.2489 111.526 46.1945C111.797 46.1355 112.056 46.0326 112.293 45.8898C112.511 45.7797 112.697 45.6145 112.832 45.4107C112.966 45.2069 113.045 44.9715 113.06 44.728Z" fill="#00081E" stroke="#4FC2E2" stroke-miterlimit="10"/>
<path d="M112.293 45.8899V86.3442C112.057 86.4887 111.797 86.5926 111.526 86.6513V46.1946C111.797 46.1357 112.056 46.0327 112.293 45.8899Z" fill="#4FC2E2"/>
<path d="M110.709 27.559L110.647 49.7704L90.9996 38.51L91.0641 16.2986L110.709 27.559Z" fill="url(#paint3_linear_153_1125)" stroke="#4FC2E2" stroke-linejoin="round"/>
<path d="M130.149 16.2532L130.087 38.4646L110.647 49.7703L110.709 27.5589L130.149 16.2532Z" fill="#2B3244" stroke="#4FC2E2" stroke-linejoin="round"/>
<path d="M91.0641 16.2986L110.504 4.99292L130.149 16.2534L110.709 27.559L91.0641 16.2986Z" stroke="#4FC2E2" stroke-linejoin="round"/>
<path d="M155.169 55.4959L120.008 35.289C119.804 35.155 119.638 34.9699 119.528 34.7523C119.418 34.5347 119.367 34.2921 119.38 34.0487C119.373 33.7719 119.412 33.4959 119.497 33.2321C119.566 33.0028 119.663 32.7823 119.783 32.5751C120.402 31.5038 121.508 30.9848 122.251 31.4109L157.407 51.6178C156.664 51.1893 155.561 51.7131 154.942 52.782C154.821 52.9892 154.725 53.2097 154.655 53.439C154.571 53.702 154.532 53.9772 154.538 54.2532C154.524 54.4973 154.575 54.7407 154.686 54.9589C154.797 55.1771 154.963 55.3623 155.169 55.4959Z" fill="#00081E" stroke="#4FC2E2" stroke-miterlimit="10"/>
<path d="M154.541 54.253L119.38 34.0485C119.373 33.7717 119.412 33.4957 119.497 33.2319L154.66 53.4388C154.575 53.7017 154.535 53.9769 154.541 54.253Z" fill="#4FC2E2"/>
<path d="M94.2122 159.963L59.0512 139.756C58.8467 139.622 58.6811 139.436 58.5709 139.218C58.4607 139 58.4097 138.757 58.423 138.514C58.4163 138.238 58.4558 137.962 58.5401 137.699C58.6093 137.47 58.7055 137.249 58.8267 137.042C59.4453 135.971 60.5512 135.45 61.294 135.878L96.455 156.085C95.7121 155.657 94.6086 156.18 93.99 157.249C93.8693 157.456 93.7731 157.677 93.7034 157.906C93.6198 158.17 93.5794 158.444 93.584 158.72C93.5707 158.964 93.6216 159.207 93.7318 159.425C93.8421 159.643 94.0077 159.829 94.2122 159.963Z" fill="#00081E" stroke="#4FC2E2" stroke-miterlimit="10"/>
<path d="M93.584 158.721L58.423 138.514C58.4163 138.238 58.4558 137.962 58.5401 137.699L93.7034 157.906C93.6198 158.17 93.5794 158.445 93.584 158.721Z" fill="#4FC2E2"/>
<path d="M171.315 62.4973L171.253 84.7087L151.605 73.4506L151.67 51.2368L171.315 62.4973Z" fill="url(#paint4_linear_153_1125)" stroke="#4FC2E2" stroke-linejoin="round"/>
<path d="M190.755 51.1917L190.693 73.4031L171.253 84.7087L171.315 62.4973L190.755 51.1917Z" fill="#2B3244" stroke="#4FC2E2" stroke-linejoin="round"/>
<path d="M151.67 51.2368L171.11 39.9312L190.755 51.1916L171.315 62.4973L151.67 51.2368Z" fill="#00081E" stroke="#4FC2E2" stroke-linejoin="round"/>
<path d="M124.706 87.0893L159.759 66.699C159.978 66.5885 160.221 66.5371 160.466 66.5501C160.71 66.563 160.947 66.6398 161.152 66.7728C161.397 66.9028 161.617 67.0735 161.804 67.2775C161.97 67.4515 162.115 67.6441 162.236 67.8513C162.86 68.9178 162.764 70.1343 162.024 70.5652L126.97 90.9578C127.711 90.5269 127.804 89.3128 127.18 88.2439C127.059 88.0373 126.915 87.8448 126.751 87.6701C126.563 87.4672 126.342 87.2966 126.098 87.1654C125.893 87.0327 125.657 86.9559 125.412 86.9425C125.168 86.9292 124.925 86.9798 124.706 87.0893Z" fill="#00081E" stroke="#4FC2E2" stroke-miterlimit="10"/>
<path d="M126.099 87.1655L161.152 66.7729C161.397 66.9029 161.617 67.0736 161.804 67.2776L126.751 87.6774C126.563 87.4719 126.343 87.2989 126.099 87.1655Z" fill="#4FC2E2"/>
<path d="M64.0168 51.7297L99.0703 31.3371C99.2888 31.2277 99.5322 31.177 99.7764 31.19C100.021 31.2029 100.257 31.2791 100.463 31.4109C100.707 31.5424 100.928 31.7138 101.115 31.918C101.28 32.0922 101.424 32.2847 101.545 32.4917C102.171 33.5583 102.075 34.7748 101.335 35.2057L66.2883 55.584C67.0287 55.1531 67.1219 53.939 66.4961 52.8724C66.3761 52.6649 66.2317 52.4723 66.0662 52.2987C65.8785 52.0958 65.6591 51.9245 65.4165 51.7916C65.2094 51.6592 64.9709 51.5837 64.725 51.5728C64.4792 51.562 64.2349 51.6161 64.0168 51.7297Z" fill="#00081E" stroke="#4FC2E2" stroke-miterlimit="10"/>
<path d="M65.4165 51.7915L100.47 31.3989C100.714 31.5304 100.935 31.7018 101.122 31.906L66.0662 52.2986C65.8786 52.0957 65.6591 51.9244 65.4165 51.7915Z" fill="#4FC2E2"/>
<path d="M49.8293 62.8234L49.7672 85.0348L30.1194 73.7768L30.1839 51.563L49.8293 62.8234Z" fill="url(#paint5_linear_153_1125)" stroke="#4FC2E2" stroke-linejoin="round"/>
<path d="M69.2692 51.5178L69.2071 73.7292L49.7672 85.0349L49.8293 62.8235L69.2692 51.5178Z" fill="#2B3244" stroke="#4FC2E2" stroke-linejoin="round"/>
<path d="M30.1839 51.563L49.6214 40.2573L69.2691 51.5178L49.8292 62.8234L30.1839 51.563Z" fill="#00081E" stroke="#4FC2E2" stroke-linejoin="round"/>
<path d="M94.2122 90.8698L59.0512 70.6629C58.8467 70.5285 58.6811 70.343 58.5709 70.125C58.4607 69.9069 58.4097 69.6639 58.423 69.4202C58.4163 69.1442 58.4558 68.869 58.5401 68.606C58.6093 68.3765 58.7055 68.1559 58.8267 67.9489C59.4453 66.8776 60.5512 66.3563 61.294 66.7824L96.455 86.9893C95.7121 86.5632 94.6086 87.0845 93.99 88.1558C93.8693 88.3631 93.7731 88.5835 93.7034 88.8129C93.6198 89.0761 93.5794 89.351 93.584 89.6271C93.5707 89.8708 93.6216 90.1139 93.7318 90.3319C93.8421 90.5499 94.0077 90.7354 94.2122 90.8698Z" fill="#00081E" stroke="#4FC2E2" stroke-miterlimit="10"/>
<path d="M93.584 89.627L58.423 69.4201C58.4163 69.1441 58.4558 68.869 58.5401 68.606L93.7034 88.8129C93.6198 89.076 93.5794 89.351 93.584 89.627Z" fill="#4FC2E2"/>
<path d="M123.863 156.547L158.916 136.157C159.135 136.047 159.378 135.996 159.622 136.009C159.867 136.022 160.103 136.098 160.309 136.231C160.553 136.361 160.774 136.531 160.961 136.735C161.127 136.909 161.272 137.102 161.393 137.309C162.017 138.378 161.921 139.592 161.181 140.023L126.118 160.416C126.858 159.985 126.951 158.771 126.328 157.704C126.206 157.497 126.062 157.303 125.898 157.128C125.71 156.925 125.49 156.754 125.246 156.623C125.042 156.492 124.807 156.416 124.564 156.403C124.322 156.39 124.08 156.439 123.863 156.547Z" fill="#00081E" stroke="#4FC2E2" stroke-miterlimit="10"/>
<path d="M125.255 156.623L160.309 136.242C160.553 136.372 160.774 136.543 160.961 136.747L125.907 157.128C125.72 156.925 125.499 156.754 125.255 156.623Z" fill="#4FC2E2"/>
<path d="M110.812 166.543L110.75 188.755L91.1024 177.494L91.1668 155.283L110.812 166.543Z" fill="url(#paint6_linear_153_1125)" stroke="#4FC2E2" stroke-linejoin="round"/>
<path d="M130.252 155.235L130.19 177.449L110.75 188.755L110.812 166.543L130.252 155.235Z" fill="#2B3244" stroke="#4FC2E2" stroke-linejoin="round"/>
<path d="M91.1668 155.283L110.607 143.977L130.252 155.235L110.812 166.543L91.1668 155.283Z" fill="#00081E" stroke="#4FC2E2" stroke-linejoin="round"/>
<path d="M113.06 114.488V154.943C113.045 155.186 112.966 155.421 112.832 155.625C112.697 155.829 112.511 155.994 112.293 156.104C112.057 156.249 111.797 156.353 111.526 156.411C111.291 156.466 111.051 156.493 110.81 156.492C109.57 156.492 108.565 155.797 108.565 154.943V114.488C108.565 115.343 109.57 116.036 110.81 116.036C111.051 116.036 111.291 116.009 111.526 115.955C111.797 115.896 112.056 115.793 112.293 115.65C112.511 115.54 112.697 115.375 112.832 115.171C112.966 114.967 113.045 114.732 113.06 114.488Z" fill="#00081E" stroke="#4FC2E2" stroke-miterlimit="10"/>
<path d="M112.293 115.65V156.104C112.057 156.249 111.797 156.353 111.526 156.411V115.955C111.797 115.896 112.056 115.793 112.293 115.65Z" fill="#4FC2E2"/>
<path d="M110.812 97.7666L110.75 119.978L91.1024 108.718L91.1668 86.5061L110.812 97.7666Z" fill="url(#paint7_linear_153_1125)" stroke="#4FC2E2" stroke-linejoin="round"/>
<path d="M130.252 86.4609L130.19 108.672L110.75 119.978L110.812 97.7666L130.252 86.4609Z" fill="#2B3244" stroke="#4FC2E2" stroke-linejoin="round"/>
<path d="M91.1668 86.5061L110.607 75.2004L130.252 86.4609L110.812 97.7666L91.1668 86.5061Z" fill="#00081E" stroke="#4FC2E2" stroke-linejoin="round"/>
</g>
<defs>
<linearGradient id="paint0_linear_153_1125" x1="7" y1="96.5" x2="213" y2="96.5" gradientUnits="userSpaceOnUse">
<stop stop-color="#267EB2"/>
<stop offset="1" stop-color="#4FC2E2"/>
</linearGradient>
<linearGradient id="paint1_linear_153_1125" x1="30.1194" y1="137.076" x2="49.8293" y2="137.076" gradientUnits="userSpaceOnUse">
<stop stop-color="#267EB2"/>
<stop offset="1" stop-color="#4FC2E2"/>
</linearGradient>
<linearGradient id="paint2_linear_153_1125" x1="151.605" y1="136.75" x2="171.315" y2="136.75" gradientUnits="userSpaceOnUse">
<stop stop-color="#267EB2"/>
<stop offset="1" stop-color="#4FC2E2"/>
</linearGradient>
<linearGradient id="paint3_linear_153_1125" x1="90.9996" y1="33.0345" x2="110.709" y2="33.0345" gradientUnits="userSpaceOnUse">
<stop stop-color="#267EB2"/>
<stop offset="1" stop-color="#4FC2E2"/>
</linearGradient>
<linearGradient id="paint4_linear_153_1125" x1="151.605" y1="67.9727" x2="171.315" y2="67.9727" gradientUnits="userSpaceOnUse">
<stop stop-color="#267EB2"/>
<stop offset="1" stop-color="#4FC2E2"/>
</linearGradient>
<linearGradient id="paint5_linear_153_1125" x1="30.1194" y1="68.2989" x2="49.8293" y2="68.2989" gradientUnits="userSpaceOnUse">
<stop stop-color="#267EB2"/>
<stop offset="1" stop-color="#4FC2E2"/>
</linearGradient>
<linearGradient id="paint6_linear_153_1125" x1="91.1024" y1="172.019" x2="110.812" y2="172.019" gradientUnits="userSpaceOnUse">
<stop stop-color="#267EB2"/>
<stop offset="1" stop-color="#4FC2E2"/>
</linearGradient>
<linearGradient id="paint7_linear_153_1125" x1="91.1024" y1="103.242" x2="110.812" y2="103.242" gradientUnits="userSpaceOnUse">
<stop stop-color="#267EB2"/>
<stop offset="1" stop-color="#4FC2E2"/>
</linearGradient>
<clipPath id="clip0_153_1125">
<rect width="160.874" height="184" fill="white" transform="translate(30 4.87378)"/>
</clipPath>
</defs>
</svg>
