<svg width="138" height="44" viewBox="0 0 138 44" fill="none" xmlns="http://www.w3.org/2000/svg">
<g clip-path="url(#clip0_1598_2511)">
<path d="M0 0.222656H1.32812C7.80469 1.96511 13.5547 7.30187 14.0312 14.2873C14.5156 23.8825 14.1797 33.5168 14.1094 43.1199C10.7679 42.8434 7.60067 41.5123 5.0647 39.3186C2.52874 37.1249 0.755195 34.1821 0 30.9149V0.222656Z" fill="white"/>
<path d="M15.7032 13.1699C19.1251 14.1388 22.7345 15.3031 25.0782 18.1238C30.336 23.5934 30.1251 33.0324 24.8985 38.4394C22.5548 41.1352 19.047 42.2213 15.7032 43.0495C15.5079 33.087 15.5548 23.1246 15.7032 13.1699Z" fill="white"/>
<path d="M42.4131 9.3882C44.0068 9.34652 45.6032 9.31527 47.2021 9.29443C47.2568 12.6778 47.2803 16.0689 47.1006 19.4522C49.874 16.6784 54.3193 14.9203 57.8584 17.4363C62.7334 20.8665 62.6865 28.2974 60.3818 33.2356C57.5928 38.3067 50.0615 38.002 46.9287 33.4231C47.0146 34.478 47.0928 35.525 47.1709 36.5486C45.6084 36.632 44.0615 36.7101 42.5303 36.783C42.3193 27.6723 42.5225 18.5302 42.4131 9.3882ZM50.2959 20.5227C45.3896 23.0309 46.1553 33.0793 52.3584 33.1966C59.8506 32.5011 58.1475 17.6863 50.2959 20.5227Z" fill="white"/>
<path d="M64.6006 9.29443L69.2881 9.3882C69.1943 18.5224 69.3506 27.6644 69.1865 36.7987C67.624 36.7596 66.0615 36.7049 64.499 36.619C64.5928 27.5082 64.4912 18.4052 64.6006 9.29443Z" fill="white"/>
<path d="M102.249 9.3335C103.811 9.3335 105.429 9.3335 107.014 9.3335C107.014 14.4905 107.014 19.6476 107.1 24.7968C109.997 21.6111 115.234 16.2407 115.234 16.2407C115.234 16.2407 118.031 16.2407 119.921 16.2407C117.46 19.2724 113.913 23.0855 111.327 26.0078C114.038 29.8443 117.187 33.0401 120.343 36.6971L114.975 36.744C112.093 33.8215 109.728 31.151 107.1 28.3519C107.1 31.8681 107.047 33.7123 107.1 36.744L102.311 36.7205C102.147 27.5863 102.249 18.4599 102.249 9.3335Z" fill="white"/>
<path d="M72.8516 16.561C74.4141 16.561 75.9766 16.522 77.4766 16.5142C77.4766 23.2496 77.5391 29.9928 77.4766 36.736H72.8906C72.8359 29.9928 72.8594 23.273 72.8516 16.561Z" fill="white"/>
<path d="M80.9458 16.5139C82.5083 16.5139 83.9927 16.5139 85.5161 16.5686L85.3755 19.4674C88.563 15.5059 95.8599 14.6776 98.1958 19.8972C99.688 25.3668 98.6099 31.1411 98.8912 36.7279H94.1568C94.0943 32.3913 94.3833 28.0313 94.0396 23.7025C94.1724 19.3502 86.5786 18.9283 86.0474 23.179C85.2661 27.6562 85.7818 32.2194 85.7036 36.7279C84.1411 36.7279 82.5786 36.7279 81.0161 36.7748C80.8599 30.0003 80.938 23.2727 80.9458 16.5139Z" fill="white"/>
<path d="M120.874 22.7419C122.006 14.9282 137.109 14.6781 137.514 20.6244C137.92 26.5708 137.858 31.4775 137.858 36.9004H133.678C133.678 36.9004 133.678 34.994 133.678 34.2126C130.944 36.4629 126.139 38.0802 122.952 35.9002C119.655 34.0327 119.303 28.7116 122.499 26.5707C125.694 24.4297 129.967 25.1017 133.678 24.586C133.702 22.4918 133.202 19.3663 129.687 19.3663C127.734 19.3663 126.171 19.8352 124.609 22.7419C124.609 22.7419 122.265 22.7419 120.874 22.7419ZM125.256 29.5242C123.999 32.5638 127.889 34.4703 130.319 33.1967C132.749 32.5716 133.1 29.8759 133.702 27.8521C130.913 28.0318 127.436 27.2973 125.256 29.5242Z" fill="white"/>
<ellipse cx="75.3901" cy="11.5522" rx="2.73438" ry="2.7348" fill="white"/>
</g>
<defs>
<clipPath id="clip0_1598_2511">
<rect width="138" height="42.8738" fill="white" transform="translate(0 0.222656)"/>
</clipPath>
</defs>
</svg>
