<svg width="138" height="43" viewBox="0 0 138 43" fill="none" xmlns="http://www.w3.org/2000/svg">
<path d="M7.90189 0.5H31.4072C31.4055 3.07293 31.4142 5.64756 31.402 8.22049C24.8801 8.23073 18.3582 8.22902 11.8363 8.22049C10.857 8.14878 10.3186 9.07927 9.68962 9.64951C9.06409 10.4246 7.90189 10.9829 7.92629 12.0978C7.91583 14.4351 7.94894 16.7759 7.91583 19.1149C7.92803 19.6595 7.86182 20.2946 8.29742 20.7146C9.085 21.5341 9.90917 22.3229 10.7298 23.11C11.2456 23.6341 12.0436 23.4924 12.7127 23.5368C16.3126 23.5573 19.9124 23.5539 23.5105 23.5385C23.5297 22.2085 23.5227 20.8785 23.5227 19.5468C19.6929 19.5349 15.863 19.5263 12.0332 19.552C12.0105 17.1156 12.0262 14.6776 12.0245 12.2412C18.4836 12.2361 24.9428 12.2327 31.402 12.2429C31.4124 18.5856 31.4124 24.9266 31.402 31.2693C23.7754 31.2829 16.147 31.271 8.52045 31.2761C7.9925 31.3188 7.54992 31.0166 7.20841 30.6563C4.82651 28.2729 2.39583 25.939 0 23.571V8.24268C2.60144 5.63219 5.23773 3.04732 7.90189 0.5Z" fill="#DDDDDD"/>
<path d="M35.5457 0.5H43.4301C43.4267 6.87854 43.4388 13.2571 43.4232 19.6339C43.3256 20.6498 44.3449 21.1927 44.9391 21.8568C45.6779 22.4885 46.272 23.542 47.3785 23.5163C49.7063 23.5966 52.0377 23.5146 54.3656 23.5607C54.9981 23.542 55.7508 23.6615 56.23 23.1544C57.0245 22.3998 57.7947 21.6178 58.5857 20.8563C58.9395 20.5473 59.1085 20.1017 59.0754 19.6407C59.0597 13.2605 59.0719 6.88024 59.0684 0.5H66.9529C66.9563 7.96098 66.9476 15.422 66.9598 22.8829C67.0156 23.4498 66.6932 23.9346 66.282 24.2966C64.2103 26.2515 62.156 28.2251 60.1783 30.2705C59.6957 30.7622 59.159 31.3563 58.3871 31.2795C53.6129 31.271 48.8404 31.2761 44.0661 31.2778C43.3953 31.3393 42.8952 30.8595 42.4701 30.4241C40.4053 28.2917 38.2621 26.2344 36.1329 24.1651C35.7704 23.8339 35.5073 23.3883 35.5439 22.8881C35.5474 15.4254 35.5457 7.96268 35.5457 0.5Z" fill="#DDDDDD"/>
<path d="M47.5246 0.5H54.97C54.9891 6.8239 54.9578 13.1495 54.9857 19.4734C52.501 19.5144 50.0145 19.4922 47.5298 19.4888C47.5159 13.1598 47.5263 6.82902 47.5246 0.5Z" fill="#DDDDDD"/>
<path d="M71.0475 0.5H94.6033C97.0061 2.87317 99.4177 5.23951 101.841 7.5922C102.251 7.95585 102.502 8.46805 102.46 9.01781C102.448 13.6361 102.46 18.2561 102.455 22.8744C102.512 23.612 101.916 24.1276 101.43 24.5954C100.439 25.5207 99.4995 26.4973 98.5029 27.4176C99.5257 28.3498 100.482 29.3502 101.493 30.2961C101.942 30.7349 102.53 31.1976 102.458 31.8941C102.456 35.4283 102.453 38.9641 102.455 42.5H94.5232C94.5301 40.0517 94.5005 37.6017 94.5737 35.1534C94.6364 34.1 93.5457 33.5741 92.9306 32.881C92.2197 32.2851 91.6935 31.2061 90.6184 31.2693C86.583 31.2744 82.5475 31.2812 78.5138 31.2693C78.5173 32.2885 78.4685 33.3078 78.5103 34.3271C76.0239 34.3698 73.5392 34.3459 71.0527 34.3424C71.0388 30.7383 71.0527 27.1341 71.0405 23.53C77.5694 23.5522 84.1 23.5505 90.6289 23.5505C91.3833 23.6171 91.866 22.9802 92.3434 22.5193C92.9567 21.8688 93.6485 21.2934 94.2461 20.631C94.6852 20.1785 94.5615 19.5076 94.5789 18.9407C94.4779 16.6649 94.5493 14.3873 94.5319 12.1115C94.5999 11.0683 93.5683 10.4998 92.9498 9.81341C92.2406 9.21244 91.6726 8.18634 90.6097 8.2239C84.0913 8.19659 77.5694 8.28878 71.051 8.1761C71.0423 5.61854 71.0475 3.05927 71.0475 0.5Z" fill="#DDDDDD"/>
<path d="M106.542 0.5H114.409C114.334 6.64634 114.495 12.7927 114.421 18.939C114.432 19.569 114.334 20.31 114.853 20.788C115.643 21.6093 116.448 22.4202 117.286 23.192C117.737 23.6376 118.418 23.5454 119 23.5624C121.388 23.5266 123.775 23.5659 126.162 23.5488C126.867 23.6034 127.329 23.0195 127.782 22.5859C128.371 21.9695 129.016 21.4061 129.605 20.7898C130.255 20.1751 129.983 19.2122 130.035 18.4251C130.091 12.4512 130.07 6.47561 130.065 0.5H138V23.5215C135.566 25.9254 133.104 28.302 130.678 30.7144C130.33 31.1002 129.831 31.3171 129.302 31.2812C124.588 31.2727 119.873 31.2693 115.16 31.2829C114.676 31.3068 114.195 31.16 113.871 30.7963C111.586 28.5393 109.286 26.2941 106.99 24.0507C106.293 23.448 106.535 22.4698 106.499 21.6707C106.492 14.6127 106.582 7.55805 106.542 0.5Z" fill="#DDDDDD"/>
<path d="M118.485 0.5H125.934C125.934 6.82732 125.93 13.1563 125.936 19.4837C123.456 19.5024 120.977 19.5007 118.499 19.4854C118.467 13.1563 118.494 6.82902 118.485 0.5Z" fill="#DDDDDD"/>
<path d="M71.0528 12.2431C77.5119 12.2329 83.9711 12.2346 90.4303 12.2414C90.432 14.6572 90.4337 17.0748 90.4303 19.4907C83.9711 19.4958 77.5119 19.4992 71.0528 19.4889C71.0423 17.0731 71.0423 14.6589 71.0528 12.2431Z" fill="#DDDDDD"/>
<path d="M28.2292 37.3132C28.5568 37.3166 28.8861 37.3166 29.2137 37.3132C29.2224 38.003 29.2415 38.6944 29.2433 39.3859C30.0169 39.3825 30.7923 39.3825 31.5677 39.3859C31.5694 38.6944 31.5886 38.0047 31.5955 37.3132C31.9179 37.3166 32.2402 37.3166 32.5626 37.3115C32.6096 39.0205 32.5678 40.7296 32.5887 42.4386C32.2577 42.442 31.9249 42.4454 31.5938 42.4505C31.5868 41.7335 31.5746 41.0147 31.6043 40.2976C30.8045 40.2771 30.0065 40.2771 29.2067 40.2976C29.2346 41.0147 29.2241 41.7335 29.2189 42.4505C28.8721 42.4454 28.5271 42.442 28.1804 42.4386C28.2065 40.7296 28.1316 39.0205 28.2292 37.3132Z" fill="#DDDDDD"/>
<path d="M8.26436 37.3694C9.63216 37.3063 11.0017 37.3387 12.3713 37.3404C12.3695 37.6358 12.3695 37.9311 12.373 38.2282C11.8485 38.2299 11.3258 38.2316 10.8013 38.235C10.8083 39.6367 10.7961 41.0384 10.8083 42.4402C10.4772 42.4419 10.1462 42.4453 9.81512 42.4504C9.80292 41.0538 9.78201 39.6555 9.82732 38.2589C9.30285 38.2384 8.77838 38.2248 8.25391 38.2026C8.25913 37.9243 8.26262 37.6477 8.26436 37.3694Z" fill="#DDDDDD"/>
<path d="M14.8506 37.3472C16.0232 37.3336 17.1959 37.3301 18.3685 37.3353C18.3703 37.6033 18.372 37.8714 18.372 38.1394C17.5374 38.1411 16.7045 38.148 15.8699 38.1377C15.8647 38.5645 15.8577 38.9897 15.849 39.4165C16.6557 39.4233 17.4625 39.4319 18.2692 39.4438C18.2605 39.6965 18.2518 39.9475 18.2466 40.2001C17.4485 40.1916 16.6505 40.2001 15.8542 40.2104C15.8594 40.6748 15.8612 41.1392 15.8612 41.6036C16.7028 41.6001 17.5444 41.607 18.386 41.607C18.4034 41.904 18.4191 42.2011 18.4365 42.4999H14.8645C14.8401 40.7823 14.8628 39.0648 14.8506 37.3472Z" fill="#DDDDDD"/>
<path d="M21.1738 38.2763C21.2435 37.8597 21.5658 37.5114 21.998 37.4448C22.9215 37.269 23.9059 37.2058 24.8224 37.4431C25.5002 37.7026 25.3608 38.5546 25.4741 39.1231C24.8068 39.1436 24.3398 38.7048 23.9861 38.2063C23.4006 38.0714 22.796 38.2336 22.2071 38.2729C22.2071 39.299 22.0572 40.3404 22.2471 41.3563C22.8221 41.8002 23.6254 41.5219 24.298 41.568C24.3746 41.2641 24.4426 40.9585 24.5123 40.6529C24.8486 40.6409 25.1849 40.6256 25.5212 40.6153C25.4549 41.0695 25.4689 41.5475 25.2842 41.976C25.0141 42.4063 24.4252 42.4165 23.9721 42.5002H22.7246C22.174 42.4097 21.3986 42.3312 21.2627 41.679C20.9908 40.5709 20.9455 39.3946 21.1738 38.2763Z" fill="#DDDDDD"/>
<path d="M35.6429 37.2946C36.2789 37.3799 37.2494 37.018 37.577 37.759C38.2374 38.9882 38.8159 40.2568 39.464 41.4946C39.471 40.1082 39.4553 38.7219 39.478 37.3372C39.8056 37.339 40.1349 37.3407 40.4659 37.339C40.4694 39.0412 40.4712 40.7416 40.4659 42.4438C39.9293 42.449 39.3891 42.4899 38.8559 42.4199C37.9272 41.189 37.4724 39.6711 36.65 38.3668C36.6204 39.7241 36.6396 41.0831 36.6343 42.4404C36.3015 42.4404 35.9705 42.4421 35.6394 42.4455C35.6307 40.728 35.6255 39.0121 35.6429 37.2946Z" fill="#DDDDDD"/>
<path d="M43.3932 38.2042C43.5832 37.2907 44.7314 37.3112 45.4754 37.2583C46.2682 37.2822 47.4775 37.2446 47.7266 38.1888C47.995 39.3105 47.9967 40.5107 47.7075 41.6273C47.5629 42.2659 46.8397 42.4161 46.2769 42.4998H44.8551C44.3045 42.399 43.5692 42.2932 43.4037 41.6666C43.097 40.5432 43.1458 39.3327 43.3932 38.2042ZM44.3673 38.2981C44.2348 39.372 44.1965 40.4544 44.4091 41.5215C45.1008 41.5385 45.8048 41.6324 46.4913 41.5129C46.7474 41.4361 46.7596 41.1612 46.7927 40.9478C46.9025 40.0907 46.9007 39.2115 46.7143 38.3646C45.9738 38.0232 45.1426 38.2554 44.3673 38.2981Z" fill="#DDDDDD"/>
<path d="M50.6732 37.3301C51.0077 37.3403 51.3423 37.3506 51.6768 37.3625C51.6437 38.7523 51.6629 40.142 51.6942 41.5318C52.4749 41.5181 53.2555 41.525 54.0378 41.5352C54.05 41.8562 54.0639 42.1772 54.0796 42.4998H50.6645C50.6592 40.7772 50.6488 39.0528 50.6732 37.3301Z" fill="#DDDDDD"/>
<path d="M56.5714 38.2794C56.6272 37.8611 56.9495 37.518 57.3729 37.4343C58.2912 37.2089 59.2826 37.1902 60.1991 37.4428C60.8055 37.5948 60.9919 38.2521 61.0547 38.7882C61.154 39.7614 61.1819 40.7806 60.8717 41.7231C60.6661 42.348 59.9134 42.4282 59.3471 42.4999H58.096C57.5385 42.418 56.7805 42.3189 56.6132 41.6855C56.3188 40.5775 56.371 39.3977 56.5714 38.2794ZM57.6221 38.3426C57.3503 39.3721 57.4426 40.446 57.5855 41.4875C58.3417 41.5284 59.1328 41.6941 59.8698 41.4448C60.1364 40.4341 60.1887 39.3141 59.8559 38.3153C59.131 38.136 58.3382 38.1172 57.6221 38.3426Z" fill="#DDDDDD"/>
<path d="M63.766 38.3169C63.8113 37.8508 64.1929 37.4752 64.6651 37.412C65.6025 37.2549 66.5905 37.2208 67.5209 37.4461C68.1639 37.5913 68.1395 38.3425 68.3015 38.8393C67.9949 38.8478 67.6899 38.8615 67.385 38.8666C66.878 37.9925 65.5868 37.9464 64.8115 38.4449C64.693 39.4471 64.5675 40.5364 64.9299 41.5027C65.613 41.6632 66.3221 41.583 67.0156 41.5556C67.0661 41.1971 67.1289 40.8403 67.1968 40.4852C66.7595 40.4613 66.3221 40.4425 65.8865 40.422C65.89 40.1915 65.897 39.961 65.9074 39.7322C66.6793 39.7408 67.4512 39.7322 68.2231 39.7186C68.1987 40.3964 68.2388 41.0861 68.0855 41.7537C67.9374 42.3717 67.1777 42.4076 66.6584 42.4998H65.2349C64.6372 42.4213 63.8705 42.2232 63.7555 41.5403C63.5586 40.4783 63.6231 39.3805 63.766 38.3169Z" fill="#DDDDDD"/>
<path d="M71.0142 37.3369C71.3435 37.3386 71.6728 37.3403 72.0039 37.3386C72.0091 39.0391 72.0056 40.7396 72.0056 42.4401C71.6728 42.4401 71.3418 42.4418 71.0107 42.4452C71.002 40.743 70.995 39.0391 71.0142 37.3369Z" fill="#DDDDDD"/>
<path d="M74.9262 37.3405C76.1111 37.332 77.2959 37.3337 78.4825 37.3354C78.4843 37.6034 78.4843 37.8715 78.486 38.1395C77.6392 38.1395 76.7924 38.1481 75.9473 38.1429C75.9421 38.5664 75.9333 38.9898 75.9212 39.4149C76.7418 39.4234 77.5625 39.432 78.3832 39.4439C78.3727 39.6966 78.3658 39.9476 78.3605 40.2003C77.5486 40.19 76.7366 40.1985 75.9246 40.2139C75.9333 40.6749 75.9386 41.1359 75.9368 41.5985C76.7889 41.5917 77.6392 41.619 78.4912 41.6225C78.5017 41.9144 78.5139 42.2064 78.5261 42.5H74.9402C74.9071 40.7807 74.9297 39.0598 74.9262 37.3405Z" fill="#DDDDDD"/>
<path d="M81.439 37.6171C82.3816 37.1168 83.5839 37.221 84.598 37.4515C85.2636 37.6307 85.1503 38.4127 85.227 38.9317C84.6538 38.8412 84.0997 38.5732 83.7198 38.1378C83.2459 38.0712 82.7632 38.1344 82.2875 38.16C82.2388 38.5288 82.2109 38.901 82.176 39.2715C83.0908 39.4081 84.0474 39.3961 84.9221 39.712C85.5163 40.1746 85.3647 41.0761 85.2427 41.7232C85.1259 42.3242 84.4203 42.4129 83.915 42.5H82.4879C82.0819 42.4078 81.5784 42.3771 81.3153 42.0203C81.1567 41.6498 81.1114 41.2468 81.0312 40.8559C81.3797 40.849 81.7282 40.849 82.0784 40.8388C82.1098 41.1205 82.2527 41.3749 82.2858 41.6566C82.9566 41.6925 83.6327 41.6481 84.2809 41.4705C84.2774 41.1273 84.2774 40.7859 84.2722 40.4444C83.509 40.3351 82.7371 40.2839 81.9791 40.1388C80.8274 39.9715 80.9476 38.3427 81.439 37.6171Z" fill="#DDDDDD"/>
</svg>
