<svg width="138" height="45" viewBox="0 0 138 45" fill="none" xmlns="http://www.w3.org/2000/svg">
<g clip-path="url(#clip0_1541_2505)">
<g clip-path="url(#clip1_1541_2505)">
<path d="M51.0732 21.4168L53.7342 2.93896H54.0373L61.59 18.0977L69.0549 2.93896H69.3535L72.0277 21.4168H70.2361L68.4006 8.20151L61.8139 21.4168H61.3397L54.6915 8.10107L52.8691 21.4168H51.0732Z" fill="white"/>
<path d="M81.5213 13.4644V21.2163H80.5333V19.9061C80.1469 20.3837 79.6636 20.7751 79.115 21.0547C78.5814 21.3119 77.9955 21.4434 77.4025 21.439C76.8734 21.4462 76.3485 21.3435 75.8615 21.1374C75.3746 20.9314 74.9362 20.6265 74.5745 20.2423C74.1944 19.8615 73.8953 19.4085 73.6946 18.9104C73.4939 18.4122 73.3959 17.8791 73.4065 17.3425C73.3981 16.8103 73.4985 16.2819 73.7016 15.7895C73.9046 15.297 74.2061 14.8507 74.5877 14.4776C74.9537 14.0959 75.3949 13.7935 75.8837 13.5891C76.3726 13.3847 76.8985 13.2828 77.4288 13.2897C78.0391 13.2781 78.6427 13.4177 79.1852 13.6959C79.7295 13.9909 80.1971 14.4081 80.5509 14.9143V13.4862L81.5213 13.4644ZM77.5123 14.2287C76.9672 14.2249 76.4313 14.3678 75.9612 14.6422C75.4912 14.9167 75.1047 15.3125 74.8424 15.7878C74.56 16.2613 74.4086 16.8007 74.4033 17.3512C74.4096 17.903 74.561 18.4436 74.8424 18.9191C75.1095 19.4011 75.5025 19.8024 75.9798 20.0808C76.4387 20.3604 76.9653 20.5114 77.5035 20.5175C78.0516 20.5185 78.5906 20.377 79.0668 20.107C79.5401 19.8443 79.9318 19.4576 80.1996 18.9889C80.4666 18.5032 80.6028 17.9571 80.5949 17.4036C80.6096 16.9891 80.5393 16.5759 80.3883 16.1893C80.2373 15.8026 80.0088 15.4506 79.7166 15.1545C79.4349 14.8552 79.093 14.6181 78.7133 14.4586C78.3336 14.2991 77.9244 14.2208 77.5123 14.2287Z" fill="white"/>
<path d="M83.4097 13.4641H84.4328V14.5996C84.6863 14.2069 85.0145 13.8672 85.3989 13.5995C85.7119 13.3861 86.0819 13.2705 86.4615 13.2676C86.7718 13.2796 87.074 13.3698 87.3397 13.5296L86.8172 14.3725C86.6511 14.2922 86.4704 14.2461 86.2859 14.2371C85.9244 14.2486 85.5801 14.3934 85.3199 14.6433C84.9666 14.9925 84.7212 15.435 84.6128 15.9185C84.4487 16.801 84.3854 17.699 84.424 18.5956V21.216H83.4097V13.4641Z" fill="white"/>
<path d="M89.061 10.5903H90.0621V13.464H91.6517V14.3375H90.0621V21.2245H89.061V14.3375H87.6909V13.464H89.061V10.5903Z" fill="white"/>
<path d="M93.5092 10.276C93.6179 10.274 93.7259 10.2942 93.8264 10.3355C93.9269 10.3768 94.0178 10.4384 94.0933 10.5162C94.1714 10.5923 94.2331 10.6834 94.2747 10.784C94.3162 10.8847 94.3366 10.9927 94.3347 11.1014C94.3352 11.2636 94.2872 11.4222 94.1967 11.557C94.1062 11.6919 93.9775 11.7969 93.8268 11.8588C93.676 11.9206 93.5102 11.9364 93.3504 11.9042C93.1907 11.872 93.0441 11.7932 92.9295 11.6779C92.8526 11.6027 92.7917 11.513 92.7502 11.4139C92.7087 11.3149 92.6876 11.2087 92.688 11.1014C92.6871 10.9928 92.7081 10.8851 92.7496 10.7846C92.791 10.6841 92.8522 10.5929 92.9295 10.5162C93.0045 10.4389 93.0947 10.3777 93.1943 10.3364C93.294 10.2951 93.4012 10.2746 93.5092 10.276ZM93.0131 13.4641H94.0141V21.216H93.0131V13.4641Z" fill="white"/>
<path d="M96.0956 13.4642H97.0968V14.8529C97.446 14.3672 97.895 13.9608 98.4141 13.6607C98.9023 13.3986 99.4491 13.2634 100.004 13.2676C100.553 13.2568 101.092 13.4088 101.554 13.7044C102 13.9908 102.349 14.4049 102.555 14.8922C102.808 15.6427 102.917 16.4339 102.876 17.2244V21.2117H101.874V17.5126C101.897 16.915 101.86 16.3168 101.765 15.7264C101.682 15.2749 101.445 14.8659 101.093 14.5691C100.721 14.2975 100.267 14.1603 99.8062 14.1804C99.2083 14.1777 98.6296 14.3902 98.177 14.7787C97.7087 15.1576 97.3761 15.6769 97.2285 16.2592C97.1068 16.9554 97.0582 17.6624 97.0836 18.3686V21.2117H96.0825L96.0956 13.4642Z" fill="white"/>
<path d="M67.856 32.7104H73.6434C75.7424 32.7104 77.0773 33.217 77.9072 34.0206C78.2701 34.3708 78.5541 34.7937 78.7403 35.2612C78.9265 35.7288 79.0107 36.2303 78.9874 36.7327V36.7676C78.9999 37.5163 78.7838 38.251 78.3674 38.8749C77.9511 39.4987 77.3543 39.9822 76.6558 40.2614L79.4133 44.1482H74.8949L72.6598 40.8815H71.8168V44.1482H67.8647L67.856 32.7104ZM73.5249 38.152C74.4734 38.152 75.0486 37.7415 75.0486 37.0428V37.0078C75.0486 36.2741 74.4558 35.9116 73.5424 35.9116H71.8168V38.152H73.5249Z" fill="white"/>
<path d="M83.2514 32.6318H87.1772L92.1655 44.1526H87.8709L87.243 42.6154H83.0978L82.4918 44.1526H78.2588L83.2514 32.6318ZM86.2638 39.9033L85.1792 37.1257L84.099 39.9033H86.2638Z" fill="white"/>
<path d="M92.2842 32.7104H96.2362V44.1482H92.2842V32.7104Z" fill="white"/>
<path d="M97.2241 32.7104H100.926L105.141 37.759V32.7104H109.067V44.1482H105.554L101.163 38.8726V44.1482H97.2373L97.2241 32.7104Z" fill="white"/>
<path d="M111.385 38.4665V38.4272C111.385 35.1867 114.174 32.4092 118.091 32.4092C122.007 32.4092 124.756 35.143 124.756 38.3835V38.4272C124.756 41.6677 121.968 44.4453 118.047 44.4453C114.125 44.4453 111.385 41.707 111.385 38.4665ZM120.009 38.4665V38.4272C120.016 38.1646 119.971 37.9032 119.876 37.6581C119.781 37.4129 119.638 37.1889 119.456 36.9989C119.273 36.809 119.055 36.6568 118.813 36.5511C118.571 36.4455 118.311 36.3884 118.047 36.3834C117.788 36.3867 117.533 36.4414 117.295 36.5443C117.058 36.6472 116.844 36.7962 116.666 36.9826C116.488 37.1689 116.348 37.3889 116.257 37.6294C116.165 37.87 116.123 38.1264 116.132 38.3835V38.4272C116.124 38.6894 116.169 38.9505 116.264 39.1953C116.358 39.4402 116.501 39.664 116.683 39.8537C116.865 40.0434 117.083 40.1952 117.325 40.3004C117.567 40.4057 117.827 40.4622 118.091 40.4667C118.35 40.464 118.605 40.4097 118.843 40.307C119.081 40.2044 119.295 40.0555 119.474 39.869C119.653 39.6826 119.792 39.4625 119.884 39.2216C119.976 38.9808 120.019 38.724 120.009 38.4665Z" fill="white"/>
<path d="M125.345 32.6799H130.289V34.2783C130.712 33.711 131.26 33.2476 131.891 32.9236C132.522 32.5996 133.219 32.4236 133.929 32.4092C136.432 32.4092 138 34.0076 138 36.593V44.1701H133.056V38.1302C133.056 37.1433 132.445 36.5755 131.707 36.5755C131.51 36.5784 131.314 36.6217 131.134 36.7028C130.954 36.7838 130.792 36.9009 130.659 37.0467C130.526 37.1925 130.425 37.3639 130.361 37.5503C130.297 37.7367 130.273 37.9341 130.289 38.1302V44.1701H125.345V32.6799Z" fill="white"/>
<path d="M50.4761 24.3037H58.8982C60.9884 24.3037 62.5692 24.886 63.6407 26.0506C64.4791 26.9718 64.9261 28.1802 64.8878 29.4221V29.4789C64.8952 29.9862 64.83 30.4921 64.6945 30.9812C64.5737 31.3949 64.3996 31.7912 64.1764 32.1604C63.9704 32.4995 63.7193 32.8095 63.4299 33.0818C63.1507 33.3425 62.8428 33.5711 62.5121 33.7632C63.4742 34.1277 64.3278 34.7287 64.9932 35.5101C65.6444 36.411 65.9638 37.5075 65.8978 38.6152V38.6719C65.9167 39.4921 65.7532 40.3063 65.4191 41.0564C65.1088 41.7267 64.6366 42.3103 64.0446 42.7553C63.4013 43.2323 62.6704 43.5795 61.893 43.7772C60.9843 44.0132 60.0481 44.1277 59.109 44.1179H50.4761V24.3037ZM58.0596 32.3307C58.794 32.3672 59.5237 32.1944 60.1629 31.8328C60.425 31.6594 60.6353 31.4192 60.7721 31.1372C60.9088 30.8553 60.9669 30.5419 60.9402 30.23V30.1733C60.9575 29.8853 60.9052 29.5974 60.7875 29.3337C60.6698 29.07 60.4903 28.8382 60.2639 28.6578C59.6923 28.2725 59.0077 28.0881 58.3187 28.1338H54.3667V32.3307H58.0596ZM59.1222 40.3271C59.8528 40.3687 60.5784 40.1841 61.1992 39.7987C61.4532 39.6127 61.6558 39.3658 61.7878 39.0809C61.9199 38.7961 61.9772 38.4826 61.9544 38.1697V38.1129C61.9659 37.8149 61.9086 37.5182 61.7868 37.2457C61.665 36.9732 61.482 36.732 61.2519 36.5407C60.7865 36.1535 60.0326 35.9598 58.9904 35.9598H54.3711V40.3271H59.1222Z" fill="white"/>
<path d="M35.612 9.44644C36.2136 8.45945 35.3794 7.54671 34.4792 6.52041C33.6611 5.70236 32.7688 4.96112 31.8138 4.3062C28.6038 3.36724 25.956 2.88684 23.9317 2.88684C23.0527 2.8593 22.1759 2.99254 21.3453 3.27991C19.2639 4.09221 18.5306 5.18839 18.311 5.90025C21.9425 3.46333 27.5324 3.58564 30.0749 3.96122C32.7096 4.3499 33.4692 6.14484 33.5 8.16687C33.5307 10.1889 35.0061 10.4378 35.612 9.44644Z" fill="white"/>
<path d="M3.56567 10.9092C3.41198 11.1144 3.26268 11.3197 3.12656 11.5206C2.42503 12.5221 1.85407 13.608 1.42725 14.7524C1.67315 14.1803 1.95857 13.5907 2.30547 13.0055C2.68606 12.284 3.10674 11.5841 3.56567 10.9092Z" fill="white"/>
<path d="M4.18031 33.545C4.4623 33.6489 4.76509 33.6845 5.06368 33.6488C5.36226 33.6131 5.64799 33.5071 5.8972 33.3397C6.77542 32.7065 6.36263 30.667 5.86643 28.3087C5.43959 26.5319 5.17077 24.7213 5.06293 22.8977C5.01901 21.3473 5.56783 18.6003 6.85443 15.5957C7.06521 15.0978 7.29358 14.5956 7.54827 14.0933C8.98856 11.2153 11.5881 7.2586 15.786 4.7518C16.7573 4.16852 17.7876 3.68838 18.8598 3.31934C20.7796 2.66568 22.8041 2.36959 24.8318 2.44589C26.7501 2.52208 28.6493 2.85405 30.4787 3.43289C32.4158 4.04274 34.2892 4.83691 36.073 5.80432C34.7468 4.64242 33.2535 3.68414 31.6424 2.96125C29.7385 2.1034 27.7064 1.56051 25.6265 1.35408C25.2533 1.31478 24.8625 1.28423 24.4673 1.26676C21.9221 1.16111 19.3767 1.47091 16.9322 2.18387C8.6461 4.52907 4.5096 9.42474 2.49407 13.102C1.31716 15.2507 0.526556 17.5873 0.157962 20.0066C-0.23446 23.388 0.0476228 26.8132 0.987945 30.0861C1.61149 31.7457 2.88492 33.1476 4.18031 33.545Z" fill="white"/>
<path d="M44.4604 19.3164C44.2847 17.7442 43.9335 14.7788 43.9335 14.7788C43.6851 16.1433 43.566 17.528 43.5778 18.9146C43.5778 20.0283 43.5119 23.1159 41.6281 23.2425H41.514C39.6609 23.2425 37.6453 20.1593 36.7276 19.2727C36.5635 19.097 36.3662 18.9552 36.1469 18.8556C35.9277 18.7559 35.6907 18.7003 35.4498 18.6919C35.2481 18.6848 35.0479 18.7283 34.8676 18.8184C34.6872 18.9084 34.5326 19.0421 34.4178 19.2072C34.0797 19.7487 34.3125 20.7314 35.0151 20.8231C35.4354 20.8627 35.8575 20.8787 36.2797 20.8711C36.9647 20.8711 37.6278 20.8493 37.6278 20.8493C37.6278 20.8493 39.6652 26.5616 37.4828 31.1734C36.8195 32.6516 35.8724 33.9868 34.6945 35.1039L34.7911 35.1869C32.4697 37.8873 29.2193 39.6297 25.6751 40.0739C24.9631 40.1657 24.2458 40.211 23.5278 40.2093C21.0495 40.1732 18.5932 39.7427 16.2518 38.934C12.5794 37.6686 9.11302 35.875 5.96329 33.6104C5.63981 33.817 5.26316 33.9262 4.8787 33.9248C4.61615 33.9215 4.35559 33.8788 4.10586 33.7981C3.03787 33.3939 2.13358 32.6511 1.53271 31.6844C3.18817 36.091 6.25312 40.0302 11.1317 42.3011C15.2418 44.214 18.9654 45.0132 22.3246 45.0132C29.4778 45.0132 34.9843 41.3971 39.0813 37.2395C45.1059 31.121 44.636 20.8842 44.4604 19.3164Z" fill="white"/>
<path d="M7.37704 6.76898C10.1624 4.50078 13.3995 2.84561 16.875 1.91261C19.6632 1.09372 22.5802 0.797537 25.4773 1.03917C27.6547 1.24153 29.7828 1.80392 31.7741 2.70311C33.7119 3.55125 35.4702 4.75759 36.9556 6.25805L37.4607 6.82575L36.7976 6.45018C36.1916 6.10953 35.5944 5.79507 35.0016 5.4981C36.6922 7.10961 36.9732 9.89157 37.1576 11.6996C37.2064 12.2711 37.355 12.8297 37.5967 13.3504C37.6977 13.2238 37.8031 13.1015 37.9085 12.9835C38.7867 11.9703 39.643 11.0096 37.8778 7.81713L37.5441 7.21007L38.071 7.6468C38.1017 7.673 41.0174 10.1929 40.3763 14.0841C40.328 14.4129 40.2257 14.7316 40.0734 15.0274C40.2021 15.0342 40.331 15.0342 40.4597 15.0274C40.9032 15.0251 41.345 14.9739 41.7771 14.8746C44.763 14.202 44.4118 11.0489 43.7487 9.31511C43.4018 8.41546 38.2159 3.0088 33.5437 1.59819C30.2659 0.561983 26.8526 0.0116319 23.4135 -0.0351562C14.4951 -0.0351562 8.87439 4.37575 4.93555 9.13604C5.6858 8.28466 6.50216 7.4932 7.37704 6.76898Z" fill="white"/>
<path d="M7.09158 15.6781C5.81816 18.6522 5.27805 21.3556 5.33513 22.8885C5.44318 24.6957 5.70914 26.4901 6.12995 28.2514C6.64371 30.684 7.05204 32.6187 6.19138 33.431C9.30508 35.6585 12.728 37.4238 16.3525 38.6717C21.4067 40.3356 28.45 41.1173 33.8863 35.7631C32.0683 37.1125 29.886 37.8026 27.3655 38.1083C27.0374 38.1446 26.7076 38.1621 26.3775 38.1607C21.4243 38.1607 11.7506 34.5795 9.27396 26.4347C6.91153 18.661 11.7682 11.6865 12.8484 10.2759L12.642 10.3938C9.28282 12.3765 7.7634 14.5645 7.28037 15.3725C7.1662 15.5384 7.10915 15.6476 7.09158 15.6781Z" fill="white"/>
<path d="M21.2532 3.04372C21.5747 2.92258 21.907 2.83192 22.2456 2.77295C20.9802 2.92291 19.7384 3.22806 18.5483 3.68137C17.6346 4.02631 16.753 4.45011 15.9136 4.94788C11.786 7.41537 9.21716 11.3109 7.79004 14.154C9.21305 12.4084 10.9716 10.9624 12.9628 9.90031C14.9125 8.66001 19.6285 8.67746 19.6285 8.67746C19.6285 8.67746 18.1443 7.17951 17.9906 6.61177C17.9568 6.45046 17.9568 6.28394 17.9906 6.12264C18.1267 5.32343 18.86 3.96957 21.2532 3.04372Z" fill="white"/>
<path d="M30.738 3.74271C28.7865 3.08939 26.7494 2.72305 24.6914 2.65527C26.7385 2.81502 28.7643 3.17933 30.738 3.74271Z" fill="white"/>
<path d="M39.1735 21.4344C40.3678 22.3821 41.0573 22.1856 41.9663 21.0326C42.8752 19.8797 42.2385 18.4123 41.088 17.7004C39.9376 16.9886 39.0066 17.4559 38.5016 18.3206C37.9966 19.1853 38.4709 20.8798 39.1735 21.4344Z" fill="white"/>
<path d="M38.8702 15.7306C39.1784 15.6648 39.4526 15.4912 39.6431 15.2415C39.6733 15.2055 39.7012 15.1675 39.7265 15.1279C39.7549 15.0909 39.7798 15.0514 39.8011 15.01C39.9674 14.7168 40.0776 14.3955 40.126 14.0623C40.273 13.0723 40.2044 12.0623 39.9248 11.1009C39.6453 10.1395 39.1613 9.24902 38.5057 8.48975C39.7967 11.2236 38.9449 12.2062 38.0974 13.1539C37.9744 13.298 37.8427 13.4465 37.7241 13.5906C37.6934 13.6256 37.667 13.6649 37.6363 13.7042L37.5749 13.7959C37.4283 13.9877 37.3428 14.2188 37.3295 14.4593C37.3162 14.6998 37.3756 14.9388 37.5001 15.1454C37.6457 15.3658 37.8532 15.5387 38.0967 15.6427C38.3403 15.7468 38.6093 15.7773 38.8702 15.7306Z" fill="white"/>
<path d="M22.6671 10.193C22.6408 9.22344 21.1522 8.44612 20.577 8.98766C19.848 9.66021 20.0193 11.4202 21.0688 11.8307C22.1183 12.2412 22.6935 11.1581 22.6671 10.193Z" fill="white"/>
</g>
</g>
<defs>
<clipPath id="clip0_1541_2505">
<rect width="138" height="45" fill="white"/>
</clipPath>
<clipPath id="clip1_1541_2505">
<rect width="138" height="45" fill="white"/>
</clipPath>
</defs>
</svg>
