<svg width="138" height="27" viewBox="0 0 138 27" fill="none" xmlns="http://www.w3.org/2000/svg">
<g clip-path="url(#clip0_1245_12179)">
<path d="M51.7508 3.28564C50.1874 3.28564 48.6805 3.97335 47.6245 5.14584C46.5986 3.97335 45.1029 3.28564 43.5246 3.28564C40.4506 3.28564 37.9478 5.81851 37.9478 8.93387V20.7752C37.9478 21.5719 38.5941 22.2183 39.3908 22.2183C40.1875 22.2183 40.8339 21.5719 40.8339 20.7752V8.93387C40.8339 7.41189 42.0402 6.17176 43.5208 6.17176C45.0015 6.17176 46.1739 7.38558 46.1739 8.93387V20.7752C46.1739 21.5719 46.8203 22.2183 47.617 22.2183C48.4137 22.2183 49.0601 21.5719 49.0601 20.7752V8.93387C49.0601 7.41189 50.2664 6.17176 51.7508 6.17176C53.2352 6.17176 54.4377 7.41189 54.4377 8.93387V20.7752C54.4377 21.5719 55.0841 22.2183 55.8808 22.2183C56.6774 22.2183 57.3238 21.5719 57.3238 20.7752V8.93387C57.3238 5.81851 54.8248 3.28564 51.7508 3.28564Z" fill="white"/>
<path d="M61.0028 3.21045C60.2098 3.21045 59.5597 3.85682 59.5597 4.64975L59.5259 20.7714C59.5259 21.1585 59.6762 21.5193 59.9468 21.7936C60.2211 22.0679 60.5819 22.2182 60.9689 22.2182C61.7619 22.2182 62.412 21.5719 62.412 20.7789L62.4458 4.65727C62.4458 4.2702 62.2955 3.90943 62.0249 3.6351C61.7506 3.36077 61.3898 3.21045 61.0028 3.21045Z" fill="white"/>
<path d="M72.2993 10.7826L72.2091 10.7375C70.6045 9.98215 68.609 9.0389 68.609 8.00922C68.609 6.14903 71.6003 6.09642 71.6304 6.09642C72.9569 6.09642 74.5015 6.62629 74.5015 7.31024V7.40419C74.5015 8.21591 75.1441 8.87731 75.9596 8.88107C76.7487 8.88107 77.3876 8.21591 77.3876 7.40419V7.31024C77.3876 5.90852 76.5721 4.73228 75.099 3.99196C74.1407 3.49215 72.8743 3.20654 71.6266 3.20654C70.379 3.20654 68.9998 3.56355 67.9476 4.18737C66.5308 5.03667 65.7191 6.42712 65.7191 8.00546C65.7191 10.7713 68.3346 12.0603 70.8675 13.3042L70.9803 13.3606C73.0584 14.3639 75.0163 15.3109 75.0163 16.7502C75.0163 18.866 72.63 19.2718 71.2208 19.3282C69.1689 19.3282 67.5004 17.8814 67.5004 16.9344V16.8066C67.5004 16.4083 67.3425 16.0362 67.0569 15.7619C66.7713 15.4876 66.3692 15.3222 65.9446 15.356C65.1967 15.3899 64.6143 16.0099 64.6143 16.7615V16.9344C64.6143 19.7453 67.7183 22.2143 71.2696 22.2143C76.1662 22.0978 77.9024 19.1967 77.9024 16.7502C77.9024 13.5409 74.9261 12.0716 72.2993 10.7788" fill="white"/>
<path d="M87.7939 10.7826L87.7037 10.7375C86.0991 9.98215 84.1036 9.0389 84.1036 8.00922C84.1036 6.14903 87.0949 6.09642 87.125 6.09642C88.4553 6.09642 89.9961 6.62629 89.9961 7.31024V7.40419C89.9961 8.21591 90.6387 8.87731 91.4542 8.88107C92.2434 8.88107 92.8822 8.21591 92.8822 7.40419V7.31024C92.8822 5.90852 92.0667 4.73228 90.5936 3.99196C89.6353 3.49215 88.3689 3.20654 87.1213 3.20654C85.8736 3.20654 84.4944 3.56355 83.4422 4.18737C82.0254 5.03667 81.2137 6.42712 81.2137 8.00546C81.2137 10.7713 83.8293 12.0603 86.3621 13.3042L86.4749 13.3606C88.5493 14.3639 90.5109 15.3109 90.5109 16.7502C90.5109 18.866 88.1246 19.2718 86.7154 19.3282C84.6598 19.3282 82.995 17.8814 82.995 16.9344V16.8404C82.995 16.0287 82.3524 15.3673 81.5369 15.3636C80.7477 15.3636 80.1089 16.0287 80.1089 16.8404V16.9344C80.1089 19.7453 83.213 22.2143 86.7642 22.2143C91.6609 22.0978 93.3971 19.1967 93.3971 16.7502C93.3971 13.5409 90.4207 12.0753 87.7939 10.7788" fill="white"/>
<path d="M97.0721 3.21045C96.2792 3.21045 95.629 3.85682 95.629 4.64975L95.5952 20.7714C95.5952 21.1585 95.7455 21.5193 96.0161 21.7936C96.2904 22.0679 96.6512 22.2182 97.0383 22.2182C97.8312 22.2182 98.4813 21.5719 98.4813 20.7789L98.5151 4.65727C98.5151 4.2702 98.3648 3.90943 98.0943 3.6351C97.8199 3.36077 97.4592 3.21045 97.0721 3.21045Z" fill="white"/>
<path d="M110.168 3.24805C104.937 3.24805 100.683 7.50206 100.683 12.7332C100.683 17.9642 104.937 22.2183 110.168 22.2183C115.399 22.2183 119.691 17.9642 119.691 12.7332C119.691 7.50206 115.418 3.24805 110.168 3.24805ZM116.805 12.7332C116.805 16.3709 113.828 19.3321 110.168 19.3321C106.508 19.3321 103.569 16.3709 103.569 12.7332C103.569 9.09544 106.53 6.13416 110.168 6.13416C113.806 6.13416 116.805 9.09544 116.805 12.7332Z" fill="white"/>
<path d="M133.829 7.5772C132.852 4.80007 130.758 3.21045 128.09 3.21045C125.422 3.21045 123.333 4.80383 122.356 7.5772C122.017 8.52045 121.852 9.52007 121.852 10.6287V20.7752C121.852 21.5719 122.502 22.2182 123.295 22.2182C124.088 22.2182 124.738 21.5719 124.738 20.7752V10.6287C124.738 9.85077 124.855 9.13676 125.084 8.55052C125.655 6.90077 126.64 6.09657 128.09 6.09657C129.541 6.09657 130.525 6.90077 131.1 8.56555C131.322 9.13676 131.442 9.85077 131.442 10.6287V20.7752C131.442 21.5719 132.089 22.2182 132.885 22.2182C133.682 22.2182 134.328 21.5719 134.328 20.7752V10.6287C134.328 9.51631 134.163 8.5167 133.825 7.5772" fill="white"/>
<path d="M13.5886 2.01139C13.5886 2.15419 13.5736 2.29324 13.5473 2.43228C13.5473 2.43228 13.5473 2.43228 13.5473 2.43604C13.5322 2.5112 13.5097 2.5826 13.4871 2.654C13.4683 2.71413 13.4533 2.77426 13.4308 2.83063C13.4007 2.90579 13.3669 2.97343 13.3331 3.04483C13.3068 3.09368 13.2842 3.13878 13.2579 3.18388C13.2128 3.25903 13.1677 3.32668 13.1151 3.39432C13.0926 3.42439 13.0662 3.45445 13.0399 3.48451C13.0249 3.49954 13.0136 3.51833 13.0024 3.52961C13.0211 3.52961 13.0362 3.52961 13.055 3.52961C15.4075 3.52961 17.6585 4.37139 19.4473 5.93471C21.4052 7.64458 22.5777 10.0159 22.7543 12.6126C22.7994 13.2778 22.7768 13.9504 22.6866 14.6043C22.5626 15.51 23.1977 16.348 24.1034 16.4758C25.0053 16.5998 25.8471 15.9647 25.9749 15.059C26.0951 14.1797 26.1252 13.2815 26.065 12.3909C25.8321 8.91101 24.2575 5.73178 21.6306 3.43942C20.1838 2.17674 18.5228 1.26356 16.6964 0.733682C15.4037 0.361644 14.0734 0.200051 12.728 0.233873C13.2466 0.654765 13.5886 1.29362 13.5886 2.01139Z" fill="white"/>
<path d="M8.98548 2.01185C8.98548 1.86529 9.00051 1.72248 9.03057 1.58344C9.04185 1.52707 9.06064 1.47446 9.07191 1.42185C9.09446 1.33917 9.11701 1.26025 9.14707 1.18134C9.16962 1.12121 9.19968 1.06108 9.22975 1.00471C9.26357 0.940828 9.29739 0.873185 9.33497 0.813057C9.34624 0.794267 9.35376 0.77172 9.36879 0.75293C8.55331 0.989681 7.76038 1.30159 7.00879 1.69242C8.10611 1.88784 8.94414 2.84236 8.94414 3.99605C8.94414 4.16516 8.92159 4.31924 8.88777 4.46204C9.28612 4.27414 9.69573 4.11255 10.1204 3.98102C9.44771 3.57892 8.993 2.84987 8.993 2.01185" fill="white"/>
<path d="M8.94371 22.0942C9.0076 22.3047 9.04893 22.5226 9.04893 22.7519C9.04893 23.8191 8.31613 24.7098 7.33154 24.9691C8.16205 25.3787 9.0339 25.7094 9.95084 25.9349C9.94709 25.9274 9.93957 25.9198 9.93581 25.9123C9.91702 25.886 9.90199 25.8597 9.8832 25.8334C9.81932 25.747 9.76295 25.653 9.71409 25.5591C9.6953 25.5177 9.67651 25.4764 9.65772 25.4351C9.61639 25.3449 9.58256 25.2509 9.55626 25.157C9.54498 25.1156 9.52995 25.0781 9.52244 25.0367C9.48862 24.9014 9.46607 24.7624 9.45855 24.6196C9.42097 23.9958 9.63142 23.3907 10.0486 22.9247C10.1425 22.8195 10.244 22.7293 10.3492 22.6504C10.3567 22.6429 10.368 22.6354 10.3755 22.6279C9.87944 22.4851 9.40218 22.3084 8.94747 22.0942" fill="white"/>
<path d="M6.50111 20.4746C4.68601 18.8287 3.51353 16.51 3.34066 13.9207C3.16779 11.324 4.01334 8.81743 5.72321 6.85953C5.81716 6.75431 5.91111 6.65284 6.00506 6.55138C6.00882 6.54762 6.01633 6.54011 6.02009 6.53635C6.18168 6.371 6.35079 6.21316 6.52366 6.05909L6.5913 5.99896C6.72659 5.8787 6.86563 5.75093 7.00843 5.63819C7.08359 5.57807 7.15499 5.5217 7.2264 5.46909L7.30531 5.41272C7.42181 5.32628 7.48945 5.27743 7.56086 5.22858L7.62474 5.18724C7.62474 5.18724 7.63977 5.16845 7.65105 5.16093C7.65105 5.16093 7.66984 5.14966 7.67735 5.14214L7.77882 5.0745C8.12831 4.71373 8.27863 4.39055 8.27863 3.99972C8.27863 3.06399 7.51576 2.29736 6.57627 2.29736H6.46729C6.26436 2.29736 6.03512 2.29736 5.8848 2.34622C5.69315 2.47023 5.46391 2.62431 5.24219 2.78966C4.90773 3.03392 4.59958 3.31201 4.27639 3.60138L4.07722 3.78552C3.93442 3.9208 3.79537 4.05985 3.66009 4.19889C3.50225 4.368 3.36321 4.51832 3.22792 4.6724C0.931805 7.30297 -0.203101 10.6664 0.0298932 14.1425C0.266645 17.6674 1.93894 20.8467 4.47932 23.0714C4.46429 22.9662 4.4455 22.8609 4.4455 22.752C4.4455 21.5682 5.34741 20.5987 6.50111 20.4746Z" fill="white"/>
<path d="M9.45508 24.6196C9.46259 24.7624 9.4889 24.9015 9.51896 25.0368C9.48514 24.9015 9.46259 24.7624 9.45508 24.6196Z" fill="white"/>
<path d="M11.259 26.1867L11.2966 26.1942C11.3792 26.2054 11.4619 26.2205 11.5446 26.228H11.5559L11.8302 26.2618C12.221 26.2994 12.6156 26.3182 13.0064 26.3182H13.0891C13.3672 26.3182 13.6453 26.3107 13.9271 26.2881L14.1864 26.2656C14.551 26.2318 14.9155 26.1791 15.2762 26.1153C15.3326 26.104 15.389 26.104 15.4453 26.0927C15.8775 26.0138 16.2909 25.9161 16.6855 25.7996C18.1811 25.3637 19.5754 24.676 20.823 23.7515C20.8794 23.7102 20.947 23.6876 21.0147 23.6876C21.0973 23.6876 21.18 23.7214 21.2439 23.7816L23.7542 26.2919C23.8256 26.3633 23.9008 26.4234 23.9797 26.476C24.6261 26.9307 25.5468 26.8443 26.1029 26.2919C26.257 26.1378 26.3773 25.9612 26.4599 25.7582C26.723 25.1344 26.5802 24.4204 26.1029 23.9431L22.578 20.4182C22.578 20.4182 22.5028 20.3581 22.4991 20.3543C21.8452 19.5426 20.7103 19.4862 20.0226 20.1251C19.8873 20.219 19.8008 20.2829 19.7257 20.3543C18.0947 21.8913 15.9564 22.827 13.7129 22.9774H13.5814L13.5138 22.9849H13.1304C12.8749 22.9886 12.6043 22.9886 12.3488 22.9661C12.191 22.951 12.0068 22.936 11.8302 22.9172C11.7325 22.906 11.6348 22.8909 11.5408 22.8796C11.5258 22.8796 11.5145 22.8872 11.4995 22.8872C11.0636 22.9285 10.7892 23.0563 10.5299 23.3494C10.2293 23.6876 10.0752 24.1235 10.1015 24.5782C10.1278 25.033 10.327 25.4501 10.669 25.7507L10.7517 25.8259C10.8193 25.886 10.8907 25.9499 10.9621 26.0063C10.9696 26.0138 10.9771 26.0213 10.9846 26.0251C11.0523 26.0814 11.1199 26.1228 11.1838 26.1566C11.1951 26.1603 11.2026 26.1679 11.2139 26.1716L11.2627 26.1791L11.259 26.1867Z" fill="white"/>
<path d="M10.3456 22.6509C10.2403 22.7298 10.1426 22.82 10.0449 22.9252C10.1389 22.82 10.2403 22.7298 10.3456 22.6509Z" fill="white"/>
<path d="M9.52246 25.0366C9.53373 25.078 9.54501 25.1155 9.55628 25.1569C9.54501 25.1155 9.52998 25.078 9.52246 25.0366Z" fill="white"/>
<path d="M9.65771 25.4351C9.6765 25.4764 9.69529 25.5177 9.71408 25.5591C9.69154 25.5177 9.6765 25.4764 9.65771 25.4351Z" fill="white"/>
<path d="M10.9466 0.39188C10.9053 0.399396 10.864 0.418186 10.8226 0.42946C10.7738 0.444492 10.7212 0.455766 10.6723 0.478313C10.6159 0.500861 10.5671 0.530925 10.5145 0.557231C10.4769 0.57602 10.4393 0.59481 10.4055 0.617358C10.3566 0.647422 10.3115 0.685001 10.2664 0.718823C10.2326 0.745129 10.1988 0.771435 10.1687 0.801498C10.1274 0.839078 10.0898 0.880416 10.0522 0.921753C10.0222 0.955575 9.99211 0.989397 9.96581 1.02698C9.93574 1.06831 9.90568 1.11341 9.87562 1.15851C9.84931 1.19984 9.82676 1.24494 9.80421 1.29003C9.78167 1.33513 9.75912 1.37647 9.74409 1.42156C9.72154 1.47793 9.70651 1.5343 9.69148 1.59443C9.6802 1.63201 9.66893 1.66959 9.66141 1.71093C9.64262 1.81239 9.63135 1.91386 9.63135 2.01908C9.63135 2.93226 10.3754 3.67634 11.2886 3.67634C11.3112 3.67634 11.3337 3.67258 11.3563 3.66883L11.4352 3.66131C11.8861 3.61997 12.2845 3.39825 12.5588 3.06755C12.5701 3.05252 12.5814 3.04125 12.5926 3.02997C12.634 2.9736 12.6753 2.91723 12.7091 2.85711C12.7242 2.8308 12.7392 2.80449 12.7505 2.77819C12.7805 2.72182 12.8068 2.66545 12.8294 2.60532C12.8407 2.57526 12.8482 2.54144 12.8594 2.50761C12.8782 2.44749 12.897 2.38736 12.9083 2.32347C12.9271 2.22577 12.9384 2.1243 12.9384 2.01908C12.9384 1.10589 12.1943 0.361816 11.2811 0.361816C11.2172 0.361816 11.1533 0.37309 11.0932 0.380606C11.0443 0.388122 10.9917 0.39188 10.9429 0.399396" fill="white"/>
<path d="M8.40681 22.752C8.40681 22.1996 8.13248 21.711 7.71535 21.4104C7.68152 21.3878 7.65146 21.3691 7.61764 21.3465C7.36585 21.1887 7.06897 21.0947 6.74955 21.0947C5.83636 21.0947 5.09229 21.8388 5.09229 22.752C5.09229 23.2255 5.29522 23.6501 5.61464 23.9545C5.75369 24.0522 5.89649 24.1537 6.03929 24.2439C6.25725 24.3491 6.49401 24.4093 6.74955 24.4093C7.66273 24.4093 8.40681 23.6652 8.40681 22.752Z" fill="white"/>
<path d="M137.929 2.31627C137.884 2.1622 137.82 2.01564 137.737 1.88411C137.658 1.75258 137.56 1.63232 137.448 1.5271C137.335 1.42188 137.215 1.33169 137.083 1.26029C136.952 1.18888 136.813 1.13251 136.666 1.09118C136.35 1.0085 136.008 1.01602 135.719 1.10245C135.565 1.14755 135.418 1.21143 135.287 1.29411C135.155 1.37302 135.035 1.47073 134.934 1.58347C134.828 1.69245 134.738 1.81646 134.667 1.94799C134.595 2.07952 134.535 2.21857 134.498 2.36513C134.46 2.51169 134.438 2.66201 134.438 2.81233C134.438 2.98895 134.46 3.1543 134.505 3.30838C134.55 3.46245 134.614 3.60901 134.697 3.74054C134.779 3.87207 134.873 3.99233 134.986 4.09755C135.095 4.20277 135.219 4.29296 135.351 4.36437C135.482 4.43577 135.621 4.49214 135.768 4.53347C135.914 4.57105 136.065 4.5936 136.215 4.5936C136.388 4.5936 136.553 4.57105 136.711 4.52596C136.869 4.48086 137.012 4.41698 137.143 4.3343C137.275 4.25538 137.391 4.15768 137.496 4.04494C137.602 3.9322 137.692 3.81194 137.763 3.68042C137.835 3.54889 137.891 3.40984 137.932 3.26328C137.97 3.11672 137.993 2.9664 137.993 2.81608C137.993 2.64322 137.97 2.47787 137.925 2.32003M137.594 2.81608C137.594 2.95137 137.575 3.07914 137.542 3.19564C137.508 3.31589 137.459 3.42863 137.395 3.5301C137.335 3.63156 137.26 3.72551 137.173 3.80443C137.087 3.8871 136.993 3.9585 136.888 4.01487C136.786 4.07124 136.677 4.11634 136.565 4.1464C136.32 4.21405 136.061 4.20653 135.835 4.13889C135.715 4.10507 135.602 4.05621 135.501 3.99233C135.4 3.9322 135.306 3.85704 135.227 3.77061C135.148 3.68417 135.076 3.59022 135.016 3.48876C134.96 3.38729 134.915 3.27831 134.885 3.16182C134.855 3.04908 134.84 2.93258 134.84 2.81608C134.84 2.68455 134.858 2.55678 134.892 2.44029C134.926 2.32003 134.975 2.20729 135.039 2.10959C135.103 2.00812 135.174 1.91417 135.26 1.83525C135.347 1.75258 135.441 1.68118 135.542 1.62481C135.644 1.56844 135.753 1.52334 135.869 1.48952C135.982 1.45946 136.102 1.44067 136.223 1.44067C136.354 1.44067 136.482 1.45946 136.602 1.49328C136.722 1.5271 136.835 1.57595 136.937 1.63984C137.038 1.69997 137.132 1.77513 137.211 1.86156C137.294 1.94799 137.361 2.04194 137.421 2.14341C137.478 2.24487 137.523 2.35385 137.557 2.47035C137.587 2.58309 137.602 2.69959 137.602 2.81608" fill="white"/>
<path d="M136.767 3.00728C136.854 2.96218 136.929 2.90581 136.989 2.83817C137.072 2.73671 137.113 2.60894 137.113 2.43983C137.113 2.32333 137.087 2.21811 137.034 2.13543C136.985 2.05276 136.914 1.98511 136.824 1.9325C136.741 1.88365 136.64 1.84607 136.523 1.82352C136.414 1.80097 136.294 1.79346 136.166 1.79346H135.685C135.659 1.79346 135.633 1.79346 135.602 1.80097C135.572 1.80849 135.542 1.81976 135.516 1.83479C135.486 1.85358 135.463 1.87613 135.445 1.9062C135.426 1.93626 135.415 1.97384 135.415 2.01518V3.70626C135.415 3.77766 135.448 3.83403 135.508 3.86034C135.58 3.8904 135.67 3.8904 135.741 3.87161C135.809 3.85282 135.85 3.80021 135.847 3.73257V3.11626C135.847 3.11626 135.873 3.12002 135.884 3.12002H136.159C136.2 3.12002 136.238 3.12002 136.271 3.12002C136.29 3.12002 136.305 3.12002 136.324 3.12002L136.692 3.79645C136.715 3.83779 136.756 3.86785 136.813 3.88289C136.85 3.89416 136.891 3.89792 136.929 3.89792C136.97 3.89792 137.012 3.88664 137.046 3.86785C137.094 3.84155 137.124 3.79269 137.124 3.73633C137.124 3.72129 137.124 3.7025 137.117 3.68747L136.756 3.01104L136.767 3.00728ZM136.576 2.25944C136.643 2.30078 136.673 2.35339 136.673 2.42855V2.46613C136.673 2.51499 136.662 2.55632 136.643 2.58263C136.621 2.61269 136.591 2.639 136.553 2.65403C136.508 2.67282 136.456 2.68785 136.395 2.69913C136.328 2.70664 136.26 2.71416 136.185 2.71416H135.892C135.892 2.71416 135.869 2.71416 135.858 2.71792V2.18804H136.185C136.365 2.18804 136.493 2.21435 136.576 2.25944Z" fill="white"/>
<path d="M35.9187 12.2108C35.9187 11.4178 35.2723 10.7715 34.4794 10.7677L29.6504 10.7339C29.2634 10.7339 28.9026 10.8842 28.6283 11.1548C28.3539 11.4254 28.2036 11.7899 28.2036 12.1769C28.2036 12.9699 28.85 13.6162 29.6429 13.62L34.4719 13.6538C34.859 13.6538 35.2197 13.5035 35.4941 13.2329C35.7684 12.9624 35.9187 12.5978 35.9187 12.2108Z" fill="white"/>
</g>
<defs>
<clipPath id="clip0_1245_12179">
<rect width="138" height="26.5388" fill="white" transform="translate(0 0.230469)"/>
</clipPath>
</defs>
</svg>
