<svg width="192" height="35" viewBox="0 0 192 35" fill="none" xmlns="http://www.w3.org/2000/svg">
<path d="M39.6707 17.437L35.026 25.4074L33.2831 22.4169L36.1849 17.437L28.5036 4.25979L28.0185 3.42759H11.6945L4.51181 15.7504L4.0132 16.6048L3.53255 17.437L4.0132 18.2648L11.6945 31.442H17.4982L19.2411 34.437H9.95163L0.0422668 17.437L1.02152 15.7504L9.95163 0.437012H29.7614L39.6707 17.437Z" fill="white"/>
<path d="M18.8772 15.7504H10.3155L14.5963 8.40747H23.1536L18.8772 15.7504Z" fill="white"/>
<path d="M26.846 23.4939L30.3768 17.4371L25.1166 8.40747L19.8565 17.4371H9.33621L14.5963 26.4622H21.6578L26.3025 34.4371H29.7614L31.4908 31.4643L26.846 23.4939Z" fill="white"/>
<path d="M60.1902 29.168C59.1346 29.168 58.3036 29.0256 57.7061 28.7408C57.1087 28.456 56.6909 28.0288 56.4574 27.4591C56.2238 26.8895 56.098 26.1819 56.0845 25.3319C54.1395 25.1005 52.6616 24.3707 51.6509 23.1468C50.6402 21.923 50.1371 20.1474 50.1371 17.8199C50.1371 15.0607 50.775 13.0848 52.0507 11.8788C53.3264 10.6772 55.1861 10.0764 57.6253 10.0764C60.0644 10.0764 61.9241 10.6772 63.1999 11.8788C64.4756 13.0803 65.1135 15.0607 65.1135 17.8199C65.1135 20.0984 64.6283 21.8474 63.6536 23.0667C62.6833 24.2861 61.2683 25.0248 59.4221 25.2874C59.4221 25.7814 59.5119 26.1241 59.6916 26.3154C59.8713 26.5068 60.1767 26.6047 60.6125 26.6047C61.0931 26.6047 61.5827 26.5424 62.0814 26.4178V28.9366C61.8478 28.9989 61.5423 29.0523 61.1605 29.0968C60.7787 29.1413 60.4553 29.168 60.1947 29.168H60.1902ZM57.6253 22.2568C58.883 22.2568 59.8084 21.9008 60.3879 21.1843C60.9718 20.4678 61.2638 19.3463 61.2638 17.8199C61.2638 16.1555 60.9718 14.9806 60.3879 14.2953C59.8039 13.6099 58.883 13.2673 57.6253 13.2673C56.3675 13.2673 55.4197 13.6099 54.8358 14.2953C54.2518 14.9806 53.9598 16.1555 53.9598 17.8199C53.9598 19.3463 54.2518 20.4678 54.8358 21.1843C55.4197 21.9008 56.3496 22.2568 57.6253 22.2568Z" fill="white"/>
<path d="M70.8228 25.4252C69.5156 25.4252 68.4959 25.0603 67.7682 24.326C67.036 23.5961 66.6722 22.5281 66.6722 21.1263V14.2417H70.4275V20.9215C70.4275 21.5357 70.5802 21.9896 70.8812 22.2744C71.1821 22.5592 71.6403 22.7016 72.2468 22.7016C72.696 22.7016 73.1272 22.6082 73.5315 22.4257C73.9358 22.2388 74.2682 22.0119 74.5332 21.7315V14.2417H78.2885V25.1938H74.7892L74.6724 24.2681C74.2232 24.6064 73.6752 24.8823 73.0373 25.1003C72.3995 25.3139 71.6628 25.4252 70.8228 25.4252Z" fill="white"/>
<path d="M86.5897 25.4252C84.6626 25.4252 83.1129 24.9534 81.9495 24.0055C80.7816 23.0576 80.2021 21.6291 80.2021 19.7199C80.2021 17.9799 80.6827 16.5914 81.6485 15.5589C82.6143 14.5265 84.0607 14.0103 85.9878 14.0103C87.7442 14.0103 89.1052 14.4553 90.071 15.3498C91.0368 16.2443 91.5174 17.4459 91.5174 18.9545V20.9171H83.6789C83.8496 21.6425 84.2494 22.1453 84.8783 22.4301C85.5071 22.715 86.3651 22.8574 87.4567 22.8574C88.0631 22.8574 88.683 22.804 89.3119 22.6972C89.9408 22.5904 90.4663 22.4524 90.8841 22.2833V24.7087C90.354 24.9534 89.7251 25.1359 88.9929 25.2516C88.2607 25.3673 87.4612 25.4252 86.5897 25.4252ZM83.6744 18.772H88.2473V18.287C88.2473 17.7485 88.0856 17.3212 87.7576 17.0053C87.4297 16.6893 86.8772 16.5336 86.1001 16.5336C85.1972 16.5336 84.5683 16.716 84.209 17.0765C83.8496 17.437 83.6744 18.0066 83.6744 18.7765V18.772Z" fill="white"/>
<path d="M93.4265 25.1938V14.2417H96.9932L97.11 15.2563C97.5906 14.9626 98.1881 14.7 98.9068 14.4597C99.621 14.2194 100.335 14.0726 101.054 14.0103V16.805C100.65 16.8495 100.2 16.9252 99.7109 17.0231C99.2212 17.1254 98.7541 17.2411 98.3094 17.3791C97.8646 17.5171 97.4873 17.6639 97.1774 17.8197V25.1893H93.4221L93.4265 25.1938Z" fill="white"/>
<path d="M104.949 29.2613C104.387 29.2613 103.911 29.2346 103.516 29.1812C103.12 29.1278 102.725 29.021 102.339 28.8697V26.2797C102.604 26.3731 102.846 26.4354 103.075 26.4666C103.3 26.4977 103.529 26.5111 103.763 26.5111C104.401 26.5111 104.877 26.3998 105.196 26.1773C105.515 25.9548 105.838 25.5587 106.166 24.9891L101.198 14.2417H105.142L108.057 21.1975L110.927 14.2417H114.844L110.622 24.2948C110.2 25.2961 109.737 26.1684 109.22 26.916C108.708 27.6637 108.111 28.2422 107.424 28.6472C106.741 29.0566 105.914 29.2613 104.953 29.2613H104.949Z" fill="white"/>
<path d="M121.299 25.1939V10.3123H129.228C130.737 10.3123 131.874 10.6683 132.646 11.3759C133.414 12.0835 133.801 13.0848 133.801 14.3798C133.801 15.1675 133.648 15.8261 133.347 16.3557C133.046 16.8853 132.642 17.2992 132.148 17.5929C132.83 17.8376 133.369 18.2026 133.756 18.6787C134.147 19.1549 134.34 19.8714 134.34 20.8282C134.34 22.2479 133.922 23.3293 133.082 24.0769C132.242 24.8246 131.038 25.1984 129.466 25.1984H121.304L121.299 25.1939ZM125.055 16.3646H128.109C128.761 16.3646 129.237 16.2178 129.533 15.924C129.83 15.6303 129.978 15.2209 129.978 14.7002C129.978 14.1306 129.83 13.7034 129.533 13.4185C129.237 13.1337 128.702 12.9913 127.925 12.9913H125.055V16.3646ZM125.055 22.5327H128.482C129.165 22.5327 129.677 22.3947 130.009 22.1143C130.342 21.8384 130.513 21.3445 130.513 20.6369C130.513 20.0672 130.351 19.64 130.023 19.3552C129.695 19.0704 129.138 18.928 128.343 18.928H125.055V22.5327Z" fill="white"/>
<path d="M139.658 25.4253C138.445 25.4253 137.574 25.1627 137.044 24.6376C136.514 24.1124 136.253 23.2758 136.253 22.1187V9.61792H140.009V21.7493C140.009 22.1054 140.081 22.3457 140.229 22.4792C140.377 22.6082 140.597 22.675 140.894 22.675C141.316 22.675 141.689 22.6216 142.012 22.5148V25.0336C141.653 25.1716 141.302 25.2739 140.952 25.3318C140.602 25.3941 140.17 25.4253 139.658 25.4253Z" fill="white"/>
<path d="M149.195 25.4252C147.066 25.4252 145.493 24.9356 144.483 23.9566C143.472 22.9775 142.969 21.5668 142.969 19.7155C142.969 17.8642 143.476 16.4712 144.496 15.4877C145.516 14.4998 147.079 14.0103 149.195 14.0103C151.311 14.0103 152.901 14.5042 153.92 15.4877C154.94 16.4757 155.448 17.882 155.448 19.7155C155.448 21.549 154.945 22.9775 153.929 23.9566C152.919 24.9356 151.342 25.4252 149.195 25.4252ZM149.195 22.5147C150.066 22.5147 150.686 22.3011 151.059 21.8694C151.432 21.4377 151.62 20.7212 151.62 19.7199C151.62 18.7186 151.432 18.0021 151.059 17.5705C150.686 17.1388 150.062 16.9252 149.195 16.9252C148.328 16.9252 147.726 17.1432 147.353 17.5705C146.98 18.0021 146.792 18.7186 146.792 19.7199C146.792 20.7212 146.98 21.4377 147.353 21.8694C147.726 22.3011 148.341 22.5147 149.195 22.5147Z" fill="white"/>
<path d="M163.192 25.4252C161.215 25.4252 159.675 24.9491 158.561 23.9922C157.447 23.0354 156.894 21.6114 156.894 19.7155C156.894 17.8197 157.474 16.3556 158.632 15.4166C159.791 14.4776 161.332 14.0059 163.264 14.0059C164.072 14.0059 164.778 14.0637 165.375 14.1794C165.972 14.2951 166.552 14.482 167.113 14.7446V17.3792C166.242 16.9653 165.222 16.7561 164.059 16.7561C162.972 16.7561 162.141 16.9742 161.575 17.4014C161.009 17.8331 160.721 18.603 160.721 19.7111C160.721 20.7436 160.986 21.4956 161.512 21.9629C162.042 22.4347 162.882 22.6661 164.032 22.6661C165.182 22.6661 166.202 22.4347 167.136 21.9718V24.7221C166.574 24.9669 165.972 25.1449 165.33 25.2517C164.683 25.3585 163.973 25.4119 163.196 25.4119L163.192 25.4252Z" fill="white"/>
<path d="M169.045 25.1938V9.61792H172.8V17.753L176.416 14.2417H180.684L176.25 18.7944L180.94 25.1938H176.951L173.896 20.7569L172.8 21.8205V25.1938H169.045Z" fill="white"/>
<path d="M185.885 25.4253C185.001 25.4253 184.161 25.363 183.365 25.2384C182.57 25.1138 181.941 24.9625 181.474 24.7755V21.9318C182.018 22.1632 182.647 22.3413 183.365 22.4614C184.08 22.586 184.718 22.6483 185.279 22.6483C185.948 22.6483 186.433 22.6172 186.734 22.5549C187.04 22.4926 187.188 22.3235 187.188 22.0475C187.188 21.7405 186.941 21.5091 186.442 21.3533C185.944 21.1975 185.261 20.975 184.39 20.6813C183.379 20.3253 182.611 19.9159 182.094 19.4441C181.573 18.9724 181.313 18.2782 181.313 17.3525C181.313 16.2755 181.721 15.4478 182.539 14.8693C183.356 14.2907 184.659 14.0015 186.447 14.0015C187.148 14.0015 187.839 14.0549 188.522 14.1617C189.205 14.2685 189.767 14.3931 190.202 14.531V17.3258C189.767 17.1255 189.268 16.9787 188.711 16.8852C188.149 16.7918 187.646 16.7473 187.193 16.7473C186.618 16.7473 186.133 16.7829 185.737 16.8496C185.342 16.9208 185.144 17.0855 185.144 17.3481C185.144 17.6418 185.36 17.8465 185.796 17.9622C186.231 18.0779 186.86 18.2648 187.687 18.5274C188.558 18.7899 189.237 19.0703 189.717 19.3729C190.198 19.6711 190.539 20.0316 190.741 20.4454C190.943 20.8593 191.047 21.3844 191.047 22.0164C191.047 23.1112 190.611 23.9478 189.74 24.5352C188.868 25.1227 187.588 25.4119 185.89 25.4119L185.885 25.4253Z" fill="white"/>
</svg>
