<svg width="120" height="31" viewBox="0 0 120 31" fill="none" xmlns="http://www.w3.org/2000/svg">
<path d="M46.723 21.8727H48.4312V11.4317H52.3793V10H42.7749V11.4317H46.723V21.8727Z" fill="#4FC2E2"/>
<path d="M55.8858 16.4393H58.5522L61.3385 21.8727H63.1432V21.7807L60.5433 16.7795H59.2573V16.3964C59.5895 16.3557 59.9188 16.2942 60.2433 16.2124C60.3483 16.1867 60.4576 16.1589 60.5498 16.1289L60.6355 16.1011C61.2267 15.9265 61.7545 15.5846 62.1551 15.1167C62.5939 14.5642 62.8218 13.874 62.7981 13.1693C62.8056 12.6094 62.6636 12.0577 62.3866 11.5708C62.0746 11.061 61.6107 10.6614 61.0599 10.428C60.4497 10.1427 59.6417 10 58.6358 10H54.199V21.8727H55.8773L55.8858 16.4393ZM55.8858 11.3696H58.5372C59.4524 11.3696 60.1018 11.5301 60.4898 11.849C60.6863 12.0216 60.8407 12.237 60.941 12.4785C61.0413 12.72 61.0849 12.9812 61.0685 13.2421C61.0833 13.5028 61.039 13.7636 60.9388 14.0048C60.8386 14.246 60.6851 14.4615 60.4898 14.6352C60.1018 14.9648 59.4524 15.1296 58.5372 15.1296H55.8858V11.3696Z" fill="#4FC2E2"/>
<path d="M67.6228 10L63.7519 21.7807V21.8727H65.413L66.5062 18.4166H71.363L72.4561 21.8727H74.2394V21.7807L70.3663 10H67.6228ZM66.9584 16.9935L68.7502 11.3311H69.1168L70.9086 16.9935H66.9584Z" fill="#4FC2E2"/>
<path d="M87.8968 21.8727L90.1388 10.092V10H88.5527L86.6022 20.593H86.2357L83.9038 10H81.006L78.7061 20.593H78.3396L76.357 10H74.6809V10.092L76.9529 21.8727H79.9086L82.2255 11.2947H82.592L84.924 21.8727H87.8968Z" fill="#4FC2E2"/>
<path d="M99.3295 20.441H93.7203V10H92.0121V21.8727H99.3295V20.441Z" fill="#4FC2E2"/>
<path d="M102.866 16.1653H107.532V14.7957H102.866V11.4317H108.782V10H101.16V21.8727H108.874V20.441H102.866V16.1653Z" fill="#4FC2E2"/>
<path d="M117.402 16.7796H116.14V16.3966C116.466 16.3563 116.79 16.2963 117.109 16.2168C117.85 16.0721 118.523 15.6869 119.023 15.1211C119.46 14.5677 119.687 13.8782 119.666 13.1737C119.673 12.6138 119.531 12.0621 119.254 11.5752C118.942 11.0654 118.478 10.6658 117.927 10.4324C117.319 10.1471 116.511 10.0044 115.503 10.0044H111.069V21.8728H112.745V16.4394H115.411L118.197 21.8728H119.996V21.7808L117.402 16.7796ZM115.396 15.1275H112.745V11.3697H115.396C116.311 11.3697 116.961 11.5302 117.349 11.8491C117.545 12.0218 117.7 12.2371 117.8 12.4786C117.9 12.7201 117.944 12.9813 117.927 13.2422C117.942 13.503 117.898 13.7637 117.798 14.0049C117.698 14.2462 117.544 14.4617 117.349 14.6354C116.961 14.9649 116.311 15.1297 115.396 15.1297V15.1275Z" fill="#4FC2E2"/>
<path d="M14.4484 15.8424L1.38461 15.8039C1.38461 15.8039 1.75541 18.2028 2.88496 19.8485L3.11216 19.9255C3.4314 20.0367 3.77821 20.0412 4.10024 19.9384L5.60059 19.4654C6.409 19.2108 7.27633 19.2108 8.08474 19.4654L9.60652 19.9469C9.91609 20.0453 10.2486 20.0453 10.5582 19.9469L12.0821 19.4654C12.8898 19.2108 13.7564 19.2108 14.5641 19.4654L16.088 19.9469C16.3976 20.0453 16.7301 20.0453 17.0397 19.9469L18.5615 19.4654C19.3699 19.2108 20.2372 19.2108 21.0456 19.4654L22.5695 19.9469C22.8783 20.0454 23.2102 20.0454 23.519 19.9469L25.0472 19.4654C25.8557 19.2108 26.723 19.2108 27.5314 19.4654L28.0051 19.6174C28.0715 18.3869 28.3352 16.5122 29.2547 14.9094C30.3389 13.1058 31.5874 11.4059 32.9841 9.83114C32.9841 9.83114 28.4338 9.70702 24.3057 11.2885C20.1775 12.8699 16.8918 15.744 14.4484 15.8424ZM26.7319 12.2044C26.8896 12.2048 27.0437 12.2519 27.1745 12.3398C27.3054 12.4276 27.4073 12.5522 27.4672 12.6978C27.5272 12.8434 27.5425 13.0035 27.5114 13.1579C27.4802 13.3122 27.4039 13.4539 27.2921 13.5649C27.1803 13.6759 27.038 13.7514 26.8832 13.7817C26.7285 13.812 26.5682 13.7958 26.4227 13.7351C26.2771 13.6745 26.1529 13.5721 26.0656 13.441C25.9784 13.3098 25.932 13.1558 25.9325 12.9983C25.9353 12.7887 26.0208 12.5886 26.1705 12.4416C26.3202 12.2945 26.5219 12.2124 26.7319 12.213V12.2044ZM23.6091 15.0763C23.4515 15.0759 23.2977 15.0289 23.1669 14.9412C23.0361 14.8536 22.9342 14.7292 22.8742 14.5839C22.8141 14.4385 22.7985 14.2786 22.8293 14.1244C22.8601 13.9701 22.936 13.8285 23.0474 13.7173C23.1588 13.6061 23.3007 13.5303 23.4551 13.4995C23.6096 13.4687 23.7697 13.4843 23.9153 13.5443C24.0609 13.6043 24.1855 13.706 24.2733 13.8366C24.361 13.9672 24.4081 14.1208 24.4085 14.2781C24.4097 14.3836 24.3898 14.4883 24.3502 14.5862C24.3105 14.684 24.2518 14.773 24.1774 14.848C24.1031 14.9231 24.0146 14.9826 23.917 15.0233C23.8194 15.0639 23.7148 15.0848 23.6091 15.0848V15.0763Z" fill="#4FC2E2"/>
<path d="M28.6609 21.1539L27.1349 20.666C26.5771 20.4888 25.978 20.4888 25.4202 20.666L23.8963 21.1539C23.3381 21.3289 22.7397 21.3289 22.1816 21.1539L20.6577 20.6724C20.0998 20.4957 19.5008 20.4957 18.943 20.6724L17.4212 21.1539C16.863 21.3285 16.2647 21.3285 15.7065 21.1539L14.1847 20.6724C13.6269 20.4957 13.0279 20.4957 12.47 20.6724L10.9483 21.1539C10.3901 21.3285 9.79176 21.3285 9.23357 21.1539L7.71179 20.6724C7.15392 20.4957 6.55497 20.4957 5.99711 20.6724L4.49676 21.1411C3.91703 21.3252 3.29337 21.3185 2.71777 21.1218L0 20.1909C1.40428 23.3955 3.71124 26.1233 6.64011 28.0426C9.56898 29.9618 12.9935 30.9897 16.4968 31.001C20.0001 31.0123 23.4312 30.0067 26.3724 28.1065C29.3137 26.2062 31.6383 23.4933 33.0634 20.2979L30.3778 21.1539C29.819 21.3294 29.2197 21.3294 28.6609 21.1539Z" fill="#4FC2E2"/>
<path d="M1.22814 12.3264C1.46006 12.3264 1.68249 12.2344 1.84649 12.0707C2.01049 11.9069 2.10263 11.6848 2.10263 11.4533C2.10244 11.4124 2.09886 11.3716 2.09191 11.3313L7.08378 6.34724V9.18915H5.4484V10.623H6.43863V15.0121H13.591L14.7034 10.623H15.7279V9.18915H12.8237V8.00359H13.2031C13.2504 8.00303 13.2957 7.98385 13.329 7.9502C13.3623 7.91655 13.381 7.87114 13.381 7.82383V7.18183C13.381 7.13473 13.3622 7.08955 13.3289 7.05624C13.2955 7.02293 13.2502 7.00422 13.2031 7.00422H10.2259C10.2026 7.00422 10.1794 7.00881 10.1579 7.01774C10.1363 7.02666 10.1167 7.03975 10.1001 7.05624C10.0836 7.07274 10.0705 7.09231 10.0616 7.11386C10.0526 7.13541 10.048 7.15851 10.048 7.18183V7.82383C10.048 7.87114 10.0667 7.91655 10.1 7.9502C10.1333 7.98385 10.1786 8.00303 10.2259 8.00359H10.6053V9.18915H7.94755V5.48482L11.8056 1.63282C11.9041 1.53461 12.0205 1.45615 12.1485 1.40171C12.2578 1.54302 12.4072 1.64816 12.5772 1.70344C12.69 2.1123 12.8333 2.51218 13.0059 2.8997V2.9104C13.4147 3.79611 13.9705 4.60646 14.6498 5.3072C14.9804 5.65141 15.3388 5.96778 15.7215 6.25308C16.1199 6.54539 16.5422 6.80381 16.9839 7.02562C17.4516 7.26051 17.9403 7.45109 18.4436 7.59486C18.6938 7.66881 18.9478 7.72952 19.2045 7.77675C19.5223 7.83952 19.8437 7.88311 20.1668 7.9073C20.3919 7.92442 20.6191 7.93298 20.8441 7.93298C21.0263 7.93298 21.2021 7.93298 21.3778 7.91586C21.6859 7.89796 21.9929 7.86367 22.2973 7.81314C22.5888 7.76178 22.8674 7.69971 23.1246 7.62909C23.6342 7.49202 24.1295 7.30642 24.6036 7.07484C25.0499 6.85984 25.4766 6.60636 25.8789 6.31728C26.2708 6.03756 26.638 5.72468 26.9763 5.3821C27.3148 5.03929 27.6245 4.66925 27.9022 4.27572C28.4754 3.46977 28.902 2.56936 29.1625 1.61571C29.1925 1.59645 29.2182 1.57504 29.2461 1.55364L29.2804 1.52582C29.3039 1.50442 29.3275 1.48302 29.3489 1.45948C29.3704 1.43594 29.3489 1.45949 29.3597 1.44879C29.3982 1.40421 29.4327 1.35621 29.4625 1.3054H30.3499C30.4636 1.3054 30.5726 1.26031 30.653 1.18005C30.7334 1.09978 30.7786 0.990917 30.7786 0.877404C30.7786 0.763892 30.7334 0.655028 30.653 0.574763C30.5726 0.494497 30.4636 0.449405 30.3499 0.449405H29.4926C29.4926 0.436565 29.4775 0.425864 29.4711 0.415164L29.4433 0.376646C29.4168 0.337474 29.3867 0.300925 29.3532 0.267504L29.3361 0.250387C29.3046 0.221612 29.2717 0.194468 29.2375 0.169066L29.2053 0.147664C29.1634 0.119959 29.1189 0.0963119 29.0725 0.0770441C29.0271 0.05956 28.9805 0.0452593 28.9331 0.0342448H28.8967C28.8446 0.0231568 28.7914 0.0174199 28.7381 0.0171244C28.6863 0.0177606 28.6347 0.0227734 28.5838 0.0321059L28.5409 0.0428066C28.4983 0.0514151 28.4566 0.0643197 28.4166 0.081325L28.3844 0.0941644C28.3458 0.111173 28.3085 0.131209 28.273 0.154084L28.2258 0.186186C28.2008 0.204433 28.1772 0.224458 28.1551 0.246106C28.1316 0.265316 28.11 0.286823 28.0908 0.310306C28.0711 0.331437 28.0525 0.35358 28.0351 0.376646L27.9922 0.440843C27.9922 0.440843 27.9922 0.451542 27.9815 0.460102H25.5145C25.4385 0.325642 25.3281 0.213757 25.1946 0.135899C25.0611 0.0580416 24.9093 0.0170101 24.7547 0.0170101C24.6001 0.0170101 24.4482 0.0580416 24.3147 0.135899C24.1812 0.213757 24.0708 0.325642 23.9949 0.460102H21.5493C21.4733 0.325642 21.3629 0.213757 21.2294 0.135899C21.0959 0.0580416 20.9441 0.0170101 20.7895 0.0170101C20.6348 0.0170101 20.483 0.0580416 20.3495 0.135899C20.216 0.213757 20.1056 0.325642 20.0296 0.460102H17.5819C17.5057 0.32569 17.3951 0.213889 17.2614 0.136102C17.1277 0.0583141 16.9758 0.0173268 16.821 0.0173268C16.6663 0.0173268 16.5144 0.0583141 16.3807 0.136102C16.247 0.213889 16.1364 0.32569 16.0602 0.460102H13.6124C13.5331 0.3192 13.416 0.203137 13.2743 0.124901C13.1326 0.0466654 12.9719 0.00934728 12.8102 0.0171211C12.6484 0.024895 12.4921 0.0774545 12.3586 0.168919C12.2251 0.260383 12.1197 0.38714 12.0542 0.535003C11.73 0.625436 11.4347 0.797924 11.1969 1.03576L7.21024 5.01616L1.56035 10.6572C1.45537 10.6152 1.34338 10.5934 1.23028 10.593C0.998349 10.593 0.77592 10.685 0.611922 10.8487C0.447923 11.0125 0.355789 11.2345 0.355789 11.4661C0.355789 11.6977 0.447923 11.9198 0.611922 12.0835C0.77592 12.2472 0.998349 12.3392 1.23028 12.3392L1.22814 12.3264ZM11.872 11.2072H13.531L12.9609 13.4649H11.3019L11.872 11.2072ZM9.07067 11.2072H10.7275L10.1573 13.4649H8.49839L9.07067 11.2072ZM11.4284 7.99717H11.9835V9.18273H11.4284V7.99717ZM13.4624 2.86118L13.8632 2.461C13.9185 2.53677 13.9794 2.60831 14.0454 2.675L14.5234 3.15222L13.9447 3.73002C13.7696 3.44935 13.6114 3.15851 13.471 2.85904L13.4624 2.86118ZM14.1933 4.08954L14.8363 3.44754L15.5222 4.13234L14.8149 4.83854C14.5952 4.60103 14.3905 4.35017 14.2019 4.0874L14.1933 4.08954ZM25.433 4.13876L24.745 4.8257L24.0591 4.13876L24.745 3.45396L25.433 4.13876ZM25.0515 3.14794L25.7503 2.4503C25.8079 2.52607 25.8709 2.59758 25.9389 2.6643L26.4233 3.15008L25.7374 3.83488L25.0515 3.14794ZM24.4407 5.12958L23.7548 5.81438L23.0668 5.12958L23.7548 4.44478L24.4407 5.12958ZM23.7548 3.83488L23.0689 3.15008L23.5533 2.6643C23.6212 2.59811 23.6835 2.52654 23.7398 2.4503L24.4407 3.14794L23.7548 3.83488ZM23.4483 4.13876L22.7624 4.82356L22.0765 4.13876L22.7624 3.45396L23.4483 4.13876ZM22.4559 5.12958L21.77 5.81438L21.0842 5.12958L21.77 4.44478L22.4559 5.12958ZM20.7798 4.82356L20.0939 4.13876L20.7798 3.45396L21.4657 4.13876L20.7798 4.82356ZM20.4905 5.12744L19.8046 5.81224L19.1187 5.12744L19.8046 4.44264L20.4905 5.12744ZM19.8046 3.83274L19.1187 3.14794L19.6053 2.66216C19.6719 2.59486 19.7342 2.52338 19.7917 2.44816L20.4905 3.1458L19.8046 3.83274ZM19.5002 4.13662L18.8144 4.82142L18.1285 4.13662L18.8144 3.45182L19.5002 4.13662ZM18.5079 5.12744L17.822 5.81224L17.1361 5.12744L17.822 4.44264L18.5079 5.12744ZM17.822 3.83274L17.1361 3.1458L17.8348 2.44816C17.8925 2.52392 17.9555 2.59544 18.0235 2.66216L18.5079 3.14794L17.822 3.83274ZM17.5176 4.13662L16.8296 4.82142L16.1437 4.13662L16.8296 3.45182L17.5176 4.13662ZM15.8394 3.83274L15.1514 3.14794L15.6379 2.66216C15.7046 2.59486 15.7668 2.52338 15.8244 2.44816L16.5253 3.1458L15.8394 3.83274ZM15.1256 5.15312L15.8394 4.44264L16.5253 5.12744L15.8587 5.79298C15.5988 5.59478 15.3512 5.38111 15.1171 5.15312H15.1256ZM16.2102 6.05192L16.8296 5.43132L17.5176 6.11826L17.0654 6.56766C16.7686 6.41229 16.4809 6.24009 16.2038 6.05192H16.2102ZM18.4714 7.14332C18.1313 7.04042 17.7984 6.91531 17.4748 6.76882L17.822 6.42214L18.5079 7.10693L18.4714 7.14332ZM18.1285 6.11826L18.8144 5.43132L19.5002 6.11612L18.8122 6.80092L18.1285 6.11826ZM20.1304 7.46646C19.8772 7.44571 19.6254 7.41142 19.3759 7.36374L19.1187 7.10693L19.8046 6.42214L20.4905 7.10693L20.1304 7.46646ZM20.797 6.80092L20.1111 6.11612L20.797 5.43132L21.4828 6.11612L20.797 6.80092ZM22.1837 7.39583C21.9458 7.43435 21.7079 7.46218 21.4743 7.47716L21.1013 7.10693L21.7872 6.42214L22.4752 7.10693L22.1837 7.39583ZM22.0937 6.11184L22.7796 5.42704L23.4654 6.11398L22.7796 6.79878L22.0937 6.11184ZM23.1547 7.18183L23.0861 7.11122L23.7719 6.42642L24.1556 6.8159C23.8276 6.95891 23.4903 7.07974 23.1461 7.17756L23.1547 7.18183ZM24.5778 6.6233L24.0763 6.12254L24.7622 5.4356L25.4416 6.11398C25.1594 6.30018 24.8659 6.46885 24.5628 6.61901L24.5778 6.6233ZM25.7996 5.86146L25.0687 5.13172L25.7545 4.44692L26.5412 5.2323C26.3032 5.45462 26.0527 5.66325 25.791 5.85718L25.7996 5.86146ZM26.8455 4.92628L26.0632 4.13662L26.7491 3.45182L27.4714 4.173C27.2746 4.43475 27.0628 4.68484 26.8369 4.922L26.8455 4.92628ZM27.7136 3.8199L27.0427 3.15222L27.5207 2.675C27.5873 2.60826 27.6489 2.53674 27.705 2.461L28.2065 2.9639C28.0591 3.25858 27.8945 3.5444 27.7136 3.8199ZM28.3994 2.5359L27.9343 2.07152C27.9842 1.96401 28.0243 1.85229 28.0544 1.73768L28.1187 1.50014C28.2728 1.64858 28.4769 1.73408 28.6909 1.73982C28.6075 2.01 28.5102 2.27571 28.3994 2.5359ZM27.7243 1.29898L27.6364 1.62855C27.561 1.90549 27.413 2.15737 27.2077 2.35829L26.7298 2.8355L26.2432 2.35187C26.0367 2.14772 25.8886 1.89204 25.8146 1.61142L25.7331 1.29898H27.7243ZM24.0977 1.72698L24.1556 1.51298C24.3181 1.6654 24.5327 1.75025 24.7557 1.75025C24.9787 1.75025 25.1933 1.6654 25.3559 1.51298L25.4116 1.72698C25.442 1.84288 25.4821 1.95599 25.5316 2.0651L24.7536 2.84192L23.9756 2.0651C24.027 1.95656 24.0679 1.84334 24.0977 1.72698ZM23.7612 1.29898L23.6798 1.61356C23.6047 1.89313 23.4568 2.14787 23.2511 2.35187L22.7646 2.8355L21.9672 2.03942L21.7765 1.29898H23.7612ZM21.7786 2.45458L22.4666 3.14152L21.7786 3.82632L21.0927 3.13938L21.7786 2.45458ZM20.1304 1.72056L20.1883 1.50656C20.3508 1.65898 20.5654 1.74383 20.7884 1.74383C21.0114 1.74383 21.226 1.65898 21.3885 1.50656L21.5386 2.08864L20.7884 2.83978L20.0104 2.06296C20.0601 1.95467 20.1002 1.84225 20.1304 1.72698V1.72056ZM19.796 1.29256L19.7124 1.60714C19.6382 1.88707 19.4902 2.14202 19.2838 2.34544L18.7994 2.82908L18.3128 2.34544C18.1071 2.14144 17.9592 1.88672 17.8841 1.60714L17.8027 1.29256H19.796ZM16.1652 1.72056L16.2209 1.50656C16.3834 1.65898 16.5981 1.74383 16.821 1.74383C17.044 1.74383 17.2586 1.65898 17.4212 1.50656L17.479 1.72056C17.5091 1.83656 17.5492 1.9497 17.5991 2.05868L16.821 2.8355L16.043 2.05868C16.0938 1.95209 16.1347 1.84105 16.1652 1.72698V1.72056ZM15.8287 1.29256L15.7472 1.605C15.6738 1.8859 15.5257 2.14175 15.3185 2.34544L14.8342 2.82908L14.3562 2.35187C14.1514 2.15142 14.0035 1.90036 13.9275 1.62426L13.8375 1.29256H15.8287ZM13.4581 1.49158L13.5224 1.73555C13.5528 1.84866 13.593 1.95892 13.6424 2.0651L13.2824 2.42462C13.1859 2.19136 13.1023 1.95597 13.0273 1.71629C13.1879 1.6873 13.3372 1.61389 13.4581 1.50442V1.49158Z" fill="#4FC2E2"/>
</svg>
